<svg xmlns="http://www.w3.org/2000/svg" style="display:none">
  <!-- Icon 1 -->
  <symbol id="icon-alert" viewBox="0 0 64 64">
    <path d="M32 6C17.6637 6 6 17.6637 6 32C6 46.3363 17.6637 58 32 58C46.3363 58 58 46.3363 58 32C58 17.6637 46.3363 6 32 6ZM32 45.9888C31.5055 45.9888 31.0222 45.8421 30.6111 45.5674C30.2 45.2927 29.8795 44.9023 29.6903 44.4455C29.5011 43.9886 29.4516 43.486 29.548 43.001C29.6445 42.5161 29.8826 42.0706 30.2322 41.721C30.5819 41.3713 31.0273 41.1332 31.5123 41.0368C31.9972 40.9403 32.4999 40.9898 32.9567 41.1791C33.4135 41.3683 33.804 41.6887 34.0787 42.0998C34.3534 42.5109 34.5 42.9943 34.5 43.4888C34.5 44.1518 34.2366 44.7877 33.7678 45.2565C33.2989 45.7254 32.663 45.9888 32 45.9888ZM34.715 20.845L33.9975 36.095C33.9975 36.6254 33.7868 37.1341 33.4117 37.5092C33.0366 37.8843 32.5279 38.095 31.9975 38.095C31.4671 38.095 30.9584 37.8843 30.5833 37.5092C30.2082 37.1341 29.9975 36.6254 29.9975 36.095L29.28 20.8525V20.8463C29.2643 20.4799 29.3229 20.1142 29.4522 19.7711C29.5816 19.428 29.779 19.1146 30.0327 18.8498C30.2863 18.585 30.591 18.3743 30.9282 18.2304C31.2654 18.0864 31.6283 18.0122 31.995 18.0122C32.3617 18.0122 32.7246 18.0864 33.0618 18.2304C33.399 18.3743 33.7037 18.585 33.9573 18.8498C34.211 19.1146 34.4084 19.428 34.5378 19.7711C34.6671 20.1142 34.7257 20.4799 34.71 20.8463L34.715 20.845Z" fill="currentColor"/>
  </symbol>

  <!-- Icon 2 -->
  <symbol id="icon-fire" viewBox="0 0 64 64">
    <path d="M54.1001 26.43C52.1601 25.3275 49.7364 26.145 48.6864 28.14L43.5139 38.6912C43.4169 38.891 43.2477 39.0464 43.0404 39.126C42.8331 39.2057 42.6034 39.2035 42.3976 39.12C42.2346 39.0551 42.0949 38.9427 41.9966 38.7973C41.8983 38.652 41.8459 38.4805 41.8464 38.305V9C41.8464 7.26125 40.2401 6 38.5001 6C36.7601 6 35.2501 7.26125 35.2501 9V28.58C35.2543 28.9457 35.1158 29.2986 34.8639 29.5637C34.6121 29.8289 34.2668 29.9854 33.9014 30C33.7186 30.0035 33.537 29.9705 33.3671 29.903C33.1973 29.8354 33.0426 29.7347 32.9121 29.6067C32.7816 29.4786 32.678 29.3259 32.6072 29.1573C32.5365 28.9888 32.5001 28.8078 32.5001 28.625V3C32.5001 1.26125 31.1326 0 29.3926 0C27.6526 0 26.2501 1.26125 26.2501 3V28.58C26.2543 28.9457 26.1158 29.2986 25.8639 29.5637C25.6121 29.8289 25.2668 29.9854 24.9014 30C24.7186 30.0035 24.537 29.9705 24.3671 29.903C24.1973 29.8354 24.0426 29.7347 23.9121 29.6067C23.7816 29.4786 23.678 29.3259 23.6072 29.1573C23.5365 28.9888 23.5001 28.8078 23.5001 28.625V7C23.5001 5.26125 21.9901 4 20.2501 4C18.5101 4 17.0001 5.38625 17.0001 7.125V30.58C17.0043 30.9457 16.8658 31.2986 16.6139 31.5637C16.3621 31.8289 16.0168 31.9854 15.6514 32C15.4686 32.0035 15.287 31.9705 15.1171 31.903C14.9473 31.8354 14.7926 31.7347 14.6621 31.6067C14.5316 31.4786 14.428 31.3259 14.3572 31.1573C14.2865 30.9888 14.2501 30.8078 14.2501 30.625V15C14.2501 13.2612 12.8651 12 11.1251 12C9.38512 12 7.98512 13.2775 8.00012 15V42C8.00012 56.6763 17.0001 64 28.0001 64H30.0001C41.0001 64 44.4639 59.05 47.0001 53L55.5889 31.875C56.4164 29.625 56.0389 27.5312 54.1001 26.43Z" fill="currentColor"/>
  </symbol>

  <!-- Icon 3 -->
  <symbol id="icon-shield" viewBox="0 0 64 64">
    <path d="M52.2302 56C51.9665 56 51.7054 55.9479 51.4619 55.8467C51.2185 55.7454 50.9974 55.597 50.8115 55.41L5.08149 9.40999C4.70753 9.03372 4.49837 8.5243 4.50001 7.99381C4.50165 7.46331 4.71396 6.9552 5.09024 6.58124C5.46651 6.20729 5.97593 5.99812 6.50642 5.99977C7.03692 6.00141 7.54503 6.21372 7.91899 6.58999L53.6477 52.59C53.9262 52.8701 54.1155 53.2264 54.1917 53.614C54.268 54.0015 54.2277 54.403 54.0761 54.7677C53.9245 55.1324 53.6683 55.4441 53.3398 55.6634C53.0113 55.8827 52.6252 55.9998 52.2302 56ZM45.6152 9.99999C40.104 9.99999 36.289 13.1025 34.0665 15.6875C33.9961 15.7686 33.9091 15.8336 33.8114 15.8781C33.7137 15.9226 33.6076 15.9457 33.5002 15.9457C33.3929 15.9457 33.2868 15.9226 33.1891 15.8781C33.0914 15.8336 33.0044 15.7686 32.934 15.6875C30.7115 13.1025 26.8952 9.99999 21.3852 9.99999C20.0728 9.99929 18.7673 10.1905 17.5102 10.5675L51.1515 44.405C51.5265 43.975 51.864 43.575 52.169 43.205C57.169 37.1112 59.5627 30.8562 59.4952 24.08C59.4215 16.3162 53.1927 9.99999 45.6152 9.99999ZM8.62524 18.6437C7.90076 20.3656 7.51864 22.212 7.50024 24.08C7.43274 30.8562 9.82899 37.1112 14.8265 43.205C17.1727 46.0637 21.4265 50.6362 31.2502 57.305C31.913 57.7584 32.6972 58.001 33.5002 58.001C34.3032 58.001 35.0875 57.7584 35.7502 57.305C38.294 55.5775 40.4627 53.9925 42.3227 52.54L8.62524 18.6437Z" fill="currentColor"/>
  </symbol>
</svg>
