<svg width="16" height="14" viewBox="0 0 16 14" fill="none" xmlns="http://www.w3.org/2000/svg">
<path d="M7.59849 4.09291C7.92783 2.44596 6.99836 0.849375 5.4259 0.259087C3.93097 -0.302155 2.49554 0.0955843 1.54476 0.998819L1.54382 0.99671C1.53749 1.0028 1.53257 1.0096 1.52625 1.01569C1.41826 1.11969 1.3159 1.22931 1.2215 1.34597C-2.03961 5.20463 1.83287 12.0414 5.7611 13.3579C5.91429 13.4092 6.03844 13.2262 5.93046 13.1063C5.36992 12.4839 4.3409 11.1881 3.85484 9.59829C3.49716 8.42825 3.93191 7.33411 5.00872 6.75296C5.9335 6.25356 7.25322 5.81974 7.59849 4.09291Z" fill="#1FB4FF"/>
<path d="M15.9344 4.09291C16.2638 2.44596 15.3343 0.849375 13.7618 0.259087C12.2669 -0.302155 10.8315 0.0955843 9.88069 0.998819L9.87976 0.99671C9.87343 1.0028 9.86851 1.0096 9.86219 1.01569C9.7542 1.11969 9.65184 1.22931 9.55744 1.34597C6.29633 5.20463 10.1688 12.0414 14.097 13.3579C14.2502 13.4092 14.3744 13.2262 14.2664 13.1063C13.7059 12.4839 12.6768 11.1881 12.1905 9.59829C11.8329 8.42825 12.2676 7.33411 13.3444 6.75296C14.2697 6.25356 15.5892 5.81974 15.9344 4.09291Z" fill="#1FB4FF"/>
</svg>
