<svg width="32" height="24" viewBox="0 0 32 24" fill="none" xmlns="http://www.w3.org/2000/svg">
<g clip-path="url(#clip0_39990_256)">
<path d="M0 0H32V24H0V0Z" fill="white"/>
<path d="M13.3 2.66504H32V5.33504H13.3V2.66504ZM13.3 8.00004H32V10.665H13.3V8.00004ZM0 13.335H32V16H0V13.335ZM0 18.665H32V21.335H0V18.665Z" fill="#0038A8"/>
<path d="M6.37107 7.97021L6.81107 8.63021C4.99241 9.95021 6.0924 10.7129 4.81641 11.1235C5.60841 10.3609 4.68441 10.2875 5.35907 8.65955" fill="#FCD116"/>
<path d="M6.37107 7.97021L6.81107 8.63021C4.99241 9.95021 6.0924 10.7129 4.81641 11.1235C5.60841 10.3609 4.68441 10.2875 5.35907 8.65955" stroke="black" stroke-width="0.22" stroke-miterlimit="20" stroke-linecap="square"/>
<path d="M6.0484 8.16113C5.05107 9.8038 5.69641 10.7131 4.81641 11.1385" stroke="black" stroke-width="0.22" stroke-miterlimit="20"/>
<path d="M6.66516 6.66504H7.54515L6.66516 11.505L5.78516 6.66504H6.66516V11.505V6.66504Z" fill="#FCD116"/>
<path d="M6.66516 6.66504H7.54515L6.66516 11.505M6.66516 6.66504H5.78516L6.66516 11.505M6.66516 6.66504V11.505" stroke="black" stroke-width="0.22" stroke-miterlimit="20"/>
<path d="M5.53291 7.38056L5.37734 8.15838C3.15797 7.80577 3.39651 9.12287 2.20385 8.51099C3.30317 8.53173 2.70166 7.82651 4.32988 7.1524" fill="#FCD116"/>
<path d="M5.53291 7.38056L5.37734 8.15838C3.15797 7.80577 3.3965 9.12287 2.20385 8.51099C3.30317 8.53173 2.70166 7.82651 4.32988 7.1524" stroke="black" stroke-width="0.22" stroke-miterlimit="20" stroke-linecap="square"/>
<path d="M5.16998 7.28717C3.30322 7.74349 3.11655 8.8428 2.19354 8.52131" stroke="black" stroke-width="0.22" stroke-miterlimit="20"/>
<path d="M6.66327 6.66522L7.28552 7.28748L3.24088 10.0876L6.04102 6.04297L6.66327 6.66522L3.24088 10.0876L6.66327 6.66522Z" fill="#FCD116"/>
<path d="M6.66327 6.66522L7.28552 7.28748L3.24088 10.0876M6.66327 6.66522L6.04102 6.04297L3.24088 10.0876M6.66327 6.66522L3.24088 10.0876" stroke="black" stroke-width="0.22" stroke-miterlimit="20"/>
<path d="M5.35938 6.37205L4.69938 6.81205C3.37938 4.99338 2.61671 6.09338 2.20605 4.81738C2.96871 5.60938 3.04204 4.68538 4.67004 5.36005" fill="#FCD116"/>
<path d="M5.35938 6.37205L4.69938 6.81205C3.37938 4.99338 2.61671 6.09338 2.20605 4.81738C2.96871 5.60938 3.04204 4.68538 4.67004 5.36005" stroke="black" stroke-width="0.22" stroke-miterlimit="20" stroke-linecap="square"/>
<path d="M5.16797 6.04938C3.5253 5.05205 2.61597 5.69738 2.19064 4.81738" stroke="black" stroke-width="0.22" stroke-miterlimit="20"/>
<path d="M6.66406 6.66516V7.54515L1.82407 6.66516L6.66406 5.78516V6.66516H1.82407H6.66406Z" fill="#FCD116"/>
<path d="M6.66406 6.66516V7.54515L1.82407 6.66516M6.66406 6.66516V5.78516L1.82407 6.66516M6.66406 6.66516H1.82407" stroke="black" stroke-width="0.22" stroke-miterlimit="20"/>
<path d="M5.94756 5.53486L5.16974 5.3793C5.52235 3.15993 4.20525 3.39846 4.81713 2.20581C4.79639 3.30512 5.50161 2.70361 6.17572 4.33184" fill="#FCD116"/>
<path d="M5.94756 5.53486L5.16974 5.3793C5.52235 3.15993 4.20525 3.39846 4.81713 2.20581C4.79639 3.30512 5.50161 2.70361 6.17572 4.33184" stroke="black" stroke-width="0.22" stroke-miterlimit="20" stroke-linecap="square"/>
<path d="M6.04095 5.17194C5.58464 3.30518 4.48532 3.1185 4.80682 2.19549" stroke="black" stroke-width="0.22" stroke-miterlimit="20"/>
<path d="M6.66486 6.66522L6.0426 7.28748L3.24246 3.24283L7.28711 6.04297L6.66486 6.66522L3.24246 3.24283L6.66486 6.66522Z" fill="#FCD116"/>
<path d="M6.66486 6.66522L6.0426 7.28748L3.24246 3.24283M6.66486 6.66522L7.28711 6.04297L3.24246 3.24283M6.66486 6.66522L3.24246 3.24283" stroke="black" stroke-width="0.22" stroke-miterlimit="20"/>
<path d="M6.95705 5.36035L6.51705 4.70035C8.33572 3.38035 7.23572 2.61769 8.51172 2.20702C7.71972 2.96969 8.64372 3.04302 7.96905 4.67102" fill="#FCD116"/>
<path d="M6.95705 5.36035L6.51705 4.70035C8.33572 3.38035 7.23572 2.61769 8.51172 2.20702C7.71972 2.96969 8.64372 3.04302 7.96905 4.67102" stroke="black" stroke-width="0.22" stroke-miterlimit="20" stroke-linecap="square"/>
<path d="M7.27972 5.16943C8.27705 3.52677 7.63172 2.61744 8.51172 2.1921" stroke="black" stroke-width="0.22" stroke-miterlimit="20"/>
<path d="M6.66297 6.66553H5.78297L6.66297 1.82553L7.54297 6.66553H6.66297V1.82553V6.66553Z" fill="#FCD116"/>
<path d="M6.66297 6.66553H5.78297L6.66297 1.82553M6.66297 6.66553H7.54297L6.66297 1.82553M6.66297 6.66553V1.82553" stroke="black" stroke-width="0.22" stroke-miterlimit="20"/>
<path d="M7.79522 5.95L7.95078 5.17219C10.1702 5.5248 9.93162 4.20769 11.1243 4.81958C10.025 4.79883 10.6265 5.50405 8.99824 6.17816" fill="#FCD116"/>
<path d="M7.79522 5.95L7.95078 5.17219C10.1702 5.5248 9.93162 4.20769 11.1243 4.81958C10.025 4.79883 10.6265 5.50405 8.99824 6.17816" stroke="black" stroke-width="0.22" stroke-miterlimit="20" stroke-linecap="square"/>
<path d="M8.15814 6.0434C10.0249 5.58708 10.2116 4.48776 11.1346 4.80926" stroke="black" stroke-width="0.22" stroke-miterlimit="20"/>
<path d="M6.66486 6.66534L6.0426 6.04309L10.0872 3.24295L7.28711 7.2876L6.66486 6.66534L10.0872 3.24295L6.66486 6.66534Z" fill="#FCD116"/>
<path d="M6.66486 6.66534L6.0426 6.04309L10.0872 3.24295M6.66486 6.66534L7.28711 7.2876L10.0872 3.24295M6.66486 6.66534L10.0872 3.24295" stroke="black" stroke-width="0.22" stroke-miterlimit="20"/>
<path d="M7.96875 6.95852L8.62875 6.51852C9.94875 8.33718 10.7114 7.23719 11.1221 8.51318C10.3594 7.72118 10.2861 8.64518 8.65808 7.97052" fill="#FCD116"/>
<path d="M7.96875 6.95852L8.62875 6.51852C9.94875 8.33718 10.7114 7.23719 11.1221 8.51318C10.3594 7.72118 10.2861 8.64518 8.65808 7.97052" stroke="black" stroke-width="0.22" stroke-miterlimit="20" stroke-linecap="square"/>
<path d="M8.16016 7.28118C9.80282 8.27852 10.7122 7.63318 11.1375 8.51318" stroke="black" stroke-width="0.22" stroke-miterlimit="20"/>
<path d="M6.66406 6.66541V5.78541L11.5041 6.66541L6.66406 7.54541V6.66541H11.5041H6.66406Z" fill="#FCD116"/>
<path d="M6.66406 6.66541V5.78541L11.5041 6.66541M6.66406 6.66541V7.54541L11.5041 6.66541M6.66406 6.66541H11.5041" stroke="black" stroke-width="0.22" stroke-miterlimit="20"/>
<path d="M7.38056 7.79571L8.15838 7.95127C7.80577 10.1706 9.12287 9.93211 8.51099 11.1248C8.53173 10.0254 7.82651 10.627 7.1524 8.99873" fill="#FCD116"/>
<path d="M7.38056 7.79571L8.15838 7.95127C7.80577 10.1706 9.12287 9.93211 8.51099 11.1248C8.53173 10.0254 7.82651 10.627 7.1524 8.99873" stroke="black" stroke-width="0.22" stroke-miterlimit="20" stroke-linecap="square"/>
<path d="M7.28717 8.15863C7.74349 10.0254 8.8428 10.2121 8.52131 11.1351" stroke="black" stroke-width="0.22" stroke-miterlimit="20"/>
<path d="M6.66327 6.66534L7.28552 6.04309L10.0857 10.0877L6.04102 7.2876L6.66327 6.66534L10.0857 10.0877L6.66327 6.66534Z" fill="#FCD116"/>
<path d="M6.66327 6.66534L7.28552 6.04309L10.0857 10.0877M6.66327 6.66534L6.04102 7.2876L10.0857 10.0877M6.66327 6.66534L10.0857 10.0877" stroke="black" stroke-width="0.22" stroke-miterlimit="20"/>
<path d="M6.66411 8.27842C7.55513 8.27842 8.27744 7.55611 8.27744 6.66509C8.27744 5.77407 7.55513 5.05176 6.66411 5.05176C5.77309 5.05176 5.05078 5.77407 5.05078 6.66509C5.05078 7.55611 5.77309 8.27842 6.66411 8.27842Z" fill="#FCD116" stroke="black" stroke-width="0.22" stroke-miterlimit="20"/>
<path d="M7.85228 6.0196C7.74962 6.13693 7.69095 5.9316 7.32429 5.9316C6.95763 5.9316 6.89896 6.1516 6.8403 6.1076C6.78163 6.0636 7.14829 5.7996 7.26562 5.78493C7.38296 5.77027 7.72028 5.8876 7.85228 6.0196ZM7.42695 6.1516C7.52962 6.2396 7.44162 6.43026 7.33896 6.43026C7.23629 6.43026 7.04563 6.25426 7.13363 6.13693" fill="black"/>
<path d="M6.94336 6.28346C6.95803 6.10746 7.10469 6.07812 7.33935 6.07812C7.57402 6.07812 7.67668 6.25412 7.76468 6.29812C7.66202 6.29812 7.57402 6.15146 7.33935 6.15146C7.10469 6.15146 7.10469 6.15146 6.94336 6.29812M6.98736 6.32746C7.04602 6.23946 7.11936 6.41545 7.28069 6.41545C7.44202 6.41545 7.53002 6.37145 7.63268 6.29812C7.73535 6.22479 7.48602 6.47412 7.32469 6.47412C7.16336 6.47412 6.94336 6.38612 6.98736 6.32746Z" fill="black"/>
<path d="M7.48645 6.41538C7.67712 6.31272 7.55979 6.16605 7.48645 6.13672C7.51579 6.16605 7.63312 6.31272 7.48645 6.41538ZM6.66513 7.29537C6.75313 7.29537 6.78246 7.26604 6.89979 7.26604C7.01713 7.26604 7.29579 7.42737 7.45712 7.3687C7.11979 7.5007 7.25179 7.4127 6.66513 7.4127H6.5918M7.51579 7.5007C7.45712 7.39804 7.47179 7.42737 7.35445 7.26604C7.47179 7.35404 7.50112 7.39804 7.51579 7.5007ZM6.66513 7.64737C7.03179 7.64737 6.97313 7.57404 7.45712 7.3687C7.10512 7.4127 7.03179 7.53004 6.66513 7.53004H6.5918M6.66513 7.10471C6.76779 7.10471 6.79713 7.03138 6.91446 7.03138C7.03179 7.03138 7.19312 7.07537 7.26646 7.13404C7.28112 7.14871 7.22246 7.01671 7.10512 7.00204C6.98779 6.98738 7.03179 6.79671 6.89979 6.76738C6.89979 6.82604 6.94379 6.81138 6.95846 6.89938C6.95846 6.97271 6.82646 6.97271 6.79713 6.89938C6.82646 7.01671 6.73846 7.01671 6.66513 7.01671" fill="black"/>
<path d="M5.47779 6.0196C5.58046 6.13693 5.63913 5.9316 6.00579 5.9316C6.37245 5.9316 6.43112 6.1516 6.48978 6.1076C6.54845 6.0636 6.18179 5.7996 6.06445 5.78493C5.94712 5.77027 5.60979 5.8876 5.47779 6.0196ZM5.90312 6.1516C5.80046 6.2396 5.88846 6.43026 5.99112 6.43026C6.09379 6.43026 6.28445 6.25426 6.19645 6.13693" fill="black"/>
<path d="M6.38672 6.28346C6.37205 6.10746 6.22539 6.07812 5.99072 6.07812C5.75606 6.07812 5.65339 6.25412 5.56539 6.29812C5.66806 6.29812 5.75606 6.15146 5.99072 6.15146C6.22539 6.15146 6.22539 6.15146 6.38672 6.29812M6.34272 6.32746C6.28405 6.23946 6.21072 6.41545 6.04939 6.41545C5.88806 6.41545 5.80006 6.37145 5.69739 6.29812C5.59473 6.22479 5.84406 6.47412 6.00539 6.47412C6.16672 6.47412 6.38672 6.38612 6.34272 6.32746Z" fill="black"/>
<path d="M5.84362 6.41538C5.65296 6.31272 5.77029 6.16605 5.84362 6.13672C5.81429 6.16605 5.69696 6.31272 5.84362 6.41538ZM6.66495 7.29537C6.57695 7.29537 6.54762 7.26604 6.43028 7.26604C6.31295 7.26604 6.03429 7.42737 5.87296 7.3687C6.21029 7.5007 6.07829 7.4127 6.66495 7.4127H6.73828M5.81429 7.5007C5.87296 7.39804 5.85829 7.42737 5.97562 7.26604C5.85829 7.35404 5.82896 7.39804 5.81429 7.5007ZM6.66495 7.64737C6.29829 7.64737 6.35695 7.57404 5.87296 7.3687C6.22495 7.4127 6.29829 7.53004 6.66495 7.53004H6.73828M6.66495 7.10471C6.56228 7.10471 6.53295 7.03138 6.41562 7.03138C6.29829 7.03138 6.13695 7.07537 6.06362 7.13404C6.04896 7.14871 6.10762 7.01671 6.22495 7.00204C6.34229 6.98738 6.29829 6.79671 6.43028 6.76738C6.43028 6.82604 6.38629 6.81138 6.37162 6.89938C6.37162 6.97271 6.50362 6.97271 6.53295 6.89938C6.50362 7.01671 6.59162 7.01671 6.66495 7.01671" fill="black"/>
<path d="M6.66468 7.77979C6.59135 7.77979 6.40069 7.82378 6.66468 7.82378C6.92868 7.82378 6.73802 7.77979 6.66468 7.77979Z" fill="black"/>
</g>
<defs>
<clipPath id="clip0_39990_256">
<rect width="32" height="24" rx="4" fill="white"/>
</clipPath>
</defs>
</svg>
