<svg xmlns="http://www.w3.org/2000/svg" xmlns:xlink="http://www.w3.org/1999/xlink"
    style="display:none">
    <symbol id="icon-75" viewBox="0 0 107 71">
        <path
            d="M4.77308 69.8184L34.4663 11.0456V10.5684H0.000355244V0.000175476H47.5572V10.807L17.8981 69.8184H4.77308ZM81.8952 70.7729C77.3498 70.7729 73.2816 69.9206 69.6907 68.2161C66.0998 66.4888 63.2475 64.1252 61.1339 61.1252C59.043 58.1252 57.9293 54.6934 57.793 50.8297H70.0657C70.293 53.6934 71.5316 56.0343 73.7816 57.8524C76.0316 59.6479 78.7362 60.5456 81.8952 60.5456C84.3725 60.5456 86.5771 59.9774 88.5089 58.8411C90.4407 57.7047 91.9634 56.1252 93.0771 54.1024C94.1907 52.0797 94.7362 49.7729 94.7134 47.182C94.7362 44.5456 94.1793 42.2047 93.043 40.1593C91.9066 38.1138 90.3498 36.5115 88.3725 35.3524C86.3952 34.1706 84.1225 33.5797 81.5543 33.5797C79.4634 33.557 77.4066 33.9434 75.3839 34.7388C73.3612 35.5343 71.7589 36.5797 70.5771 37.8752L59.1566 36.0002L62.8043 0.000175476H103.304V10.5684H73.2702L71.2589 29.0797H71.668C72.9634 27.557 74.793 26.2956 77.1566 25.2956C79.5202 24.2729 82.1112 23.7615 84.9293 23.7615C89.1566 23.7615 92.9293 24.7615 96.2475 26.7615C99.5657 28.7388 102.179 31.4661 104.088 34.9434C105.998 38.4206 106.952 42.3979 106.952 46.8752C106.952 51.4888 105.884 55.6024 103.748 59.2161C101.634 62.807 98.6907 65.6365 94.918 67.7047C91.168 69.7502 86.8271 70.7729 81.8952 70.7729Z"
            fill="#1681E5" />
    </symbol>
    <symbol id="icon-80" viewBox="0 0 195 74" fill="none">
        <path
            d="M26.0115 72.7158C20.9433 72.7158 16.4433 71.8635 12.5115 70.159C8.60241 68.4544 5.53422 66.1249 3.30695 63.1703C1.10241 60.193 0.011497 56.818 0.0342243 53.0453C0.011497 50.1135 0.647861 47.4203 1.94332 44.9658C3.23877 42.5112 4.98877 40.4658 7.19332 38.8294C9.42059 37.1703 11.8979 36.1135 14.6251 35.659V35.1817C11.0342 34.3862 8.12513 32.5567 5.89786 29.693C3.69332 26.8067 2.60241 23.4771 2.62513 19.7044C2.60241 16.1135 3.60241 12.909 5.62513 10.0908C7.64786 7.27259 10.4206 5.05668 13.9433 3.44305C17.466 1.80668 21.4888 0.988501 26.0115 0.988501C30.4888 0.988501 34.4774 1.80668 37.9774 3.44305C41.5001 5.05668 44.2729 7.27259 46.2956 10.0908C48.341 12.909 49.3638 16.1135 49.3638 19.7044C49.3638 23.4771 48.2388 26.8067 45.9888 29.693C43.7615 32.5567 40.8865 34.3862 37.3638 35.1817V35.659C40.091 36.1135 42.5456 37.1703 44.7274 38.8294C46.932 40.4658 48.682 42.5112 49.9774 44.9658C51.2956 47.4203 51.9547 50.1135 51.9547 53.0453C51.9547 56.818 50.841 60.193 48.6138 63.1703C46.3865 66.1249 43.3183 68.4544 39.4092 70.159C35.5229 71.8635 31.057 72.7158 26.0115 72.7158ZM26.0115 62.9658C28.6251 62.9658 30.8979 62.5226 32.8297 61.6362C34.7615 60.7271 36.2615 59.4544 37.3297 57.818C38.3979 56.1817 38.9433 54.2953 38.966 52.159C38.9433 49.9317 38.3638 47.9658 37.2274 46.2612C36.1138 44.534 34.5797 43.1817 32.6251 42.2044C30.6933 41.2271 28.4888 40.7385 26.0115 40.7385C23.5115 40.7385 21.2842 41.2271 19.3297 42.2044C17.3751 43.1817 15.8297 44.534 14.6933 46.2612C13.5797 47.9658 13.0342 49.9317 13.057 52.159C13.0342 54.2953 13.557 56.1817 14.6251 57.818C15.6933 59.4317 17.1933 60.693 19.1251 61.6021C21.0797 62.5112 23.3751 62.9658 26.0115 62.9658ZM26.0115 31.159C28.1479 31.159 30.0342 30.7271 31.6706 29.8635C33.3297 28.9999 34.6365 27.7953 35.591 26.2499C36.5456 24.7044 37.0342 22.9203 37.057 20.8976C37.0342 18.8976 36.557 17.1476 35.6251 15.6476C34.6933 14.1249 33.3979 12.9544 31.7388 12.1362C30.0797 11.2953 28.1706 10.8749 26.0115 10.8749C23.807 10.8749 21.8638 11.2953 20.182 12.1362C18.5229 12.9544 17.2274 14.1249 16.2956 15.6476C15.3865 17.1476 14.9433 18.8976 14.966 20.8976C14.9433 22.9203 15.3979 24.7044 16.3297 26.2499C17.2842 27.7726 18.591 28.9771 20.2501 29.8635C21.932 30.7271 23.8524 31.159 26.0115 31.159ZM88.9689 73.0908C83.3552 73.0908 78.5371 71.6703 74.5143 68.8294C70.5143 65.9658 67.4348 61.8408 65.2757 56.4544C63.1393 51.0453 62.0712 44.534 62.0712 36.9203C62.0939 29.3067 63.1734 22.8294 65.3098 17.4885C67.4689 12.1249 70.5484 8.03396 74.5484 5.21578C78.5712 2.39759 83.378 0.988501 88.9689 0.988501C94.5598 0.988501 99.3666 2.39759 103.389 5.21578C107.412 8.03396 110.492 12.1249 112.628 17.4885C114.787 22.8521 115.867 29.3294 115.867 36.9203C115.867 44.5567 114.787 51.0794 112.628 56.4885C110.492 61.8749 107.412 65.9885 103.389 68.8294C99.3893 71.6703 94.5825 73.0908 88.9689 73.0908ZM88.9689 62.4203C93.3325 62.4203 96.7757 60.2726 99.2984 55.9771C101.844 51.659 103.117 45.3067 103.117 36.9203C103.117 31.3749 102.537 26.7158 101.378 22.943C100.219 19.1703 98.5825 16.3294 96.4689 14.4203C94.3552 12.4885 91.8552 11.5226 88.9689 11.5226C84.628 11.5226 81.1962 13.6817 78.6734 17.9999C76.1507 22.2953 74.878 28.6021 74.8552 36.9203C74.8325 42.4885 75.3893 47.1703 76.5257 50.9658C77.6848 54.7612 79.3212 57.6249 81.4348 59.5567C83.5484 61.4658 86.0598 62.4203 88.9689 62.4203ZM164.523 58.6703V54.9885C164.523 52.284 165.091 49.7953 166.227 47.5226C167.386 45.2499 169.068 43.4203 171.273 42.034C173.477 40.6476 176.148 39.9544 179.284 39.9544C182.511 39.9544 185.216 40.6476 187.398 42.034C189.58 43.3976 191.227 45.2158 192.341 47.4885C193.477 49.7612 194.046 52.2612 194.046 54.9885V58.6703C194.046 61.3749 193.477 63.8635 192.341 66.1362C191.205 68.409 189.534 70.2385 187.33 71.6249C185.148 73.0112 182.466 73.7044 179.284 73.7044C176.102 73.7044 173.409 73.0112 171.205 71.6249C169 70.2385 167.33 68.409 166.193 66.1362C165.08 63.8635 164.523 61.3749 164.523 58.6703ZM173.421 54.9885V58.6703C173.421 60.4658 173.852 62.1135 174.716 63.6135C175.58 65.1135 177.102 65.8635 179.284 65.8635C181.489 65.8635 183 65.1249 183.818 63.6476C184.659 62.1476 185.08 60.4885 185.08 58.6703V54.9885C185.08 53.1703 184.682 51.5112 183.886 50.0112C183.091 48.4885 181.557 47.7271 179.284 47.7271C177.148 47.7271 175.636 48.4885 174.75 50.0112C173.864 51.5112 173.421 53.1703 173.421 54.9885ZM129.034 18.7158V15.034C129.034 12.3067 129.614 9.80668 130.773 7.53395C131.932 5.26123 133.614 3.44304 135.818 2.07941C138.023 0.693045 140.693 -0.000137329 143.83 -0.000137329C147.034 -0.000137329 149.727 0.693045 151.909 2.07941C154.114 3.44304 155.773 5.26123 156.886 7.53395C158 9.80668 158.557 12.3067 158.557 15.034V18.7158C158.557 21.443 157.989 23.943 156.852 26.2158C155.739 28.4658 154.08 30.2726 151.875 31.6362C149.671 32.9999 146.989 33.6817 143.83 33.6817C140.625 33.6817 137.921 32.9999 135.716 31.6362C133.534 30.2726 131.875 28.4544 130.739 26.1817C129.602 23.909 129.034 21.4203 129.034 18.7158ZM138 15.034V18.7158C138 20.534 138.421 22.193 139.261 23.693C140.125 25.1703 141.648 25.909 143.83 25.909C146.011 25.909 147.511 25.1703 148.33 23.693C149.171 22.193 149.591 20.534 149.591 18.7158V15.034C149.591 13.2158 149.193 11.5567 148.398 10.0567C147.602 8.53396 146.08 7.77259 143.83 7.77259C141.671 7.77259 140.159 8.53396 139.296 10.0567C138.432 11.5794 138 13.2385 138 15.034ZM132.921 71.7612L180.921 1.94305H189.443L141.443 71.7612H132.921Z"
            fill="#1681E5" />
    </symbol>
    <symbol id="icon-heart-circle" viewBox="0 0 100 100" fill="none">
        <path
            d="M50 9.375C27.5996 9.375 9.375 27.5996 9.375 50C9.375 72.4004 27.5996 90.625 50 90.625C72.4004 90.625 90.625 72.4004 90.625 50C90.625 27.5996 72.4004 9.375 50 9.375ZM64.5879 58.7539C62.7559 60.9883 59.4316 64.5606 51.7559 69.7715C51.2382 70.1259 50.6254 70.3156 49.998 70.3156C49.3707 70.3156 48.7579 70.1259 48.2402 69.7715C40.5645 64.5606 37.2402 60.9824 35.4082 58.7539C31.502 53.9941 29.6309 49.1055 29.6855 43.8125C29.7461 37.7461 34.6113 32.8105 40.5312 32.8105C44.5156 32.8105 47.3672 34.8867 49.1445 36.7969C49.2541 36.9127 49.3861 37.005 49.5325 37.0681C49.6789 37.1312 49.8367 37.1637 49.9961 37.1637C50.1555 37.1637 50.3133 37.1312 50.4597 37.0681C50.6061 37.005 50.7381 36.9127 50.8477 36.7969C52.627 34.8867 55.4766 32.8105 59.4609 32.8105C65.3809 32.8105 70.2461 37.7461 70.3066 43.8125C70.3652 49.1055 68.4922 53.9941 64.5879 58.7539Z"
            fill="#1681E5" />
    </symbol>
    <symbol id="icon-help-buoy" viewBox="0 0 100 100" fill="none">
        <path
            d="M80.9355 19.0644C76.8802 14.969 72.0557 11.7152 66.7392 9.49001C61.4226 7.26479 55.7188 6.11197 49.9553 6.09779C44.1919 6.0836 38.4825 7.20833 33.155 9.40735C27.8276 11.6064 22.9871 14.8364 18.9117 18.9117C14.8364 22.9871 11.6064 27.8276 9.40735 33.155C7.20833 38.4825 6.0836 44.1919 6.09779 49.9553C6.11197 55.7188 7.26479 61.4226 9.49001 66.7392C11.7152 72.0557 14.969 76.8802 19.0644 80.9355C23.1197 85.0309 27.9441 88.2846 33.2607 90.5099C38.5773 92.7351 44.2811 93.8879 50.0445 93.9021C55.808 93.9163 61.5174 92.7915 66.8449 90.5925C72.1723 88.3935 77.0128 85.1635 81.0881 81.0881C85.1635 77.0128 88.3935 72.1723 90.5925 66.8449C92.7915 61.5174 93.9163 55.808 93.9021 50.0445C93.8879 44.2811 92.7351 38.5773 90.5099 33.2607C88.2846 27.9441 85.0309 23.1197 80.9355 19.0644ZM37.5253 50.8163C37.3596 48.28 37.971 45.7533 39.278 43.5734C40.5851 41.3934 42.5256 39.6637 44.841 38.6149C47.1563 37.5661 49.7363 37.248 52.237 37.7032C54.7377 38.1583 57.0402 39.365 58.8376 41.1623C60.6349 42.9596 61.8415 45.2622 62.2967 47.7629C62.7518 50.2636 62.4338 52.8436 61.385 55.1589C60.3362 57.4742 58.6065 59.4148 56.4265 60.7219C54.2465 62.0289 51.7199 62.6403 49.1835 62.4745C46.1576 62.2739 43.3074 60.9812 41.1631 58.8368C39.0187 56.6924 37.726 53.8423 37.5253 50.8163ZM84.4003 37.8007L65.5781 38.9413C65.4493 38.9481 65.3207 38.9234 65.2037 38.8693C65.0866 38.8152 64.9845 38.7333 64.9062 38.6308C63.8923 37.3023 62.7053 36.1154 61.3769 35.1015C61.2744 35.0232 61.1925 34.9211 61.1384 34.804C61.0843 34.6869 61.0596 34.5584 61.0663 34.4296L62.207 15.6074C62.2139 15.4847 62.2498 15.3654 62.3115 15.2591C62.3732 15.1529 62.4592 15.0627 62.5623 14.9959C62.6654 14.9292 62.7829 14.8876 62.9051 14.8748C63.0273 14.8619 63.1508 14.878 63.2656 14.9218C68.2347 16.8147 72.7472 19.7374 76.5065 23.4981C80.2658 27.2588 83.187 31.7723 85.0781 36.7421C85.1219 36.8569 85.138 36.9804 85.1251 37.1026C85.1122 37.2248 85.0707 37.3423 85.0039 37.4454C84.9371 37.5485 84.847 37.6345 84.7407 37.6962C84.6345 37.7579 84.5152 37.7937 84.3925 37.8007H84.4003ZM37.8007 15.6074L38.9413 34.4296C38.9481 34.5584 38.9234 34.6869 38.8693 34.804C38.8152 34.9211 38.7333 35.0232 38.6308 35.1015C37.3023 36.1154 36.1154 37.3023 35.1015 38.6308C35.0232 38.7333 34.9211 38.8152 34.804 38.8693C34.6869 38.9234 34.5584 38.9481 34.4296 38.9413L15.6074 37.8007C15.4847 37.7937 15.3654 37.7579 15.2591 37.6962C15.1529 37.6345 15.0627 37.5485 14.9959 37.4454C14.9292 37.3423 14.8876 37.2248 14.8748 37.1026C14.8619 36.9804 14.878 36.8569 14.9218 36.7421C16.8137 31.7715 19.7361 27.2576 23.4968 23.4968C27.2576 19.7361 31.7715 16.8137 36.7421 14.9218C36.8569 14.878 36.9804 14.8619 37.1026 14.8748C37.2248 14.8876 37.3423 14.9292 37.4454 14.9959C37.5485 15.0627 37.6345 15.1529 37.6962 15.2591C37.7579 15.3654 37.7937 15.4847 37.8007 15.6074ZM15.6074 62.1992L34.4296 61.0585C34.5584 61.0517 34.6869 61.0765 34.804 61.1306C34.9211 61.1847 35.0232 61.2666 35.1015 61.3691C36.1154 62.6975 37.3023 63.8845 38.6308 64.8984C38.7333 64.9767 38.8152 65.0788 38.8693 65.1959C38.9234 65.3129 38.9481 65.4414 38.9413 65.5702L37.8007 84.3925C37.7937 84.5152 37.7579 84.6345 37.6962 84.7407C37.6345 84.847 37.5485 84.9371 37.4454 85.0039C37.3423 85.0707 37.2248 85.1122 37.1026 85.1251C36.9804 85.138 36.8569 85.1219 36.7421 85.0781C31.7715 83.1861 27.2576 80.2638 23.4968 76.503C19.7361 72.7423 16.8137 68.2283 14.9218 63.2577C14.878 63.143 14.8619 63.0194 14.8748 62.8972C14.8876 62.7751 14.9292 62.6576 14.9959 62.5545C15.0627 62.4513 15.1529 62.3654 15.2591 62.3037C15.3654 62.2419 15.4847 62.2061 15.6074 62.1992ZM62.1992 84.3925L61.0585 65.5702C61.0517 65.4414 61.0765 65.3129 61.1306 65.1959C61.1847 65.0788 61.2666 64.9767 61.3691 64.8984C62.6975 63.8845 63.8845 62.6975 64.8984 61.3691C64.9767 61.2666 65.0788 61.1847 65.1959 61.1306C65.3129 61.0765 65.4414 61.0517 65.5702 61.0585L84.3925 62.1992C84.5152 62.2061 84.6345 62.2419 84.7407 62.3037C84.847 62.3654 84.9371 62.4513 85.0039 62.5545C85.0707 62.6576 85.1122 62.7751 85.1251 62.8972C85.138 63.0194 85.1219 63.143 85.0781 63.2577C83.1861 68.2283 80.2638 72.7423 76.503 76.503C72.7423 80.2638 68.2283 83.1861 63.2577 85.0781C63.143 85.1219 63.0194 85.138 62.8972 85.1251C62.7751 85.1122 62.6576 85.0707 62.5545 85.0039C62.4513 84.9371 62.3654 84.847 62.3037 84.7407C62.2419 84.6345 62.2061 84.5152 62.1992 84.3925Z"
            fill="#1681E5" />
    </symbol>
    <symbol id="icon-leaf" viewBox="0 0 100 100" fill="none">
        <path
            d="M31.5135 47.2655C31.7948 46.9666 32.1323 46.7261 32.5066 46.5577C32.8809 46.3893 33.2847 46.2963 33.6949 46.2839C34.1052 46.2716 34.5139 46.3402 34.8976 46.4858C35.2813 46.6315 35.6326 46.8513 35.9314 47.1327C50.3123 60.6796 64.742 68.9218 81.7225 73.1229C84.0135 66.8729 84.2166 59.994 82.2381 53.2831C79.6131 44.3788 73.4998 36.621 64.5642 30.8495C56.5877 25.6971 48.615 24.3553 40.9021 23.0585C31.1717 21.4217 21.9803 19.8749 13.2088 10.5878C12.2322 9.56042 10.9021 9.14831 9.63065 9.48229C8.17752 9.87292 7.20291 11.0214 6.73612 12.9198C5.64237 17.3632 6.34549 29.8163 9.42166 42.9628C14.3611 64.0839 22.2439 74.7714 27.9881 80.0194C35.4099 86.7948 45.1014 90.5468 54.7322 90.5468C56.5476 90.5497 58.3606 90.4165 60.156 90.1483C68.3025 88.9139 75.0838 84.8221 78.906 78.869C61.4275 74.3221 46.4959 65.6757 31.6404 51.6893C31.3411 51.4075 31.1003 51.0694 30.9319 50.6943C30.7635 50.3193 30.6707 49.9147 30.6589 49.5038C30.6471 49.0928 30.7165 48.6836 30.8632 48.2995C31.0098 47.9154 31.2308 47.564 31.5135 47.2655ZM91.2947 75.037C88.0076 74.5311 84.824 73.8964 81.7244 73.1288C81.0871 74.8685 80.2942 76.5472 79.3553 78.1444C79.2127 78.3885 79.0623 78.6307 78.908 78.869C82.678 79.8449 86.4955 80.6272 90.3455 81.2128C90.7552 81.2848 91.1751 81.2743 91.5806 81.1819C91.9862 81.0895 92.3692 80.917 92.7073 80.6747C93.0453 80.4323 93.3316 80.1249 93.5493 79.7705C93.767 79.4161 93.9117 79.0217 93.975 78.6106C94.0383 78.1995 94.019 77.7799 93.918 77.3764C93.817 76.9729 93.6365 76.5936 93.3871 76.2608C93.1376 75.9279 92.8242 75.6483 92.4653 75.4381C92.1063 75.228 91.709 75.0916 91.2967 75.037H91.2947Z"
            fill="#1681E5" />
    </symbol>
    <symbol id="icon-medal" viewBox="0 0 100 100" fill="none">
        <path
            d="M50 75C53.4518 75 56.25 72.2018 56.25 68.75C56.25 65.2982 53.4518 62.5 50 62.5C46.5482 62.5 43.75 65.2982 43.75 68.75C43.75 72.2018 46.5482 75 50 75Z"
            fill="#1681E5" />
        <path
            d="M19.4885 6.25C17.7472 6.24966 16.0403 6.73425 14.559 7.64945C13.0777 8.56466 11.8806 9.87431 11.1017 11.4316L5.04704 23.541C4.45539 24.7318 4.12237 26.0343 4.06985 27.3629C4.01734 28.6915 4.24653 30.0162 4.74235 31.25H59.0783C59.2106 31.2501 59.3407 31.2167 59.4565 31.1528C59.5723 31.0889 59.67 30.9967 59.7404 30.8848L74.4865 7.44727C74.5607 7.32928 74.602 7.19358 74.6061 7.05425C74.6103 6.91492 74.577 6.77702 74.5098 6.65487C74.4427 6.53272 74.3441 6.43076 74.2242 6.35957C74.1044 6.28838 73.9677 6.25055 73.8283 6.25H19.4885Z"
            fill="#1681E5" />
        <path
            d="M94.9552 23.5469L88.9006 11.4375C88.2768 10.1796 87.3767 9.07901 86.2677 8.21792C85.1587 7.35684 83.8695 6.75754 82.4963 6.46484L66.8947 31.25L58.2033 45.1328C52.8902 43.2873 47.1101 43.2873 41.797 45.1328L37.2424 37.8672C37.1722 37.7549 37.0746 37.6623 36.9587 37.598C36.8429 37.5338 36.7127 37.5001 36.5802 37.5H9.98845C9.84831 37.5002 9.71083 37.5382 9.59039 37.6098C9.46995 37.6814 9.37099 37.7841 9.30389 37.9071C9.23679 38.0302 9.20401 38.169 9.20899 38.309C9.21397 38.4491 9.25652 38.5852 9.3322 38.7031L25.4845 63.8457C24.7568 67.4734 24.8435 71.2175 25.7381 74.8077C26.6328 78.3979 28.3132 81.7448 30.6582 84.6068C33.0031 87.4688 35.9541 89.7747 39.2983 91.358C42.6424 92.9413 46.2963 93.7626 49.9963 93.7626C53.6963 93.7626 57.3501 92.9413 60.6943 91.358C64.0384 89.7747 66.9894 87.4688 69.3343 84.6068C71.6793 81.7448 73.3597 78.3979 74.2544 74.8077C75.1491 71.2175 75.2357 67.4734 74.508 63.8457L94.4572 32.8125C95.333 31.4425 95.8392 29.869 95.9265 28.2453C96.0138 26.6216 95.6792 25.0029 94.9552 23.5469ZM50.8146 81.2246C48.2782 81.3904 45.7516 80.779 43.5716 79.4719C41.3917 78.1649 39.6619 76.2243 38.6131 73.909C37.5644 71.5937 37.2463 69.0136 37.7015 66.5129C38.1566 64.0122 39.3633 61.7097 41.1606 59.9124C42.9579 58.1151 45.2604 56.9084 47.7611 56.4533C50.2618 55.9981 52.8419 56.3161 55.1572 57.3649C57.4725 58.4137 59.4131 60.1434 60.7201 62.3234C62.0272 64.5034 62.6386 67.03 62.4728 69.5664C62.2718 72.5919 60.9792 75.4416 58.8354 77.5858C56.6915 79.73 53.842 81.0231 50.8166 81.2246H50.8146Z"
            fill="#1681E5" />
    </symbol>
    <symbol id="icon-ribbon" viewBox="0 0 100 100" fill="none">
        <path
            d="M52.539 65.549C51.7148 65.6102 50.8827 65.6408 50.0429 65.6408C49.0214 65.6408 48.0116 65.5939 47.0136 65.506C42.0762 65.0683 37.2918 63.5687 32.9879 61.1098C28.6841 58.651 24.9625 55.291 22.078 51.2599C22.0021 51.1516 21.8998 51.0642 21.7809 51.0062C21.6619 50.9482 21.5302 50.9213 21.398 50.9282C21.2658 50.935 21.1376 50.9753 21.0252 51.0453C20.9129 51.1153 20.8202 51.2126 20.7558 51.3283L6.69328 76.6017C6.15813 77.5783 6.07414 78.7502 6.6386 79.7033C6.93243 80.1759 7.34176 80.5659 7.828 80.8365C8.31425 81.1071 8.86141 81.2495 9.41789 81.2502H24.6523C25.1829 81.2305 25.7092 81.3529 26.1769 81.6045C26.6445 81.8562 27.0365 82.2281 27.3124 82.6818L34.8632 95.3127C35.1395 95.7813 35.5316 96.1712 36.0019 96.4448C36.4721 96.7184 37.0048 96.8666 37.5488 96.8752C38.7089 96.8107 39.9101 96.0568 40.3925 95.0002L53.3046 66.6505C53.3604 66.5274 53.3832 66.3919 53.3709 66.2573C53.3586 66.1226 53.3116 65.9935 53.2344 65.8825C53.1572 65.7715 53.0526 65.6824 52.9307 65.6239C52.8088 65.5655 52.6739 65.5397 52.539 65.549ZM93.289 76.5392L79.3183 51.3107C79.2537 51.1962 79.1614 51.0998 79.0497 51.0305C78.938 50.9612 78.8106 50.9212 78.6794 50.9142C78.5481 50.9072 78.4172 50.9334 78.2988 50.9904C78.1804 51.0474 78.0783 51.1334 78.0019 51.2404C74.1598 56.6235 68.8504 60.7877 62.707 63.2365C61.9526 63.5338 61.3424 64.1111 61.0038 64.8478L53.8046 80.6877C53.7119 80.8899 53.6639 81.1097 53.6639 81.3322C53.6639 81.5546 53.7119 81.7745 53.8046 81.9767L59.7167 94.9826C60.1952 96.0392 61.3945 96.8107 62.5527 96.8752C63.0971 96.8617 63.6289 96.7089 64.0974 96.4312C64.5659 96.1536 64.9553 95.7604 65.2284 95.2892L72.7538 82.6759C73.3183 81.7287 74.3417 81.2443 75.4452 81.2502H90.83C92.1327 81.2502 93.1191 80.5705 93.5644 79.297C93.7209 78.8448 93.7773 78.364 93.7298 77.8879C93.6822 77.4117 93.5318 76.9516 93.289 76.5392Z"
            fill="#1681E5" />
        <path
            d="M50.0508 40.625C55.2295 40.625 59.4277 36.4277 59.4277 31.25C59.4277 26.0723 55.2295 21.875 50.0508 21.875C44.872 21.875 40.6738 26.0723 40.6738 31.25C40.6738 36.4277 44.872 40.625 50.0508 40.625Z"
            fill="#1681E5" />
        <path
            d="M50.0508 3.125C34.5391 3.125 21.9258 15.7402 21.9258 31.25C21.9258 46.7598 34.5449 59.375 50.0508 59.375C65.5566 59.375 78.1758 46.7578 78.1758 31.25C78.1758 15.7422 65.5605 3.125 50.0508 3.125ZM50.0508 46.875C46.9604 46.875 43.9395 45.9586 41.37 44.2417C38.8005 42.5248 36.7978 40.0845 35.6152 37.2294C34.4325 34.3743 34.1231 31.2327 34.726 28.2017C35.3289 25.1708 36.817 22.3867 39.0022 20.2015C41.1874 18.0163 43.9715 16.5281 47.0025 15.9252C50.0334 15.3223 53.1751 15.6318 56.0302 16.8144C58.8853 17.997 61.3256 19.9997 63.0425 22.5692C64.7594 25.1387 65.6758 28.1597 65.6758 31.25C65.6706 35.3924 64.0228 39.3637 61.0936 42.2928C58.1645 45.222 54.1932 46.8698 50.0508 46.875Z"
            fill="#1681E5" />
    </symbol>
</svg>