<svg xmlns="http://www.w3.org/2000/svg" style="display:none">
    <symbol id="icon-flag-chile" viewBox="0 0 32 24" fill="none">
        <g clip-path="url(#clip0_39980_373)">
            <mask id="mask0_39980_373" style="mask-type:luminance" maskUnits="userSpaceOnUse" x="0"
                y="0" width="33" height="24">
                <path d="M0 0H32.0016V24H0V0Z" fill="white" />
            </mask>
            <g mask="url(#mask0_39980_373)">
                <path fill-rule="evenodd" clip-rule="evenodd" d="M12 0H36V12H12V0Z" fill="white" />
                <path fill-rule="evenodd" clip-rule="evenodd" d="M0 0H12V12H0V0Z" fill="#0039A6" />
                <path fill-rule="evenodd" clip-rule="evenodd"
                    d="M7.86563 8.98594L6.00937 7.59375L4.15781 9L4.84688 6.7125L3 5.30156L5.28281 5.27812L5.99063 3L6.71719 5.27344L9 5.27812L7.1625 6.70312L7.86563 8.98594Z"
                    fill="white" />
                <path fill-rule="evenodd" clip-rule="evenodd" d="M0 12H36V24H0V12Z" fill="#D52B1E" />
            </g>
        </g>
        <defs>
            <clipPath id="clip0_39980_373">
                <rect width="32" height="24" rx="4" fill="white" />
            </clipPath>
        </defs>
    </symbol>
    <symbol id="icon-flag-colombia" viewBox="0 0 32 24" fill="none">
        <g clip-path="url(#clip0_39992_1463)">
            <path fill-rule="evenodd" clip-rule="evenodd" d="M0 0H32V24H0V0Z" fill="#FFE800" />
            <path fill-rule="evenodd" clip-rule="evenodd" d="M0 12H32V24H0V12Z" fill="#00148E" />
            <path fill-rule="evenodd" clip-rule="evenodd" d="M0 18H32V24H0V18Z" fill="#DA0010" />
        </g>
        <defs>
            <clipPath id="clip0_39992_1463">
                <rect width="32" height="24" rx="4" fill="white" />
            </clipPath>
        </defs>
    </symbol>
</svg>