<svg xmlns="http://www.w3.org/2000/svg" style="display:none">

  <symbol id="icon-left-arrow" viewBox="0 0 48 48">
    <path d="M22.875 37.5L9.375 24L22.875 10.5M11.25 24H38.625" stroke="currentColor"
      stroke-width="6" stroke-linecap="round" stroke-linejoin="round" fill="transparent" />
  </symbol>

  <symbol id="icon-down-arrow" viewBox="0 0 48 48">
    <path d="M10.5 25.125L24 38.625L37.5 25.125M24 36.75V9.375" stroke="currentColor"
      stroke-width="6" stroke-linecap="round" stroke-linejoin="round" fill="transparent" />
  </symbol>

  <symbol id="icon-right-arrow" viewBox="0 0 48 48">
    <path d="M25.125 10.5L38.625 24L25.125 37.5M36.75 24H9.375" stroke="currentColor"
      stroke-width="6" stroke-linecap="round" stroke-linejoin="round" fill="transparent" />
  </symbol>

  <symbol id="icon-up-arrow" viewBox="0 0 48 48">
    <path d="M10.5 22.875L24 9.375L37.5 22.875M24 11.25V38.625" stroke="currentColor"
      stroke-width="6" stroke-linecap="round" stroke-linejoin="round" fill="transparent" />
  </symbol>

  <symbol id="icon-check" viewBox="0 0 48 48">
    <path d="M39 11.9153L18 35.9153L9 26.9153" stroke="currentColor" stroke-width="6"
      stroke-linecap="round" stroke-linejoin="round" fill="transparent" />
  </symbol>

  <symbol id="icon-document" viewBox="0 0 48 48">
    <path
      d="M39 20.7422V39C39 40.1935 38.5259 41.3381 37.682 42.182C36.8381 43.0259 35.6935 43.5 34.5 43.5H13.5C12.3065 43.5 11.1619 43.0259 10.318 42.182C9.47411 41.3381 9 40.1935 9 39V9C9 7.80653 9.47411 6.66193 10.318 5.81802C11.1619 4.97411 12.3065 4.5 13.5 4.5H22.7578C23.5532 4.50012 24.316 4.81609 24.8784 5.37844L38.1216 18.6216C38.6839 19.184 38.9999 19.9468 39 20.7422Z"
      stroke="currentColor" stroke-width="2" stroke-linejoin="round" fill="transparent" />
    <path
      d="M24 5.25V16.5C24 17.2956 24.3161 18.0587 24.8787 18.6213C25.4413 19.1839 26.2044 19.5 27 19.5H38.25M16.5 27H31.5M16.5 34.5H31.5"
      stroke="currentColor" stroke-width="2" stroke-linecap="round" stroke-linejoin="round"
      fill="transparent" />
  </symbol>

  <symbol id="icon-folder" viewBox="0 0 48 48">
    <path
      d="M31.5 24.7622V40.875C31.5 43.1531 29.7141 45 27.4734 45H10.0312C7.78594 45 6 43.1531 6 40.875V16.125C6.0064 15.033 6.44305 13.9875 7.21525 13.2153C7.98746 12.443 9.03296 12.0064 10.125 12H18.9487C19.2542 12.0005 19.5564 12.0617 19.838 12.1802C20.1195 12.2986 20.3746 12.4719 20.5884 12.69L30.8213 23.0963C31.2566 23.5415 31.5003 24.1395 31.5 24.7622Z"
      stroke="currentColor" stroke-width="2" stroke-linejoin="round" fill="transparent" />
    <path
      d="M18.75 12V22.125C18.7583 22.8186 19.0375 23.4815 19.528 23.972C20.0185 24.4625 20.6814 24.7417 21.375 24.75H31.5"
      stroke="currentColor" stroke-width="2" stroke-linecap="round" stroke-linejoin="round"
      fill="transparent" />
    <path
      d="M16.5 12V7.125C16.5064 6.03296 16.943 4.98746 17.7153 4.21525C18.4875 3.44305 19.533 3.0064 20.625 3H29.4375C29.7446 3.00043 30.0486 3.06161 30.3319 3.18004C30.6153 3.29846 30.8724 3.47177 31.0884 3.69L41.3213 14.0963C41.7563 14.5367 42.0002 15.1309 42 15.75V31.875C42 34.1531 40.2141 36 37.9734 36H32.25"
      stroke="currentColor" stroke-width="2" stroke-linejoin="round" fill="transparent" />
    <path
      d="M29.25 3V13.125C29.2583 13.8186 29.5375 14.4815 30.028 14.972C30.5185 15.4625 31.1814 15.7417 31.875 15.75H42"
      stroke="currentColor" stroke-width="2" stroke-linecap="round" stroke-linejoin="round"
      fill="transparent" />
  </symbol>

  <symbol id="icon-heart" viewBox="0 0 48 48">
    <path
      d="M33.0862 7.5C27 7.5 24 13.5 24 13.5C24 13.5 21 7.5 14.9137 7.5C9.9675 7.5 6.05062 11.6381 6 16.5759C5.89687 26.8256 14.1309 34.1147 23.1562 40.2403C23.4051 40.4096 23.6991 40.5001 24 40.5001C24.3009 40.5001 24.5949 40.4096 24.8437 40.2403C33.8681 34.1147 42.1022 26.8256 42 16.5759C41.9494 11.6381 38.0325 7.5 33.0862 7.5Z"
      stroke="currentColor" stroke-width="2" stroke-linecap="round" stroke-linejoin="round"
      fill="transparent" />
  </symbol>

  <symbol id="icon-mixed-lines" viewBox="0 0 48 48">
    <path d="M22.3333 5.33337V13.3334" stroke="currentColor" stroke-opacity="0.3" stroke-width="1.5"
      stroke-linecap="round" fill="transparent" />
    <path d="M22.3333 34.6666V42.6666" stroke="currentColor" stroke-opacity="0.9" stroke-width="1.5"
      stroke-linecap="round" fill="transparent" />
    <path d="M35.6667 10.6666L29 17.3333" stroke="currentColor" stroke-opacity="0.5"
      stroke-width="1.5" stroke-linecap="round" fill="transparent" />
    <path d="M9 37.3333L15.6667 30.6666" stroke="currentColor" stroke-width="1.5"
      stroke-linecap="round" fill="transparent" />
    <path d="M33 24H41" stroke="currentColor" stroke-opacity="0.7" stroke-width="1.5"
      stroke-linecap="round" fill="transparent" />
    <path d="M35.6667 37.3333L29 30.6666" stroke="currentColor" stroke-opacity="0.8"
      stroke-width="1.5" stroke-linecap="round" fill="transparent" />
  </symbol>

  <symbol id="icon-minus" viewBox="0 0 48 48">
    <path d="M37.5 23.9153H10.5" stroke="currentColor" stroke-width="6" stroke-linecap="round"
      stroke-linejoin="round" fill="transparent" />
  </symbol>

  <symbol id="icon-search" viewBox="0 0 48 48">
    <path
      d="M20.7272 6C17.8144 6 14.9671 6.86373 12.5452 8.48198C10.1233 10.1002 8.23571 12.4003 7.12105 15.0913C6.00638 17.7824 5.71473 20.7435 6.28299 23.6003C6.85124 26.4571 8.25387 29.0812 10.3135 31.1409C12.3731 33.2005 14.9973 34.6031 17.8541 35.1714C20.7109 35.7396 23.672 35.448 26.363 34.3333C29.0541 33.2187 31.3542 31.331 32.9724 28.9092C34.5906 26.4873 35.4544 23.6399 35.4544 20.7272C35.4541 16.8214 33.9024 13.0756 31.1406 10.3138C28.3788 7.55194 24.633 6.00025 20.7272 6Z"
      stroke="currentColor" stroke-width="6" stroke-miterlimit="10" fill="transparent" />
    <path d="M31.7147 31.7147L42 42" stroke="currentColor" stroke-width="6" stroke-miterlimit="10"
      stroke-linecap="round" fill="transparent" />
  </symbol>

  <symbol id="icon-star" viewBox="0 0 48 48">
    <path
      d="M45 19.5H28.875L24 4.5L19.125 19.5H3L16.125 28.5L11.0625 43.5L24 34.125L36.9375 43.5L31.875 28.5L45 19.5Z"
      stroke="currentColor" stroke-width="6" stroke-linejoin="round" fill="transparent" />
  </symbol>

  <symbol id="icon-alert" viewBox="0 0 64 64">
    <path
      d="M32 6C17.6637 6 6 17.6637 6 32C6 46.3363 17.6637 58 32 58C46.3363 58 58 46.3363 58 32C58 17.6637 46.3363 6 32 6ZM32 45.9888C31.5055 45.9888 31.0222 45.8421 30.6111 45.5674C30.2 45.2927 29.8795 44.9023 29.6903 44.4455C29.5011 43.9886 29.4516 43.486 29.548 43.001C29.6445 42.5161 29.8826 42.0706 30.2322 41.721C30.5819 41.3713 31.0273 41.1332 31.5123 41.0368C31.9972 40.9403 32.4999 40.9898 32.9567 41.1791C33.4135 41.3683 33.804 41.6887 34.0787 42.0998C34.3534 42.5109 34.5 42.9943 34.5 43.4888C34.5 44.1518 34.2366 44.7877 33.7678 45.2565C33.2989 45.7254 32.663 45.9888 32 45.9888ZM34.715 20.845L33.9975 36.095C33.9975 36.6254 33.7868 37.1341 33.4117 37.5092C33.0366 37.8843 32.5279 38.095 31.9975 38.095C31.4671 38.095 30.9584 37.8843 30.5833 37.5092C30.2082 37.1341 29.9975 36.6254 29.9975 36.095L29.28 20.8525V20.8463C29.2643 20.4799 29.3229 20.1142 29.4522 19.7711C29.5816 19.428 29.779 19.1146 30.0327 18.8498C30.2863 18.585 30.591 18.3743 30.9282 18.2304C31.2654 18.0864 31.6283 18.0122 31.995 18.0122C32.3617 18.0122 32.7246 18.0864 33.0618 18.2304C33.399 18.3743 33.7037 18.585 33.9573 18.8498C34.211 19.1146 34.4084 19.428 34.5378 19.7711C34.6671 20.1142 34.7257 20.4799 34.71 20.8463L34.715 20.845Z"
      fill="currentColor" />
  </symbol>

  <!-- Icon 2 -->
  <symbol id="icon-fire" viewBox="0 0 64 64">
    <path
      d="M54.1001 26.43C52.1601 25.3275 49.7364 26.145 48.6864 28.14L43.5139 38.6912C43.4169 38.891 43.2477 39.0464 43.0404 39.126C42.8331 39.2057 42.6034 39.2035 42.3976 39.12C42.2346 39.0551 42.0949 38.9427 41.9966 38.7973C41.8983 38.652 41.8459 38.4805 41.8464 38.305V9C41.8464 7.26125 40.2401 6 38.5001 6C36.7601 6 35.2501 7.26125 35.2501 9V28.58C35.2543 28.9457 35.1158 29.2986 34.8639 29.5637C34.6121 29.8289 34.2668 29.9854 33.9014 30C33.7186 30.0035 33.537 29.9705 33.3671 29.903C33.1973 29.8354 33.0426 29.7347 32.9121 29.6067C32.7816 29.4786 32.678 29.3259 32.6072 29.1573C32.5365 28.9888 32.5001 28.8078 32.5001 28.625V3C32.5001 1.26125 31.1326 0 29.3926 0C27.6526 0 26.2501 1.26125 26.2501 3V28.58C26.2543 28.9457 26.1158 29.2986 25.8639 29.5637C25.6121 29.8289 25.2668 29.9854 24.9014 30C24.7186 30.0035 24.537 29.9705 24.3671 29.903C24.1973 29.8354 24.0426 29.7347 23.9121 29.6067C23.7816 29.4786 23.678 29.3259 23.6072 29.1573C23.5365 28.9888 23.5001 28.8078 23.5001 28.625V7C23.5001 5.26125 21.9901 4 20.2501 4C18.5101 4 17.0001 5.38625 17.0001 7.125V30.58C17.0043 30.9457 16.8658 31.2986 16.6139 31.5637C16.3621 31.8289 16.0168 31.9854 15.6514 32C15.4686 32.0035 15.287 31.9705 15.1171 31.903C14.9473 31.8354 14.7926 31.7347 14.6621 31.6067C14.5316 31.4786 14.428 31.3259 14.3572 31.1573C14.2865 30.9888 14.2501 30.8078 14.2501 30.625V15C14.2501 13.2612 12.8651 12 11.1251 12C9.38512 12 7.98512 13.2775 8.00012 15V42C8.00012 56.6763 17.0001 64 28.0001 64H30.0001C41.0001 64 44.4639 59.05 47.0001 53L55.5889 31.875C56.4164 29.625 56.0389 27.5312 54.1001 26.43Z"
      fill="currentColor" />
  </symbol>

  <!-- Icon 3 -->
  <symbol id="icon-shield" viewBox="0 0 64 64">
    <path
      d="M52.2302 56C51.9665 56 51.7054 55.9479 51.4619 55.8467C51.2185 55.7454 50.9974 55.597 50.8115 55.41L5.08149 9.40999C4.70753 9.03372 4.49837 8.5243 4.50001 7.99381C4.50165 7.46331 4.71396 6.9552 5.09024 6.58124C5.46651 6.20729 5.97593 5.99812 6.50642 5.99977C7.03692 6.00141 7.54503 6.21372 7.91899 6.58999L53.6477 52.59C53.9262 52.8701 54.1155 53.2264 54.1917 53.614C54.268 54.0015 54.2277 54.403 54.0761 54.7677C53.9245 55.1324 53.6683 55.4441 53.3398 55.6634C53.0113 55.8827 52.6252 55.9998 52.2302 56ZM45.6152 9.99999C40.104 9.99999 36.289 13.1025 34.0665 15.6875C33.9961 15.7686 33.9091 15.8336 33.8114 15.8781C33.7137 15.9226 33.6076 15.9457 33.5002 15.9457C33.3929 15.9457 33.2868 15.9226 33.1891 15.8781C33.0914 15.8336 33.0044 15.7686 32.934 15.6875C30.7115 13.1025 26.8952 9.99999 21.3852 9.99999C20.0728 9.99929 18.7673 10.1905 17.5102 10.5675L51.1515 44.405C51.5265 43.975 51.864 43.575 52.169 43.205C57.169 37.1112 59.5627 30.8562 59.4952 24.08C59.4215 16.3162 53.1927 9.99999 45.6152 9.99999ZM8.62524 18.6437C7.90076 20.3656 7.51864 22.212 7.50024 24.08C7.43274 30.8562 9.82899 37.1112 14.8265 43.205C17.1727 46.0637 21.4265 50.6362 31.2502 57.305C31.913 57.7584 32.6972 58.001 33.5002 58.001C34.3032 58.001 35.0875 57.7584 35.7502 57.305C38.294 55.5775 40.4627 53.9925 42.3227 52.54L8.62524 18.6437Z"
      fill="currentColor" />
  </symbol>

  <symbol id="icon-star-filled" viewBox="0 0 19 18">
    <path
      d="M8.38488 0.691212C8.68423 -0.230099 9.98764 -0.2301 10.287 0.691211L11.8056 5.36497C11.9395 5.777 12.3234 6.05596 12.7566 6.05596H17.6709C18.6397 6.05596 19.0424 7.29557 18.2587 7.86497L14.283 10.7535C13.9325 11.0082 13.7858 11.4595 13.9197 11.8716L15.4383 16.5453C15.7377 17.4666 14.6832 18.2327 13.8995 17.6633L9.92372 14.7748C9.57324 14.5202 9.09864 14.5202 8.74815 14.7748L4.77241 17.6633C3.9887 18.2327 2.93422 17.4666 3.23357 16.5453L4.75217 11.8716C4.88604 11.4595 4.73938 11.0082 4.3889 10.7535L0.413159 7.86497C-0.370555 7.29557 0.0322201 6.05596 1.00094 6.05596H5.91523C6.34845 6.05596 6.73241 5.777 6.86628 5.36497L8.38488 0.691212Z"
      fill="#1FB4FF"
    />
  </symbol>
  <symbol id="icon-quotes" viewBox="0 0 16 14" fill="none">
    <path
      d="M7.59849 4.09291C7.92783 2.44596 6.99836 0.849375 5.4259 0.259087C3.93097 -0.302155 2.49554 0.0955843 1.54476 0.998819L1.54382 0.99671C1.53749 1.0028 1.53257 1.0096 1.52625 1.01569C1.41826 1.11969 1.3159 1.22931 1.2215 1.34597C-2.03961 5.20463 1.83287 12.0414 5.7611 13.3579C5.91429 13.4092 6.03844 13.2262 5.93046 13.1063C5.36992 12.4839 4.3409 11.1881 3.85484 9.59829C3.49716 8.42825 3.93191 7.33411 5.00872 6.75296C5.9335 6.25356 7.25322 5.81974 7.59849 4.09291Z"
      fill="#1FB4FF" />
    <path
      d="M15.9344 4.09291C16.2638 2.44596 15.3343 0.849375 13.7618 0.259087C12.2669 -0.302155 10.8315 0.0955843 9.88069 0.998819L9.87976 0.99671C9.87343 1.0028 9.86851 1.0096 9.86219 1.01569C9.7542 1.11969 9.65184 1.22931 9.55744 1.34597C6.29633 5.20463 10.1688 12.0414 14.097 13.3579C14.2502 13.4092 14.3744 13.2262 14.2664 13.1063C13.7059 12.4839 12.6768 11.1881 12.1905 9.59829C11.8329 8.42825 12.2676 7.33411 13.3444 6.75296C14.2697 6.25356 15.5892 5.81974 15.9344 4.09291Z"
      fill="#1FB4FF" />
  </symbol>

</svg>