<svg xmlns="http://www.w3.org/2000/svg" style="display:none">
    <symbol id="icon-globe-outline" viewBox="0 0 64 64" fill="none">
        <path
            d="M32 6C17.6412 6 6 17.6412 6 32C6 46.3588 17.6412 58 32 58C46.3588 58 58 46.3588 58 32C58 17.6412 46.3588 6 32 6Z"
            stroke="#1681E5" stroke-width="3" stroke-miterlimit="10" />
        <path
            d="M31.9998 6C24.741 6 17.916 17.6412 17.916 32C17.916 46.3588 24.741 58 31.9998 58C39.2585 58 46.0835 46.3588 46.0835 32C46.0835 17.6412 39.2585 6 31.9998 6Z"
            stroke="#1681E5" stroke-width="3" stroke-miterlimit="10" />
        <path
            d="M14.666 14.6663C19.446 18.06 25.4635 20.0838 31.9998 20.0838C38.536 20.0838 44.5535 18.06 49.3335 14.6663M49.3335 49.3338C44.5535 45.94 38.536 43.9163 31.9998 43.9163C25.4635 43.9163 19.446 45.94 14.666 49.3338"
            stroke="#1681E5" stroke-width="3" stroke-linecap="round" stroke-linejoin="round" />
        <path d="M32 6V58M58 32H6" stroke="#1681E5" stroke-width="3" stroke-miterlimit="10" />
    </symbol>
    <symbol id="icon-ear-outline" viewBox="0 0 64 64" fill="none">
        <path
            d="M41.965 41.345C47.7162 37.4375 52 31.4175 52 24C52 18.6957 49.8929 13.6086 46.1421 9.85786C42.3914 6.10714 37.3043 4 32 4C26.6957 4 21.6086 6.10714 17.8579 9.85786C14.1071 13.6086 12 18.6957 12 24V49.8213C12 55.3538 16.4675 60 22 60C27.5325 60 30.3537 56.7575 31.6612 55C33.5075 52.5238 36.875 44.805 41.965 41.345Z"
            stroke="#1681E5" stroke-width="3" stroke-linecap="round" stroke-linejoin="round" />
        <path d="M20 38V23C20 16.95 25.4 12 32 12C38.6 12 44 16.95 44 23" stroke="#1681E5"
            stroke-width="3" stroke-linecap="round" stroke-linejoin="round" />
        <path
            d="M20 29.875C23.125 27.625 29.9775 28 29.9775 28C33.2275 28 35.1238 31.6775 33.2275 34.325C33.2275 34.325 28.62 39.625 27.995 42"
            stroke="#1681E5" stroke-width="3" stroke-linecap="round" stroke-linejoin="round" />
    </symbol>
    <symbol id="icon-scan-outline" viewBox="0 0 64 64" fill="none">
        <path
            d="M42.75 55.5H48.5C50.3565 55.5 52.137 54.7625 53.4497 53.4497C54.7625 52.137 55.5 50.3565 55.5 48.5V42.75M55.5 21.25V15.5C55.5 13.6435 54.7625 11.863 53.4497 10.5503C52.137 9.2375 50.3565 8.5 48.5 8.5H42.75M21.25 55.5H15.5C13.6435 55.5 11.863 54.7625 10.5503 53.4497C9.2375 52.137 8.5 50.3565 8.5 48.5V42.75M8.5 21.25V15.5C8.5 13.6435 9.2375 11.863 10.5503 10.5503C11.863 9.2375 13.6435 8.5 15.5 8.5H21.25"
            stroke="#1681E5" stroke-width="3" stroke-linecap="round" stroke-linejoin="round" />
    </symbol>
    <symbol id="icon-sync-circle-outline" viewBox="0 0 64 64" fill="none">
        <path
            d="M56 32C56 18.75 45.25 8 32 8C18.75 8 8 18.75 8 32C8 45.25 18.75 56 32 56C45.25 56 56 45.25 56 32Z"
            stroke="#1681E5" stroke-width="3" stroke-miterlimit="10" />
        <path
            d="M43.9776 33.9837V31.9837C43.9694 29.5544 43.2252 27.1847 41.8432 25.1869C40.4612 23.189 38.5062 21.6569 36.2359 20.7924C33.9657 19.9279 31.4868 19.7717 29.126 20.3443C26.7651 20.9169 24.6332 22.1914 23.0113 23.9999M19.9863 30.0212V32.0212C19.9948 34.4532 20.7404 36.8255 22.1247 38.8251C23.5089 40.8247 25.4669 42.3577 27.7402 43.2218C30.0135 44.0859 32.4954 44.2406 34.8584 43.6654C37.2214 43.0902 39.3545 41.8122 40.9763 39.9999"
            stroke="#1681E5" stroke-width="3" stroke-linecap="round" stroke-linejoin="round" />
        <path d="M16.9839 32L19.9326 29.05L23.0164 32M47.0164 32L44.0676 34.9501L40.9839 32"
            stroke="#1681E5" stroke-width="3" stroke-linecap="round" stroke-linejoin="round" />
    </symbol>
</svg>