<svg xmlns="http://www.w3.org/2000/svg" xmlns:xlink="http://www.w3.org/1999/xlink"
    style="display:none">
    <symbol id="icon-instagram" viewBox="0 0 32 32" fill="none">
        <path
            d="M21.8331 4.33313C23.3789 4.33774 24.8601 4.95385 25.9531 6.04689C27.0462 7.13993 27.6623 8.62109 27.6669 10.1669V21.8331C27.6623 23.3789 27.0462 24.8601 25.9531 25.9531C24.8601 27.0462 23.3789 27.6623 21.8331 27.6669H10.1669C8.62109 27.6623 7.13993 27.0462 6.04689 25.9531C4.95385 24.8601 4.33774 23.3789 4.33313 21.8331V10.1669C4.33774 8.62109 4.95385 7.13993 6.04689 6.04689C7.13993 4.95385 8.62109 4.33774 10.1669 4.33313H21.8331ZM21.8331 2H10.1669C5.675 2 2 5.675 2 10.1669V21.8331C2 26.325 5.675 30 10.1669 30H21.8331C26.325 30 30 26.325 30 21.8331V10.1669C30 5.675 26.325 2 21.8331 2Z"
            fill="#D8D8D8" />
        <path
            d="M23.5831 10.167C23.237 10.167 22.8987 10.0644 22.6109 9.87207C22.3231 9.67977 22.0988 9.40646 21.9663 9.08669C21.8339 8.76692 21.7992 8.41505 21.8668 8.07558C21.9343 7.73612 22.1009 7.4243 22.3457 7.17956C22.5904 6.93481 22.9023 6.76814 23.2417 6.70062C23.5812 6.63309 23.9331 6.66775 24.2528 6.8002C24.5726 6.93266 24.8459 7.15696 25.0382 7.44475C25.2305 7.73253 25.3331 8.07088 25.3331 8.41699C25.3336 8.64694 25.2887 8.87473 25.2009 9.08727C25.1132 9.29982 24.9843 9.49293 24.8217 9.65553C24.6591 9.81813 24.466 9.94702 24.2534 10.0348C24.0409 10.1226 23.8131 10.1675 23.5831 10.167ZM16 11.3332C16.923 11.3332 17.8253 11.607 18.5928 12.1198C19.3602 12.6326 19.9584 13.3614 20.3116 14.2142C20.6649 15.0669 20.7573 16.0053 20.5772 16.9106C20.3971 17.8159 19.9527 18.6474 19.3 19.3001C18.6473 19.9528 17.8157 20.3972 16.9105 20.5773C16.0052 20.7574 15.0668 20.665 14.2141 20.3117C13.3613 19.9585 12.6324 19.3604 12.1196 18.5929C11.6068 17.8254 11.3331 16.9231 11.3331 16.0001C11.3345 14.7628 11.8266 13.5765 12.7015 12.7016C13.5764 11.8267 14.7627 11.3346 16 11.3332ZM16 9.00012C14.6155 9.00012 13.2622 9.41066 12.111 10.1798C10.9599 10.949 10.0627 12.0423 9.53285 13.3213C9.00303 14.6004 8.86441 16.0079 9.13451 17.3658C9.4046 18.7236 10.0713 19.9709 11.0503 20.9499C12.0292 21.9288 13.2765 22.5955 14.6344 22.8656C15.9922 23.1357 17.3997 22.9971 18.6788 22.4673C19.9579 21.9375 21.0511 21.0403 21.8203 19.8891C22.5895 18.738 23 17.3846 23 16.0001C23 14.1436 22.2625 12.3631 20.9497 11.0504C19.637 9.73762 17.8565 9.00012 16 9.00012Z"
            fill="#D8D8D8" />
    </symbol>
    <symbol id="icon-tiktok" viewBox="0 0 32 32" fill="none">
        <path
            d="M25.7625 7.41625C25.56 7.31159 25.3629 7.19687 25.1719 7.0725C24.6164 6.70528 24.1071 6.27259 23.655 5.78375C22.5237 4.48938 22.1012 3.17625 21.9456 2.25688H21.9519C21.8219 1.49375 21.8756 1 21.8837 1H16.7312V20.9237C16.7312 21.1912 16.7312 21.4556 16.72 21.7169C16.72 21.7494 16.7169 21.7794 16.715 21.8144C16.715 21.8288 16.715 21.8438 16.7119 21.8587V21.87C16.6576 22.5849 16.4284 23.2754 16.0446 23.8809C15.6607 24.4864 15.134 24.9884 14.5106 25.3425C13.861 25.7121 13.1262 25.906 12.3787 25.905C9.97812 25.905 8.03249 23.9475 8.03249 21.53C8.03249 19.1125 9.97812 17.155 12.3787 17.155C12.8332 17.1546 13.2848 17.2261 13.7169 17.3669L13.7231 12.1206C12.4115 11.9512 11.0789 12.0554 9.8096 12.4268C8.54025 12.7981 7.36164 13.4285 6.34812 14.2781C5.46003 15.0498 4.71342 15.9704 4.14187 16.9988C3.92437 17.3738 3.10374 18.8806 3.00437 21.3263C2.94187 22.7144 3.35874 24.1525 3.55749 24.7469V24.7594C3.68249 25.1094 4.16687 26.3037 4.95624 27.3106C5.59276 28.1183 6.3448 28.8278 7.18812 29.4163V29.4037L7.20062 29.4163C9.69499 31.1112 12.4606 31 12.4606 31C12.9394 30.9806 14.5431 31 16.3644 30.1369C18.3844 29.18 19.5344 27.7544 19.5344 27.7544C20.269 26.9025 20.8532 25.9318 21.2619 24.8838C21.7281 23.6581 21.8837 22.1881 21.8837 21.6006V11.0306C21.9462 11.0681 22.7787 11.6187 22.7787 11.6187C22.7787 11.6187 23.9781 12.3875 25.8494 12.8881C27.1919 13.2444 29.0006 13.3194 29.0006 13.3194V8.20438C28.3669 8.27313 27.08 8.07313 25.7625 7.41625Z"
            fill="#D8D8D8" />
    </symbol>
    <symbol id="icon-twitter" viewBox="0 0 32 32" fill="none">
        <path
            d="M31 6.84376C29.8747 7.33273 28.684 7.65487 27.4656 7.80001C28.746 7.05025 29.709 5.85911 30.1737 4.45001C28.9632 5.15788 27.641 5.65455 26.2638 5.91876C25.6838 5.31097 24.9863 4.82745 24.2137 4.4976C23.4411 4.16775 22.6095 3.99846 21.7694 4.00001C18.3681 4.00001 15.6156 6.71251 15.6156 10.0563C15.6132 10.5214 15.6665 10.9851 15.7744 11.4375C13.3354 11.3232 10.9472 10.701 8.76249 9.6108C6.57777 8.52059 4.64468 6.98636 3.08687 5.10626C2.54036 6.02759 2.25133 7.07879 2.25 8.15001C2.25 10.25 3.34562 12.1063 5 13.1938C4.01983 13.1705 3.05974 12.9111 2.20125 12.4375V12.5125C2.20125 15.45 4.32625 17.8938 7.13875 18.45C6.60986 18.591 6.06486 18.6624 5.5175 18.6625C5.12911 18.6632 4.74161 18.6255 4.36062 18.55C5.1425 20.9563 7.41813 22.7063 10.1138 22.7563C7.92336 24.4443 5.23414 25.3567 2.46875 25.35C1.97789 25.3493 1.48748 25.3201 1 25.2625C3.81324 27.0589 7.0834 28.0091 10.4213 28C21.7563 28 27.9487 18.7688 27.9487 10.7625C27.9487 10.5 27.9419 10.2375 27.9294 9.98126C29.1313 9.1263 30.1711 8.06383 31 6.84376Z"
            fill="#D8D8D8" />
    </symbol>
    <symbol id="icon-youtube" viewBox="0 0 32 32" fill="none" >
        <g clip-path="url(#clip0_39916_391)">
            <path
                d="M31.7904 9.29937C31.7904 6.48687 29.7216 4.22437 27.1654 4.22437C23.7029 4.0625 20.1716 4 16.5629 4H15.4379C11.8379 4 8.30038 4.0625 4.83788 4.225C2.28788 4.225 0.21913 6.5 0.21913 9.3125C0.0628801 11.5369 -0.00336993 13.7619 0.000380068 15.9869C-0.00586993 18.2119 0.0649634 20.439 0.21288 22.6681C0.21288 25.4806 2.28163 27.7619 4.83163 27.7619C8.46913 27.9306 12.2004 28.0056 15.9941 27.9994C19.7941 28.0119 23.515 27.9327 27.1566 27.7619C29.7129 27.7619 31.7816 25.4806 31.7816 22.6681C31.9316 20.4369 32.0004 18.2119 31.9941 15.9806C32.0083 13.7556 31.9404 11.5285 31.7904 9.29937ZM12.9379 22.1181V9.83687L22.0004 15.9744L12.9379 22.1181Z"
                fill="#D8D8D8" />
        </g>
        <defs>
            <clipPath id="clip0_39916_391">
                <rect width="32" height="32" fill="white" />
            </clipPath>
        </defs>
    </symbol>
</svg>