<svg xmlns="http://www.w3.org/2000/svg" xmlns:xlink="http://www.w3.org/1999/xlink" width="500" zoomAndPan="magnify" viewBox="0 0 375 374.999991" height="500" preserveAspectRatio="xMidYMid meet" version="1.0"><defs><clipPath id="f439146079"><path d="M 31.269531 161.566406 L 344 161.566406 L 344 219.316406 L 31.269531 219.316406 Z M 31.269531 161.566406 " clip-rule="nonzero"/></clipPath></defs><g clip-path="url(#f439146079)"><path fill="#ffffff" d="M 40.792969 162.429688 C 37.164062 163.730469 34.492188 166.058594 32.894531 169.3125 C 31.742188 171.660156 31.527344 172.707031 31.554688 175.789062 C 31.578125 177.984375 31.90625 180.191406 32.367188 181.253906 C 33.457031 183.765625 36.339844 186.804688 38.773438 188.011719 L 40.839844 189.035156 L 33.238281 189.035156 L 33.238281 214.539062 L 39.613281 214.539062 L 39.613281 207.671875 L 42.96875 207.671875 C 48.800781 207.671875 52.972656 205.824219 54.523438 202.554688 L 55.332031 200.851562 L 56.996094 201.980469 C 57.910156 202.601562 59.722656 203.382812 61.03125 203.722656 C 68.53125 205.671875 69.828125 206.59375 68.097656 208.730469 C 67.292969 209.726562 66.753906 209.875 64.058594 209.839844 C 62.003906 209.816406 60.140625 209.441406 58.558594 208.738281 C 57.242188 208.152344 55.996094 207.671875 55.789062 207.671875 C 55.585938 207.671875 55.042969 208.605469 54.585938 209.746094 C 53.777344 211.773438 53.78125 211.835938 54.816406 212.675781 C 57.136719 214.554688 63.980469 215.519531 68.050781 214.542969 C 69.535156 214.1875 71.324219 213.308594 72.285156 212.464844 L 73.949219 211.003906 L 73.949219 214.539062 L 79.789062 214.539062 L 80.078125 207.585938 L 81.617188 209.773438 C 85.679688 215.542969 96.167969 216.703125 101.597656 211.980469 L 103.445312 210.371094 L 101.457031 208.441406 L 99.46875 206.507812 L 98.359375 207.546875 C 93.40625 212.1875 85.230469 208.648438 85.230469 201.871094 C 85.230469 197.585938 87.839844 194.511719 91.867188 194.058594 C 94.625 193.746094 96.089844 194.140625 97.917969 195.675781 L 99.402344 196.925781 L 101.402344 195.117188 C 103.347656 193.363281 103.378906 193.28125 102.53125 192.328125 C 102.054688 191.789062 101 190.9375 100.191406 190.4375 C 99.378906 189.9375 98.996094 189.527344 99.332031 189.527344 C 99.746094 189.523438 99.945312 188.65625 99.945312 186.828125 L 99.945312 184.128906 L 86.210938 184.128906 L 86.210938 162.546875 L 79.835938 162.546875 L 79.835938 164.335938 C 79.835938 165.324219 80.414062 167.316406 81.128906 168.769531 C 81.988281 170.527344 82.5 172.527344 82.65625 174.730469 C 82.863281 177.582031 82.703125 178.492188 81.539062 181.210938 C 80.796875 182.953125 80.085938 185.421875 79.960938 186.703125 L 79.738281 189.035156 L 75.738281 189.023438 L 71.742188 189.011719 L 73.703125 188.101562 C 82.042969 184.234375 84.011719 171.988281 77.320312 165.636719 C 74.46875 162.933594 71.347656 161.820312 66.589844 161.816406 C 63.007812 161.8125 62.027344 162.003906 59.613281 163.191406 C 54.261719 165.820312 51.550781 170.628906 51.984375 176.714844 C 52.125 178.636719 52.640625 180.785156 53.253906 181.984375 C 54.425781 184.28125 58.324219 187.929688 60.070312 188.367188 C 61.117188 188.632812 60.992188 188.773438 58.820312 189.78125 C 57.398438 190.4375 56.046875 191.503906 55.535156 192.367188 L 54.667969 193.835938 L 53.527344 192.480469 C 52.898438 191.734375 51.695312 190.835938 50.851562 190.488281 L 49.316406 189.851562 L 52.316406 188.492188 L 55.316406 187.128906 L 53.535156 184.734375 L 51.753906 182.335938 L 49.976562 183.269531 C 48.617188 183.980469 47.566406 184.140625 45.527344 183.945312 C 40.949219 183.507812 38.523438 180.90625 38.265625 176.152344 C 38.0625 172.386719 39.382812 169.753906 42.203125 168.296875 C 44.476562 167.125 48.199219 167.046875 50.296875 168.132812 L 51.828125 168.925781 L 53.324219 166.75 C 54.144531 165.554688 54.820312 164.457031 54.820312 164.308594 C 54.820312 164.160156 53.898438 163.570312 52.773438 162.996094 C 49.859375 161.507812 44.117188 161.238281 40.792969 162.429688 M 118.328125 165.683594 C 115.992188 166.703125 115.640625 168.128906 115.640625 176.582031 C 115.640625 184.234375 115.90625 185.664062 117.558594 186.933594 C 118.382812 187.566406 122.367188 187.773438 123.710938 187.257812 C 124.980469 186.769531 125.941406 184.378906 125.941406 181.703125 L 125.941406 179.222656 L 124.25 179.222656 C 122.582031 179.222656 122.558594 179.253906 122.410156 181.554688 C 122.28125 183.585938 122.113281 183.90625 121.089844 184.050781 C 120.449219 184.140625 119.734375 183.921875 119.503906 183.558594 C 119.277344 183.199219 119.085938 179.996094 119.082031 176.4375 C 119.074219 171.210938 119.222656 169.828125 119.84375 169.203125 C 120.269531 168.78125 120.777344 168.433594 120.972656 168.433594 C 121.800781 168.433594 122.507812 169.71875 122.507812 171.230469 C 122.507812 172.753906 122.609375 172.847656 124.222656 172.847656 C 125.9375 172.847656 125.941406 172.839844 125.941406 170.609375 C 125.941406 167.742188 125.285156 166.558594 123.21875 165.695312 C 121.195312 164.847656 120.25 164.847656 118.328125 165.683594 M 130.601562 165.4375 C 130.0625 165.671875 129.179688 166.355469 128.640625 166.953125 C 127.761719 167.925781 127.640625 168.863281 127.5 175.652344 C 127.285156 185.914062 128.042969 187.5625 132.953125 187.5625 C 134.933594 187.5625 135.578125 187.320312 136.769531 186.128906 L 138.203125 184.695312 L 138.203125 168.449219 L 136.855469 166.9375 C 135.410156 165.320312 132.484375 164.621094 130.601562 165.4375 M 164.363281 165.714844 C 163.507812 166.085938 162.566406 166.835938 162.277344 167.378906 C 161.960938 167.96875 161.746094 171.558594 161.746094 176.273438 C 161.746094 186.617188 162.179688 187.5625 166.898438 187.5625 C 168.066406 187.5625 169.382812 187.425781 169.820312 187.257812 C 171.363281 186.664062 172.046875 184.355469 172.046875 179.738281 L 172.046875 175.300781 L 169.59375 175.300781 C 167.199219 175.300781 167.144531 175.332031 167.144531 176.773438 C 167.144531 177.773438 167.386719 178.242188 167.902344 178.242188 C 168.519531 178.242188 168.636719 178.78125 168.515625 181.0625 C 168.382812 183.613281 168.257812 183.898438 167.199219 184.050781 C 166.554688 184.140625 165.839844 183.921875 165.613281 183.558594 C 165.382812 183.199219 165.191406 179.996094 165.1875 176.4375 C 165.183594 171.210938 165.328125 169.828125 165.953125 169.203125 C 166.375 168.78125 166.882812 168.433594 167.078125 168.433594 C 167.90625 168.433594 168.613281 169.71875 168.613281 171.230469 C 168.613281 172.753906 168.714844 172.847656 170.332031 172.847656 C 172.011719 172.847656 172.046875 172.804688 172.046875 170.863281 C 172.046875 168.175781 170.933594 166.203125 169.046875 165.542969 C 167.0625 164.851562 166.28125 164.878906 164.363281 165.714844 M 182.59375 165.464844 C 182.054688 165.683594 181.171875 166.355469 180.632812 166.953125 C 179.769531 167.914062 179.632812 168.867188 179.488281 174.945312 C 179.300781 183.046875 179.554688 184.8125 181.132812 186.390625 C 182.082031 187.339844 182.8125 187.5625 184.980469 187.5625 C 187.367188 187.5625 187.792969 187.398438 188.925781 186.054688 C 190.175781 184.570312 190.195312 184.417969 190.195312 176.757812 C 190.195312 171.980469 189.980469 168.496094 189.636719 167.746094 C 188.667969 165.617188 185.066406 164.453125 182.59375 165.464844 M 199.257812 165.683594 C 196.925781 166.703125 196.574219 168.128906 196.574219 176.582031 C 196.574219 186.429688 197.101562 187.519531 201.871094 187.546875 C 204.058594 187.558594 204.65625 187.359375 205.671875 186.265625 C 206.664062 185.195312 206.875 184.464844 206.875 182.097656 L 206.875 179.222656 L 205.183594 179.222656 C 203.515625 179.222656 203.492188 179.253906 203.34375 181.554688 C 203.210938 183.65625 203.070312 183.898438 201.910156 184.035156 C 200.210938 184.230469 200.023438 183.417969 200.011719 175.949219 C 200.007812 171.164062 200.160156 169.820312 200.777344 169.203125 C 201.203125 168.78125 201.707031 168.433594 201.90625 168.433594 C 202.734375 168.433594 203.441406 169.71875 203.441406 171.230469 C 203.441406 172.753906 203.542969 172.847656 205.15625 172.847656 C 206.867188 172.847656 206.875 172.839844 206.875 170.609375 C 206.875 167.742188 206.21875 166.558594 204.152344 165.695312 C 202.125 164.847656 201.183594 164.847656 199.257812 165.683594 M 211.53125 165.464844 C 210.992188 165.683594 210.109375 166.355469 209.570312 166.953125 C 208.695312 167.925781 208.574219 168.863281 208.433594 175.652344 C 208.21875 186 208.957031 187.5625 214.050781 187.5625 C 216.289062 187.5625 216.75 187.382812 217.867188 186.054688 C 219.117188 184.570312 219.136719 184.417969 219.136719 176.757812 C 219.136719 171.980469 218.921875 168.496094 218.578125 167.746094 C 217.609375 165.617188 214.003906 164.453125 211.53125 165.464844 M 234.011719 165.714844 C 233.15625 166.085938 232.21875 166.835938 231.925781 167.378906 C 231.609375 167.976562 231.398438 171.667969 231.398438 176.667969 C 231.398438 184.796875 231.421875 184.992188 232.601562 186.265625 C 233.625 187.371094 234.210938 187.5625 236.546875 187.5625 C 238.804688 187.5625 239.503906 187.351562 240.496094 186.359375 C 241.679688 185.175781 241.699219 185.019531 241.699219 176.761719 C 241.699219 171.6875 241.488281 167.976562 241.167969 167.378906 C 240.609375 166.332031 237.914062 164.988281 236.441406 165.019531 C 235.960938 165.03125 234.867188 165.34375 234.011719 165.714844 M 307.617188 165.457031 C 307.046875 165.699219 306.109375 166.5 305.53125 167.234375 C 304.558594 168.472656 304.484375 169.136719 304.484375 176.628906 L 304.484375 184.695312 L 305.917969 186.128906 C 307.847656 188.0625 311.554688 188.183594 313.652344 186.378906 L 315.027344 185.195312 L 315.027344 167.964844 L 313.753906 166.691406 C 312.367188 165.300781 309.378906 164.699219 307.617188 165.457031 M 65.589844 166.800781 C 64.363281 167.507812 62.777344 168.894531 62.0625 169.886719 C 60.898438 171.507812 60.816406 171.902344 61.238281 173.773438 C 61.636719 175.546875 61.558594 176.0625 60.714844 177.25 C 60.167969 178.015625 59.722656 178.746094 59.722656 178.878906 C 59.722656 179.011719 60.660156 179.488281 61.808594 179.945312 C 62.953125 180.398438 64.480469 181.332031 65.203125 182.015625 C 65.921875 182.695312 67.246094 183.40625 68.144531 183.589844 C 69.191406 183.804688 69.78125 184.214844 69.785156 184.730469 C 69.796875 186.3125 70.402344 186.101562 70.722656 184.40625 C 70.914062 183.375 70.8125 182.230469 70.464844 181.585938 C 70.054688 180.820312 70.039062 180.445312 70.417969 180.320312 C 70.710938 180.222656 70.835938 179.84375 70.695312 179.480469 C 70.332031 178.53125 72.351562 178.019531 73.316406 178.816406 C 74.027344 179.402344 74.066406 179.320312 73.691406 178 C 73.457031 177.1875 73.292969 175.824219 73.328125 174.964844 C 73.386719 173.296875 73.652344 173.449219 69.125 172.582031 C 68.167969 172.398438 67.492188 171.804688 66.957031 170.683594 C 66.234375 169.167969 66.242188 168.949219 67.082031 167.570312 C 67.574219 166.757812 68.277344 165.972656 68.636719 165.828125 C 69.128906 165.632812 69.109375 165.5625 68.550781 165.542969 C 68.148438 165.53125 66.8125 166.097656 65.589844 166.800781 M 140.164062 176.527344 L 140.164062 187.5625 L 149.484375 187.5625 L 149.484375 184.128906 L 143.597656 184.128906 L 143.597656 165.492188 L 140.164062 165.492188 Z M 150.464844 176.527344 L 150.464844 187.5625 L 160.277344 187.5625 L 160.277344 184.128906 L 154.390625 184.128906 L 154.390625 178.242188 L 156.597656 178.242188 C 158.792969 178.242188 158.804688 178.234375 158.804688 176.527344 C 158.804688 174.820312 158.792969 174.808594 156.597656 174.808594 L 154.390625 174.808594 L 154.390625 168.925781 L 160.277344 168.925781 L 160.277344 165.492188 L 150.464844 165.492188 Z M 174.011719 176.527344 L 174.011719 187.5625 L 177.445312 187.5625 L 177.445312 165.492188 L 174.011719 165.492188 Z M 221.097656 176.527344 L 221.097656 187.5625 L 230.417969 187.5625 L 230.417969 184.128906 L 224.53125 184.128906 L 224.53125 165.492188 L 221.097656 165.492188 Z M 243.660156 176.527344 L 243.660156 187.5625 L 247.09375 187.5625 L 247.15625 181.554688 L 247.214844 175.546875 L 248.230469 181.554688 L 249.242188 187.5625 L 252.835938 187.5625 L 253.835938 181.0625 L 254.835938 174.566406 L 254.886719 181.0625 L 254.941406 187.5625 L 258.375 187.5625 L 258.375 165.492188 L 255.976562 165.492188 C 254.507812 165.492188 253.484375 165.730469 253.339844 166.105469 C 253.210938 166.441406 252.707031 169.5625 252.222656 173.042969 C 251.683594 176.894531 251.203125 179.003906 250.996094 178.4375 C 250.808594 177.925781 250.253906 174.804688 249.769531 171.5 L 248.882812 165.492188 L 243.660156 165.492188 Z M 260.335938 176.527344 L 260.335938 187.5625 L 264.042969 187.5625 C 268.617188 187.5625 270.335938 186.777344 271.148438 184.316406 C 271.875 182.109375 271.449219 177.9375 270.371094 176.75 C 269.65625 175.957031 269.652344 175.75 270.355469 174.386719 C 271.253906 172.652344 271.363281 169.488281 270.585938 167.773438 C 269.804688 166.0625 268.15625 165.492188 263.992188 165.492188 L 260.335938 165.492188 Z M 273.089844 176.527344 L 273.089844 187.5625 L 277.015625 187.5625 L 277.015625 165.492188 L 273.089844 165.492188 Z M 281.429688 165.78125 C 281.429688 166.066406 278.769531 182.84375 278.226562 185.96875 C 277.960938 187.519531 278 187.5625 279.683594 187.5625 C 281.332031 187.5625 281.433594 187.464844 281.734375 185.574219 C 282.050781 183.59375 282.058594 183.589844 284.070312 183.738281 C 286.019531 183.878906 286.09375 183.949219 286.242188 185.722656 C 286.390625 187.511719 286.445312 187.5625 288.324219 187.5625 C 289.386719 187.5625 290.257812 187.355469 290.257812 187.105469 C 290.257812 186.558594 287.417969 168.765625 287.023438 166.839844 C 286.761719 165.566406 286.59375 165.492188 284.089844 165.492188 C 282.625 165.492188 281.429688 165.621094 281.429688 165.78125 M 291.730469 176.527344 L 291.730469 187.5625 L 294.648438 187.5625 L 294.78125 180.328125 L 294.917969 173.09375 L 296.878906 180.328125 L 298.84375 187.5625 L 302.519531 187.5625 L 302.519531 165.492188 L 299.578125 165.492188 L 299.527344 171.253906 L 299.472656 177.015625 L 298.566406 174.074219 C 297.980469 172.160156 297.414062 170.238281 296.867188 168.3125 L 296.074219 165.492188 L 291.730469 165.492188 Z M 321.648438 176.527344 L 321.648438 187.5625 L 325.613281 187.5625 C 329.335938 187.5625 329.660156 187.476562 331.007812 186.128906 L 332.441406 184.695312 L 332.441406 176.832031 C 332.441406 172.113281 332.222656 168.492188 331.898438 167.773438 C 331.117188 166.0625 329.46875 165.492188 325.304688 165.492188 L 321.648438 165.492188 Z M 334.402344 176.527344 L 334.402344 187.5625 L 343.722656 187.5625 L 343.722656 184.128906 L 338.328125 184.128906 L 338.328125 178.242188 L 340.535156 178.242188 C 342.730469 178.242188 342.742188 178.234375 342.742188 176.527344 C 342.742188 174.820312 342.730469 174.808594 340.535156 174.808594 L 338.328125 174.808594 L 338.328125 168.925781 L 343.722656 168.925781 L 343.722656 165.492188 L 334.402344 165.492188 Z M 131.949219 168.757812 C 131.496094 168.941406 131.335938 170.925781 131.335938 176.304688 C 131.335938 182.761719 131.4375 183.65625 132.195312 184.046875 C 134.09375 185.023438 134.28125 184.359375 134.28125 176.539062 C 134.28125 170.144531 134.164062 168.984375 133.503906 168.730469 C 133.078125 168.566406 132.691406 168.449219 132.644531 168.472656 C 132.597656 168.492188 132.289062 168.621094 131.949219 168.757812 M 183.917969 169.023438 C 183.515625 169.425781 183.328125 171.820312 183.328125 176.609375 C 183.328125 182.847656 183.425781 183.65625 184.214844 184.078125 C 186.203125 185.144531 186.519531 184.117188 186.519531 176.527344 C 186.519531 170.707031 186.378906 169.292969 185.78125 168.914062 C 184.824219 168.308594 184.621094 168.320312 183.917969 169.023438 M 212.859375 169.023438 C 212.453125 169.425781 212.269531 171.820312 212.269531 176.609375 C 212.269531 182.847656 212.363281 183.65625 213.152344 184.078125 C 215.144531 185.144531 215.457031 184.117188 215.457031 176.527344 C 215.457031 170.707031 215.320312 169.292969 214.722656 168.914062 C 213.761719 168.308594 213.5625 168.320312 212.859375 169.023438 M 235.421875 169.023438 C 235.019531 169.421875 234.832031 171.761719 234.832031 176.34375 C 234.832031 181.8125 234.976562 183.222656 235.601562 183.847656 C 236.027344 184.273438 236.453125 184.621094 236.546875 184.621094 C 236.644531 184.621094 237.070312 184.273438 237.496094 183.847656 C 238.121094 183.222656 238.265625 181.8125 238.265625 176.34375 C 238.265625 169.726562 237.984375 168.433594 236.546875 168.433594 C 236.25 168.433594 235.746094 168.699219 235.421875 169.023438 M 309.019531 168.757812 C 308.566406 168.941406 308.40625 170.96875 308.40625 176.527344 C 308.40625 184.359375 308.589844 185.023438 310.492188 184.046875 C 311.25 183.65625 311.351562 182.761719 311.351562 176.316406 C 311.351562 170.125 311.234375 168.984375 310.574219 168.730469 C 310.148438 168.566406 309.761719 168.449219 309.714844 168.472656 C 309.667969 168.492188 309.355469 168.621094 309.019531 168.757812 M 264.261719 171.621094 C 264.261719 174.347656 264.28125 174.382812 265.609375 174.230469 C 266.882812 174.082031 266.960938 173.933594 266.960938 171.621094 C 266.960938 169.3125 266.882812 169.160156 265.609375 169.015625 C 264.28125 168.859375 264.261719 168.898438 264.261719 171.621094 M 325.574219 176.527344 L 325.574219 184.128906 L 326.703125 184.128906 C 328.757812 184.128906 329.007812 183.328125 329.007812 176.714844 C 329.007812 173.28125 328.875 170.125 328.710938 169.699219 C 328.535156 169.238281 327.835938 168.925781 326.992188 168.925781 L 325.574219 168.925781 Z M 283.71875 172.847656 C 283.535156 173.792969 283.199219 175.832031 282.972656 177.386719 L 282.558594 180.207031 L 283.957031 180.207031 C 285.570312 180.207031 285.574219 180.167969 284.671875 174.808594 C 284.105469 171.4375 284.023438 171.273438 283.71875 172.847656 M 264.261719 180.972656 L 264.261719 184.191406 L 265.855469 184.039062 C 267.390625 183.890625 267.457031 183.792969 267.601562 181.515625 C 267.773438 178.84375 267.140625 177.753906 265.429688 177.753906 C 264.320312 177.753906 264.261719 177.910156 264.261719 180.972656 M 161.304688 189.796875 C 160.027344 191.964844 160.027344 191.976562 161.40625 191.976562 C 162.425781 191.976562 165.671875 189.253906 165.671875 188.398438 C 165.671875 188.207031 164.921875 188.054688 164.003906 188.054688 C 162.609375 188.054688 162.164062 188.34375 161.304688 189.796875 M 79.835938 192.714844 C 79.835938 194.464844 79.921875 195.902344 80.03125 195.902344 C 80.140625 195.902344 80.683594 195.128906 81.242188 194.183594 C 81.796875 193.238281 83.296875 191.804688 84.574219 190.996094 L 86.894531 189.523438 L 79.835938 189.523438 Z M 73.285156 192.589844 C 73.132812 193.195312 72.722656 194.070312 72.375 194.53125 C 71.78125 195.3125 71.558594 195.304688 68.796875 194.359375 C 66.890625 193.707031 65.183594 193.445312 63.945312 193.609375 C 61.589844 193.925781 59.984375 195.382812 60.429688 196.792969 C 60.761719 197.835938 61.808594 198.296875 66.832031 199.601562 C 68.449219 200.023438 70.710938 200.890625 71.859375 201.53125 L 73.949219 202.699219 L 73.949219 197.09375 C 73.949219 194.007812 73.863281 191.488281 73.757812 191.488281 C 73.652344 191.488281 73.441406 191.984375 73.285156 192.589844 M 130.027344 193.160156 C 128.050781 194.046875 127.414062 195.257812 127.414062 198.109375 C 127.414062 200.945312 127.875 201.832031 131.15625 205.308594 C 133.898438 208.207031 134.570312 210.339844 133.117188 211.546875 C 131.964844 212.5 130.847656 211.652344 130.847656 209.828125 C 130.847656 208.203125 130.796875 208.164062 128.820312 208.164062 L 126.796875 208.164062 L 127.121094 210.1875 C 127.578125 213.042969 128.226562 214.027344 130.175781 214.84375 C 133.785156 216.351562 137.140625 214.375 137.578125 210.484375 C 137.886719 207.765625 136.941406 205.800781 133.75 202.519531 C 131.160156 199.859375 130.265625 197.484375 131.476562 196.480469 C 132.523438 195.609375 133.796875 196.308594 134.121094 197.925781 C 134.367188 199.15625 134.621094 199.335938 136.121094 199.335938 L 137.84375 199.335938 L 137.570312 197.296875 C 137.070312 193.566406 133.488281 191.601562 130.027344 193.160156 M 148.058594 192.882812 C 147.40625 193.070312 146.414062 193.84375 145.851562 194.597656 C 144.9375 195.816406 144.808594 196.773438 144.667969 203.226562 C 144.546875 208.914062 144.675781 210.875 145.265625 212.285156 C 146.644531 215.589844 151.457031 216.402344 153.949219 213.75 C 154.777344 212.871094 155.117188 211.8125 155.277344 209.628906 L 155.488281 206.691406 L 153.714844 206.691406 C 151.972656 206.691406 151.9375 206.730469 151.9375 208.621094 C 151.9375 211 150.832031 212.316406 149.453125 211.578125 C 148.582031 211.113281 148.503906 210.488281 148.503906 204.074219 C 148.503906 197.429688 148.789062 195.902344 150.039062 195.902344 C 150.882812 195.902344 151.9375 197.554688 151.9375 198.878906 C 151.9375 200.203125 152.078125 200.316406 153.714844 200.316406 L 155.496094 200.316406 L 155.253906 197.820312 C 154.882812 193.933594 151.769531 191.796875 148.058594 192.882812 M 159.527344 193.128906 C 157.191406 194.183594 156.84375 195.601562 156.84375 204.042969 C 156.84375 213.042969 157.210938 214.207031 160.3125 215.039062 C 162.84375 215.722656 165.371094 214.964844 166.546875 213.171875 C 167.601562 211.5625 168.042969 199.730469 167.167969 196.488281 C 166.296875 193.257812 162.726562 191.6875 159.527344 193.128906 M 183.023438 192.792969 C 182.449219 192.914062 181.457031 193.570312 180.816406 194.25 C 179.679688 195.457031 179.652344 195.714844 179.652344 204.023438 L 179.652344 212.554688 L 180.984375 213.886719 C 182.082031 214.984375 182.75 215.21875 184.800781 215.21875 C 186.851562 215.21875 187.519531 214.984375 188.621094 213.886719 L 189.953125 212.554688 L 189.953125 203.996094 C 189.953125 195.511719 189.941406 195.421875 188.726562 194.230469 C 187.492188 193.019531 184.964844 192.382812 183.023438 192.792969 M 194.855469 192.929688 C 194.316406 193.152344 193.433594 193.824219 192.894531 194.421875 C 191.992188 195.425781 191.914062 196.203125 191.914062 204.035156 C 191.914062 212.476562 191.925781 212.566406 193.140625 213.761719 C 195.851562 216.421875 200.65625 215.496094 201.816406 212.085938 C 202.140625 211.144531 202.417969 208.660156 202.429688 206.570312 L 202.457031 202.769531 L 197.0625 202.769531 L 197.0625 204.484375 C 197.0625 205.683594 197.285156 206.203125 197.800781 206.203125 C 198.363281 206.203125 198.535156 206.824219 198.535156 208.847656 C 198.535156 211.574219 197.921875 212.386719 196.328125 211.773438 C 195.234375 211.355469 195.234375 196.632812 196.328125 196.214844 C 197.761719 195.664062 198.535156 196.429688 198.535156 198.40625 L 198.535156 200.316406 L 202.59375 200.316406 L 202.289062 198.089844 C 201.871094 195.0625 201.203125 193.980469 199.246094 193.160156 C 197.402344 192.390625 196.316406 192.332031 194.855469 192.929688 M 206.617188 193.128906 C 204.277344 194.183594 203.929688 195.601562 203.929688 204.042969 C 203.929688 213.042969 204.296875 214.207031 207.398438 215.039062 C 209.929688 215.722656 212.457031 214.964844 213.636719 213.171875 C 214.6875 211.5625 215.128906 199.730469 214.257812 196.488281 C 213.386719 193.257812 209.8125 191.6875 206.617188 193.128906 M 219.382812 192.804688 C 217.800781 193.214844 216.714844 194.453125 216.171875 196.46875 C 215.398438 199.347656 216.28125 201.828125 219.078125 204.597656 C 222.679688 208.164062 223.546875 210.546875 221.621094 211.578125 C 220.421875 212.222656 219.136719 211.074219 219.136719 209.355469 C 219.136719 208.3125 218.914062 208.164062 217.355469 208.164062 L 215.574219 208.164062 L 215.828125 210.429688 C 216.179688 213.539062 217.835938 215.164062 220.714844 215.226562 C 223.542969 215.292969 225.3125 214.089844 226.058594 211.597656 C 226.878906 208.867188 226.015625 206.261719 223.417969 203.625 C 220.683594 200.855469 219.632812 199.308594 219.628906 198.046875 C 219.621094 195.644531 222.386719 195.40625 222.664062 197.78125 C 222.78125 198.8125 223.113281 199.125 224.222656 199.25 C 224.996094 199.339844 225.84375 199.203125 226.097656 198.945312 C 226.738281 198.304688 225.75 194.796875 224.65625 193.8125 C 223.699219 192.953125 220.886719 192.417969 219.382812 192.804688 M 115.640625 203.996094 L 115.640625 215.03125 L 119.566406 215.03125 L 119.566406 206.691406 L 121.3125 206.691406 C 123.695312 206.691406 124.914062 205.941406 125.738281 203.972656 C 127.183594 200.507812 126.246094 194.660156 124.050781 193.488281 C 123.507812 193.195312 121.394531 192.957031 119.351562 192.957031 L 115.640625 192.957031 Z M 139.183594 203.996094 L 139.183594 215.03125 L 143.109375 215.03125 L 143.109375 192.957031 L 139.183594 192.957031 Z M 169.105469 203.996094 L 169.105469 215.03125 L 178.425781 215.03125 L 178.425781 211.597656 L 173.027344 211.597656 L 173.027344 192.957031 L 169.105469 192.957031 Z M 39.613281 198.425781 L 39.613281 202.910156 L 43.09375 202.617188 C 47.09375 202.285156 48.71875 201.429688 49.15625 199.4375 C 49.910156 195.996094 47.355469 193.9375 42.328125 193.9375 L 39.613281 193.9375 Z M 161.046875 196.671875 C 159.917969 197.800781 159.914062 210.1875 161.046875 211.316406 C 161.625 211.898438 162.046875 211.960938 162.761719 211.578125 C 163.628906 211.113281 163.710938 210.488281 163.710938 204.074219 C 163.710938 199.289062 163.523438 196.894531 163.121094 196.488281 C 162.34375 195.714844 161.972656 195.746094 161.046875 196.671875 M 183.941406 196.226562 C 183.488281 196.410156 183.328125 198.433594 183.328125 203.984375 C 183.328125 210.207031 183.457031 211.539062 184.066406 211.773438 C 184.46875 211.929688 185.132812 211.929688 185.535156 211.773438 C 186.664062 211.34375 186.625 196.632812 185.496094 196.199219 C 185.070312 196.035156 184.683594 195.917969 184.636719 195.941406 C 184.59375 195.960938 184.28125 196.089844 183.941406 196.226562 M 208.132812 196.671875 C 207.003906 197.800781 207.003906 210.1875 208.132812 211.316406 C 208.714844 211.898438 209.136719 211.960938 209.851562 211.578125 C 210.71875 211.113281 210.796875 210.488281 210.796875 204.074219 C 210.796875 199.289062 210.613281 196.894531 210.207031 196.488281 C 209.433594 195.714844 209.058594 195.746094 208.132812 196.671875 M 119.566406 199.824219 L 119.566406 203.324219 L 120.914062 203.167969 C 122.230469 203.015625 122.261719 202.9375 122.261719 199.824219 C 122.261719 196.710938 122.230469 196.632812 120.914062 196.480469 L 119.566406 196.328125 Z M 33.238281 218.710938 C 33.238281 219.335938 34.515625 219.445312 41.820312 219.445312 C 49.125 219.445312 50.402344 219.335938 50.402344 218.710938 C 50.402344 218.082031 49.125 217.972656 41.820312 217.972656 C 34.515625 217.972656 33.238281 218.082031 33.238281 218.710938 M 50.894531 218.710938 C 50.894531 219.304688 51.683594 219.445312 55.0625 219.445312 C 58.441406 219.445312 59.234375 219.304688 59.234375 218.710938 C 59.234375 218.113281 58.441406 217.972656 55.0625 217.972656 C 51.683594 217.972656 50.894531 218.113281 50.894531 218.710938 M 59.722656 218.710938 C 59.722656 219.304688 60.515625 219.445312 63.894531 219.445312 C 67.273438 219.445312 68.0625 219.304688 68.0625 218.710938 C 68.0625 218.113281 67.273438 217.972656 63.894531 217.972656 C 60.515625 217.972656 59.722656 218.113281 59.722656 218.710938 " fill-opacity="1" fill-rule="evenodd"/></g></svg>