<?xml version="1.0" encoding="utf-8"?>
<!-- Generator: Adobe Illustrator 27.5.0, SVG Export Plug-In . SVG Version: 6.00 Build 0)  -->
<svg version="1.1" id="Layer_1" xmlns="http://www.w3.org/2000/svg" xmlns:xlink="http://www.w3.org/1999/xlink" x="0px" y="0px"
	 viewBox="0 0 2599 1733" style="enable-background:new 0 0 2599 1733;" xml:space="preserve">
<g>
	<rect style="fill:#FAFBFC;" width="2598.076" height="1732.051"/>
	<g>
		<g>
			<path style="fill:#003341;" d="M1666.356,734.239l-20.545,114.141h-10.419l16.286-90.498l-53.122,75.986h-5.139l-27.439-77.451
				l-16.433,91.964h-10.425l20.55-114.141h8.798l29.648,84.79l58.701-84.79H1666.356z"/>
			<path style="fill:#003341;" d="M1721.828,744.676l-7.335,40.6h53.269l-1.756,10.272h-53.275l-7.629,42.396h61.786l-1.915,10.436
				h-72.498l20.55-114.141h70.442l-1.909,10.437H1721.828z"/>
			<path style="fill:#003341;" d="M1910.107,734.239l-20.544,114.141h-8.803l-49.164-94.575l-17.02,94.575h-10.713l20.544-114.141
				h8.804l49.164,94.575l17.02-94.575H1910.107z"/>
			<path style="fill:#003341;" d="M1974.97,744.676h-36.249l1.914-10.437h83.205l-2.05,10.437h-36.108l-18.635,103.704h-10.712
				L1974.97,744.676z"/>
			<path style="fill:#003341;" d="M2099.128,817.887h-57.38l-17.76,30.493h-11.741l67.512-114.141h10.713l26.411,114.141h-10.86
				L2099.128,817.887z M2097.072,808.105l-13.942-61.638l-35.808,61.638H2097.072z"/>
			<path style="fill:#003341;" d="M2167.661,734.239h10.713l-18.635,103.705h57.521l-1.903,10.436h-68.246L2167.661,734.239z"/>
		</g>
		<g>
			<path style="fill:#003341;" d="M1610.761,890.238v93.571h-23.821v-36.493h-32.484v36.493h-23.821v-93.571h23.821v35.157h32.484
				v-35.157H1610.761z"/>
			<path style="fill:#003341;" d="M1732.511,963.355v20.453H1664.9v-93.571h66.043v20.45h-42.462v15.775h37.412v19.784h-37.412
				v17.108H1732.511z"/>
			<path style="fill:#003341;" d="M1839.46,965.628h-35.609l-6.619,18.181h-24.303l37.177-93.571h23.457l37.3,93.571h-24.784
				L1839.46,965.628z M1832.483,946.112l-10.824-29.941l-10.83,29.941H1832.483z"/>
			<path style="fill:#003341;" d="M1914.894,890.238h23.822v72.583h40.178v20.988h-63.999V890.238z"/>
			<path style="fill:#003341;" d="M2035.675,911.222h-25.865v-20.984h75.434v20.984h-25.748v72.586h-23.822V911.222z"/>
			<path style="fill:#003341;" d="M2211.563,890.238v93.571h-23.821v-36.493h-32.478v36.493h-23.821v-93.571h23.821v35.157h32.478
				v-35.157H2211.563z"/>
		</g>
		<g>
			<path style="fill:#03968A;" d="M1562.843,1097.571h-18.524l-5.315,8.525h-7.312l23.938-36.839h6.789l9.162,36.839h-6.789
				L1562.843,1097.571z M1561.58,1092.202l-3.735-16.21l-10.155,16.21H1561.58z"/>
			<path style="fill:#03968A;" d="M1637.736,1077.992l-15.687,28.103h-6.472l-3.788-19.367l-11,19.367h-6.372l-5.157-28.103h6.003
				l3.583,20.682l11.735-20.682h5.626l3.735,20.682l11.582-20.682H1637.736z"/>
			<path style="fill:#03968A;" d="M1682.419,1077.992l-5.58,28.103h-6.267l0.582-2.896c-2.455,2.176-5.509,3.263-9.162,3.263
				c-2.314,0-4.411-0.49-6.284-1.471c-1.879-0.984-3.359-2.414-4.452-4.291c-1.086-1.876-1.633-4.079-1.633-6.605
				c0-3.121,0.693-5.938,2.079-8.448c1.386-2.508,3.283-4.464,5.686-5.867c2.407-1.404,5.098-2.105,8.081-2.105
				c4.487,0,7.682,1.491,9.573,4.475l0.793-4.158H1682.419z M1668.652,1099.491c1.457-0.896,2.608-2.14,3.447-3.738
				c0.84-1.594,1.263-3.409,1.263-5.444c0-2.211-0.646-3.941-1.95-5.186c-1.292-1.245-3.124-1.868-5.474-1.868
				c-1.856,0-3.512,0.446-4.968,1.342c-1.457,0.896-2.608,2.14-3.448,3.735c-0.84,1.598-1.262,3.415-1.262,5.448
				c0,2.211,0.646,3.941,1.95,5.186c1.292,1.245,3.118,1.868,5.468,1.868C1665.54,1100.833,1667.196,1100.386,1668.652,1099.491z"/>
			<path style="fill:#03968A;" d="M1714.75,1078.571c1.774-0.596,3.888-0.896,6.343-0.896l-1.209,6.264
				c-0.594-0.106-1.146-0.159-1.633-0.159c-5.368,0-8.616,2.825-9.732,8.475l-2.795,13.84h-6.578l5.579-28.103h6.261l-0.734,3.63
				C1711.479,1080.186,1712.983,1079.167,1714.75,1078.571z"/>
			<path style="fill:#03968A;" d="M1763.409,1093.991h-22.318c0.106,4.595,2.807,6.895,8.105,6.895c1.615,0,3.124-0.255,4.528-0.763
				c1.404-0.508,2.596-1.219,3.577-2.132l2.737,4.578c-1.433,1.298-3.166,2.273-5.18,2.922c-2.021,0.649-4.135,0.972-6.343,0.972
				c-2.807,0-5.256-0.508-7.341-1.524c-2.091-1.02-3.694-2.467-4.816-4.344c-1.128-1.876-1.686-4.044-1.686-6.499
				c0-3.121,0.693-5.938,2.079-8.448c1.386-2.508,3.319-4.464,5.791-5.867c2.473-1.404,5.257-2.105,8.34-2.105
				c3.929,0,7.071,1.098,9.421,3.288c2.349,2.194,3.53,5.204,3.53,9.027C1763.832,1091.36,1763.691,1092.693,1763.409,1093.991z
				 M1744.909,1084.729c-1.563,1.193-2.643,2.825-3.236,4.895h16.104c0.036-2.105-0.604-3.747-1.92-4.922
				c-1.315-1.175-3.077-1.765-5.286-1.765C1748.356,1082.938,1746.471,1083.537,1744.909,1084.729z"/>
			<path style="fill:#03968A;" d="M1809.061,1080.151c1.844,1.647,2.766,3.982,2.766,6.998c0,0.843-0.129,1.964-0.37,3.368
				l-3.107,15.579h-6.578l3.054-15.42c0.141-0.702,0.211-1.421,0.211-2.158c0-3.403-1.879-5.104-5.632-5.104
				c-2.425,0-4.422,0.675-5.997,2.026c-1.585,1.351-2.655,3.377-3.212,6.078l-2.949,14.578h-6.578l5.573-28.103h6.267l-0.629,3.104
				c2.526-2.279,5.75-3.421,9.679-3.421C1804.721,1077.675,1807.222,1078.5,1809.061,1080.151z"/>
			<path style="fill:#03968A;" d="M1859.663,1093.991h-22.312c0.106,4.595,2.807,6.895,8.104,6.895c1.609,0,3.119-0.255,4.523-0.763
				s2.596-1.219,3.583-2.132l2.737,4.578c-1.445,1.298-3.172,2.273-5.192,2.922c-2.015,0.649-4.129,0.972-6.337,0.972
				c-2.807,0-5.256-0.508-7.341-1.524c-2.085-1.02-3.694-2.467-4.816-4.344c-1.122-1.876-1.686-4.044-1.686-6.499
				c0-3.121,0.693-5.938,2.079-8.448c1.386-2.508,3.313-4.464,5.791-5.867c2.472-1.404,5.251-2.105,8.34-2.105
				c3.93,0,7.071,1.098,9.42,3.288c2.35,2.194,3.524,5.204,3.524,9.027C1860.081,1091.36,1859.939,1092.693,1859.663,1093.991z
				 M1841.163,1084.729c-1.563,1.193-2.637,2.825-3.236,4.895h16.104c0.036-2.105-0.605-3.747-1.92-4.922
				c-1.316-1.175-3.083-1.765-5.292-1.765C1844.611,1082.938,1842.725,1083.537,1841.163,1084.729z"/>
			<path style="fill:#03968A;" d="M1879.685,1105.596c-2.156-0.579-3.829-1.307-5.027-2.185l2.737-5.051
				c1.162,0.84,2.619,1.506,4.369,2c1.756,0.491,3.559,0.734,5.421,0.734c2.109,0,3.694-0.287,4.763-0.866
				c1.069-0.578,1.609-1.413,1.609-2.502c0-0.84-0.446-1.454-1.345-1.842c-0.899-0.385-2.308-0.79-4.234-1.21
				c-2.003-0.384-3.642-0.799-4.922-1.236c-1.28-0.438-2.385-1.157-3.313-2.159c-0.934-0.998-1.398-2.375-1.398-4.132
				c0-2.91,1.221-5.219,3.653-6.919c2.443-1.703,5.679-2.555,9.714-2.555c1.927,0,3.806,0.22,5.627,0.657
				c1.826,0.441,3.318,1.028,4.475,1.765l-2.419,5.051c-1.157-0.737-2.467-1.28-3.924-1.63c-1.456-0.352-2.919-0.529-4.393-0.529
				c-2.068,0-3.641,0.317-4.71,0.948c-1.069,0.632-1.603,1.457-1.603,2.472c0,0.914,0.464,1.571,1.392,1.973
				c0.928,0.405,2.379,0.817,4.346,1.24c1.961,0.385,3.577,0.796,4.839,1.236c1.262,0.437,2.349,1.148,3.265,2.131
				c0.911,0.981,1.363,2.314,1.363,4c0,3.016-1.221,5.35-3.676,6.998c-2.461,1.65-5.72,2.472-9.796,2.472
				C1884.113,1106.462,1881.846,1106.174,1879.685,1105.596z"/>
			<path style="fill:#03968A;" d="M1920.474,1105.596c-2.156-0.579-3.835-1.307-5.028-2.185l2.737-5.051
				c1.157,0.84,2.614,1.506,4.37,2c1.756,0.491,3.559,0.734,5.421,0.734c2.103,0,3.688-0.287,4.758-0.866
				c1.075-0.578,1.609-1.413,1.609-2.502c0-0.84-0.446-1.454-1.339-1.842c-0.899-0.385-2.314-0.79-4.24-1.21
				c-1.997-0.384-3.642-0.799-4.922-1.236c-1.28-0.438-2.384-1.157-3.312-2.159c-0.928-0.998-1.398-2.375-1.398-4.132
				c0-2.91,1.222-5.219,3.659-6.919c2.438-1.703,5.68-2.555,9.708-2.555c1.932,0,3.806,0.22,5.632,0.657
				c1.826,0.441,3.318,1.028,4.476,1.765l-2.426,5.051c-1.151-0.737-2.46-1.28-3.917-1.63c-1.457-0.352-2.919-0.529-4.393-0.529
				c-2.073,0-3.642,0.317-4.71,0.948c-1.075,0.632-1.603,1.457-1.603,2.472c0,0.914,0.458,1.571,1.392,1.973
				c0.928,0.405,2.379,0.817,4.34,1.24c1.962,0.385,3.583,0.796,4.839,1.236c1.268,0.437,2.355,1.148,3.266,2.131
				c0.916,0.981,1.368,2.314,1.368,4c0,3.016-1.227,5.35-3.682,6.998c-2.455,1.65-5.721,2.472-9.79,2.472
				C1924.902,1106.462,1922.629,1106.174,1920.474,1105.596z"/>
			<path style="fill:#03968A;" d="M2035.017,1069.256l-7.365,36.839h-6.478l4.787-24.156l-15.728,19.945h-3.054l-8.422-20.418
				l-4.898,24.629h-6.519l7.365-36.839h5.58l9.737,24.523l19.099-24.523H2035.017z"/>
			<path style="fill:#03968A;" d="M2057.358,1104.912c-2.056-1.037-3.641-2.481-4.763-4.343c-1.122-1.859-1.686-4.017-1.686-6.472
				c0-3.121,0.711-5.929,2.132-8.422c1.422-2.49,3.401-4.446,5.95-5.867c2.537-1.422,5.409-2.132,8.604-2.132
				c2.731,0,5.139,0.511,7.206,1.527c2.073,1.019,3.665,2.455,4.792,4.317c1.122,1.858,1.68,4.017,1.68,6.472
				c0,3.125-0.717,5.929-2.155,8.419c-1.439,2.493-3.43,4.458-5.973,5.897c-2.543,1.439-5.415,2.155-8.604,2.155
				C2061.804,1106.462,2059.414,1105.946,2057.358,1104.912z M2069.938,1099.491c1.457-0.896,2.602-2.14,3.442-3.738
				c0.845-1.594,1.268-3.409,1.268-5.444c0-2.211-0.652-3.941-1.95-5.186c-1.298-1.245-3.124-1.868-5.474-1.868
				c-1.856,0-3.518,0.446-4.974,1.342c-1.451,0.896-2.602,2.14-3.448,3.735c-0.84,1.598-1.262,3.415-1.262,5.448
				c0,2.211,0.652,3.941,1.95,5.186s3.119,1.868,5.468,1.868C2066.826,1100.833,2068.482,1100.386,2069.938,1099.491z"/>
			<path style="fill:#03968A;" d="M2126.667,1080.151c1.844,1.647,2.766,3.982,2.766,6.998c0,0.843-0.129,1.964-0.37,3.368
				l-3.107,15.579h-6.578l3.054-15.42c0.141-0.702,0.212-1.421,0.212-2.158c0-3.403-1.879-5.104-5.632-5.104
				c-2.426,0-4.423,0.675-5.997,2.026c-1.586,1.351-2.655,3.377-3.213,6.078l-2.948,14.578h-6.578l5.574-28.103h6.267l-0.629,3.104
				c2.525-2.279,5.75-3.421,9.679-3.421C2122.326,1077.675,2124.829,1078.5,2126.667,1080.151z"/>
			<path style="fill:#03968A;" d="M2157.272,1096.675c-0.07,0.56-0.106,0.966-0.106,1.209c0,2.105,1.104,3.16,3.313,3.16
				c1.374,0,2.596-0.37,3.688-1.107l1.157,4.843c-1.792,1.122-4.053,1.683-6.789,1.683c-2.42,0-4.364-0.664-5.844-2
				c-1.469-1.33-2.208-3.175-2.208-5.524c0-0.772,0.07-1.51,0.211-2.211l2.684-13.261h-4.575l1.045-5.262h4.581l1.263-6.422h6.577
				l-1.315,6.422h7.582l-1.056,5.262h-7.577L2157.272,1096.675z"/>
			<path style="fill:#03968A;" d="M2212.396,1080.151c1.845,1.647,2.76,3.999,2.76,7.051c0,0.843-0.117,1.947-0.365,3.315
				l-3.101,15.579h-6.584l3.054-15.42c0.135-0.702,0.206-1.421,0.206-2.158c0-3.403-1.874-5.104-5.627-5.104
				c-2.419,0-4.422,0.675-6.002,2.026c-1.574,1.351-2.643,3.377-3.207,6.078l-2.948,14.578h-6.578l7.788-39.051h6.578l-2.737,13.737
				c2.419-2.071,5.509-3.107,9.268-3.107C2208.056,1077.675,2210.553,1078.5,2212.396,1080.151z"/>
		</g>
		<g>
			<rect x="1684.721" y="1036.026" style="fill:#03968A;" width="377.659" height="5.609"/>
		</g>
	</g>
	<g>
		<g>
			<path style="fill:#03968A;" d="M895.957,1526.074c-74.753,0.002-169.434-13.753-262.305-27.244
				c-140.156-20.359-285.074-41.409-328.459-6.444c-8.046,6.485-12.304,14.6-13.021,24.809c-0.17,2.486-2.208,4.387-4.815,4.185
				c-2.484-0.173-4.358-2.329-4.181-4.813c0.886-12.673,6.39-23.171,16.356-31.204c46.456-37.435,186.812-17.045,335.419,4.54
				c158.633,23.042,322.646,46.863,378.558,1.806c11.857-9.557,18.142-21.699,19.222-37.122c0.429-6.104-1.562-11.213-6.072-15.623
				c-9.867-9.639-30.2-15.255-57.832-18.02c0,0.067-0.006,0.136-0.012,0.204c-0.576,8.245-4.229,14.885-10.854,19.74
				c-26.641,19.523-100.594,7.271-193.143-13.83c-28.461,2.417-57.58,5.136-86.535,7.84
				c-166.732,15.568-324.219,30.273-362.735-7.356c-6.719-6.565-9.802-14.555-9.156-23.746c1.116-15.966,7.94-28.649,20.291-37.695
				c6.655-4.878,14.783-8.613,24.203-11.35c34.852-46.42,171.8-43.971,315.704-41.398c170.467,3.051,363.628,6.497,369.571-78.523
				c0.481-6.861-1.598-12.354-6.343-16.791c-29.513-27.596-151.192-10.807-268.848,5.429
				c-131.428,18.134-267.32,36.885-306.394,0.363c-8.505-7.952-12.38-18.205-11.523-30.476
				c6.196-88.655,201.143-91.093,407.535-93.674c202.535-2.533,411.964-5.152,418.16-93.767c0.464-6.679-1.733-12.295-6.725-17.17
				c-39.467-38.539-235.23-20.205-424.573-2.475c-219.243,20.531-445.933,41.758-501.24-12.259
				c-9.656-9.434-14.084-20.949-13.156-34.225c1.257-18,13.814-36.704,34.452-51.317c17.314-12.258,37.84-18.268,55.642-22.531
				c50.691-12.135,102.673-15.515,154.521-10.043c2.473,0.261,4.27,2.481,4.011,4.958c-0.264,2.478-2.432,4.282-4.963,4.013
				c-50.802-5.364-101.769-2.05-151.467,9.846c-16.961,4.061-36.472,9.746-52.529,21.118c-8.716,6.171-29.154,22.867-30.669,44.582
				c-0.746,10.661,2.678,19.54,10.466,27.144c52.312,51.103,276.906,30.07,494.093,9.73c200.185-18.746,389.27-36.456,431.715,5.004
				c6.906,6.742,10.072,14.904,9.42,24.252c-6.778,96.903-220.43,99.575-427.046,102.16c-193.225,2.417-393.029,4.916-398.65,85.282
				c-0.669,9.56,2.173,17.167,8.687,23.258c35.932,33.586,169.656,15.137,299-2.711c125.273-17.286,243.593-33.61,276.242-3.082
				c6.766,6.323,9.855,14.401,9.179,24.009c-6.537,93.569-195.768,90.193-378.733,86.915
				c-125.661-2.245-254.87-4.552-299.077,28.778c65.479-10.288,174.831,13.591,285.792,40.081
				c141.242-13.72,272.923-25.764,307.022,7.421c3.994,3.888,6.631,8.323,7.882,13.256c30.722,3.002,53.428,9.379,64.915,20.604
				c6.437,6.283,9.386,13.922,8.769,22.703c-1.245,17.813-8.833,32.455-22.564,43.518
				C994.308,1518.768,950.418,1526.073,895.957,1526.074z M344.671,1366.422c-4.739,1.949-8.98,4.258-12.657,6.955
				c-10.254,7.51-15.693,17.665-16.626,31.047c-0.458,6.52,1.656,11.971,6.466,16.665c35.52,34.716,198.247,19.517,355.588,4.826
				c19.875-1.856,39.62-3.699,59.036-5.44c-16.539-3.901-33.542-7.996-50.862-12.168c-10.947-2.635-22.001-5.297-33.112-7.951
				c-2.49,0.241-4.969,0.483-7.453,0.724c-135.863,13.21-264.178,25.689-295.071-4.374c-5.486-5.339-7.999-11.852-7.477-19.355
				C342.774,1373.489,343.502,1369.852,344.671,1366.422z M795.339,1424.575c75.352,16.185,136.203,24.49,157.288,9.036
				c4.452-3.258,6.801-7.541,7.189-13.091c0.006-0.121,0.017-0.239,0.023-0.358C916.835,1416.95,858.639,1419.678,795.339,1424.575z
				 M680.078,1397.696c2.549,0.612,5.11,1.229,7.653,1.842c26.494,6.381,52.682,12.687,77.719,18.402
				c74.7-6.343,142.869-10.435,192.75-6.86c-0.993-2.138-2.432-4.117-4.329-5.963C924.776,1376.8,804.553,1385.821,680.078,1397.696
				z M356.546,1362.539c-2.925,4.63-4.645,9.761-5.045,15.442c-0.335,4.8,1.227,8.811,4.769,12.261
				c26.523,25.814,147.368,15.457,269.071,3.688C519.473,1369.158,413.063,1348.047,356.546,1362.539z"/>
		</g>
		<g>
			<path style="fill:#03968A;" d="M1135.274,975.44c-115.353,0.006-290.842-47.823-462.126-94.5
				c-9.491-2.586-18.941-5.161-28.361-7.722c-153.476,16.119-283.495,23.384-320.854-12.365
				c-8.257-7.903-12.04-17.705-11.241-29.136c0.722-10.354,3.524-19.812,8.363-28.3c-29.342-1.232-51.478,2.015-63.982,11.281
				c-7.095,5.256-10.677,12.348-10.947,21.68c-0.376,12.693,5.95,25.069,18.794,36.783c49.875,45.5,182.178,67.937,267.133,57.603
				c2.496-0.322,4.722,1.46,5.021,3.932c0.305,2.472-1.457,4.722-3.929,5.023c-87.087,10.583-221.146-11.4-274.309-59.892
				c-14.871-13.567-22.183-28.273-21.731-43.714c0.359-12.106,5.268-21.749,14.595-28.662
				c14.947-11.075,40.918-14.624,75.281-12.709c2.943-3.649,6.332-7.08,10.161-10.284c24.996-20.93,67.805-31.481,121.72-35.41
				c-72.673,0.612-128.955-7.744-154.956-32.274c-11.969-11.293-17.431-25.692-16.233-42.797
				c1.521-21.795,10.724-39.93,27.351-53.902c69.561-58.442,264.813-38.206,453.621-18.633
				c184.034,19.076,374.323,38.801,438.839-15.415c14.189-11.924,21.719-26.742,23.016-45.298
				c1.051-15.005-3.512-27.086-13.948-36.935c-0.781-0.737-1.592-1.458-2.432-2.167c-3.007,5.742-7.353,10.809-13.021,15.158
				c-53.498,41.03-219.801,14.424-407.135-21.403c-26.33,3.265-52.858,6.67-79.276,10.059
				c-216.524,27.783-421.055,54.021-475.734,2.409c-10.542-9.952-15.364-22.556-14.318-37.46
				c0.945-13.53,7.012-24.677,18.036-33.133c7.752-5.947,17.849-10.484,30.018-13.786c-0.106-1.857-0.089-3.759,0.047-5.701
				c2.438-34.895,66.219-44.716,96.871-49.437c3.248-0.499,6.108-0.939,8.452-1.344c69.467-11.945,141.066-16.722,210.31-21.343
				l16.368-1.095c17.461-1.176,34.927-2.301,52.394-3.424c63.759-4.102,129.69-8.344,194.236-15.204
				c7.242-0.77,14.759-1.48,22.447-2.207c47.032-4.443,100.336-9.481,139.064-32.608c4.998-2.98,10.548-6.544,13.256-11.107
				c2.337-3.929,1.685-6.28,0.998-7.707c-3.653-7.544-21.648-13.169-36.819-15.202c-39.831-5.34-80.098-4.63-119.712,2.107
				c-2.496,0.417-4.787-1.233-5.203-3.69c-0.417-2.455,1.234-4.785,3.688-5.203c40.513-6.891,81.7-7.617,122.425-2.155
				c8.516,1.142,36.848,5.976,43.737,20.214c1.697,3.509,2.842,9.173-1.357,16.242c-3.782,6.378-10.442,10.7-16.386,14.25
				c-40.478,24.169-94.862,29.308-142.84,33.842c-7.658,0.724-15.135,1.43-22.347,2.197
				c-64.734,6.878-130.753,11.126-194.605,15.235c-17.461,1.123-34.916,2.246-52.364,3.422l-16.381,1.097
				c-69.015,4.604-140.379,9.366-209.382,21.233c-2.391,0.41-5.298,0.859-8.61,1.369c-26.124,4.023-87.304,13.443-89.242,41.148
				c-0.07,0.997-0.1,1.976-0.094,2.938c73.032-15.183,208.114,6.543,357.954,35.007c33.817-3.381,68.293-7.096,102.556-10.788
				c212.167-22.855,412.545-44.443,464.093,5.199c9.361,9.019,13.649,20.183,12.739,33.183c-0.218,3.086-0.699,6.048-1.451,8.88
				c1.85,1.412,3.588,2.882,5.209,4.415c12.351,11.656,17.989,26.501,16.756,44.123c-1.457,20.832-10.278,38.184-26.212,51.576
				c-67.447,56.68-251.128,37.638-445.57,17.482c-186.959-19.38-380.26-39.416-446.891,16.566
				c-14.888,12.513-22.788,28.089-24.156,47.624c-1.01,14.48,3.377,26.128,13.426,35.607
				c55.971,52.804,269.405,25.331,475.839-1.236c200.937-25.865,390.732-50.296,441.082-2.8
				c9.696,9.149,14.125,20.723,13.168,34.406c-0.893,12.768-6.561,23.612-16.85,32.226c-52.817,44.225-225.439,25.728-408.193,6.142
				c-199.351-21.362-405.486-43.454-472.21,12.424c-1.621,1.355-3.142,2.745-4.576,4.176c74.918,6.365,184.851,35.27,307.117,68.509
				c35.985-3.775,72.88-7.999,109.546-12.197c214.827-24.592,436.965-50.024,495.755,6.227c11.306,10.82,16.48,24.379,15.364,40.302
				c-1.615,23.099-11.5,41.248-29.377,53.943C1213.833,968.615,1178.829,975.438,1135.274,975.44z M669.436,870.581
				c2.026,0.552,4.047,1.103,6.079,1.656c223.054,60.784,475.863,129.671,556.025,72.738c15.787-11.21,24.162-26.655,25.601-47.215
				c0.928-13.307-3.195-24.152-12.604-33.154c-55.742-53.323-275.725-28.141-488.49-3.784
				C726.799,864.171,697.786,867.493,669.436,870.581z M331.287,804c-5.686,8.265-8.845,17.645-9.597,28.345
				c-0.611,8.753,2.161,15.946,8.48,21.989c32.708,31.298,152.419,26.034,290.285,12.287
				C506.804,835.898,401.252,809.001,331.287,804z M515.097,747.183c88.297,0,195.58,11.498,301.003,22.795
				c180.798,19.375,351.57,37.679,401.445-4.089c8.458-7.078,12.915-15.564,13.643-25.937c0.769-11.009-2.62-19.911-10.36-27.216
				c-47.238-44.564-243.722-19.275-433.741,5.184c-94.951,12.222-191.393,24.635-273.834,29.265
				C513.869,747.183,514.48,747.183,515.097,747.183z M823.453,491.777c168.987,31.684,324.419,54.453,372.156,17.85
				c5.039-3.865,8.727-8.294,11.124-13.378C1148.3,459.256,992.522,471.449,823.453,491.777z M274.194,432.372
				c-10.595,2.953-19.352,6.92-26.029,12.043c-9.01,6.91-13.761,15.612-14.531,26.604c-0.857,12.248,2.913,22.15,11.518,30.272
				c51.578,48.678,263.468,21.494,468.386-4.797c17.261-2.214,34.557-4.433,51.824-6.618c-14.407-2.787-28.896-5.607-43.449-8.443
				c-27.568-5.369-55.266-10.762-82.699-15.969c-168.029,16.84-312.209,24.843-354.113-15.522
				C279.75,444.785,276.103,438.907,274.194,432.372z M1068.28,463.63c61.92,0,111.73,6.544,141.207,23.816
				c0.234-1.341,0.399-2.72,0.499-4.137c0.722-10.356-2.549-18.879-10.002-26.057c-48.5-46.719-256.103-24.355-456.869-2.727
				c-24.438,2.632-48.706,5.248-72.615,7.738c17.584,3.392,35.315,6.845,53.14,10.315c23.54,4.586,47.173,9.187,70.654,13.675
				C893.854,473.927,990.607,463.63,1068.28,463.63z M282.968,430.241c1.504,4.879,4.287,9.251,8.393,13.203
				c36.531,35.181,167.078,30.041,315.962,16.036C473.057,434.62,349.094,416.349,282.968,430.241z"/>
		</g>
	</g>
	<path style="fill:#003341;" d="M1233.152,811.952c-33.942-28.827-58.94-64.258-79.433-103.347
		c-18.662-35.595,27.738-265.805-211.036-374.382c-67.437-30.665-138.716-43.714-212.152-45.946
		c-66.162-2.01-132.026,0.558-194.338,26.638c-237.796,99.528-277.554,405.375-124.332,558.019
		c104.268,103.873,134.448,229.762,110.685,371.301c-11.217,66.819-75.25,192.914-112.253,247.92l477.137-4.274
		c2.044-14.037,12.732-89.509,15.311-103.423c6.694-36.115,13.387-72.229,20.08-108.345c2.892-15.598,5.857-31.426,12.884-45.649
		c18.44-37.32,79.34-53.084,118.144-50.741c22.655,1.369,45.079,6.12,67.979,4.358c115.832-8.918,37.508-268.323,96.754-302.866
		c3.019-1.76,6.181-3.277,9.182-5.065C1257.999,858.139,1260.246,834.963,1233.152,811.952z"/>
	<g>
		<path style="fill:#03968A;" d="M1235.005,545.552c-0.105,0-0.211-0.003-0.323-0.01c-2.484-0.174-4.358-2.33-4.182-4.814
			c1.045-15.005-3.512-27.086-13.948-36.935c-58.526-55.233-283.907-26.317-501.864,1.648
			c-216.524,27.783-421.055,54.021-475.734,2.409c-10.542-9.952-15.364-22.556-14.318-37.46c0.17-2.486,2.249-4.372,4.815-4.186
			c2.484,0.174,4.358,2.33,4.182,4.814c-0.857,12.248,2.913,22.15,11.518,30.272c51.578,48.678,263.468,21.494,468.386-4.797
			c220.054-28.234,447.578-57.422,509.205,0.74c12.351,11.656,17.989,26.501,16.756,44.123
			C1239.334,543.735,1237.355,545.552,1235.005,545.552z"/>
	</g>
	<g>
		<path style="fill:#03968A;" d="M347.009,1382.177c-0.106,0-0.211-0.003-0.323-0.012c-2.484-0.173-4.358-2.329-4.182-4.813
			c4.88-69.707,159.96-66.933,324.084-63.999c170.467,3.051,363.628,6.497,369.571-78.523c0.17-2.486,2.29-4.366,4.816-4.186
			c2.484,0.175,4.358,2.331,4.182,4.815c-6.537,93.569-195.768,90.193-378.733,86.915c-152.707-2.728-310.64-5.555-314.922,55.608
			C351.337,1380.359,349.358,1382.177,347.009,1382.177z"/>
	</g>
	<g>
		<path style="fill:#03968A;" d="M447.556,1198.18c-0.106,0-0.212-0.003-0.323-0.012c-2.484-0.173-4.358-2.329-4.182-4.813
			c6.196-88.655,201.143-91.093,407.535-93.674c202.535-2.533,411.964-5.152,418.16-93.767c0.17-2.486,2.243-4.339,4.816-4.186
			c2.484,0.174,4.358,2.33,4.182,4.814c-6.778,96.903-220.43,99.575-427.046,102.16c-193.225,2.417-393.029,4.916-398.65,85.282
			C451.885,1196.362,449.906,1198.18,447.556,1198.18z"/>
	</g>
	<g>
		<path style="fill:#03968A;" d="M1135.944,975.447c-114.461,0-288.493-47.53-458.338-93.916
			c-190.677-52.075-370.763-101.268-419.452-66.714c-7.447,5.285-11.388,12.397-12.04,21.742c-0.17,2.486-2.249,4.352-4.816,4.186
			c-2.484-0.175-4.358-2.331-4.182-4.815c0.84-12.041,6.161-21.62,15.816-28.471c52.171-37.01,225.892,10.428,427.046,65.369
			c221.158,60.397,471.834,128.86,551.509,72.301c15.816-11.223,24.209-26.719,25.654-47.37c0.176-2.486,2.255-4.34,4.816-4.186
			c2.484,0.174,4.358,2.33,4.182,4.814c-1.621,23.19-11.523,41.391-29.431,54.097
			C1213.909,968.666,1179.17,975.447,1135.944,975.447z"/>
	</g>
	<g>
		<path style="fill:#03968A;" d="M292.177,678.8c-0.106,0-0.211-0.002-0.323-0.01c-2.484-0.174-4.358-2.33-4.182-4.814
			c1.521-21.795,10.724-39.93,27.351-53.902c69.561-58.442,264.813-38.206,453.621-18.633
			c184.034,19.076,374.323,38.801,438.839-15.415c14.189-11.924,21.719-26.742,23.016-45.298c0.17-2.486,2.167-4.402,4.816-4.185
			c2.484,0.173,4.358,2.329,4.182,4.813c-1.457,20.832-10.278,38.184-26.212,51.576c-67.447,56.683-251.128,37.638-445.57,17.482
			c-186.959-19.38-380.26-39.416-446.891,16.566c-14.888,12.513-22.788,28.089-24.156,47.624
			C296.506,676.982,294.526,678.8,292.177,678.8z"/>
	</g>
	<g>
		<path style="fill:#03968A;" d="M317.197,836.541c-0.106,0-0.212-0.003-0.323-0.01c-2.484-0.175-4.358-2.33-4.182-4.814
			c1.321-18.881,9.544-34.781,24.45-47.26c69.667-58.339,277.745-36.04,478.958-14.479c180.798,19.375,351.57,37.679,401.445-4.089
			c8.458-7.08,12.915-15.564,13.643-25.937c0.17-2.486,2.296-4.401,4.816-4.185c2.484,0.173,4.358,2.329,4.182,4.812
			c-0.893,12.768-6.561,23.612-16.85,32.226c-52.817,44.225-225.439,25.728-408.193,6.142
			c-199.363-21.364-405.486-43.449-472.21,12.424c-13.132,10.999-20.086,24.4-21.243,40.972
			C321.525,834.724,319.546,836.541,317.197,836.541z"/>
	</g>
	<g>
		<path style="fill:#03968A;" d="M277.242,422.595c-0.106,0-0.211-0.003-0.323-0.012c-2.484-0.173-4.358-2.329-4.181-4.813
			c2.438-34.895,66.219-44.716,96.871-49.437c3.248-0.499,6.108-0.939,8.452-1.344c69.467-11.945,141.066-16.722,210.31-21.343
			l16.368-1.095c17.461-1.176,34.927-2.301,52.394-3.424c63.759-4.102,129.69-8.344,194.236-15.204
			c2.455-0.257,4.704,1.532,4.963,4.008c0.264,2.477-1.533,4.698-4.011,4.963c-64.734,6.878-130.753,11.126-194.605,15.235
			c-17.461,1.123-34.916,2.246-52.364,3.422l-16.381,1.097c-69.015,4.604-140.379,9.366-209.382,21.233
			c-2.391,0.41-5.298,0.859-8.61,1.369c-26.124,4.023-87.304,13.443-89.242,41.148C281.571,420.776,279.591,422.595,277.242,422.595
			z"/>
	</g>
	<g>
		<path style="fill:#03968A;" d="M851.838,334.919c-2.279,0-4.234-1.719-4.481-4.034c-0.264-2.478,1.533-4.699,4.011-4.962
			c7.242-0.77,14.759-1.48,22.447-2.207c47.032-4.443,100.336-9.481,139.064-32.608c2.161-1.274,4.915-0.576,6.184,1.561
			c1.28,2.139,0.582,4.908-1.556,6.185c-40.478,24.169-94.862,29.308-142.84,33.842c-7.658,0.724-15.135,1.43-22.347,2.197
			C852.161,334.912,851.996,334.919,851.838,334.919z"/>
	</g>
	<g>
		<path style="fill:#03968A;" d="M895.957,1526.074c-74.753,0.002-169.434-13.753-262.305-27.244
			c-140.156-20.359-285.074-41.411-328.459-6.443c-8.046,6.484-12.304,14.599-13.021,24.808c-0.17,2.486-2.208,4.354-4.815,4.186
			c-2.484-0.175-4.358-2.33-4.181-4.815c0.886-12.673,6.39-23.171,16.356-31.204c46.456-37.435,186.812-17.045,335.419,4.54
			c158.633,23.042,322.646,46.863,378.558,1.806c11.857-9.557,18.142-21.699,19.222-37.122c0.171-2.486,2.179-4.368,4.816-4.186
			c2.484,0.174,4.358,2.33,4.182,4.814c-1.245,17.813-8.833,32.455-22.564,43.518
			C994.308,1518.766,950.418,1526.073,895.957,1526.074z"/>
	</g>
</g>
</svg>
