<?xml version="1.0" encoding="utf-8"?>
<!-- Generator: Adobe Illustrator 27.5.0, SVG Export Plug-In . SVG Version: 6.00 Build 0)  -->
<svg version="1.1" xmlns="http://www.w3.org/2000/svg" xmlns:xlink="http://www.w3.org/1999/xlink" x="0px" y="0px"
	 viewBox="0 0 800 800" style="enable-background:new 0 0 800 800;" xml:space="preserve">
<g id="BACKGROUND">
	<radialGradient id="SVGID_1_" cx="400" cy="400" r="571.26" gradientUnits="userSpaceOnUse">
		<stop  offset="0" style="stop-color:#FFFFFF"/>
		<stop  offset="0.3091" style="stop-color:#F9F9F9"/>
		<stop  offset="0.7165" style="stop-color:#E9E9E9"/>
		<stop  offset="1" style="stop-color:#D9D9D9"/>
	</radialGradient>
	<rect style="fill:url(#SVGID_1_);" width="800" height="800"/>
</g>
<g id="DESIGNED_BY_FREEPIK">
	<g>
		<g>
			<path d="M288.492,773.67v-0.257c-0.349,0.398-0.692,0.724-1.031,0.973c-0.338,0.251-0.706,0.441-1.102,0.57
				c-0.396,0.132-0.827,0.195-1.296,0.195c-0.621,0-1.196-0.131-1.725-0.393c-0.528-0.263-0.986-0.639-1.372-1.126
				c-0.387-0.487-0.68-1.06-0.879-1.719c-0.199-0.659-0.299-1.371-0.299-2.137c0-1.621,0.396-2.886,1.188-3.791
				c0.792-0.904,1.833-1.357,3.125-1.357c0.747,0,1.377,0.129,1.89,0.384c0.513,0.257,1.013,0.652,1.501,1.183v-3.827
				c0-0.532,0.105-0.934,0.318-1.206c0.211-0.272,0.514-0.408,0.907-0.408c0.393,0,0.694,0.125,0.907,0.375
				c0.212,0.251,0.318,0.618,0.318,1.106v11.436c0,0.494-0.113,0.864-0.342,1.111c-0.228,0.246-0.522,0.37-0.883,0.37
				c-0.354,0-0.647-0.128-0.879-0.384C288.608,774.51,288.492,774.144,288.492,773.67z M283.392,769.861
				c0,0.703,0.109,1.301,0.328,1.795c0.219,0.494,0.518,0.866,0.897,1.115c0.38,0.251,0.795,0.377,1.244,0.377
				c0.456,0,0.872-0.119,1.25-0.357c0.376-0.236,0.677-0.602,0.902-1.091c0.225-0.491,0.337-1.105,0.337-1.839
				c0-0.691-0.112-1.284-0.337-1.782c-0.225-0.496-0.528-0.876-0.912-1.14c-0.383-0.262-0.803-0.393-1.258-0.393
				c-0.475,0-0.899,0.135-1.273,0.403c-0.374,0.269-0.663,0.654-0.869,1.158C283.494,768.612,283.392,769.196,283.392,769.861z"/>
			<path d="M299.926,770.518h-5.071c0.006,0.588,0.124,1.107,0.356,1.557c0.23,0.45,0.538,0.789,0.921,1.017
				c0.383,0.228,0.806,0.341,1.268,0.341c0.31,0,0.593-0.035,0.85-0.107c0.257-0.074,0.505-0.187,0.746-0.343
				c0.241-0.154,0.462-0.321,0.665-0.499c0.202-0.178,0.464-0.419,0.788-0.723c0.133-0.113,0.323-0.171,0.571-0.171
				c0.266,0,0.48,0.074,0.645,0.22c0.165,0.147,0.248,0.351,0.248,0.617c0,0.234-0.093,0.507-0.275,0.821
				c-0.185,0.313-0.462,0.614-0.832,0.902c-0.372,0.288-0.835,0.526-1.397,0.717c-0.56,0.19-1.204,0.285-1.933,0.285
				c-1.664,0-2.96-0.476-3.884-1.425s-1.386-2.238-1.386-3.865c0-0.767,0.113-1.478,0.341-2.132
				c0.228-0.656,0.561-1.218,0.997-1.686c0.437-0.469,0.975-0.827,1.615-1.078c0.639-0.25,1.349-0.374,2.127-0.374
				c1.013,0,1.882,0.212,2.606,0.641c0.726,0.427,1.27,0.979,1.63,1.656c0.36,0.678,0.542,1.369,0.542,2.07
				c0,0.653-0.187,1.075-0.56,1.269C301.13,770.42,300.604,770.518,299.926,770.518z M294.855,769.045h4.702
				c-0.063-0.887-0.303-1.551-0.717-1.99c-0.415-0.44-0.96-0.66-1.638-0.66c-0.646,0-1.177,0.223-1.591,0.669
				C295.195,767.51,294.944,768.171,294.855,769.045z"/>
			<path d="M311.741,771.76c0,0.716-0.173,1.329-0.523,1.839c-0.348,0.51-0.862,0.897-1.543,1.159
				c-0.68,0.263-1.508,0.393-2.483,0.393c-0.931,0-1.728-0.143-2.394-0.428c-0.665-0.284-1.156-0.642-1.472-1.067
				c-0.317-0.429-0.475-0.857-0.475-1.288c0-0.285,0.101-0.528,0.304-0.731c0.202-0.202,0.459-0.304,0.77-0.304
				c0.272,0,0.48,0.066,0.626,0.199c0.146,0.133,0.286,0.32,0.417,0.56c0.266,0.464,0.585,0.807,0.956,1.036
				c0.37,0.227,0.875,0.342,1.515,0.342c0.519,0,0.945-0.116,1.277-0.347c0.332-0.233,0.498-0.496,0.498-0.794
				c0-0.456-0.172-0.787-0.518-0.996c-0.345-0.209-0.914-0.409-1.705-0.6c-0.893-0.221-1.619-0.454-2.18-0.698
				c-0.561-0.242-1.008-0.564-1.344-0.963c-0.335-0.399-0.503-0.891-0.503-1.473c0-0.519,0.155-1.01,0.465-1.473
				c0.311-0.461,0.768-0.83,1.374-1.106c0.603-0.276,1.333-0.414,2.188-0.414c0.671,0,1.275,0.069,1.809,0.21
				c0.536,0.138,0.983,0.326,1.34,0.561c0.358,0.233,0.63,0.493,0.816,0.777c0.186,0.285,0.28,0.564,0.28,0.837
				c0,0.297-0.1,0.541-0.298,0.732c-0.199,0.188-0.482,0.285-0.85,0.285c-0.266,0-0.492-0.076-0.679-0.229
				c-0.187-0.151-0.4-0.379-0.641-0.683c-0.196-0.253-0.426-0.456-0.693-0.608c-0.266-0.152-0.627-0.227-1.083-0.227
				c-0.469,0-0.857,0.099-1.168,0.3c-0.31,0.198-0.465,0.446-0.465,0.744c0,0.273,0.114,0.496,0.341,0.67
				c0.229,0.175,0.535,0.319,0.922,0.433c0.386,0.113,0.917,0.252,1.596,0.417c0.803,0.197,1.46,0.432,1.97,0.703
				c0.509,0.271,0.895,0.594,1.16,0.965C311.61,770.863,311.741,771.285,311.741,771.76z"/>
			<path d="M314.39,763.403c-0.361,0-0.669-0.111-0.926-0.333c-0.256-0.221-0.385-0.534-0.385-0.94c0-0.368,0.131-0.669,0.394-0.907
				s0.569-0.356,0.917-0.356c0.336,0,0.633,0.107,0.893,0.323c0.26,0.216,0.39,0.528,0.39,0.94c0,0.399-0.127,0.711-0.381,0.936
				C315.039,763.29,314.738,763.403,314.39,763.403z M315.672,766.081v7.493c0,0.519-0.124,0.913-0.371,1.179
				c-0.247,0.266-0.56,0.398-0.94,0.398s-0.689-0.136-0.926-0.408c-0.238-0.273-0.356-0.662-0.356-1.169v-7.418
				c0-0.512,0.118-0.898,0.356-1.158c0.237-0.26,0.546-0.39,0.926-0.39s0.693,0.13,0.94,0.39
				C315.549,765.258,315.672,765.619,315.672,766.081z"/>
			<path d="M327.031,766.509v7.531c0,0.861-0.093,1.603-0.277,2.224c-0.182,0.619-0.477,1.133-0.883,1.538
				c-0.405,0.404-0.936,0.706-1.59,0.901c-0.655,0.197-1.471,0.295-2.446,0.295c-0.893,0-1.69-0.125-2.393-0.375
				c-0.702-0.251-1.243-0.573-1.624-0.969c-0.379-0.395-0.57-0.803-0.57-1.221c0-0.316,0.108-0.575,0.324-0.773
				c0.215-0.2,0.475-0.3,0.778-0.3c0.38,0,0.712,0.168,0.997,0.503c0.139,0.171,0.283,0.345,0.432,0.519
				c0.149,0.175,0.314,0.323,0.494,0.447c0.181,0.122,0.398,0.214,0.65,0.275c0.253,0.059,0.545,0.09,0.874,0.09
				c0.671,0,1.192-0.093,1.563-0.28c0.371-0.187,0.63-0.448,0.779-0.784c0.149-0.334,0.236-0.693,0.261-1.077
				c0.025-0.384,0.044-0.999,0.057-1.849c-0.399,0.559-0.859,0.983-1.382,1.274c-0.522,0.291-1.145,0.437-1.866,0.437
				c-0.868,0-1.625-0.222-2.275-0.665c-0.648-0.443-1.147-1.064-1.495-1.861c-0.349-0.799-0.522-1.719-0.522-2.764
				c0-0.778,0.105-1.483,0.317-2.108c0.213-0.628,0.515-1.156,0.907-1.587c0.393-0.431,0.845-0.755,1.358-0.974
				c0.513-0.218,1.076-0.327,1.691-0.327c0.734,0,1.371,0.142,1.909,0.422c0.538,0.283,1.039,0.725,1.501,1.326v-0.353
				c0-0.449,0.11-0.797,0.332-1.045c0.222-0.246,0.507-0.37,0.855-0.37c0.5,0,0.832,0.164,0.997,0.489
				C326.948,765.424,327.031,765.894,327.031,766.509z M319.518,769.795c0,1.051,0.229,1.846,0.688,2.384
				c0.459,0.539,1.053,0.808,1.781,0.808c0.43,0,0.837-0.116,1.22-0.347c0.384-0.232,0.695-0.58,0.936-1.045
				c0.24-0.466,0.361-1.03,0.361-1.695c0-1.057-0.232-1.881-0.698-2.469c-0.466-0.589-1.078-0.884-1.838-0.884
				c-0.741,0-1.334,0.282-1.78,0.846C319.741,767.955,319.518,768.757,319.518,769.795z"/>
			<path d="M331.152,766.043v0.313c0.455-0.602,0.954-1.043,1.496-1.325c0.542-0.281,1.163-0.423,1.866-0.423
				c0.684,0,1.295,0.15,1.833,0.447c0.538,0.298,0.941,0.719,1.206,1.262c0.172,0.317,0.282,0.66,0.333,1.026
				c0.051,0.368,0.077,0.836,0.077,1.406v4.824c0,0.519-0.119,0.913-0.357,1.179c-0.237,0.266-0.546,0.398-0.926,0.398
				c-0.387,0-0.7-0.136-0.941-0.408c-0.241-0.273-0.361-0.662-0.361-1.169v-4.321c0-0.855-0.119-1.509-0.357-1.961
				c-0.238-0.452-0.71-0.68-1.42-0.68c-0.461,0-0.883,0.138-1.263,0.413c-0.38,0.276-0.659,0.655-0.836,1.136
				c-0.126,0.387-0.19,1.107-0.19,2.165v3.248c0,0.525-0.123,0.921-0.365,1.184c-0.244,0.263-0.559,0.393-0.945,0.393
				c-0.374,0-0.681-0.136-0.922-0.408c-0.24-0.273-0.361-0.662-0.361-1.169v-7.493c0-0.494,0.107-0.863,0.323-1.107
				c0.215-0.243,0.51-0.365,0.883-0.365c0.229,0,0.435,0.054,0.619,0.162c0.183,0.108,0.331,0.269,0.441,0.483
				C331.097,765.47,331.152,765.733,331.152,766.043z"/>
			<path d="M346.926,770.518h-5.071c0.007,0.588,0.125,1.107,0.356,1.557c0.231,0.45,0.538,0.789,0.921,1.017
				c0.382,0.228,0.805,0.341,1.267,0.341c0.311,0,0.594-0.035,0.851-0.107c0.255-0.074,0.504-0.187,0.746-0.343
				c0.24-0.154,0.461-0.321,0.665-0.499c0.202-0.178,0.464-0.419,0.788-0.723c0.133-0.113,0.323-0.171,0.57-0.171
				c0.266,0,0.482,0.074,0.646,0.22c0.165,0.147,0.247,0.351,0.247,0.617c0,0.234-0.091,0.507-0.275,0.821
				c-0.184,0.313-0.461,0.614-0.831,0.902c-0.371,0.288-0.835,0.526-1.396,0.717c-0.561,0.19-1.205,0.285-1.933,0.285
				c-1.665,0-2.96-0.476-3.885-1.425c-0.923-0.949-1.386-2.238-1.386-3.865c0-0.767,0.114-1.478,0.342-2.132
				c0.228-0.656,0.561-1.218,0.998-1.686c0.436-0.469,0.975-0.827,1.614-1.078c0.639-0.25,1.349-0.374,2.128-0.374
				c1.013,0,1.881,0.212,2.606,0.641c0.726,0.427,1.269,0.979,1.63,1.656c0.36,0.678,0.542,1.369,0.542,2.07
				c0,0.653-0.186,1.075-0.56,1.269C348.13,770.42,347.605,770.518,346.926,770.518z M341.855,769.045h4.701
				c-0.063-0.887-0.302-1.551-0.717-1.99c-0.415-0.44-0.961-0.66-1.638-0.66c-0.646,0-1.177,0.223-1.592,0.669
				C342.194,767.51,341.944,768.171,341.855,769.045z"/>
			<path d="M357.496,773.67v-0.257c-0.348,0.398-0.691,0.724-1.03,0.973c-0.339,0.251-0.706,0.441-1.102,0.57
				c-0.395,0.132-0.828,0.195-1.296,0.195c-0.622,0-1.196-0.131-1.724-0.393c-0.529-0.263-0.986-0.639-1.373-1.126
				c-0.387-0.487-0.679-1.06-0.878-1.719c-0.2-0.659-0.299-1.371-0.299-2.137c0-1.621,0.396-2.886,1.187-3.791
				c0.792-0.904,1.834-1.357,3.125-1.357c0.747,0,1.378,0.129,1.89,0.384c0.513,0.257,1.013,0.652,1.5,1.183v-3.827
				c0-0.532,0.106-0.934,0.319-1.206c0.211-0.272,0.515-0.408,0.907-0.408c0.392,0,0.694,0.125,0.907,0.375
				c0.212,0.251,0.318,0.618,0.318,1.106v11.436c0,0.494-0.114,0.864-0.342,1.111c-0.228,0.246-0.522,0.37-0.883,0.37
				c-0.354,0-0.647-0.128-0.879-0.384C357.612,774.51,357.496,774.144,357.496,773.67z M352.397,769.861
				c0,0.703,0.108,1.301,0.327,1.795c0.218,0.494,0.518,0.866,0.898,1.115c0.379,0.251,0.794,0.377,1.243,0.377
				c0.457,0,0.873-0.119,1.249-0.357c0.377-0.236,0.678-0.602,0.902-1.091c0.225-0.491,0.337-1.105,0.337-1.839
				c0-0.691-0.112-1.284-0.337-1.782c-0.224-0.496-0.528-0.876-0.912-1.14c-0.384-0.262-0.803-0.393-1.259-0.393
				c-0.474,0-0.899,0.135-1.273,0.403c-0.373,0.269-0.663,0.654-0.869,1.158C352.499,768.612,352.397,769.196,352.397,769.861z"/>
			<path d="M368.094,762.234v3.96c0.487-0.506,0.984-0.895,1.491-1.163c0.506-0.269,1.134-0.403,1.881-0.403
				c0.861,0,1.616,0.204,2.266,0.611c0.648,0.41,1.151,1.002,1.51,1.777c0.357,0.775,0.537,1.695,0.537,2.76
				c0,0.785-0.1,1.504-0.299,2.16c-0.2,0.655-0.49,1.224-0.869,1.704c-0.38,0.481-0.841,0.854-1.382,1.117
				c-0.542,0.263-1.139,0.393-1.79,0.393c-0.4,0-0.775-0.047-1.126-0.143c-0.352-0.095-0.651-0.219-0.898-0.375
				c-0.246-0.154-0.457-0.314-0.631-0.48c-0.174-0.164-0.404-0.412-0.689-0.741v0.257c0,0.487-0.117,0.856-0.352,1.107
				c-0.233,0.25-0.531,0.374-0.893,0.374c-0.367,0-0.66-0.124-0.878-0.374c-0.219-0.251-0.328-0.62-0.328-1.107v-11.322
				c0-0.525,0.106-0.923,0.317-1.191c0.212-0.269,0.509-0.403,0.889-0.403c0.399,0,0.706,0.128,0.921,0.384
				C367.986,761.394,368.094,761.759,368.094,762.234z M368.218,769.937c0,1.032,0.236,1.824,0.708,2.378
				c0.472,0.555,1.091,0.833,1.857,0.833c0.652,0,1.214-0.283,1.686-0.851c0.472-0.567,0.708-1.379,0.708-2.436
				c0-0.684-0.097-1.273-0.294-1.767c-0.197-0.494-0.475-0.876-0.835-1.145c-0.361-0.268-0.783-0.403-1.264-0.403
				c-0.494,0-0.935,0.135-1.32,0.403c-0.386,0.269-0.69,0.658-0.912,1.168C368.329,768.627,368.218,769.234,368.218,769.937z"/>
			<path d="M379.14,775.475l0.237-0.58l-3.191-8.035c-0.196-0.461-0.295-0.798-0.295-1.007c0-0.222,0.058-0.427,0.171-0.616
				c0.114-0.191,0.271-0.343,0.47-0.456c0.2-0.115,0.407-0.172,0.622-0.172c0.373,0,0.655,0.119,0.846,0.357
				c0.19,0.237,0.357,0.577,0.503,1.021l2.194,6.383l2.08-5.937c0.164-0.479,0.313-0.857,0.446-1.13
				c0.133-0.273,0.273-0.456,0.422-0.55c0.148-0.096,0.359-0.144,0.632-0.144c0.197,0,0.385,0.052,0.565,0.157
				c0.18,0.104,0.319,0.245,0.417,0.423c0.098,0.177,0.148,0.363,0.148,0.56c-0.026,0.12-0.066,0.291-0.124,0.514
				c-0.058,0.221-0.126,0.447-0.208,0.674l-3.381,8.853c-0.292,0.778-0.577,1.389-0.855,1.832c-0.279,0.443-0.647,0.785-1.106,1.021
				c-0.46,0.238-1.078,0.357-1.857,0.357c-0.759,0-1.33-0.082-1.708-0.246c-0.381-0.166-0.57-0.467-0.57-0.903
				c0-0.297,0.089-0.527,0.271-0.688c0.18-0.161,0.448-0.243,0.801-0.243c0.14,0,0.276,0.02,0.409,0.059
				c0.165,0.037,0.307,0.057,0.427,0.057c0.297,0,0.532-0.044,0.704-0.134c0.17-0.088,0.324-0.241,0.461-0.461
				C378.806,776.221,378.963,775.898,379.14,775.475z"/>
		</g>
		<g>
			<path d="M416.703,764.833h0.618v-0.778c0-0.814,0.1-1.457,0.307-1.938c0.204-0.479,0.556-0.826,1.047-1.045
				c0.49-0.217,1.163-0.326,2.017-0.326c1.52,0,2.272,0.367,2.272,1.114c0,0.238-0.079,0.444-0.24,0.615
				c-0.154,0.169-0.343,0.256-0.558,0.256c-0.1,0-0.278-0.019-0.527-0.06c-0.237-0.033-0.452-0.056-0.623-0.056
				c-0.468,0-0.767,0.141-0.905,0.415c-0.127,0.275-0.195,0.669-0.195,1.185v0.617h0.633c0.991,0,1.481,0.297,1.481,0.896
				c0,0.419-0.127,0.69-0.393,0.805c-0.262,0.114-0.624,0.171-1.089,0.171h-0.633v6.871c0,0.511-0.12,0.9-0.369,1.168
				c-0.241,0.273-0.554,0.406-0.942,0.406c-0.367,0-0.671-0.134-0.918-0.406c-0.244-0.268-0.364-0.657-0.364-1.168v-6.871h-0.714
				c-0.389,0-0.683-0.084-0.893-0.262c-0.209-0.171-0.315-0.399-0.315-0.678C415.399,765.141,415.834,764.833,416.703,764.833"/>
			<path d="M425.192,771.407v2.168c0,0.523-0.133,0.919-0.374,1.18c-0.247,0.266-0.559,0.395-0.938,0.395
				c-0.382,0-0.688-0.131-0.927-0.4c-0.236-0.264-0.36-0.656-0.36-1.174v-7.223c0-1.166,0.42-1.749,1.261-1.749
				c0.434,0,0.743,0.135,0.934,0.408c0.19,0.273,0.295,0.674,0.317,1.208c0.308-0.534,0.624-0.935,0.948-1.208
				c0.332-0.273,0.763-0.408,1.31-0.408c0.549,0,1.072,0.135,1.585,0.408c0.516,0.273,0.771,0.637,0.771,1.085
				c0,0.314-0.11,0.58-0.326,0.781c-0.22,0.209-0.454,0.311-0.706,0.311c-0.1,0-0.331-0.063-0.692-0.18
				c-0.365-0.113-0.688-0.173-0.963-0.173c-0.38,0-0.692,0.102-0.932,0.298c-0.242,0.205-0.431,0.497-0.564,0.887
				c-0.129,0.395-0.219,0.865-0.272,1.404C425.215,769.968,425.192,770.629,425.192,771.407"/>
			<path d="M437.113,770.515h-5.074c0.009,0.588,0.124,1.11,0.354,1.559c0.235,0.446,0.54,0.786,0.925,1.017
				c0.385,0.228,0.804,0.34,1.268,0.34c0.311,0,0.593-0.033,0.85-0.111c0.254-0.069,0.505-0.185,0.745-0.341
				c0.242-0.152,0.46-0.318,0.664-0.5c0.202-0.175,0.467-0.416,0.79-0.719c0.135-0.113,0.324-0.174,0.568-0.174
				c0.269,0,0.481,0.074,0.649,0.222c0.166,0.147,0.243,0.351,0.243,0.617c0,0.235-0.089,0.508-0.268,0.819
				c-0.188,0.317-0.463,0.616-0.836,0.906c-0.374,0.285-0.839,0.527-1.397,0.714c-0.56,0.19-1.206,0.286-1.932,0.286
				c-1.671,0-2.964-0.473-3.887-1.422c-0.924-0.952-1.392-2.242-1.392-3.868c0-0.767,0.117-1.479,0.348-2.135
				c0.225-0.658,0.558-1.216,0.999-1.688c0.436-0.471,0.97-0.828,1.612-1.078c0.638-0.249,1.347-0.374,2.128-0.374
				c1.011,0,1.881,0.214,2.606,0.646c0.724,0.423,1.273,0.977,1.629,1.654c0.361,0.681,0.542,1.368,0.542,2.074
				c0,0.648-0.189,1.07-0.562,1.266C438.315,770.418,437.791,770.515,437.113,770.515 M432.039,769.04h4.701
				c-0.063-0.885-0.298-1.55-0.714-1.986c-0.418-0.442-0.959-0.66-1.641-0.66c-0.646,0-1.177,0.22-1.592,0.669
				C432.38,767.509,432.126,768.167,432.039,769.04"/>
			<path d="M447.9,770.515h-5.073c0.006,0.588,0.125,1.11,0.355,1.559c0.231,0.446,0.539,0.786,0.921,1.017
				c0.383,0.228,0.806,0.34,1.271,0.34c0.308,0,0.593-0.033,0.845-0.111c0.259-0.069,0.506-0.185,0.75-0.341
				c0.242-0.152,0.46-0.318,0.664-0.5c0.199-0.175,0.464-0.416,0.788-0.719c0.135-0.113,0.326-0.174,0.568-0.174
				c0.268,0,0.483,0.074,0.65,0.222c0.165,0.147,0.24,0.351,0.24,0.617c0,0.235-0.087,0.508-0.273,0.819
				c-0.177,0.317-0.455,0.616-0.83,0.906c-0.37,0.285-0.84,0.527-1.396,0.714c-0.558,0.19-1.208,0.286-1.935,0.286
				c-1.667,0-2.959-0.473-3.887-1.422c-0.924-0.952-1.389-2.242-1.389-3.868c0-0.767,0.116-1.479,0.348-2.135
				c0.227-0.658,0.559-1.216,0.996-1.688c0.436-0.471,0.973-0.828,1.614-1.078c0.638-0.249,1.351-0.374,2.129-0.374
				c1.009,0,1.878,0.214,2.613,0.646c0.72,0.423,1.266,0.977,1.621,1.654c0.359,0.681,0.545,1.368,0.545,2.074
				c0,0.648-0.191,1.07-0.561,1.266C449.1,770.418,448.576,770.515,447.9,770.515 M442.827,769.04h4.701
				c-0.063-0.885-0.304-1.55-0.715-1.986c-0.421-0.442-0.962-0.66-1.643-0.66c-0.646,0-1.176,0.22-1.593,0.669
				C443.165,767.509,442.911,768.167,442.827,769.04"/>
			<path d="M453.58,766.062v0.311c0.486-0.601,0.994-1.042,1.524-1.324c0.519-0.284,1.118-0.427,1.782-0.427
				c0.795,0,1.535,0.208,2.207,0.617c0.671,0.414,1.198,1.016,1.589,1.807c0.39,0.795,0.586,1.73,0.586,2.814
				c0,0.796-0.112,1.531-0.336,2.201c-0.224,0.668-0.537,1.227-0.929,1.68c-0.394,0.45-0.855,0.802-1.39,1.046
				c-0.542,0.241-1.111,0.363-1.728,0.363c-0.738,0-1.364-0.148-1.865-0.447c-0.503-0.292-0.982-0.733-1.441-1.306v3.893
				c0,1.136-0.416,1.71-1.244,1.71c-0.49,0-0.809-0.147-0.972-0.44c-0.151-0.299-0.233-0.724-0.233-1.291v-11.193
				c0-0.495,0.106-0.859,0.32-1.107c0.215-0.239,0.512-0.364,0.885-0.364c0.369,0,0.666,0.125,0.896,0.374
				C453.467,765.231,453.58,765.588,453.58,766.062 M458.664,769.83c0-0.685-0.107-1.273-0.315-1.763
				c-0.209-0.492-0.499-0.867-0.866-1.128c-0.367-0.263-0.782-0.396-1.232-0.396c-0.714,0-1.318,0.284-1.809,0.844
				c-0.492,0.566-0.739,1.396-0.739,2.493c0,1.026,0.244,1.833,0.735,2.406c0.487,0.573,1.086,0.858,1.813,0.858
				c0.429,0,0.83-0.126,1.197-0.372c0.371-0.253,0.665-0.627,0.884-1.127C458.553,771.143,458.664,770.538,458.664,769.83"/>
			<path d="M463.88,763.396c-0.362,0-0.669-0.114-0.923-0.335c-0.26-0.223-0.388-0.532-0.388-0.937c0-0.368,0.131-0.67,0.396-0.91
				c0.262-0.234,0.566-0.355,0.914-0.355c0.34,0,0.636,0.107,0.894,0.319c0.26,0.219,0.391,0.534,0.391,0.946
				c0,0.4-0.127,0.711-0.378,0.936C464.532,763.282,464.231,763.396,463.88,763.396 M465.164,766.075v7.502
				c0,0.516-0.124,0.908-0.37,1.172c-0.25,0.269-0.561,0.4-0.941,0.4c-0.381,0-0.685-0.134-0.928-0.406
				c-0.233-0.276-0.355-0.665-0.355-1.166v-7.428c0-0.51,0.122-0.895,0.355-1.154c0.243-0.265,0.547-0.392,0.928-0.392
				c0.381,0,0.691,0.127,0.941,0.392C465.04,765.255,465.164,765.617,465.164,766.075"/>
			<path d="M473.523,773.966l-2.284-3.766l-1.408,1.328v2.065c0,0.499-0.133,0.882-0.396,1.149
				c-0.257,0.273-0.566,0.406-0.906,0.406c-0.398,0-0.715-0.131-0.94-0.4c-0.227-0.264-0.344-0.656-0.344-1.174v-11.063
				c0-0.573,0.114-1.011,0.331-1.314c0.223-0.305,0.545-0.452,0.953-0.452c0.4,0,0.713,0.137,0.949,0.411
				c0.234,0.27,0.353,0.674,0.353,1.202v6.293l2.916-3.063c0.362-0.376,0.633-0.641,0.827-0.778c0.19-0.139,0.419-0.208,0.69-0.208
				c0.326,0,0.594,0.103,0.815,0.309c0.211,0.206,0.32,0.466,0.32,0.773c0,0.379-0.353,0.889-1.055,1.521l-1.377,1.263l2.659,4.183
				c0.193,0.314,0.339,0.544,0.424,0.706c0.084,0.159,0.13,0.319,0.13,0.462c0,0.413-0.114,0.734-0.341,0.975
				c-0.225,0.236-0.523,0.354-0.886,0.354c-0.316,0-0.564-0.081-0.733-0.256C474.051,774.721,473.813,774.41,473.523,773.966"/>
			<path d="M479.159,775.149c-0.392,0-0.727-0.126-1.014-0.381c-0.284-0.249-0.429-0.605-0.429-1.065
				c0-0.386,0.138-0.719,0.41-0.995c0.274-0.279,0.607-0.419,1.008-0.419c0.397,0,0.735,0.14,1.022,0.412
				c0.279,0.275,0.422,0.612,0.422,1.002c0,0.452-0.143,0.808-0.422,1.06C479.87,775.023,479.538,775.149,479.159,775.149"/>
			<path d="M492.057,771.939c0,0.32-0.097,0.668-0.291,1.034c-0.191,0.37-0.488,0.718-0.886,1.05
				c-0.395,0.332-0.892,0.603-1.495,0.804c-0.601,0.202-1.28,0.307-2.03,0.307c-1.607,0-2.858-0.47-3.758-1.401
				c-0.896-0.936-1.346-2.19-1.346-3.76c0-1.067,0.204-2.006,0.619-2.824c0.407-0.814,1.004-1.447,1.781-1.894
				c0.779-0.448,1.716-0.67,2.794-0.67c0.674,0,1.288,0.098,1.853,0.295c0.561,0.195,1.032,0.451,1.425,0.759
				c0.387,0.315,0.685,0.644,0.89,0.992c0.207,0.352,0.308,0.681,0.308,0.987c0,0.308-0.113,0.571-0.343,0.787
				c-0.235,0.215-0.516,0.324-0.839,0.324c-0.219,0-0.397-0.057-0.541-0.166c-0.144-0.112-0.305-0.29-0.479-0.542
				c-0.317-0.479-0.646-0.842-0.996-1.079c-0.343-0.243-0.78-0.362-1.314-0.362c-0.762,0-1.384,0.298-1.853,0.897
				c-0.468,0.596-0.703,1.42-0.703,2.454c0,0.488,0.063,0.939,0.183,1.348c0.117,0.407,0.291,0.756,0.521,1.044
				c0.23,0.287,0.504,0.505,0.826,0.654c0.324,0.153,0.681,0.226,1.064,0.226c0.522,0,0.967-0.12,1.337-0.36
				c0.376-0.241,0.702-0.607,0.986-1.103c0.158-0.291,0.327-0.518,0.509-0.684c0.183-0.163,0.409-0.249,0.676-0.249
				c0.316,0,0.58,0.123,0.786,0.362C491.951,771.41,492.057,771.669,492.057,771.939"/>
			<path d="M503.248,769.879c0,0.769-0.122,1.484-0.355,2.139c-0.247,0.652-0.592,1.213-1.05,1.679
				c-0.455,0.469-1.002,0.828-1.632,1.08c-0.64,0.247-1.35,0.375-2.139,0.375c-0.785,0-1.493-0.128-2.121-0.383
				c-0.623-0.249-1.171-0.614-1.626-1.082c-0.461-0.477-0.809-1.034-1.052-1.677c-0.229-0.643-0.351-1.354-0.351-2.131
				c0-0.786,0.124-1.506,0.358-2.158c0.242-0.654,0.589-1.212,1.039-1.673c0.451-0.462,0.993-0.817,1.631-1.07
				c0.643-0.249,1.35-0.374,2.121-0.374c0.784,0,1.498,0.125,2.139,0.382c0.638,0.251,1.183,0.614,1.643,1.079
				c0.458,0.475,0.803,1.029,1.04,1.672C503.128,768.388,503.248,769.097,503.248,769.879 M500.644,769.879
				c0-1.059-0.234-1.881-0.698-2.469c-0.463-0.596-1.09-0.888-1.874-0.888c-0.508,0-0.955,0.132-1.343,0.394
				c-0.387,0.262-0.681,0.649-0.89,1.164c-0.209,0.514-0.316,1.113-0.316,1.799c0,0.679,0.103,1.268,0.31,1.773
				c0.208,0.511,0.502,0.897,0.886,1.166c0.386,0.267,0.835,0.404,1.353,0.404c0.784,0,1.411-0.296,1.874-0.892
				C500.41,771.74,500.644,770.92,500.644,769.879"/>
			<path d="M513.14,770.069v3.446c0,0.547-0.12,0.951-0.369,1.227c-0.25,0.273-0.571,0.408-0.977,0.408
				c-0.393,0-0.714-0.136-0.951-0.408c-0.247-0.276-0.372-0.681-0.372-1.227v-4.131c0-0.653-0.021-1.162-0.063-1.524
				c-0.046-0.354-0.168-0.655-0.362-0.883c-0.196-0.235-0.509-0.352-0.931-0.352c-0.851,0-1.407,0.29-1.677,0.881
				c-0.267,0.576-0.406,1.413-0.406,2.507v3.502c0,0.538-0.122,0.946-0.361,1.224c-0.249,0.273-0.567,0.412-0.965,0.412
				c-0.396,0-0.717-0.139-0.967-0.412c-0.252-0.277-0.376-0.685-0.376-1.224v-7.419c0-0.489,0.111-0.86,0.335-1.111
				c0.229-0.257,0.526-0.382,0.89-0.382c0.356,0,0.651,0.123,0.892,0.355c0.236,0.238,0.354,0.566,0.354,0.984v0.245
				c0.453-0.535,0.935-0.932,1.444-1.181c0.517-0.26,1.082-0.386,1.713-0.386c0.651,0,1.211,0.131,1.678,0.39
				c0.47,0.261,0.853,0.655,1.16,1.177c0.439-0.528,0.909-0.923,1.41-1.181c0.5-0.257,1.053-0.386,1.662-0.386
				c0.706,0,1.321,0.143,1.834,0.419c0.51,0.278,0.893,0.68,1.148,1.195c0.221,0.473,0.33,1.21,0.33,2.217v5.063
				c0,0.547-0.122,0.951-0.367,1.227c-0.246,0.273-0.575,0.408-0.979,0.408c-0.395,0-0.714-0.139-0.965-0.412
				c-0.25-0.277-0.376-0.685-0.376-1.224v-4.361c0-0.559-0.023-1.003-0.069-1.338c-0.047-0.337-0.177-0.62-0.383-0.847
				c-0.212-0.228-0.53-0.344-0.953-0.344c-0.342,0-0.666,0.107-0.974,0.308c-0.307,0.198-0.547,0.477-0.721,0.813
				C513.238,768.185,513.14,768.959,513.14,770.069"/>
		</g>
		<g>
			<path d="M392.435,769.251c-0.002-0.005-0.002-0.01-0.002-0.018C392.433,769.241,392.433,769.246,392.435,769.251z"/>
			<path d="M392.566,770.08h0.003c-0.05-0.236-0.088-0.471-0.119-0.702C392.48,769.611,392.519,769.847,392.566,770.08z"/>
			<path d="M393.424,772.486c-0.006-0.01-0.011-0.022-0.017-0.033C393.414,772.465,393.418,772.477,393.424,772.486z"/>
			<path d="M393.342,772.326c-0.022-0.044-0.044-0.09-0.065-0.134C393.298,772.239,393.32,772.282,393.342,772.326z"/>
			<path d="M392.807,771.007c0.127,0.4,0.28,0.788,0.457,1.158c-0.18-0.378-0.33-0.767-0.454-1.158H392.807z"/>
			<path d="M402.473,759.314c0.501,0,0.871,0.04,1.295,0.111l0.12-0.763c0,0-1.171-0.36-2.71-0.234l-0.121-0.415
				c0.479-0.101,0.838-0.526,0.838-1.034c0-0.582-0.474-1.054-1.057-1.054c-0.583,0-1.056,0.472-1.056,1.054
				c0,0.508,0.358,0.934,0.836,1.034l0.134,0.463c-1.634,0.225-2.935,0.862-2.935,0.862l0.23,0.705
				c0.989-0.329,1.846-0.529,2.624-0.613C401.432,759.35,402.005,759.314,402.473,759.314z"/>
			<path d="M393.405,763.173l0.006-0.008c0.038-0.05,0.076-0.097,0.113-0.143l-0.313-0.226l-0.488-0.356
				c-0.027,0.038-0.795,0.744-1.401,2.048c-0.025-0.041-0.056-0.081-0.09-0.119c-0.182-0.198-0.436-0.3-0.758-0.294h-0.015
				c-0.2,0-0.337-0.066-0.427-0.147c0.089-0.113,0.143-0.256,0.143-0.413c0-0.368-0.3-0.669-0.669-0.669
				c-0.369,0-0.668,0.301-0.668,0.669c0,0.37,0.3,0.669,0.668,0.669c0.058,0,0.113-0.01,0.167-0.02
				c0.165,0.183,0.425,0.342,0.808,0.334c0.197-0.002,0.341,0.049,0.438,0.155c0.111,0.121,0.148,0.296,0.16,0.428
				c-0.001,0.002-0.001,0.005-0.001,0.005c-0.438,1.19-0.313,2.67-0.313,2.67l1.057,0.042c0.021-0.539,0.099-1.482,0.372-2.23
				C392.719,764.117,393.378,763.211,393.405,763.173z"/>
			<path d="M411.672,760.198c-0.368,0-0.669,0.299-0.669,0.669c0,0.058,0.009,0.112,0.023,0.165
				c-0.184,0.166-0.343,0.428-0.337,0.81c0.003,0.197-0.048,0.34-0.154,0.436c-0.085,0.075-0.191,0.115-0.296,0.141
				c-0.787-1.103-1.756-1.775-1.756-1.775l-0.759,0.814c0.573,0.521,1.159,1.175,1.729,1.99c0.394,0.564,0.799,1.29,1.136,2.015
				l1.024-0.486c0,0-0.468-1.155-1.126-2.191c0.114-0.04,0.229-0.102,0.331-0.192c0.2-0.181,0.299-0.437,0.293-0.758
				c-0.002-0.208,0.066-0.349,0.148-0.441c0.114,0.087,0.257,0.143,0.412,0.143c0.371,0,0.67-0.3,0.67-0.669
				C412.342,760.497,412.043,760.198,411.672,760.198z"/>
			<path d="M409.015,769.4c-1.409,0.687-3.728,1.594-6.781,2.02c-1.198,0.166-2.359,0.227-3.428,0.227
				c-1.391,0-2.62-0.104-3.563-0.223c-1.076-0.136-1.918-0.302-2.432-0.418c0.124,0.392,0.273,0.78,0.454,1.158
				c0.003,0.01,0.008,0.021,0.013,0.027c0.022,0.044,0.043,0.09,0.065,0.134c0.022,0.044,0.043,0.087,0.065,0.127
				c0.006,0.012,0.011,0.023,0.017,0.033c0.303,0.57,0.667,1.095,1.081,1.549c1.44,1.575,2.907,1.824,2.921,1.826l0.023,0.003
				l0.021,0.008c0.013,0.005,1.314,0.425,3.292,0.425c1.945,0,3.854-0.393,5.674-1.167c1.348-0.689,2.622-1.736,3.254-2.67
				c0.488-0.723,0.841-1.493,1.05-2.294c0.111-0.426,0.199-1.108,0.147-1.825C410.49,768.607,409.863,768.987,409.015,769.4z"/>
			<path d="M393.857,763.507c-0.041,0.06-0.652,0.925-1.135,2.253c-0.362,0.995-0.346,2.443-0.346,2.46v0.003
				c0,0.34,0.019,0.677,0.057,1.011c0,0.008,0,0.013,0.002,0.018c0.004,0.043,0.011,0.084,0.015,0.127
				c0.03,0.231,0.069,0.466,0.119,0.702c0.7,0.178,4.878,1.152,9.548,0.502c2.927-0.407,5.149-1.272,6.499-1.927
				c1.121-0.544,1.842-1.036,2.12-1.238c-0.277-1.028-1.042-2.641-1.743-3.646c-2.005-2.865-4.167-3.601-5.277-3.783
				c-0.424-0.069-0.763-0.109-1.243-0.109c-0.447,0-1.002,0.036-1.743,0.114c-0.743,0.077-1.572,0.272-2.532,0.596
				c-1.348,0.451-2.567,1.159-3.527,2.048l-0.033,0.03C394.496,762.797,394.199,763.072,393.857,763.507z M406.127,762.84
				c0.961,0,1.743,0.781,1.743,1.743c0,0.962-0.782,1.744-1.743,1.744c-0.962,0-1.742-0.782-1.742-1.744
				C404.385,763.621,405.165,762.84,406.127,762.84z M397.885,762.771c1.557,0,2.817,1.262,2.817,2.817
				c0,1.556-1.26,2.814-2.817,2.814c-1.555,0-2.816-1.259-2.816-2.814C395.069,764.032,396.331,762.771,397.885,762.771z"/>
		</g>
	</g>
</g>
<g id="OBJECTS">
	<g>
		<g>
			<g>
				<path style="fill:#FFFF00;" d="M480.111,159.454c1.406-7.031-2.562-13.847-9.275-16.367c-6.382-2.396-12.51-0.698-16.569,3.158
					l-0.004-0.009c-0.027,0.026-0.048,0.055-0.075,0.081c-0.461,0.444-0.898,0.912-1.301,1.41
					c-13.922,16.473,2.61,45.66,19.38,51.28c0.654,0.219,1.184-0.562,0.723-1.074c-2.393-2.657-6.786-8.189-8.861-14.976
					c-1.527-4.995,0.329-9.666,4.926-12.147C473.003,168.678,478.637,166.826,480.111,159.454z"/>
				<path style="fill:#FFFF00;" d="M516.159,159.454c1.406-7.031-2.562-13.847-9.275-16.367c-6.382-2.396-12.51-0.698-16.569,3.158
					l-0.004-0.009c-0.027,0.026-0.048,0.055-0.075,0.081c-0.461,0.444-0.898,0.912-1.301,1.41
					c-13.922,16.473,2.61,45.66,19.38,51.28c0.654,0.219,1.184-0.562,0.723-1.074c-2.393-2.657-6.786-8.189-8.861-14.976
					c-1.527-4.995,0.329-9.666,4.926-12.147C509.052,168.678,514.685,166.826,516.159,159.454z"/>
			</g>
			<g>
				<path style="fill:#FF00FF;" d="M482.111,161.454c1.406-7.031-2.562-13.847-9.275-16.367c-6.382-2.396-12.51-0.698-16.569,3.158
					l-0.004-0.009c-0.027,0.026-0.048,0.055-0.075,0.081c-0.461,0.444-0.898,0.912-1.301,1.41
					c-13.922,16.473,2.61,45.66,19.38,51.28c0.654,0.219,1.184-0.562,0.723-1.074c-2.393-2.657-6.786-8.189-8.861-14.976
					c-1.527-4.995,0.329-9.666,4.926-12.147C475.003,170.678,480.637,168.826,482.111,161.454z"/>
				<path style="fill:#FF00FF;" d="M518.159,161.454c1.406-7.031-2.562-13.847-9.275-16.367c-6.382-2.396-12.51-0.698-16.569,3.158
					l-0.004-0.009c-0.027,0.026-0.048,0.055-0.075,0.081c-0.461,0.444-0.898,0.912-1.301,1.41
					c-13.922,16.473,2.61,45.66,19.38,51.28c0.654,0.219,1.184-0.562,0.723-1.074c-2.393-2.657-6.786-8.189-8.861-14.976
					c-1.527-4.995,0.329-9.666,4.926-12.147C511.052,170.678,516.685,168.826,518.159,161.454z"/>
			</g>
			<g>
				<path style="fill:#00FFFF;" d="M482.111,157.454c1.406-7.031-2.562-13.847-9.275-16.367c-6.382-2.396-12.51-0.698-16.569,3.158
					l-0.004-0.009c-0.027,0.026-0.048,0.055-0.075,0.081c-0.461,0.444-0.898,0.912-1.301,1.41
					c-13.922,16.473,2.61,45.66,19.38,51.28c0.654,0.219,1.184-0.562,0.723-1.074c-2.393-2.657-6.786-8.189-8.861-14.976
					c-1.527-4.995,0.329-9.666,4.926-12.147C475.003,166.678,480.637,164.826,482.111,157.454z"/>
				<path style="fill:#00FFFF;" d="M518.159,157.454c1.406-7.031-2.562-13.847-9.275-16.367c-6.382-2.396-12.51-0.698-16.569,3.158
					l-0.004-0.009c-0.027,0.026-0.048,0.055-0.075,0.081c-0.461,0.444-0.898,0.912-1.301,1.41
					c-13.922,16.473,2.61,45.66,19.38,51.28c0.654,0.219,1.184-0.562,0.723-1.074c-2.393-2.657-6.786-8.189-8.861-14.976
					c-1.527-4.995,0.329-9.666,4.926-12.147C511.052,166.678,516.685,164.826,518.159,157.454z"/>
			</g>
			<g>
				<path d="M484.111,159.454c1.406-7.031-2.562-13.847-9.275-16.367c-6.382-2.396-12.51-0.698-16.569,3.158l-0.004-0.009
					c-0.027,0.026-0.048,0.055-0.075,0.081c-0.461,0.444-0.898,0.912-1.301,1.41c-13.922,16.473,2.61,45.66,19.38,51.28
					c0.654,0.219,1.184-0.562,0.723-1.074c-2.393-2.657-6.786-8.189-8.861-14.976c-1.527-4.995,0.329-9.666,4.926-12.147
					C477.003,168.678,482.637,166.826,484.111,159.454z"/>
				<path d="M520.159,159.454c1.406-7.031-2.562-13.847-9.275-16.367c-6.382-2.396-12.51-0.698-16.569,3.158l-0.004-0.009
					c-0.027,0.026-0.048,0.055-0.075,0.081c-0.461,0.444-0.898,0.912-1.301,1.41c-13.922,16.473,2.61,45.66,19.38,51.28
					c0.654,0.219,1.184-0.562,0.723-1.074c-2.393-2.657-6.786-8.189-8.862-14.976c-1.527-4.995,0.329-9.666,4.926-12.147
					C513.052,168.678,518.685,166.826,520.159,159.454z"/>
			</g>
		</g>
		<g>
			<g>
				<path style="fill:#FFFF00;" d="M482.057,110.016c33.358,0,60.496,27.139,60.496,60.497s-27.138,60.496-60.496,60.496
					s-60.497-27.139-60.497-60.496S448.699,110.016,482.057,110.016 M482.057,100.016c-38.934,0-70.497,31.562-70.497,70.497
					c0,38.934,31.562,70.496,70.497,70.496c38.934,0,70.496-31.562,70.496-70.496C552.553,131.578,520.991,100.016,482.057,100.016
					L482.057,100.016z"/>
			</g>
			<g>
				<path style="fill:#FF00FF;" d="M484.057,112.016c33.358,0,60.496,27.139,60.496,60.497s-27.138,60.496-60.496,60.496
					s-60.497-27.139-60.497-60.496S450.699,112.016,484.057,112.016 M484.057,102.016c-38.934,0-70.497,31.562-70.497,70.497
					c0,38.934,31.562,70.496,70.497,70.496c38.934,0,70.496-31.562,70.496-70.496C554.553,133.578,522.991,102.016,484.057,102.016
					L484.057,102.016z"/>
			</g>
			<g>
				<path style="fill:#00FFFF;" d="M484.057,108.016c33.358,0,60.496,27.139,60.496,60.497s-27.138,60.496-60.496,60.496
					s-60.497-27.139-60.497-60.496S450.699,108.016,484.057,108.016 M484.057,98.016c-38.934,0-70.497,31.562-70.497,70.497
					c0,38.934,31.562,70.496,70.497,70.496c38.934,0,70.496-31.562,70.496-70.496C554.553,129.578,522.991,98.016,484.057,98.016
					L484.057,98.016z"/>
			</g>
			<g>
				<path d="M486.057,110.016c33.358,0,60.496,27.139,60.496,60.497s-27.138,60.496-60.496,60.496s-60.497-27.139-60.497-60.496
					S452.699,110.016,486.057,110.016 M486.057,100.016c-38.934,0-70.497,31.562-70.497,70.497
					c0,38.934,31.562,70.496,70.497,70.496c38.934,0,70.496-31.562,70.496-70.496C556.553,131.578,524.991,100.016,486.057,100.016
					L486.057,100.016z"/>
			</g>
		</g>
	</g>
	<g>
		<g>
			<g>
				<path style="fill:#FFFF00;" d="M145.829,110.016c33.358,0,60.497,27.139,60.497,60.497s-27.139,60.496-60.497,60.496
					s-60.496-27.139-60.496-60.496S112.471,110.016,145.829,110.016 M145.829,100.016c-38.934,0-70.496,31.562-70.496,70.497
					c0,38.934,31.562,70.496,70.496,70.496c38.934,0,70.497-31.562,70.497-70.496C216.326,131.578,184.763,100.016,145.829,100.016
					L145.829,100.016z"/>
			</g>
			<g>
				<path style="fill:#FF00FF;" d="M147.829,112.016c33.358,0,60.497,27.139,60.497,60.497s-27.139,60.496-60.497,60.496
					s-60.496-27.139-60.496-60.496S114.471,112.016,147.829,112.016 M147.829,102.016c-38.934,0-70.496,31.562-70.496,70.497
					c0,38.934,31.562,70.496,70.496,70.496c38.934,0,70.497-31.562,70.497-70.496C218.326,133.578,186.763,102.016,147.829,102.016
					L147.829,102.016z"/>
			</g>
			<g>
				<path style="fill:#00FFFF;" d="M147.829,108.016c33.358,0,60.497,27.139,60.497,60.497s-27.139,60.496-60.497,60.496
					s-60.496-27.139-60.496-60.496S114.471,108.016,147.829,108.016 M147.829,98.016c-38.934,0-70.496,31.562-70.496,70.497
					c0,38.934,31.562,70.496,70.496,70.496c38.934,0,70.497-31.562,70.497-70.496C218.326,129.578,186.763,98.016,147.829,98.016
					L147.829,98.016z"/>
			</g>
			<g>
				<path d="M149.829,110.016c33.358,0,60.497,27.139,60.497,60.497s-27.139,60.496-60.497,60.496s-60.496-27.139-60.496-60.496
					S116.471,110.016,149.829,110.016 M149.829,100.016c-38.934,0-70.496,31.562-70.496,70.497
					c0,38.934,31.562,70.496,70.496,70.496c38.934,0,70.497-31.562,70.497-70.496C220.326,131.578,188.763,100.016,149.829,100.016
					L149.829,100.016z"/>
			</g>
		</g>
		<g>
			<g>
				<path style="fill:#FFFF00;" d="M131.172,192.837h-15.765c-1.354,0-2.243-1.416-1.654-2.635l19.792-40.976
					c0.307-0.634,0.949-1.038,1.654-1.038h15.765c1.354,0,2.243,1.416,1.654,2.635l-19.792,40.976
					C132.519,192.434,131.876,192.837,131.172,192.837z"/>
				<path style="fill:#FFFF00;" d="M156.461,192.837h-15.765c-1.354,0-2.243-1.416-1.654-2.635l19.792-40.976
					c0.307-0.634,0.949-1.038,1.654-1.038h15.765c1.354,0,2.243,1.416,1.654,2.635l-19.792,40.976
					C157.808,192.434,157.165,192.837,156.461,192.837z"/>
			</g>
			<g>
				<path style="fill:#FF00FF;" d="M133.172,194.837h-15.765c-1.354,0-2.243-1.416-1.654-2.635l19.792-40.976
					c0.307-0.634,0.949-1.038,1.654-1.038h15.765c1.354,0,2.243,1.416,1.654,2.635l-19.792,40.976
					C134.519,194.434,133.876,194.837,133.172,194.837z"/>
				<path style="fill:#FF00FF;" d="M158.461,194.837h-15.765c-1.354,0-2.243-1.416-1.654-2.635l19.792-40.976
					c0.307-0.634,0.949-1.038,1.654-1.038h15.765c1.354,0,2.243,1.416,1.654,2.635l-19.792,40.976
					C159.808,194.434,159.165,194.837,158.461,194.837z"/>
			</g>
			<g>
				<path style="fill:#00FFFF;" d="M133.172,190.837h-15.765c-1.354,0-2.243-1.416-1.654-2.635l19.792-40.976
					c0.307-0.634,0.949-1.038,1.654-1.038h15.765c1.354,0,2.243,1.416,1.654,2.635l-19.792,40.976
					C134.519,190.434,133.876,190.837,133.172,190.837z"/>
				<path style="fill:#00FFFF;" d="M158.461,190.837h-15.765c-1.354,0-2.243-1.416-1.654-2.635l19.792-40.976
					c0.307-0.634,0.949-1.038,1.654-1.038h15.765c1.354,0,2.243,1.416,1.654,2.635l-19.792,40.976
					C159.808,190.434,159.165,190.837,158.461,190.837z"/>
			</g>
			<g>
				<path d="M135.172,192.837h-15.765c-1.354,0-2.243-1.416-1.654-2.635l19.792-40.976c0.307-0.634,0.949-1.038,1.654-1.038h15.765
					c1.354,0,2.243,1.416,1.654,2.635l-19.792,40.976C136.519,192.434,135.876,192.837,135.172,192.837z"/>
				<path d="M160.461,192.837h-15.765c-1.354,0-2.243-1.416-1.654-2.635l19.792-40.976c0.307-0.634,0.949-1.038,1.654-1.038h15.765
					c1.354,0,2.243,1.416,1.654,2.635l-19.792,40.976C161.808,192.434,161.165,192.837,160.461,192.837z"/>
			</g>
		</g>
	</g>
	<g>
		<g>
			<g>
				<path style="fill:#FF0000;" d="M484.057,602.991c33.358,0,60.496,27.139,60.496,60.497c0,33.358-27.138,60.496-60.496,60.496
					s-60.497-27.139-60.497-60.496C423.56,630.13,450.699,602.991,484.057,602.991 M484.057,592.991
					c-38.934,0-70.497,31.562-70.497,70.497c0,38.934,31.562,70.496,70.497,70.496c38.934,0,70.496-31.562,70.496-70.496
					C554.553,624.554,522.991,592.991,484.057,592.991L484.057,592.991z"/>
			</g>
			<g>
				<path style="fill:#0000FF;" d="M482.057,604.991c33.358,0,60.496,27.139,60.496,60.497c0,33.358-27.138,60.496-60.496,60.496
					s-60.497-27.139-60.497-60.496C421.56,632.13,448.699,604.991,482.057,604.991 M482.057,594.991
					c-38.934,0-70.497,31.562-70.497,70.497c0,38.934,31.562,70.496,70.497,70.496c38.934,0,70.496-31.562,70.496-70.496
					C552.553,626.554,520.991,594.991,482.057,594.991L482.057,594.991z"/>
			</g>
			<g>
				<path style="fill:#00FF00;" d="M484.057,606.991c33.358,0,60.496,27.139,60.496,60.497c0,33.358-27.138,60.496-60.496,60.496
					s-60.497-27.139-60.497-60.496C423.56,634.13,450.699,606.991,484.057,606.991 M484.057,596.991
					c-38.934,0-70.497,31.562-70.497,70.497c0,38.934,31.562,70.496,70.497,70.496c38.934,0,70.496-31.562,70.496-70.496
					C554.553,628.554,522.991,596.991,484.057,596.991L484.057,596.991z"/>
			</g>
			<g>
				<path d="M486.057,604.991c33.358,0,60.496,27.139,60.496,60.497c0,33.358-27.138,60.496-60.496,60.496
					s-60.497-27.139-60.497-60.496C425.56,632.13,452.699,604.991,486.057,604.991 M486.057,594.991
					c-38.934,0-70.497,31.562-70.497,70.497c0,38.934,31.562,70.496,70.497,70.496c38.934,0,70.496-31.562,70.496-70.496
					C556.553,626.554,524.991,594.991,486.057,594.991L486.057,594.991z"/>
			</g>
		</g>
		<g>
			<path d="M460.399,687.812h-6.765c-1.354,0-2.243-1.416-1.654-2.635l19.792-40.976c0.306-0.635,0.949-1.038,1.654-1.038h15.765
				c1.354,0,2.242,1.416,1.654,2.635l-28.792,40.976C461.746,687.409,461.104,687.812,460.399,687.812z"/>
			<path d="M485.688,687.812h-6.765c-1.354,0-2.243-1.416-1.654-2.635l19.792-40.976c0.306-0.635,0.949-1.038,1.654-1.038h15.765
				c1.354,0,2.243,1.416,1.654,2.635l-28.792,40.976C487.035,687.409,486.393,687.812,485.688,687.812z"/>
		</g>
	</g>
	<g>
		<g>
			<g>
				<path style="fill:#FF0000;" d="M315.943,108.016c33.358,0,60.497,27.139,60.497,60.497s-27.139,60.496-60.497,60.496
					s-60.496-27.139-60.496-60.496S282.585,108.016,315.943,108.016 M315.943,98.016c-38.934,0-70.496,31.562-70.496,70.497
					c0,38.934,31.562,70.496,70.496,70.496c38.934,0,70.497-31.562,70.497-70.496C386.44,129.578,354.877,98.016,315.943,98.016
					L315.943,98.016z"/>
			</g>
			<g>
				<path style="fill:#0000FF;" d="M313.943,110.016c33.358,0,60.497,27.139,60.497,60.497s-27.139,60.496-60.497,60.496
					s-60.496-27.139-60.496-60.496S280.585,110.016,313.943,110.016 M313.943,100.016c-38.934,0-70.496,31.562-70.496,70.497
					c0,38.934,31.562,70.496,70.496,70.496c38.934,0,70.497-31.562,70.497-70.496C384.44,131.578,352.877,100.016,313.943,100.016
					L313.943,100.016z"/>
			</g>
			<g>
				<path style="fill:#00FF00;" d="M315.943,112.016c33.358,0,60.497,27.139,60.497,60.497s-27.139,60.496-60.497,60.496
					s-60.496-27.139-60.496-60.496S282.585,112.016,315.943,112.016 M315.943,102.016c-38.934,0-70.496,31.562-70.496,70.497
					c0,38.934,31.562,70.496,70.496,70.496c38.934,0,70.497-31.562,70.497-70.496C386.44,133.578,354.877,102.016,315.943,102.016
					L315.943,102.016z"/>
			</g>
			<g>
				<path d="M317.943,110.016c33.358,0,60.497,27.139,60.497,60.497s-27.139,60.496-60.497,60.496s-60.496-27.139-60.496-60.496
					S284.585,110.016,317.943,110.016 M317.943,100.016c-38.934,0-70.496,31.562-70.496,70.497
					c0,38.934,31.562,70.496,70.496,70.496c38.934,0,70.497-31.562,70.497-70.496C388.44,131.578,356.877,100.016,317.943,100.016
					L317.943,100.016z"/>
			</g>
		</g>
		<g>
			<path d="M312.964,159.767c0,8.812-15.956,37.447-15.956,37.447s-15.956-28.635-15.956-37.447c0-8.812,7.144-15.956,15.956-15.956
				C305.82,143.811,312.964,150.955,312.964,159.767z"/>
			<path d="M350.835,159.767c0,8.812-15.956,37.447-15.956,37.447s-15.956-28.635-15.956-37.447c0-8.812,7.144-15.956,15.956-15.956
				C343.691,143.811,350.835,150.955,350.835,159.767z"/>
		</g>
	</g>
	<g>
		<g>
			<g>
				<path style="fill:#FF0000;" d="M652.171,108.016c33.358,0,60.496,27.139,60.496,60.497s-27.138,60.496-60.496,60.496
					c-33.358,0-60.497-27.139-60.497-60.496S618.813,108.016,652.171,108.016 M652.171,98.016
					c-38.934,0-70.497,31.562-70.497,70.497c0,38.934,31.563,70.496,70.497,70.496c38.934,0,70.496-31.562,70.496-70.496
					C722.667,129.578,691.105,98.016,652.171,98.016L652.171,98.016z"/>
			</g>
			<g>
				<path style="fill:#0000FF;" d="M650.171,110.016c33.358,0,60.496,27.139,60.496,60.497s-27.138,60.496-60.496,60.496
					c-33.358,0-60.497-27.139-60.497-60.496S616.813,110.016,650.171,110.016 M650.171,100.016
					c-38.934,0-70.497,31.562-70.497,70.497c0,38.934,31.563,70.496,70.497,70.496c38.934,0,70.496-31.562,70.496-70.496
					C720.667,131.578,689.105,100.016,650.171,100.016L650.171,100.016z"/>
			</g>
			<g>
				<path style="fill:#00FF00;" d="M652.171,112.016c33.358,0,60.496,27.139,60.496,60.497s-27.138,60.496-60.496,60.496
					c-33.358,0-60.497-27.139-60.497-60.496S618.813,112.016,652.171,112.016 M652.171,102.016
					c-38.934,0-70.497,31.562-70.497,70.497c0,38.934,31.563,70.496,70.497,70.496c38.934,0,70.496-31.562,70.496-70.496
					C722.667,133.578,691.105,102.016,652.171,102.016L652.171,102.016z"/>
			</g>
			<g>
				<path d="M654.171,110.016c33.358,0,60.496,27.139,60.496,60.497s-27.138,60.496-60.496,60.496
					c-33.358,0-60.497-27.139-60.497-60.496S620.813,110.016,654.171,110.016 M654.171,100.016
					c-38.934,0-70.497,31.562-70.497,70.497c0,38.934,31.563,70.496,70.497,70.496c38.934,0,70.496-31.562,70.496-70.496
					C724.667,131.578,693.105,100.016,654.171,100.016L654.171,100.016z"/>
			</g>
		</g>
		<g>
			<polygon points="652.171,143.811 638.68,170.512 652.171,197.214 635.577,197.214 622.086,170.512 635.577,143.811 			"/>
			<polygon points="682.256,143.811 668.765,170.512 682.256,197.214 665.662,197.214 652.171,170.512 665.662,143.811 			"/>
		</g>
	</g>
	<g>
		<g>
			<g>
				<path style="fill:#FF0000;" d="M147.829,273.008c33.358,0,60.497,27.139,60.497,60.496s-27.139,60.497-60.497,60.497
					s-60.496-27.139-60.496-60.497S114.471,273.008,147.829,273.008 M147.829,263.008c-38.934,0-70.496,31.562-70.496,70.496
					s31.562,70.497,70.496,70.497c38.934,0,70.497-31.562,70.497-70.497S186.763,263.008,147.829,263.008L147.829,263.008z"/>
			</g>
			<g>
				<path style="fill:#0000FF;" d="M145.829,275.008c33.358,0,60.497,27.139,60.497,60.496s-27.139,60.497-60.497,60.497
					s-60.496-27.139-60.496-60.497S112.471,275.008,145.829,275.008 M145.829,265.008c-38.934,0-70.496,31.562-70.496,70.496
					s31.562,70.497,70.496,70.497c38.934,0,70.497-31.562,70.497-70.497S184.763,265.008,145.829,265.008L145.829,265.008z"/>
			</g>
			<g>
				<path style="fill:#00FF00;" d="M147.829,277.008c33.358,0,60.497,27.139,60.497,60.496s-27.139,60.497-60.497,60.497
					s-60.496-27.139-60.496-60.497S114.471,277.008,147.829,277.008 M147.829,267.008c-38.934,0-70.496,31.562-70.496,70.496
					s31.562,70.497,70.496,70.497c38.934,0,70.497-31.562,70.497-70.497S186.763,267.008,147.829,267.008L147.829,267.008z"/>
			</g>
			<g>
				<path d="M149.829,275.008c33.358,0,60.497,27.139,60.497,60.496s-27.139,60.497-60.497,60.497s-60.496-27.139-60.496-60.497
					S116.471,275.008,149.829,275.008 M149.829,265.008c-38.934,0-70.496,31.562-70.496,70.496s31.562,70.497,70.496,70.497
					c38.934,0,70.497-31.562,70.497-70.497S188.763,265.008,149.829,265.008L149.829,265.008z"/>
			</g>
		</g>
		<g>
			<path d="M144.85,335.455v-21.392c0-2.905-2.355-5.26-5.26-5.26h-21.392c-2.905,0-5.26,2.355-5.26,5.26v42.902
				c0,2.894,2.346,5.24,5.24,5.24h10.528c2.203,0,3.989-1.786,3.989-3.989l0,0c0-2.203-1.786-3.989-3.989-3.989h-6.591
				c-0.662,0-1.199-0.537-1.199-1.199v-11.114c0-0.662,0.537-1.199,1.199-1.199h17.475
				C142.495,340.715,144.85,338.36,144.85,335.455z"/>
			<path d="M182.721,335.455v-21.392c0-2.905-2.355-5.26-5.261-5.26h-21.392c-2.905,0-5.26,2.355-5.26,5.26v42.902
				c0,2.894,2.346,5.24,5.24,5.24h10.528c2.203,0,3.989-1.786,3.989-3.989l0,0c0-2.203-1.786-3.989-3.989-3.989h-6.591
				c-0.662,0-1.199-0.537-1.199-1.199v-11.114c0-0.662,0.537-1.199,1.199-1.199h17.475
				C180.366,340.715,182.721,338.36,182.721,335.455z"/>
		</g>
	</g>
	<g>
		<g>
			<g>
				<path style="fill:#FFFF00;" d="M313.943,275.008c33.358,0,60.497,27.139,60.497,60.496s-27.139,60.497-60.497,60.497
					s-60.496-27.139-60.496-60.497S280.585,275.008,313.943,275.008 M313.943,265.008c-38.934,0-70.496,31.562-70.496,70.496
					s31.562,70.497,70.496,70.497c38.934,0,70.497-31.562,70.497-70.497S352.877,265.008,313.943,265.008L313.943,265.008z"/>
			</g>
			<g>
				<path style="fill:#FF00FF;" d="M315.943,277.008c33.358,0,60.497,27.139,60.497,60.496s-27.139,60.497-60.497,60.497
					s-60.496-27.139-60.496-60.497S282.585,277.008,315.943,277.008 M315.943,267.008c-38.934,0-70.496,31.562-70.496,70.496
					s31.562,70.497,70.496,70.497c38.934,0,70.497-31.562,70.497-70.497S354.877,267.008,315.943,267.008L315.943,267.008z"/>
			</g>
			<g>
				<path style="fill:#00FFFF;" d="M315.943,273.008c33.358,0,60.497,27.139,60.497,60.496s-27.139,60.497-60.497,60.497
					s-60.496-27.139-60.496-60.497S282.585,273.008,315.943,273.008 M315.943,263.008c-38.934,0-70.496,31.562-70.496,70.496
					s31.562,70.497,70.496,70.497c38.934,0,70.497-31.562,70.497-70.497S354.877,263.008,315.943,263.008L315.943,263.008z"/>
			</g>
			<g>
				<path d="M317.943,275.008c33.358,0,60.497,27.139,60.497,60.496s-27.139,60.497-60.497,60.497s-60.496-27.139-60.496-60.497
					S284.585,275.008,317.943,275.008 M317.943,265.008c-38.934,0-70.496,31.562-70.496,70.496s31.562,70.497,70.496,70.497
					c38.934,0,70.497-31.562,70.497-70.497S356.877,265.008,317.943,265.008L317.943,265.008z"/>
			</g>
		</g>
		<g>
			<g>
				<path style="fill:#FFFF00;" d="M316.976,361.453l34.573-51.367c0.213-0.316-0.014-0.742-0.395-0.742h-34.573
					c-0.263,0-0.476,0.213-0.476,0.476v51.367C316.105,361.657,316.714,361.843,316.976,361.453z"/>
				<path style="fill:#FFFF00;" d="M277.126,361.453l34.573-51.367c0.213-0.316-0.014-0.742-0.395-0.742h-34.573
					c-0.263,0-0.476,0.213-0.476,0.476v51.367C276.255,361.657,276.864,361.843,277.126,361.453z"/>
			</g>
			<g>
				<path style="fill:#FF00FF;" d="M318.976,363.453l34.573-51.367c0.213-0.316-0.014-0.742-0.395-0.742h-34.573
					c-0.263,0-0.476,0.213-0.476,0.476v51.367C318.105,363.657,318.714,363.843,318.976,363.453z"/>
				<path style="fill:#FF00FF;" d="M279.126,363.453l34.573-51.367c0.213-0.316-0.014-0.742-0.395-0.742h-34.573
					c-0.263,0-0.476,0.213-0.476,0.476v51.367C278.255,363.657,278.864,363.843,279.126,363.453z"/>
			</g>
			<g>
				<path style="fill:#00FFFF;" d="M318.976,359.453l34.573-51.367c0.213-0.316-0.014-0.742-0.395-0.742h-34.573
					c-0.263,0-0.476,0.213-0.476,0.476v51.367C318.105,359.657,318.714,359.843,318.976,359.453z"/>
				<path style="fill:#00FFFF;" d="M279.126,359.453l34.573-51.367c0.213-0.316-0.014-0.742-0.395-0.742h-34.573
					c-0.263,0-0.476,0.213-0.476,0.476v51.367C278.255,359.657,278.864,359.843,279.126,359.453z"/>
			</g>
			<g>
				<path d="M320.976,361.453l34.573-51.367c0.213-0.316-0.014-0.742-0.395-0.742h-34.573c-0.263,0-0.476,0.213-0.476,0.476v51.367
					C320.105,361.657,320.714,361.843,320.976,361.453z"/>
				<path d="M281.126,361.453l34.573-51.367c0.213-0.316-0.014-0.742-0.395-0.742h-34.573c-0.263,0-0.476,0.213-0.476,0.476v51.367
					C280.255,361.657,280.864,361.843,281.126,361.453z"/>
			</g>
		</g>
	</g>
	<g>
		<g>
			<g>
				<path style="fill:#FF0000;" d="M484.057,273.008c33.358,0,60.496,27.139,60.496,60.496s-27.138,60.497-60.496,60.497
					s-60.497-27.139-60.497-60.497S450.699,273.008,484.057,273.008 M484.057,263.008c-38.934,0-70.497,31.562-70.497,70.496
					s31.562,70.497,70.497,70.497c38.934,0,70.496-31.562,70.496-70.497S522.991,263.008,484.057,263.008L484.057,263.008z"/>
			</g>
			<g>
				<path style="fill:#0000FF;" d="M482.057,275.008c33.358,0,60.496,27.139,60.496,60.496s-27.138,60.497-60.496,60.497
					s-60.497-27.139-60.497-60.497S448.699,275.008,482.057,275.008 M482.057,265.008c-38.934,0-70.497,31.562-70.497,70.496
					s31.562,70.497,70.497,70.497c38.934,0,70.496-31.562,70.496-70.497S520.991,265.008,482.057,265.008L482.057,265.008z"/>
			</g>
			<g>
				<path style="fill:#00FF00;" d="M484.057,277.008c33.358,0,60.496,27.139,60.496,60.496s-27.138,60.497-60.496,60.497
					s-60.497-27.139-60.497-60.497S450.699,277.008,484.057,277.008 M484.057,267.008c-38.934,0-70.497,31.562-70.497,70.496
					s31.562,70.497,70.497,70.497c38.934,0,70.496-31.562,70.496-70.497S522.991,267.008,484.057,267.008L484.057,267.008z"/>
			</g>
			<g>
				<path d="M486.057,275.008c33.358,0,60.496,27.139,60.496,60.496s-27.138,60.497-60.496,60.497s-60.497-27.139-60.497-60.497
					S452.699,275.008,486.057,275.008 M486.057,265.008c-38.934,0-70.497,31.562-70.497,70.496s31.562,70.497,70.497,70.497
					c38.934,0,70.496-31.562,70.496-70.497S524.991,265.008,486.057,265.008L486.057,265.008z"/>
			</g>
		</g>
		<g>
			<path d="M479.54,313.303c2.851-1.82,1.562-6.234-1.82-6.234l-16.403,0c-3.173,0-5.912,2.161-6.733,5.225
				c-4.718,17.628-0.978,36.412,9.973,50.854c1.301,1.716,4.043,0.412,3.529-1.679c-2.045-8.326-4.416-21.63-2.789-34.14
				c0.443-3.403,2.36-6.44,5.252-8.286L479.54,313.303z"/>
			<path d="M513.963,313.303c2.851-1.82,1.562-6.234-1.82-6.234l-16.403,0c-3.173,0-5.912,2.161-6.732,5.225
				c-4.718,17.628-0.978,36.412,9.972,50.854c1.301,1.716,4.043,0.412,3.529-1.679c-2.045-8.326-4.416-21.63-2.789-34.14
				c0.443-3.403,2.36-6.44,5.252-8.286L513.963,313.303z"/>
		</g>
	</g>
	<g>
		<g>
			<g>
				<path style="fill:#FFFF00;" d="M650.171,275.008c33.358,0,60.496,27.139,60.496,60.496s-27.138,60.497-60.496,60.497
					c-33.358,0-60.497-27.139-60.497-60.497S616.813,275.008,650.171,275.008 M650.171,265.008
					c-38.934,0-70.497,31.562-70.497,70.496s31.563,70.497,70.497,70.497c38.934,0,70.496-31.562,70.496-70.497
					S689.105,265.008,650.171,265.008L650.171,265.008z"/>
			</g>
			<g>
				<path style="fill:#FF00FF;" d="M652.171,277.008c33.358,0,60.496,27.139,60.496,60.496s-27.138,60.497-60.496,60.497
					c-33.358,0-60.497-27.139-60.497-60.497S618.813,277.008,652.171,277.008 M652.171,267.008
					c-38.934,0-70.497,31.562-70.497,70.496s31.563,70.497,70.497,70.497c38.934,0,70.496-31.562,70.496-70.497
					S691.105,267.008,652.171,267.008L652.171,267.008z"/>
			</g>
			<g>
				<path style="fill:#00FFFF;" d="M652.171,273.008c33.358,0,60.496,27.139,60.496,60.496s-27.138,60.497-60.496,60.497
					c-33.358,0-60.497-27.139-60.497-60.497S618.813,273.008,652.171,273.008 M652.171,263.008
					c-38.934,0-70.497,31.562-70.497,70.496s31.563,70.497,70.497,70.497c38.934,0,70.496-31.562,70.496-70.497
					S691.105,263.008,652.171,263.008L652.171,263.008z"/>
			</g>
			<g>
				<path d="M654.171,275.008c33.358,0,60.496,27.139,60.496,60.496s-27.138,60.497-60.496,60.497
					c-33.358,0-60.497-27.139-60.497-60.497S620.813,275.008,654.171,275.008 M654.171,265.008
					c-38.934,0-70.497,31.562-70.497,70.496s31.563,70.497,70.497,70.497c38.934,0,70.496-31.562,70.496-70.497
					S693.105,265.008,654.171,265.008L654.171,265.008z"/>
			</g>
		</g>
		<g>
			<g>
				<path style="fill:#FFFF00;" d="M615.102,310.163v31.503c0,0.077,0.031,0.15,0.085,0.205l19.179,19.179
					c0.182,0.182,0.494,0.053,0.494-0.205v-18.77c0-0.16,0.13-0.289,0.289-0.289h11.576c0.16,0,0.289-0.13,0.289-0.289v-31.334
					c0-0.16-0.13-0.289-0.289-0.289h-31.334C615.232,309.873,615.102,310.003,615.102,310.163z"/>
				<path style="fill:#FFFF00;" d="M653.327,310.163v31.503c0,0.077,0.03,0.15,0.085,0.205l19.179,19.179
					c0.182,0.182,0.494,0.053,0.494-0.205v-18.77c0-0.16,0.13-0.289,0.289-0.289h11.576c0.16,0,0.289-0.13,0.289-0.289v-31.334
					c0-0.16-0.13-0.289-0.289-0.289h-31.334C653.456,309.873,653.327,310.003,653.327,310.163z"/>
			</g>
			<g>
				<path style="fill:#FF00FF;" d="M617.102,312.163v31.503c0,0.077,0.031,0.15,0.085,0.205l19.179,19.179
					c0.182,0.182,0.494,0.053,0.494-0.205v-18.77c0-0.16,0.13-0.289,0.289-0.289h11.576c0.16,0,0.289-0.13,0.289-0.289v-31.334
					c0-0.16-0.13-0.289-0.289-0.289h-31.334C617.232,311.873,617.102,312.003,617.102,312.163z"/>
				<path style="fill:#FF00FF;" d="M655.327,312.163v31.503c0,0.077,0.03,0.15,0.085,0.205l19.179,19.179
					c0.182,0.182,0.494,0.053,0.494-0.205v-18.77c0-0.16,0.13-0.289,0.289-0.289h11.576c0.16,0,0.289-0.13,0.289-0.289v-31.334
					c0-0.16-0.13-0.289-0.289-0.289h-31.334C655.456,311.873,655.327,312.003,655.327,312.163z"/>
			</g>
			<g>
				<path style="fill:#00FFFF;" d="M617.102,308.163v31.503c0,0.077,0.031,0.15,0.085,0.205l19.179,19.179
					c0.182,0.182,0.494,0.053,0.494-0.205v-18.77c0-0.16,0.13-0.289,0.289-0.289h11.576c0.16,0,0.289-0.13,0.289-0.289v-31.334
					c0-0.16-0.13-0.289-0.289-0.289h-31.334C617.232,307.873,617.102,308.003,617.102,308.163z"/>
				<path style="fill:#00FFFF;" d="M655.327,308.163v31.503c0,0.077,0.03,0.15,0.085,0.205l19.179,19.179
					c0.182,0.182,0.494,0.053,0.494-0.205v-18.77c0-0.16,0.13-0.289,0.289-0.289h11.576c0.16,0,0.289-0.13,0.289-0.289v-31.334
					c0-0.16-0.13-0.289-0.289-0.289h-31.334C655.456,307.873,655.327,308.003,655.327,308.163z"/>
			</g>
			<g>
				<path d="M619.102,310.163v31.503c0,0.077,0.031,0.15,0.085,0.205l19.179,19.179c0.182,0.182,0.494,0.053,0.494-0.205v-18.77
					c0-0.16,0.13-0.289,0.289-0.289h11.576c0.16,0,0.289-0.13,0.289-0.289v-31.334c0-0.16-0.13-0.289-0.289-0.289h-31.334
					C619.232,309.873,619.102,310.003,619.102,310.163z"/>
				<path d="M657.327,310.163v31.503c0,0.077,0.03,0.15,0.085,0.205l19.179,19.179c0.182,0.182,0.494,0.053,0.494-0.205v-18.77
					c0-0.16,0.13-0.289,0.289-0.289h11.576c0.16,0,0.289-0.13,0.289-0.289v-31.334c0-0.16-0.13-0.289-0.289-0.289h-31.334
					C657.456,309.873,657.327,310.003,657.327,310.163z"/>
			</g>
		</g>
	</g>
	<g>
		<g>
			<g>
				<path style="fill:#FFFF00;" d="M482.057,439.999c33.358,0,60.496,27.139,60.496,60.496c0,33.358-27.138,60.497-60.496,60.497
					s-60.497-27.139-60.497-60.497C421.56,467.138,448.699,439.999,482.057,439.999 M482.057,429.999
					c-38.934,0-70.497,31.562-70.497,70.496c0,38.934,31.562,70.497,70.497,70.497c38.934,0,70.496-31.562,70.496-70.497
					C552.553,461.562,520.991,429.999,482.057,429.999L482.057,429.999z"/>
			</g>
			<g>
				<path style="fill:#FF00FF;" d="M484.057,441.999c33.358,0,60.496,27.139,60.496,60.496c0,33.358-27.138,60.497-60.496,60.497
					s-60.497-27.139-60.497-60.497C423.56,469.138,450.699,441.999,484.057,441.999 M484.057,431.999
					c-38.934,0-70.497,31.562-70.497,70.496c0,38.934,31.562,70.497,70.497,70.497c38.934,0,70.496-31.562,70.496-70.497
					C554.553,463.562,522.991,431.999,484.057,431.999L484.057,431.999z"/>
			</g>
			<g>
				<path style="fill:#00FFFF;" d="M484.057,437.999c33.358,0,60.496,27.139,60.496,60.496c0,33.358-27.138,60.497-60.496,60.497
					s-60.497-27.139-60.497-60.497C423.56,465.138,450.699,437.999,484.057,437.999 M484.057,427.999
					c-38.934,0-70.497,31.562-70.497,70.496c0,38.934,31.562,70.497,70.497,70.497c38.934,0,70.496-31.562,70.496-70.497
					C554.553,459.562,522.991,427.999,484.057,427.999L484.057,427.999z"/>
			</g>
			<g>
				<path d="M486.057,439.999c33.358,0,60.496,27.139,60.496,60.496c0,33.358-27.138,60.497-60.496,60.497
					s-60.497-27.139-60.497-60.497C425.56,467.138,452.699,439.999,486.057,439.999 M486.057,429.999
					c-38.934,0-70.497,31.562-70.497,70.496c0,38.934,31.562,70.497,70.497,70.497c38.934,0,70.496-31.562,70.496-70.497
					C556.553,461.562,524.991,429.999,486.057,429.999L486.057,429.999z"/>
			</g>
		</g>
		<g>
			<g>
				<path style="fill:#FFFF00;" d="M476.695,474.507h-20.574c-1.517,0-2.747,1.23-2.747,2.747v23.321l0,0
					c0,13.363,10.054,24.377,23.011,25.891c1.628,0.19,3.057-1.097,3.057-2.736v-3.993c0-1.365-1.003-2.521-2.354-2.712
					c-8.061-1.143-14.261-8.073-14.261-16.45h13.868c1.517,0,2.747-1.23,2.747-2.747v-20.574
					C479.442,475.737,478.212,474.507,476.695,474.507z"/>
				<path style="fill:#FFFF00;" d="M507.992,474.507h-20.574c-1.517,0-2.747,1.23-2.747,2.747v23.321l0,0
					c0,13.363,10.055,24.377,23.011,25.891c1.628,0.19,3.057-1.097,3.057-2.736v-3.993c0-1.365-1.003-2.521-2.354-2.712
					c-8.062-1.143-14.261-8.073-14.261-16.45h13.868c1.517,0,2.747-1.23,2.747-2.747v-20.574
					C510.74,475.737,509.51,474.507,507.992,474.507z"/>
			</g>
			<g>
				<path style="fill:#FF00FF;" d="M478.695,476.507h-20.574c-1.517,0-2.747,1.23-2.747,2.747v23.321l0,0
					c0,13.363,10.054,24.377,23.011,25.891c1.628,0.19,3.057-1.097,3.057-2.736v-3.993c0-1.365-1.003-2.521-2.354-2.712
					c-8.061-1.143-14.261-8.073-14.261-16.45h13.868c1.517,0,2.747-1.23,2.747-2.747v-20.574
					C481.442,477.737,480.212,476.507,478.695,476.507z"/>
				<path style="fill:#FF00FF;" d="M509.992,476.507h-20.574c-1.517,0-2.747,1.23-2.747,2.747v23.321l0,0
					c0,13.363,10.055,24.377,23.011,25.891c1.628,0.19,3.057-1.097,3.057-2.736v-3.993c0-1.365-1.003-2.521-2.354-2.712
					c-8.062-1.143-14.261-8.073-14.261-16.45h13.868c1.517,0,2.747-1.23,2.747-2.747v-20.574
					C512.74,477.737,511.51,476.507,509.992,476.507z"/>
			</g>
			<g>
				<path style="fill:#00FFFF;" d="M478.695,472.507h-20.574c-1.517,0-2.747,1.23-2.747,2.747v23.321l0,0
					c0,13.363,10.054,24.377,23.011,25.891c1.628,0.19,3.057-1.097,3.057-2.736v-3.993c0-1.365-1.003-2.521-2.354-2.712
					c-8.061-1.143-14.261-8.073-14.261-16.45h13.868c1.517,0,2.747-1.23,2.747-2.747v-20.574
					C481.442,473.737,480.212,472.507,478.695,472.507z"/>
				<path style="fill:#00FFFF;" d="M509.992,472.507h-20.574c-1.517,0-2.747,1.23-2.747,2.747v23.321l0,0
					c0,13.363,10.055,24.377,23.011,25.891c1.628,0.19,3.057-1.097,3.057-2.736v-3.993c0-1.365-1.003-2.521-2.354-2.712
					c-8.062-1.143-14.261-8.073-14.261-16.45h13.868c1.517,0,2.747-1.23,2.747-2.747v-20.574
					C512.74,473.737,511.51,472.507,509.992,472.507z"/>
			</g>
			<g>
				<path d="M480.695,474.507h-20.574c-1.517,0-2.747,1.23-2.747,2.747v23.321l0,0c0,13.363,10.054,24.377,23.011,25.891
					c1.628,0.19,3.057-1.097,3.057-2.736v-3.993c0-1.365-1.003-2.521-2.354-2.712c-8.061-1.143-14.261-8.073-14.261-16.45h13.868
					c1.517,0,2.747-1.23,2.747-2.747v-20.574C483.442,475.737,482.212,474.507,480.695,474.507z"/>
				<path d="M511.992,474.507h-20.574c-1.517,0-2.747,1.23-2.747,2.747v23.321l0,0c0,13.363,10.055,24.377,23.011,25.891
					c1.628,0.19,3.057-1.097,3.057-2.736v-3.993c0-1.365-1.003-2.521-2.354-2.712c-8.062-1.143-14.261-8.073-14.261-16.45h13.868
					c1.517,0,2.747-1.23,2.747-2.747v-20.574C514.74,475.737,513.51,474.507,511.992,474.507z"/>
			</g>
		</g>
	</g>
	<g>
		<g>
			<g>
				<path style="fill:#FFFF00;" d="M145.829,439.999c33.358,0,60.497,27.139,60.497,60.496c0,33.358-27.139,60.497-60.497,60.497
					s-60.496-27.139-60.496-60.497C85.333,467.138,112.471,439.999,145.829,439.999 M145.829,429.999
					c-38.934,0-70.496,31.562-70.496,70.496c0,38.934,31.562,70.497,70.496,70.497c38.934,0,70.497-31.562,70.497-70.497
					C216.326,461.562,184.763,429.999,145.829,429.999L145.829,429.999z"/>
			</g>
			<g>
				<path style="fill:#FF00FF;" d="M147.829,441.999c33.358,0,60.497,27.139,60.497,60.496c0,33.358-27.139,60.497-60.497,60.497
					s-60.496-27.139-60.496-60.497C87.333,469.138,114.471,441.999,147.829,441.999 M147.829,431.999
					c-38.934,0-70.496,31.562-70.496,70.496c0,38.934,31.562,70.497,70.496,70.497c38.934,0,70.497-31.562,70.497-70.497
					C218.326,463.562,186.763,431.999,147.829,431.999L147.829,431.999z"/>
			</g>
			<g>
				<path style="fill:#00FFFF;" d="M147.829,437.999c33.358,0,60.497,27.139,60.497,60.496c0,33.358-27.139,60.497-60.497,60.497
					s-60.496-27.139-60.496-60.497C87.333,465.138,114.471,437.999,147.829,437.999 M147.829,427.999
					c-38.934,0-70.496,31.562-70.496,70.496c0,38.934,31.562,70.497,70.496,70.497c38.934,0,70.497-31.562,70.497-70.497
					C218.326,459.562,186.763,427.999,147.829,427.999L147.829,427.999z"/>
			</g>
			<g>
				<path d="M149.829,439.999c33.358,0,60.497,27.139,60.497,60.496c0,33.358-27.139,60.497-60.497,60.497
					s-60.496-27.139-60.496-60.497C89.333,467.138,116.471,439.999,149.829,439.999 M149.829,429.999
					c-38.934,0-70.496,31.562-70.496,70.496c0,38.934,31.562,70.497,70.496,70.497c38.934,0,70.497-31.562,70.497-70.497
					C220.326,461.562,188.763,429.999,149.829,429.999L149.829,429.999z"/>
			</g>
		</g>
		<g>
			<g>
				<path style="fill:#FFFF00;" d="M128.247,507.491c8.909,0,16.131-7.222,16.131-16.131c0-8.909-7.222-16.131-16.131-16.131
					c-8.909,0-16.13,7.222-16.13,16.131c0,0.002,0,0.004,0,0.004v18.268c0,8.909,7.221,16.13,16.13,16.13
					c2.456,0,4.775-0.565,6.858-1.547c-5.474-2.58-9.272-8.131-9.272-14.584v-2.341C126.622,507.41,127.424,507.491,128.247,507.491
					z"/>
				<path style="fill:#FFFF00;" d="M163.412,507.491c8.909,0,16.131-7.222,16.131-16.131c0-8.909-7.222-16.131-16.131-16.131
					c-8.909,0-16.131,7.222-16.131,16.131c0,0.002,0,0.004,0,0.004v18.268c0,8.909,7.221,16.13,16.131,16.13
					c2.456,0,4.774-0.565,6.858-1.547c-5.474-2.58-9.272-8.131-9.272-14.584v-2.341C161.787,507.41,162.589,507.491,163.412,507.491
					z"/>
			</g>
			<g>
				<path style="fill:#FF00FF;" d="M130.247,509.491c8.909,0,16.131-7.222,16.131-16.131c0-8.909-7.222-16.131-16.131-16.131
					c-8.909,0-16.13,7.222-16.13,16.131c0,0.002,0,0.004,0,0.004v18.268c0,8.909,7.221,16.13,16.13,16.13
					c2.456,0,4.775-0.565,6.858-1.547c-5.474-2.58-9.272-8.131-9.272-14.584v-2.341C128.622,509.41,129.424,509.491,130.247,509.491
					z"/>
				<path style="fill:#FF00FF;" d="M165.412,509.491c8.909,0,16.131-7.222,16.131-16.131c0-8.909-7.222-16.131-16.131-16.131
					c-8.909,0-16.131,7.222-16.131,16.131c0,0.002,0,0.004,0,0.004v18.268c0,8.909,7.221,16.13,16.131,16.13
					c2.456,0,4.774-0.565,6.858-1.547c-5.474-2.58-9.272-8.131-9.272-14.584v-2.341C163.787,509.41,164.589,509.491,165.412,509.491
					z"/>
			</g>
			<g>
				<path style="fill:#00FFFF;" d="M130.247,505.491c8.909,0,16.131-7.222,16.131-16.131c0-8.909-7.222-16.131-16.131-16.131
					c-8.909,0-16.13,7.222-16.13,16.131c0,0.002,0,0.004,0,0.004v18.268c0,8.909,7.221,16.13,16.13,16.13
					c2.456,0,4.775-0.565,6.858-1.547c-5.474-2.58-9.272-8.131-9.272-14.584v-2.341C128.622,505.41,129.424,505.491,130.247,505.491
					z"/>
				<path style="fill:#00FFFF;" d="M165.412,505.491c8.909,0,16.131-7.222,16.131-16.131c0-8.909-7.222-16.131-16.131-16.131
					c-8.909,0-16.131,7.222-16.131,16.131c0,0.002,0,0.004,0,0.004v18.268c0,8.909,7.221,16.13,16.131,16.13
					c2.456,0,4.774-0.565,6.858-1.547c-5.474-2.58-9.272-8.131-9.272-14.584v-2.341C163.787,505.41,164.589,505.491,165.412,505.491
					z"/>
			</g>
			<g>
				<path d="M132.247,507.491c8.909,0,16.131-7.222,16.131-16.131c0-8.909-7.222-16.131-16.131-16.131
					c-8.909,0-16.13,7.222-16.13,16.131c0,0.002,0,0.004,0,0.004v18.268c0,8.909,7.221,16.13,16.13,16.13
					c2.456,0,4.775-0.565,6.858-1.547c-5.474-2.58-9.272-8.131-9.272-14.584v-2.341C130.622,507.41,131.424,507.491,132.247,507.491
					z"/>
				<path d="M167.412,507.491c8.909,0,16.131-7.222,16.131-16.131c0-8.909-7.222-16.131-16.131-16.131
					c-8.909,0-16.131,7.222-16.131,16.131c0,0.002,0,0.004,0,0.004v18.268c0,8.909,7.221,16.13,16.131,16.13
					c2.456,0,4.774-0.565,6.858-1.547c-5.474-2.58-9.272-8.131-9.272-14.584v-2.341C165.787,507.41,166.589,507.491,167.412,507.491
					z"/>
			</g>
		</g>
	</g>
	<g>
		<g>
			<g>
				<path style="fill:#FFFF00;" d="M313.943,604.991c33.358,0,60.497,27.139,60.497,60.497c0,33.358-27.139,60.496-60.497,60.496
					s-60.496-27.139-60.496-60.496C253.447,632.13,280.585,604.991,313.943,604.991 M313.943,594.991
					c-38.934,0-70.496,31.562-70.496,70.497c0,38.934,31.562,70.496,70.496,70.496c38.934,0,70.497-31.562,70.497-70.496
					C384.44,626.554,352.877,594.991,313.943,594.991L313.943,594.991z"/>
			</g>
			<g>
				<path style="fill:#FF00FF;" d="M315.943,606.991c33.358,0,60.497,27.139,60.497,60.497c0,33.358-27.139,60.496-60.497,60.496
					s-60.496-27.139-60.496-60.496C255.447,634.13,282.585,606.991,315.943,606.991 M315.943,596.991
					c-38.934,0-70.496,31.562-70.496,70.497c0,38.934,31.562,70.496,70.496,70.496c38.934,0,70.497-31.562,70.497-70.496
					C386.44,628.554,354.877,596.991,315.943,596.991L315.943,596.991z"/>
			</g>
			<g>
				<path style="fill:#00FFFF;" d="M315.943,602.991c33.358,0,60.497,27.139,60.497,60.497c0,33.358-27.139,60.496-60.497,60.496
					s-60.496-27.139-60.496-60.496C255.447,630.13,282.585,602.991,315.943,602.991 M315.943,592.991
					c-38.934,0-70.496,31.562-70.496,70.497c0,38.934,31.562,70.496,70.496,70.496c38.934,0,70.497-31.562,70.497-70.496
					C386.44,624.554,354.877,592.991,315.943,592.991L315.943,592.991z"/>
			</g>
			<g>
				<path d="M317.943,604.991c33.358,0,60.497,27.139,60.497,60.497c0,33.358-27.139,60.496-60.497,60.496
					s-60.496-27.139-60.496-60.496C257.447,632.13,284.585,604.991,317.943,604.991 M317.943,594.991
					c-38.934,0-70.496,31.562-70.496,70.497c0,38.934,31.562,70.496,70.496,70.496c38.934,0,70.497-31.562,70.497-70.496
					C388.44,626.554,356.877,594.991,317.943,594.991L317.943,594.991z"/>
			</g>
		</g>
		<g>
			<g>
				<g>
					<path style="fill:#FFFF00;" d="M295.577,641.586c-9.207,0-16.671,7.464-16.671,16.671c0,0-1.088,18.611,16.671,31.133v-14.461
						c9.207,0,16.671-7.464,16.671-16.671C312.248,649.05,304.784,641.586,295.577,641.586z"/>
				</g>
				<g>
					<path style="fill:#FFFF00;" d="M332.322,641.586c-9.207,0-16.671,7.464-16.671,16.671c0,0-1.088,18.611,16.671,31.133v-14.461
						c9.207,0,16.671-7.464,16.671-16.671C348.993,649.05,341.53,641.586,332.322,641.586z"/>
				</g>
			</g>
			<g>
				<g>
					<path style="fill:#FF00FF;" d="M297.577,643.586c-9.207,0-16.671,7.464-16.671,16.671c0,0-1.088,18.611,16.671,31.133v-14.461
						c9.207,0,16.671-7.464,16.671-16.671C314.248,651.05,306.784,643.586,297.577,643.586z"/>
				</g>
				<g>
					<path style="fill:#FF00FF;" d="M334.322,643.586c-9.207,0-16.671,7.464-16.671,16.671c0,0-1.088,18.611,16.671,31.133v-14.461
						c9.207,0,16.671-7.464,16.671-16.671C350.993,651.05,343.53,643.586,334.322,643.586z"/>
				</g>
			</g>
			<g>
				<g>
					<path style="fill:#00FFFF;" d="M297.577,639.586c-9.207,0-16.671,7.464-16.671,16.671c0,0-1.088,18.611,16.671,31.133v-14.461
						c9.207,0,16.671-7.464,16.671-16.671C314.248,647.05,306.784,639.586,297.577,639.586z"/>
				</g>
				<g>
					<path style="fill:#00FFFF;" d="M334.322,639.586c-9.207,0-16.671,7.464-16.671,16.671c0,0-1.088,18.611,16.671,31.133v-14.461
						c9.207,0,16.671-7.464,16.671-16.671C350.993,647.05,343.53,639.586,334.322,639.586z"/>
				</g>
			</g>
			<g>
				<g>
					<path d="M299.577,641.586c-9.207,0-16.671,7.464-16.671,16.671c0,0-1.088,18.611,16.671,31.133v-14.461
						c9.207,0,16.671-7.464,16.671-16.671C316.248,649.05,308.784,641.586,299.577,641.586z"/>
				</g>
				<g>
					<path d="M336.322,641.586c-9.207,0-16.671,7.464-16.671,16.671c0,0-1.088,18.611,16.671,31.133v-14.461
						c9.207,0,16.671-7.464,16.671-16.671C352.993,649.05,345.53,641.586,336.322,641.586z"/>
				</g>
			</g>
		</g>
	</g>
	<g>
		<g>
			<g>
				<path style="fill:#FF0000;" d="M147.829,602.991c33.358,0,60.497,27.139,60.497,60.497c0,33.358-27.139,60.496-60.497,60.496
					s-60.496-27.139-60.496-60.496C87.333,630.13,114.471,602.991,147.829,602.991 M147.829,592.991
					c-38.934,0-70.496,31.562-70.496,70.497c0,38.934,31.562,70.496,70.496,70.496c38.934,0,70.497-31.562,70.497-70.496
					C218.326,624.554,186.763,592.991,147.829,592.991L147.829,592.991z"/>
			</g>
			<g>
				<path style="fill:#0000FF;" d="M145.829,604.991c33.358,0,60.497,27.139,60.497,60.497c0,33.358-27.139,60.496-60.497,60.496
					s-60.496-27.139-60.496-60.496C85.333,632.13,112.471,604.991,145.829,604.991 M145.829,594.991
					c-38.934,0-70.496,31.562-70.496,70.497c0,38.934,31.562,70.496,70.496,70.496c38.934,0,70.497-31.562,70.497-70.496
					C216.326,626.554,184.763,594.991,145.829,594.991L145.829,594.991z"/>
			</g>
			<g>
				<path style="fill:#00FF00;" d="M147.829,606.991c33.358,0,60.497,27.139,60.497,60.497c0,33.358-27.139,60.496-60.497,60.496
					s-60.496-27.139-60.496-60.496C87.333,634.13,114.471,606.991,147.829,606.991 M147.829,596.991
					c-38.934,0-70.496,31.562-70.496,70.497c0,38.934,31.562,70.496,70.496,70.496c38.934,0,70.497-31.562,70.497-70.496
					C218.326,628.554,186.763,596.991,147.829,596.991L147.829,596.991z"/>
			</g>
			<g>
				<path d="M149.829,604.991c33.358,0,60.497,27.139,60.497,60.497c0,33.358-27.139,60.496-60.497,60.496
					s-60.496-27.139-60.496-60.496C89.333,632.13,116.471,604.991,149.829,604.991 M149.829,594.991
					c-38.934,0-70.496,31.562-70.496,70.497c0,38.934,31.562,70.496,70.496,70.496c38.934,0,70.497-31.562,70.497-70.496
					C220.326,626.554,188.763,594.991,149.829,594.991L149.829,594.991z"/>
			</g>
		</g>
		<g>
			<g>
				<polygon points="145.429,641.694 113.624,641.694 113.624,673.499 129.406,689.281 134.04,689.281 134.04,673.499 
					145.429,673.499 				"/>
			</g>
			<g>
				<polygon points="182.035,641.694 150.229,641.694 150.229,673.499 166.012,689.281 170.646,689.281 170.646,673.499 
					182.035,673.499 				"/>
			</g>
		</g>
	</g>
	<g>
		<g>
			<g>
				<path style="fill:#FF0000;" d="M315.943,437.999c33.358,0,60.497,27.139,60.497,60.496c0,33.358-27.139,60.497-60.497,60.497
					s-60.496-27.139-60.496-60.497C255.447,465.138,282.585,437.999,315.943,437.999 M315.943,427.999
					c-38.934,0-70.496,31.562-70.496,70.496c0,38.934,31.562,70.497,70.496,70.497c38.934,0,70.497-31.562,70.497-70.497
					C386.44,459.562,354.877,427.999,315.943,427.999L315.943,427.999z"/>
			</g>
			<g>
				<path style="fill:#0000FF;" d="M313.943,439.999c33.358,0,60.497,27.139,60.497,60.496c0,33.358-27.139,60.497-60.497,60.497
					s-60.496-27.139-60.496-60.497C253.447,467.138,280.585,439.999,313.943,439.999 M313.943,429.999
					c-38.934,0-70.496,31.562-70.496,70.496c0,38.934,31.562,70.497,70.496,70.497c38.934,0,70.497-31.562,70.497-70.497
					C384.44,461.562,352.877,429.999,313.943,429.999L313.943,429.999z"/>
			</g>
			<g>
				<path style="fill:#00FF00;" d="M315.943,441.999c33.358,0,60.497,27.139,60.497,60.496c0,33.358-27.139,60.497-60.497,60.497
					s-60.496-27.139-60.496-60.497C255.447,469.138,282.585,441.999,315.943,441.999 M315.943,431.999
					c-38.934,0-70.496,31.562-70.496,70.496c0,38.934,31.562,70.497,70.496,70.497c38.934,0,70.497-31.562,70.497-70.497
					C386.44,463.562,354.877,431.999,315.943,431.999L315.943,431.999z"/>
			</g>
			<g>
				<path d="M317.943,439.999c33.358,0,60.497,27.139,60.497,60.496c0,33.358-27.139,60.497-60.497,60.497
					s-60.496-27.139-60.496-60.497C257.447,467.138,284.585,439.999,317.943,439.999 M317.943,429.999
					c-38.934,0-70.496,31.562-70.496,70.496c0,38.934,31.562,70.497,70.496,70.497c38.934,0,70.497-31.562,70.497-70.497
					C388.44,461.562,356.877,429.999,317.943,429.999L317.943,429.999z"/>
			</g>
		</g>
		<g>
			<g>
				<path d="M315.025,529.276c-1.51,0-3.002-0.681-3.985-1.977l-18.601-24.493c-1.391-1.831-1.353-4.373,0.089-6.163l18.601-23.066
					c1.734-2.151,4.882-2.487,7.031-0.753c2.149,1.733,2.487,4.881,0.754,7.031l-16.145,20.02l16.233,21.377
					c1.671,2.199,1.241,5.336-0.957,7.006C317.141,528.944,316.079,529.275,315.025,529.276z"/>
			</g>
			<g>
				<path d="M335.469,529.276c-1.51,0-3.002-0.681-3.985-1.977l-18.601-24.493c-1.391-1.831-1.354-4.373,0.089-6.163l18.601-23.066
					c1.734-2.151,4.882-2.487,7.031-0.753c2.149,1.733,2.487,4.881,0.754,7.031l-16.145,20.02l16.233,21.377
					c1.671,2.199,1.241,5.336-0.957,7.006C337.586,528.944,336.523,529.275,335.469,529.276z"/>
			</g>
		</g>
	</g>
	<g>
		<g>
			<g>
				<path style="fill:#FFFF00;" d="M650.171,604.991c33.358,0,60.496,27.139,60.496,60.497c0,33.358-27.138,60.496-60.496,60.496
					c-33.358,0-60.497-27.139-60.497-60.496C589.674,632.13,616.813,604.991,650.171,604.991 M650.171,594.991
					c-38.934,0-70.497,31.562-70.497,70.497c0,38.934,31.563,70.496,70.497,70.496c38.934,0,70.496-31.562,70.496-70.496
					C720.667,626.554,689.105,594.991,650.171,594.991L650.171,594.991z"/>
			</g>
			<g>
				<path style="fill:#FF00FF;" d="M652.171,606.991c33.358,0,60.496,27.139,60.496,60.497c0,33.358-27.138,60.496-60.496,60.496
					c-33.358,0-60.497-27.139-60.497-60.496C591.674,634.13,618.813,606.991,652.171,606.991 M652.171,596.991
					c-38.934,0-70.497,31.562-70.497,70.497c0,38.934,31.563,70.496,70.497,70.496c38.934,0,70.496-31.562,70.496-70.496
					C722.667,628.554,691.105,596.991,652.171,596.991L652.171,596.991z"/>
			</g>
			<g>
				<path style="fill:#00FFFF;" d="M652.171,602.991c33.358,0,60.496,27.139,60.496,60.497c0,33.358-27.138,60.496-60.496,60.496
					c-33.358,0-60.497-27.139-60.497-60.496C591.674,630.13,618.813,602.991,652.171,602.991 M652.171,592.991
					c-38.934,0-70.497,31.562-70.497,70.497c0,38.934,31.563,70.496,70.497,70.496c38.934,0,70.496-31.562,70.496-70.496
					C722.667,624.554,691.105,592.991,652.171,592.991L652.171,592.991z"/>
			</g>
			<g>
				<path d="M654.171,604.991c33.358,0,60.496,27.139,60.496,60.497c0,33.358-27.138,60.496-60.496,60.496
					c-33.358,0-60.497-27.139-60.497-60.496C593.674,632.13,620.813,604.991,654.171,604.991 M654.171,594.991
					c-38.934,0-70.497,31.562-70.497,70.497c0,38.934,31.563,70.496,70.497,70.496c38.934,0,70.496-31.562,70.496-70.496
					C724.667,626.554,693.105,594.991,654.171,594.991L654.171,594.991z"/>
			</g>
		</g>
		<g>
			<g>
				<g>
					<g>
						<path style="fill:#FFFF00;" d="M638.681,641.694h-17.627c-3.915,0-7.089,3.174-7.089,7.089v18.646
							c0,3.886,1.544,7.614,4.292,10.362l10.821,10.821c0.429,0.429,1.01,0.669,1.616,0.669l0,0c1.696,0,2.801-1.783,2.047-3.302
							l-3.098-6.236c-1.427-2.873,0.663-6.244,3.87-6.244h5.167c3.915,0,7.089-3.174,7.089-7.089v-17.627
							C645.771,644.868,642.597,641.694,638.681,641.694z"/>
					</g>
				</g>
				<g>
					<path style="fill:#FFFF00;" d="M675.287,641.694H657.66c-3.915,0-7.089,3.174-7.089,7.089v18.646
						c0,3.886,1.544,7.614,4.292,10.362l10.821,10.821c0.429,0.429,1.01,0.669,1.616,0.669l0,0c1.696,0,2.801-1.783,2.047-3.302
						l-3.098-6.236c-1.427-2.873,0.663-6.244,3.871-6.244h5.167c3.915,0,7.089-3.174,7.089-7.089v-17.627
						C682.376,644.868,679.202,641.694,675.287,641.694z"/>
				</g>
			</g>
			<g>
				<g>
					<g>
						<path style="fill:#FF00FF;" d="M640.681,643.694h-17.627c-3.915,0-7.089,3.174-7.089,7.089v18.646
							c0,3.886,1.544,7.614,4.292,10.362l10.821,10.821c0.429,0.429,1.01,0.669,1.616,0.669l0,0c1.696,0,2.801-1.783,2.047-3.302
							l-3.098-6.236c-1.427-2.873,0.663-6.244,3.87-6.244h5.167c3.915,0,7.089-3.174,7.089-7.089v-17.627
							C647.771,646.868,644.597,643.694,640.681,643.694z"/>
					</g>
				</g>
				<g>
					<path style="fill:#FF00FF;" d="M677.287,643.694H659.66c-3.915,0-7.089,3.174-7.089,7.089v18.646
						c0,3.886,1.544,7.614,4.292,10.362l10.821,10.821c0.429,0.429,1.01,0.669,1.616,0.669l0,0c1.696,0,2.801-1.783,2.047-3.302
						l-3.098-6.236c-1.427-2.873,0.663-6.244,3.871-6.244h5.167c3.915,0,7.089-3.174,7.089-7.089v-17.627
						C684.376,646.868,681.202,643.694,677.287,643.694z"/>
				</g>
			</g>
			<g>
				<g>
					<g>
						<path style="fill:#00FFFF;" d="M640.681,639.694h-17.627c-3.915,0-7.089,3.174-7.089,7.089v18.646
							c0,3.886,1.544,7.614,4.292,10.362l10.821,10.821c0.429,0.429,1.01,0.669,1.616,0.669l0,0c1.696,0,2.801-1.783,2.047-3.302
							l-3.098-6.236c-1.427-2.873,0.663-6.244,3.87-6.244h5.167c3.915,0,7.089-3.174,7.089-7.089v-17.627
							C647.771,642.868,644.597,639.694,640.681,639.694z"/>
					</g>
				</g>
				<g>
					<path style="fill:#00FFFF;" d="M677.287,639.694H659.66c-3.915,0-7.089,3.174-7.089,7.089v18.646
						c0,3.886,1.544,7.614,4.292,10.362l10.821,10.821c0.429,0.429,1.01,0.669,1.616,0.669l0,0c1.696,0,2.801-1.783,2.047-3.302
						l-3.098-6.236c-1.427-2.873,0.663-6.244,3.871-6.244h5.167c3.915,0,7.089-3.174,7.089-7.089v-17.627
						C684.376,642.868,681.202,639.694,677.287,639.694z"/>
				</g>
			</g>
			<g>
				<g>
					<g>
						<path d="M642.681,641.694h-17.627c-3.915,0-7.089,3.174-7.089,7.089v18.646c0,3.886,1.544,7.614,4.292,10.362l10.821,10.821
							c0.429,0.429,1.01,0.669,1.616,0.669l0,0c1.696,0,2.801-1.783,2.047-3.302l-3.098-6.236c-1.427-2.873,0.663-6.244,3.87-6.244
							h5.167c3.915,0,7.089-3.174,7.089-7.089v-17.627C649.771,644.868,646.597,641.694,642.681,641.694z"/>
					</g>
				</g>
				<g>
					<path d="M679.287,641.694H661.66c-3.915,0-7.089,3.174-7.089,7.089v18.646c0,3.886,1.544,7.614,4.292,10.362l10.821,10.821
						c0.429,0.429,1.01,0.669,1.616,0.669l0,0c1.696,0,2.801-1.783,2.047-3.302l-3.098-6.236c-1.427-2.873,0.663-6.244,3.871-6.244
						h5.167c3.915,0,7.089-3.174,7.089-7.089v-17.627C686.376,644.868,683.202,641.694,679.287,641.694z"/>
				</g>
			</g>
		</g>
	</g>
	<g>
		<g>
			<g>
				<path style="fill:#FF0000;" d="M652.171,437.999c33.358,0,60.496,27.139,60.496,60.496c0,33.358-27.138,60.497-60.496,60.497
					c-33.358,0-60.497-27.139-60.497-60.497C591.674,465.138,618.813,437.999,652.171,437.999 M652.171,427.999
					c-38.934,0-70.497,31.562-70.497,70.496c0,38.934,31.563,70.497,70.497,70.497c38.934,0,70.496-31.562,70.496-70.497
					C722.667,459.562,691.105,427.999,652.171,427.999L652.171,427.999z"/>
			</g>
			<g>
				<path style="fill:#0000FF;" d="M650.171,439.999c33.358,0,60.496,27.139,60.496,60.496c0,33.358-27.138,60.497-60.496,60.497
					c-33.358,0-60.497-27.139-60.497-60.497C589.674,467.138,616.813,439.999,650.171,439.999 M650.171,429.999
					c-38.934,0-70.497,31.562-70.497,70.496c0,38.934,31.563,70.497,70.497,70.497c38.934,0,70.496-31.562,70.496-70.497
					C720.667,461.562,689.105,429.999,650.171,429.999L650.171,429.999z"/>
			</g>
			<g>
				<path style="fill:#00FF00;" d="M652.171,441.999c33.358,0,60.496,27.139,60.496,60.496c0,33.358-27.138,60.497-60.496,60.497
					c-33.358,0-60.497-27.139-60.497-60.497C591.674,469.138,618.813,441.999,652.171,441.999 M652.171,431.999
					c-38.934,0-70.497,31.562-70.497,70.496c0,38.934,31.563,70.497,70.497,70.497c38.934,0,70.496-31.562,70.496-70.497
					C722.667,463.562,691.105,431.999,652.171,431.999L652.171,431.999z"/>
			</g>
			<g>
				<path d="M654.171,439.999c33.358,0,60.496,27.139,60.496,60.496c0,33.358-27.138,60.497-60.496,60.497
					c-33.358,0-60.497-27.139-60.497-60.497C593.674,467.138,620.813,439.999,654.171,439.999 M654.171,429.999
					c-38.934,0-70.497,31.562-70.497,70.496c0,38.934,31.563,70.497,70.497,70.497c38.934,0,70.496-31.562,70.496-70.497
					C724.667,461.562,693.105,429.999,654.171,429.999L654.171,429.999z"/>
			</g>
		</g>
		<g>
			<g>
				<path d="M666.281,526.671l-0.029-0.008c-0.464-0.122-0.901-0.332-1.269-0.64c-10.274-8.595-18.65-33.05-2.535-48.851
					c2.614-2.563,6.393-3.553,9.933-2.622h0c7.928,2.084,10.383,12.014,4.458,17.679c-6.674,6.38-11.271,16.02-6.595,30.15
					C671.078,524.896,668.844,527.345,666.281,526.671z"/>
			</g>
			<g>
				<path d="M637.079,526.671l-0.029-0.008c-0.464-0.122-0.901-0.332-1.269-0.64c-10.274-8.595-18.65-33.05-2.535-48.851
					c2.614-2.563,6.393-3.553,9.933-2.622l0,0c7.928,2.084,10.383,12.014,4.458,17.679c-6.674,6.38-11.271,16.02-6.595,30.15
					C641.876,524.896,639.642,527.345,637.079,526.671z"/>
			</g>
		</g>
	</g>
	<text transform="matrix(1 0 0 1 92.3667 64.1079)" style="font-family:'Lato-Black'; font-size:30px; letter-spacing:6;">Quote Template Collection</text>
</g>
</svg>
