<svg width="20" height="40" viewBox="0 0 20 40" fill="none" xmlns="http://www.w3.org/2000/svg">
<mask id="mask0_39932_381" style="mask-type:luminance" maskUnits="userSpaceOnUse" x="0" y="0" width="20" height="40">
<path d="M0 0H19.8V40H0V0Z" fill="white"/>
</mask>
<g mask="url(#mask0_39932_381)">
<path fill-rule="evenodd" clip-rule="evenodd" d="M0.0427083 0.0489541C0.00104167 0.0645791 0 0.185413 0 9.90312C0 18.8542 0.00312493 19.7427 0.0354167 19.7552C0.0989583 19.7802 19.724 19.7708 19.7708 19.7458C19.8125 19.724 19.8125 19.5896 19.8125 9.88854V0.0531207L19.7635 0.0489541C19.6104 0.0364541 0.0781251 0.0354125 0.0427083 0.0489541ZM0.0114583 9.90625C0.0114583 15.325 0.0135419 17.5375 0.0166667 14.825C0.0197917 12.1115 0.0197917 7.67812 0.0166667 4.97291C0.0135419 2.26875 0.0114583 4.48854 0.0114583 9.90625ZM9.46667 3.85C9.41875 3.85937 9.32917 3.86875 9.26875 3.86875C9.20833 3.86979 9.12396 3.88125 9.08229 3.89375C9.03958 3.90625 8.95104 3.92604 8.88437 3.93645C8.71667 3.96354 8.58646 3.9927 8.44479 4.03645C8.37812 4.05625 8.29583 4.07812 8.2625 4.08437C8.22917 4.09062 8.19687 4.10416 8.18958 4.11458C8.18333 4.125 8.15521 4.13437 8.12812 4.13437C8.10104 4.13437 8.05937 4.14895 8.03646 4.16666C8.0125 4.18437 7.97604 4.19895 7.95521 4.19895C7.91979 4.2 7.875 4.21875 7.78437 4.26979C7.76354 4.28125 7.74167 4.29166 7.71875 4.30104C7.53958 4.37291 7.24792 4.51875 7.16562 4.57604C7.13333 4.59895 7.10208 4.6177 7.09583 4.6177C7.075 4.6177 6.62604 4.93333 6.59687 4.96875C6.59167 4.97604 6.49896 5.05521 6.39271 5.14375C5.975 5.49375 5.49583 6.11041 5.19583 6.68437C5.16667 6.73958 5.13542 6.79895 5.125 6.81666C5.11562 6.83541 5.08021 6.90937 5.04792 6.98125C5.01458 7.05416 4.97917 7.13125 4.96771 7.15208C4.95729 7.17291 4.94792 7.20833 4.94792 7.23021C4.94792 7.25208 4.93958 7.27916 4.92917 7.29062C4.90208 7.32083 4.81354 7.60312 4.78229 7.7625C4.77396 7.80521 4.75937 7.84895 4.75 7.86145C4.74062 7.87291 4.72708 7.93229 4.72083 7.99375C4.68854 8.28229 4.66458 8.44271 4.64062 8.52187C4.60208 8.65416 4.62396 9.67187 4.67187 9.93958C4.69167 10.0542 4.71354 10.1875 4.71979 10.2365C4.72604 10.2844 4.73958 10.3437 4.75104 10.3677C4.77396 10.4187 4.81458 10.576 4.83125 10.6812C4.8375 10.7208 4.85208 10.7583 4.8625 10.7656C4.87292 10.7719 4.88229 10.8 4.88229 10.8271C4.88229 10.8542 4.89687 10.8958 4.91458 10.9187C4.93229 10.9427 4.94687 10.9792 4.94687 11.001C4.94792 11.0219 4.95625 11.0562 4.96667 11.0781C4.97708 11.099 5.00104 11.15 5.01979 11.1927C5.13958 11.4656 5.34479 11.8573 5.40104 11.9198C5.41771 11.9396 5.43125 11.9625 5.43125 11.9708C5.43125 11.9937 5.68542 12.3469 5.80625 12.4917C6.05 12.7854 6.42812 13.1458 6.71771 13.3583C6.76667 13.3937 6.80937 13.4302 6.81354 13.4406C6.81771 13.45 6.83021 13.4573 6.84062 13.4573C6.85208 13.4573 6.92812 13.5052 7.00937 13.5625C7.09062 13.6198 7.20208 13.6906 7.25729 13.7198C7.31146 13.7479 7.37187 13.7854 7.39062 13.8021C7.40937 13.8177 7.43646 13.8312 7.44896 13.8312C7.4625 13.8312 7.52604 13.8573 7.59062 13.8896C7.65521 13.9208 7.73229 13.9562 7.7625 13.9687C7.8 13.9844 7.83646 14 7.87292 14.0177C7.90312 14.0323 7.97188 14.0562 8.02604 14.0719C8.08125 14.0875 8.14271 14.1083 8.16354 14.1187C8.22396 14.151 8.54167 14.2281 8.8625 14.2906C9.12604 14.3406 9.28437 14.3573 9.63125 14.3719C9.83125 14.3792 10.0042 14.3844 10.0167 14.3833C10.0292 14.3812 10.1573 14.375 10.3021 14.3687C10.4479 14.3625 10.601 14.3479 10.6437 14.3365C10.6854 14.325 10.75 14.3156 10.7865 14.3156C10.8604 14.3156 11.1396 14.2542 11.1979 14.225C11.2187 14.2135 11.2583 14.2052 11.2844 14.2052C11.3427 14.2052 11.4667 14.1687 11.5521 14.126C11.5865 14.1094 11.6281 14.0958 11.6458 14.0958C11.6635 14.0958 11.6948 14.0865 11.7156 14.0771C11.7542 14.0583 11.8583 14.0125 11.9625 13.9687C12.8479 13.6 13.6365 12.9531 14.2208 12.1167C14.3177 11.9771 14.4302 11.8042 14.4698 11.7312C14.5104 11.6594 14.5677 11.5552 14.5979 11.501C14.6615 11.3854 14.674 11.3594 14.7115 11.2698C14.7625 11.15 14.8052 11.05 14.825 11.0115C14.8344 10.9906 14.8437 10.9562 14.8437 10.9344C14.8448 10.9135 14.8594 10.8771 14.8771 10.8531C14.8948 10.8302 14.9094 10.7885 14.9094 10.7615C14.9094 10.7333 14.9177 10.7062 14.9292 10.699C14.9396 10.6927 14.9531 10.6552 14.9594 10.6156C14.9656 10.576 14.9875 10.4844 15.0073 10.4125C15.0573 10.2344 15.0833 10.0969 15.1083 9.87291C15.1198 9.77083 15.1396 9.66354 15.151 9.63646C15.1635 9.60833 15.1729 9.39062 15.1729 9.14791C15.1729 8.90521 15.1635 8.6875 15.151 8.65937C15.1323 8.61458 15.1177 8.51875 15.0719 8.11458C15.0656 8.05937 15.051 7.99583 15.0396 7.97083C15.0198 7.92812 14.9833 7.77708 14.9604 7.63541C14.9542 7.59583 14.9396 7.55833 14.9292 7.55208C14.9177 7.54583 14.9094 7.52291 14.9094 7.50312C14.9094 7.48229 14.8937 7.4375 14.876 7.40208C14.8583 7.36771 14.8437 7.32604 14.8437 7.30833C14.8437 7.29166 14.8344 7.26041 14.8229 7.23958C14.8115 7.21875 14.776 7.14271 14.7448 7.06979C14.674 6.91041 14.4927 6.54895 14.4281 6.44271C14.4031 6.40104 14.375 6.35104 14.3667 6.33333C14.3396 6.27187 14.0896 5.92812 13.9292 5.72812C13.7667 5.52812 13.4646 5.225 13.2687 5.0677C13.2094 5.01979 13.1417 4.9625 13.1177 4.94062C13.0792 4.90625 12.6052 4.58958 12.4792 4.51458C12.3479 4.43645 11.976 4.26354 11.7594 4.18125C11.7323 4.17083 11.6719 4.14583 11.6271 4.12604C11.5813 4.10625 11.525 4.09062 11.501 4.09062C11.4781 4.09062 11.4531 4.0802 11.4458 4.0677C11.4385 4.05625 11.4073 4.04583 11.3771 4.04583C11.3469 4.04583 11.3 4.03437 11.274 4.01979C11.2281 3.99479 11.1615 3.97916 10.9177 3.93645C10.8573 3.92604 10.7542 3.90729 10.6875 3.89479C10.301 3.82604 9.68958 3.80312 9.46667 3.85ZM10.0198 4.1052C10.0125 4.1125 10.0052 4.25625 10.0052 4.42291C10.0052 4.72083 10.0062 4.72708 10.0594 4.76145C10.0885 4.78125 10.1156 4.81666 10.1198 4.84166C10.125 4.87916 10.1458 4.8875 10.2479 4.89479C10.3917 4.90416 10.6281 4.94271 10.7219 4.97083C10.7594 4.98229 10.8083 4.99166 10.8312 4.99166C10.876 4.99166 11.0667 5.04895 11.1323 5.08229C11.1531 5.0927 11.1854 5.10208 11.2031 5.10208C11.2375 5.10208 11.3865 5.16562 11.6437 5.29062C11.8031 5.36875 11.8833 5.38333 11.9094 5.34062C11.9198 5.32396 11.9781 5.31979 12.0896 5.32812C12.2208 5.3375 12.2656 5.35104 12.3115 5.3927C12.3437 5.42083 12.4198 5.47708 12.4812 5.5177C12.5844 5.58645 12.7094 5.74583 12.7115 5.81146C12.7115 5.82604 12.7312 5.86145 12.7542 5.88854L12.7969 5.93958L13.0385 5.69166C13.1719 5.55416 13.2812 5.44062 13.2823 5.43854C13.2823 5.43645 13.1958 5.36145 13.0896 5.27291C12.8781 5.09479 12.6771 4.94791 12.6458 4.94791C12.6354 4.94791 12.6229 4.93958 12.6187 4.93125C12.6083 4.90729 12.4187 4.78958 12.2375 4.69583C12.1531 4.65104 12.0687 4.60729 12.051 4.59687C12.0323 4.5875 11.9875 4.56666 11.9521 4.55208C11.8573 4.51354 11.7625 4.47396 11.699 4.44583C11.5865 4.39687 11.3094 4.31041 11.2646 4.31041C11.2385 4.31041 11.2115 4.3 11.2042 4.2875C11.1969 4.27604 11.1625 4.26562 11.1281 4.26562C11.0948 4.26562 11.0312 4.25104 10.9875 4.23333C10.9437 4.21458 10.8687 4.2 10.8208 4.2C10.7729 4.2 10.7281 4.19062 10.7198 4.17812C10.7125 4.16562 10.6552 4.15625 10.5927 4.15625C10.5302 4.15625 10.4187 4.14687 10.3469 4.13645C10.0698 4.09479 10.0344 4.09062 10.0198 4.1052ZM9.37708 4.13229C9.37083 4.13854 9.29375 4.15208 9.20729 4.16041C8.94479 4.18854 8.65729 4.24687 8.57083 4.29062C8.55 4.30104 8.51562 4.31041 8.49375 4.31041C8.47187 4.31041 8.4 4.33125 8.33437 4.35625C8.26771 4.38125 8.19062 4.40729 8.16354 4.41354C8.13646 4.41979 8.10833 4.43437 8.10208 4.44479C8.09479 4.4552 8.07604 4.46354 8.05833 4.46354C8.04167 4.46354 7.975 4.4875 7.91146 4.51666C7.84792 4.54583 7.78125 4.575 7.7625 4.58229C7.74479 4.59062 7.7 4.61562 7.66354 4.63854C7.62708 4.66145 7.58021 4.68125 7.55937 4.68229C7.53854 4.68333 7.52083 4.6927 7.52083 4.70312C7.52083 4.71354 7.50312 4.72812 7.48229 4.73541C7.35729 4.77708 6.79479 5.15729 6.63958 5.30625C6.57292 5.37083 6.50104 5.4302 6.48021 5.4375C6.425 5.45937 6.43437 5.48541 6.52187 5.55208C6.56562 5.58541 6.69271 5.70625 6.80625 5.82083L7.01042 6.03021L7.11667 5.93437C7.16667 5.88854 7.21667 5.84375 7.26771 5.79791C7.34479 5.72916 7.79062 5.4375 7.92708 5.36562C8 5.32812 8.07396 5.28854 8.09271 5.27916C8.11042 5.26875 8.15 5.25104 8.18021 5.23854C8.21042 5.22604 8.275 5.2 8.32292 5.17916C8.37187 5.15937 8.43125 5.13437 8.45521 5.125C8.47917 5.11458 8.54375 5.09479 8.59792 5.0802C8.65312 5.06562 8.72187 5.04271 8.75208 5.0302C8.80937 5.00625 8.92396 4.98333 9.17812 4.94583C9.26146 4.93437 9.34583 4.91562 9.36562 4.90625C9.38437 4.89583 9.46458 4.88645 9.54375 4.88333C9.62187 4.88125 9.68646 4.87708 9.68646 4.875C9.68646 4.87291 9.68333 4.7 9.68021 4.49062L9.67396 4.11041L9.53125 4.11562C9.45208 4.11875 9.38333 4.12604 9.37708 4.13229ZM13.7656 4.32708C13.7656 4.33645 13.8406 4.4177 13.9323 4.50833C14.024 4.59895 14.1427 4.7375 14.1958 4.81562C14.4927 5.25521 14.8562 5.65729 15.276 6.00937C15.3865 6.10312 15.4885 6.17916 15.501 6.17916C15.5302 6.17916 15.5312 6.14791 15.5052 6.09583C15.475 6.03645 15.4375 5.9052 15.4365 5.85833C15.4365 5.83541 15.4208 5.79687 15.4031 5.77395C15.3854 5.75 15.3708 5.7125 15.3708 5.69062C15.3708 5.66875 15.3625 5.63333 15.351 5.6125C15.3396 5.59166 15.2937 5.49791 15.249 5.40416C15.2042 5.31041 15.1531 5.22291 15.1375 5.20937C15.1208 5.19583 15.1073 5.17083 15.1073 5.15416C15.1073 5.12187 14.7312 4.72812 14.701 4.72812C14.6906 4.72812 14.6521 4.7052 14.6146 4.67708C14.5302 4.61562 14.251 4.47708 14.1177 4.43229C13.9344 4.37083 13.8542 4.34062 13.8396 4.325C13.8187 4.30416 13.7656 4.30625 13.7656 4.32708ZM5.78333 4.41354C5.71667 4.44375 5.64271 4.47708 5.61875 4.48645C5.32604 4.60833 5.28437 4.62916 5.09062 4.74895C4.99479 4.80937 4.94479 4.84896 4.8 4.97916C4.70937 5.06041 4.50104 5.3552 4.44896 5.475C4.40104 5.58645 4.35833 5.70833 4.33333 5.8052C4.29063 5.96666 4.24271 6.12083 4.21667 6.17395C4.18958 6.23021 4.21042 6.26458 4.25312 6.23333C4.34062 6.16979 4.67083 5.88125 4.83125 5.72916C5.00208 5.56771 5.21146 5.30937 5.21146 5.25937C5.21146 5.24791 5.22708 5.22604 5.24583 5.21041C5.26458 5.19479 5.31458 5.13125 5.35521 5.07083C5.46354 4.90729 5.65625 4.67083 5.80625 4.51458C5.87917 4.43958 5.93021 4.37395 5.92083 4.36875C5.9125 4.36354 5.85 4.38333 5.78333 4.41354ZM10.5344 4.53958C10.5187 4.55833 10.4875 4.57395 10.4656 4.57395C10.4437 4.57395 10.3792 4.59895 10.3219 4.62916C10.2656 4.65937 10.1948 4.68333 10.1656 4.68333C10.0948 4.68333 10.1104 4.725 10.2052 4.78958C10.2646 4.8302 10.299 4.83854 10.3687 4.82812C10.4167 4.82083 10.55 4.80729 10.6656 4.79895C10.8323 4.78645 10.8885 4.77291 10.9458 4.73229C10.9854 4.70416 11.0167 4.67395 11.0167 4.66562C11.0167 4.64062 10.9312 4.57395 10.9 4.57395C10.8844 4.57395 10.8625 4.56458 10.85 4.55208C10.8385 4.54062 10.7687 4.525 10.6958 4.5177C10.5906 4.50729 10.5573 4.51145 10.5344 4.53958ZM15.2167 5.00937C15.2167 5.01875 15.2646 5.07708 15.3229 5.13854C15.4281 5.25104 15.574 5.51354 15.601 5.64062C15.6083 5.67708 15.624 5.74062 15.6344 5.78333C15.65 5.84166 15.6646 5.90104 15.6792 5.95937C15.6937 6.01354 15.7135 6.08854 15.725 6.12604C15.7354 6.1625 15.7448 6.21875 15.7448 6.25104C15.7448 6.28229 15.7552 6.31458 15.7667 6.32187C15.7792 6.32916 15.7885 6.3625 15.7885 6.39479C15.7885 6.42708 15.8042 6.48229 15.8219 6.51666C15.8396 6.55208 15.8552 6.59791 15.8552 6.61875C15.8552 6.64062 15.8698 6.68645 15.8875 6.72083C15.9052 6.75521 15.9208 6.79895 15.9208 6.81771C15.9208 6.83645 15.9323 6.86354 15.9469 6.87812C15.9677 6.89896 15.9677 6.91041 15.9469 6.93125C15.9271 6.95208 15.9208 6.94687 15.9208 6.91146C15.9208 6.88646 15.9062 6.85937 15.8875 6.85312C15.8698 6.84583 15.8552 6.82812 15.8552 6.81458C15.8552 6.775 15.6208 6.49791 15.5292 6.42916C15.4844 6.39583 15.4427 6.36041 15.4365 6.35104C15.425 6.33645 15.1562 6.15 14.9437 6.01041C14.8312 5.93645 14.5437 5.64479 14.525 5.58645C14.5167 5.56145 14.501 5.54166 14.4896 5.54166C14.4479 5.54166 14.475 5.69271 14.5469 5.86041C14.5625 5.89687 14.5875 5.96041 14.6031 6.00312C14.6177 6.04583 14.6417 6.09479 14.6552 6.11354C14.6687 6.13125 14.6937 6.17291 14.7104 6.20625C14.7708 6.32812 15.1031 6.64583 15.4167 6.88229C15.7406 7.12708 16.0635 7.44271 16.1417 7.59166C16.1656 7.6375 16.1927 7.67395 16.2021 7.67395C16.2292 7.67395 16.2323 6.35833 16.2052 6.20104C16.1812 6.06666 16.1396 5.93125 16.0948 5.84375C16.0833 5.82291 16.075 5.79479 16.075 5.78229C16.075 5.72708 15.8708 5.45312 15.7198 5.30625C15.5417 5.13125 15.2167 4.93958 15.2167 5.00937ZM4.36562 5.12395C4.35729 5.13541 4.30625 5.16666 4.25 5.19166C4.08437 5.2677 3.67292 5.71041 3.67292 5.8125C3.67292 5.83125 3.66354 5.85208 3.65312 5.85937C3.62604 5.875 3.57292 6.06458 3.53958 6.25729C3.52083 6.36666 3.51771 6.5375 3.52917 6.82916C3.55208 7.44583 3.55312 7.54166 3.53542 7.67187L3.51979 7.79062L3.57396 7.73958C3.60417 7.71146 3.62812 7.67708 3.62812 7.66354C3.62812 7.59896 4.0625 7.15625 4.23437 7.04583C4.26979 7.02291 4.32917 6.97812 4.36562 6.94583C4.40104 6.91458 4.50208 6.82812 4.58854 6.75416C4.76458 6.60416 5.01562 6.2802 5.11146 6.0802C5.14583 6.00729 5.18229 5.93125 5.19271 5.91041C5.20312 5.88854 5.21146 5.85208 5.21146 5.82812C5.21146 5.80416 5.22708 5.73854 5.24687 5.68229C5.29688 5.53541 5.25417 5.50729 5.18646 5.6427C5.1125 5.79375 4.85625 6.0375 4.53437 6.26458C4.2 6.5 4.03437 6.66146 3.89583 6.88229C3.80208 7.03437 3.79271 7.04271 3.78646 6.98541C3.78229 6.95208 3.78854 6.9125 3.79896 6.89791C3.82187 6.86771 3.87604 6.71562 3.9125 6.575C3.92708 6.52083 3.95312 6.42604 3.96979 6.36562C4.00417 6.24479 4.02083 6.15312 4.03854 6.00312C4.04583 5.94896 4.05937 5.89479 4.07083 5.88333C4.08125 5.87187 4.09062 5.83958 4.09062 5.8125C4.09062 5.78541 4.10625 5.725 4.12604 5.67916C4.14583 5.63333 4.17188 5.57187 4.18437 5.54166C4.19583 5.51145 4.21458 5.47187 4.225 5.45312C4.23542 5.43541 4.25312 5.4 4.26458 5.375C4.275 5.35 4.32396 5.28645 4.37396 5.23229C4.42292 5.17812 4.46354 5.12708 4.46354 5.1177C4.46458 5.09375 4.38125 5.09791 4.36562 5.12395ZM12.2375 5.16458C12.1937 5.20729 12.374 5.41041 12.4625 5.4177C12.4948 5.41979 12.5 5.4052 12.4948 5.32187C12.4906 5.25729 12.475 5.21562 12.451 5.20104C12.4073 5.175 12.2531 5.14895 12.2375 5.16458ZM9.57708 5.18958C9.54062 5.19895 9.45312 5.20729 9.38333 5.20937C9.31354 5.21041 9.22083 5.22604 9.17708 5.24479C9.13437 5.2625 9.07292 5.27708 9.04271 5.27708C9.01146 5.27708 8.95625 5.28646 8.91875 5.29791C8.88125 5.30937 8.79167 5.33645 8.71875 5.35729C8.64687 5.37916 8.57708 5.40312 8.56562 5.41041C8.55312 5.41771 8.49896 5.4375 8.44479 5.45312C8.38958 5.46979 8.33021 5.49583 8.31042 5.5125C8.29167 5.52812 8.26562 5.54166 8.25312 5.54166C8.22396 5.54166 7.89062 5.7125 7.7625 5.7927C7.70833 5.82812 7.55729 5.94062 7.42812 6.04375L7.19167 6.23229L7.27396 6.29791C7.31875 6.33437 7.44062 6.45312 7.54479 6.56146L7.73437 6.75937L7.79792 6.69895C7.86667 6.63333 8.17292 6.41145 8.27917 6.35C8.43021 6.26145 8.74271 6.12395 8.8625 6.09166C8.91667 6.07708 8.99375 6.05104 9.03333 6.03437C9.07292 6.01666 9.125 6.00312 9.14792 6.00312C9.17187 6.00312 9.23333 5.99375 9.28542 5.98125C9.33646 5.96979 9.45312 5.95416 9.54479 5.94687L9.71042 5.93437L9.70417 5.57083C9.70104 5.37083 9.69271 5.19895 9.68542 5.1875C9.67188 5.16562 9.67083 5.16562 9.57708 5.18958ZM10.0167 5.19375C10.0094 5.21041 10.0073 5.38229 10.0104 5.575L10.0167 5.92604L10.0823 5.93229C10.3333 5.95312 10.6646 6.01041 10.724 6.0427C10.751 6.05729 10.7969 6.06875 10.8271 6.06875C10.8573 6.06875 10.8885 6.07916 10.8958 6.09166C10.9042 6.10312 10.9292 6.11354 10.9531 6.11354C10.976 6.11354 11.0125 6.12187 11.0344 6.13229C11.0552 6.14271 11.1115 6.16771 11.1604 6.18958C11.3302 6.26458 11.5167 6.36666 11.5708 6.41458C11.6177 6.4552 11.6687 6.43125 11.6312 6.38645C11.6177 6.36979 11.6115 6.34062 11.6187 6.32187C11.6333 6.28437 11.5917 6.17916 11.5635 6.17916C11.5531 6.17916 11.5448 6.16458 11.5448 6.14583C11.5448 6.07083 11.6354 6.1177 11.7365 6.24479C11.8188 6.34791 11.8552 6.37708 11.9021 6.37708C11.9656 6.37708 11.975 6.35729 11.9437 6.29375C11.8719 6.15416 11.8677 6.1375 11.8958 6.10312C11.926 6.0677 11.9135 6.04166 11.8292 5.95625C11.8094 5.93541 11.7865 5.88125 11.7792 5.83437C11.7625 5.73021 11.6031 5.56979 11.4573 5.51041C11.4021 5.48854 11.3385 5.4625 11.3135 5.45208C11.2896 5.44271 11.2208 5.41875 11.1604 5.39791C11.1 5.37812 11.0333 5.35208 11.0115 5.34166C10.9906 5.3302 10.9448 5.32187 10.9083 5.32187C10.8729 5.32187 10.8375 5.31145 10.8302 5.3C10.8229 5.2875 10.7896 5.27708 10.7573 5.27708C10.725 5.27708 10.6542 5.26354 10.599 5.24687C10.5448 5.23125 10.4167 5.21041 10.3135 5.20208C10.2104 5.19375 10.1042 5.18125 10.0771 5.175C10.0469 5.16771 10.024 5.175 10.0167 5.19375ZM13.4583 5.67187C13.4583 5.70208 13.0156 6.16458 12.9687 6.18437C12.9052 6.21041 12.9229 6.24791 13.0677 6.39062C13.2979 6.61666 13.6781 7.10625 13.6781 7.17604C13.6781 7.19479 13.6875 7.21666 13.7 7.22396C13.7115 7.23125 13.7219 7.26041 13.7219 7.28958C13.7219 7.31771 13.7354 7.36875 13.7531 7.40312C13.7833 7.46562 13.7937 7.48958 13.8646 7.67395C13.8854 7.72916 13.9115 7.79062 13.9219 7.81146C13.9333 7.83229 13.9417 7.86979 13.9417 7.89479C13.9417 7.91875 13.95 7.95625 13.9615 7.97708C13.9927 8.03958 14.0323 8.20416 14.05 8.34479C14.0594 8.41771 14.0729 8.49166 14.0802 8.51041C14.0875 8.52812 14.0979 8.6375 14.1042 8.75208C14.1104 8.86666 14.1156 8.9625 14.1167 8.96354C14.1167 8.96562 14.2917 8.96562 14.5052 8.96354L14.8927 8.96041L14.8792 8.73021C14.8604 8.41562 14.8042 8.05208 14.7542 7.92708C14.7448 7.90312 14.7312 7.85833 14.726 7.82812C14.6969 7.68854 14.6635 7.57396 14.6437 7.55416C14.6323 7.54271 14.6229 7.51145 14.6229 7.48437C14.6229 7.45729 14.6135 7.42916 14.601 7.42187C14.5896 7.41354 14.5792 7.39166 14.5792 7.37291C14.5792 7.26354 14.0771 6.33333 13.949 6.2052C13.9333 6.18958 13.9198 6.16875 13.9198 6.15937C13.9198 6.15104 13.9021 6.12395 13.8792 6.1C13.8573 6.07604 13.8094 6.01666 13.774 5.96771C13.6021 5.73021 13.4583 5.59479 13.4583 5.67187ZM6.12396 5.81771C6.06667 5.88437 5.98854 5.98021 5.95104 6.03021C5.81979 6.20312 5.69583 6.37916 5.69583 6.38958C5.69583 6.4 5.66354 6.45416 5.52604 6.675C5.44583 6.8052 5.21146 7.31041 5.21146 7.35521C5.21146 7.37187 5.20208 7.39166 5.18958 7.4C5.17812 7.40729 5.16771 7.43125 5.16771 7.45312C5.16771 7.475 5.15312 7.52187 5.13542 7.55625C5.11667 7.59062 5.10208 7.64062 5.10208 7.66771C5.10208 7.69375 5.09271 7.72083 5.08229 7.72812C5.07188 7.73437 5.05729 7.77187 5.05104 7.81146C5.04479 7.85104 5.02292 7.95208 5.00312 8.0375C4.9375 8.31458 4.87396 8.92395 4.90521 8.975C4.9125 8.98645 5.08333 8.99271 5.30104 8.98854L5.68437 8.98229L5.69062 8.78437C5.69479 8.67604 5.70729 8.55208 5.71875 8.51041C5.73021 8.4677 5.73958 8.39583 5.73958 8.35C5.73958 8.30521 5.74896 8.25 5.76042 8.22916C5.78229 8.19062 5.82083 8.03333 5.84271 7.9C5.84896 7.86041 5.86354 7.82291 5.87396 7.81562C5.88437 7.80937 5.89375 7.7875 5.89375 7.76666C5.89375 7.74583 5.90625 7.70416 5.92187 7.67395C5.9375 7.64375 5.96354 7.575 5.98021 7.52083C5.99792 7.46562 6.02396 7.40625 6.04062 7.38646C6.05625 7.36771 6.06979 7.34062 6.06979 7.32708C6.06979 7.30104 6.17188 7.10625 6.20417 7.07083C6.21458 7.05937 6.22292 7.03333 6.22292 7.0125C6.22292 6.99166 6.23125 6.97083 6.23958 6.96666C6.24896 6.96354 6.30104 6.89062 6.35521 6.80625C6.40937 6.72083 6.45937 6.64687 6.46562 6.64062C6.47292 6.63437 6.50729 6.59062 6.54167 6.54166C6.57708 6.49375 6.65 6.40729 6.70521 6.35L6.80417 6.24479L6.54167 5.97291C6.39687 5.82395 6.26771 5.7 6.25417 5.69895C6.24062 5.69687 6.18229 5.75 6.12396 5.81771ZM16.3094 5.99687C16.3167 6.01875 16.3344 6.05104 16.349 6.06875C16.3792 6.10729 16.424 6.24791 16.4365 6.34375C16.4417 6.3802 16.4562 6.45 16.4687 6.49791C16.4979 6.61041 16.4979 6.84583 16.4698 6.95937C16.4573 7.00833 16.4406 7.12187 16.4323 7.2125C16.4177 7.36771 16.4177 8.21354 16.4312 8.49687C16.4354 8.58646 16.4292 8.63021 16.4104 8.63646C16.3906 8.64271 16.3823 8.6125 16.3823 8.5302C16.3823 8.39583 16.349 8.27291 16.2542 8.06979C16.1875 7.925 16.0573 7.76979 15.8198 7.55208C15.4219 7.18646 15.1969 6.95729 15.1729 6.8927C15.1552 6.84687 15.1427 6.8375 15.125 6.85625C15.1062 6.875 15.1062 6.89583 15.125 6.93854C15.1396 6.96979 15.151 7.0177 15.151 7.04479C15.151 7.07187 15.1656 7.11354 15.1833 7.13646C15.201 7.16041 15.2156 7.20625 15.2167 7.23854C15.2167 7.27187 15.2271 7.30416 15.2396 7.31146C15.251 7.31875 15.2615 7.33958 15.2615 7.35625C15.2615 7.43021 15.4708 7.81979 15.6156 8.01562C15.7344 8.17395 15.9552 8.46666 16.0125 8.53958C16.0396 8.575 16.075 8.62916 16.0917 8.66041C16.1083 8.69166 16.1302 8.72291 16.1396 8.72916C16.1719 8.74895 16.3823 9.17083 16.3823 9.21354C16.3823 9.23645 16.3927 9.26146 16.4042 9.26875C16.4167 9.27604 16.426 9.32604 16.426 9.37812C16.426 9.47083 16.4615 9.53437 16.4792 9.47396C16.499 9.40416 16.5854 9.01979 16.5958 8.95521C16.6021 8.91562 16.6156 8.87812 16.6271 8.87083C16.6375 8.86458 16.6469 8.8375 16.6469 8.80937C16.6469 8.78229 16.6615 8.74062 16.6792 8.7177C16.6969 8.69375 16.7115 8.65312 16.7115 8.625C16.7125 8.59791 16.7208 8.57604 16.7323 8.57604C16.7427 8.57604 16.7562 8.55416 16.7625 8.52604C16.7687 8.49895 16.7937 8.42291 16.8177 8.35625C16.8958 8.14166 16.9208 7.96041 16.9208 7.61979C16.9208 7.30833 16.8875 7.00625 16.8427 6.92187C16.8312 6.90104 16.8219 6.8625 16.8219 6.8375C16.8219 6.81146 16.8083 6.76458 16.7917 6.73229C16.775 6.7 16.749 6.64375 16.7344 6.60833C16.6583 6.425 16.3969 6.0125 16.3365 5.9802C16.3021 5.96145 16.2979 5.96458 16.3094 5.99687ZM3.38125 6.06666C3.36042 6.08854 3.34271 6.11666 3.34271 6.12916C3.34271 6.1427 3.33437 6.15625 3.32396 6.16041C3.30625 6.16771 3.16875 6.37604 3.1375 6.44271C3.12917 6.46145 3.10312 6.50521 3.08021 6.54166C3.05729 6.57812 3.0375 6.62396 3.03646 6.64375C3.03542 6.66354 3.01979 6.69166 3.00208 6.70729C2.98333 6.72187 2.96875 6.75729 2.96875 6.78541C2.96875 6.81354 2.96042 6.84166 2.94896 6.84791C2.93854 6.85521 2.92396 6.8875 2.91771 6.92083C2.91042 6.95416 2.88854 7.05104 2.86771 7.13541C2.825 7.31041 2.8 7.92083 2.83333 7.9927C2.85313 8.03541 2.89271 8.20416 2.91771 8.35104C2.92396 8.39062 2.93854 8.42812 2.94896 8.43437C2.96042 8.44166 2.96875 8.46979 2.96875 8.49791C2.96875 8.52604 2.98333 8.56041 3.00208 8.57604C3.01979 8.59062 3.03437 8.62187 3.03437 8.64479C3.03437 8.66771 3.04375 8.70416 3.05521 8.725C3.09583 8.80104 3.14479 8.92395 3.14479 8.94791C3.14479 8.96146 3.15417 8.98958 3.16458 9.01041C3.17604 9.03125 3.19688 9.09375 3.21146 9.14791C3.23021 9.2125 3.24896 9.27708 3.26875 9.34062C3.28542 9.39271 3.29896 9.45937 3.29896 9.48854C3.29896 9.51666 3.30729 9.54687 3.31875 9.55312C3.34167 9.56771 3.36458 9.51562 3.36458 9.44791C3.36562 9.39583 3.41354 9.24583 3.4375 9.22187C3.44583 9.21354 3.45312 9.18958 3.45312 9.16875C3.45312 9.14791 3.46771 9.11875 3.48542 9.10416C3.50417 9.08854 3.51875 9.0625 3.51875 9.04687C3.51875 9.03021 3.5875 8.91041 3.67292 8.7802C3.90208 8.42708 3.94062 8.37083 3.97292 8.33854C3.98958 8.32187 4.00208 8.30208 4.00208 8.29271C4.00208 8.28333 4.01979 8.25729 4.04167 8.23333C4.14271 8.12291 4.37292 7.73125 4.44167 7.55312C4.45104 7.52916 4.47083 7.48021 4.48646 7.44375C4.51771 7.36875 4.53958 7.2875 4.58646 7.0802C4.62396 6.91041 4.62292 6.92708 4.59583 6.92708C4.58437 6.92708 4.57396 6.94271 4.57396 6.9625C4.57396 6.98333 4.37083 7.2 4.12292 7.44583C3.875 7.69166 3.67292 7.90312 3.67292 7.91666C3.67292 7.92916 3.65208 7.96145 3.62708 7.98854C3.54896 8.07187 3.41042 8.38645 3.40729 8.48854C3.40625 8.51875 3.3875 8.59791 3.36562 8.66354C3.30625 8.84062 3.29167 8.75937 3.33125 8.47812C3.36875 8.2125 3.37292 7.81041 3.34167 7.64166C3.27187 7.27291 3.24375 6.575 3.29062 6.38854C3.30312 6.33958 3.34375 6.23854 3.38021 6.1625C3.44896 6.02187 3.44896 5.99791 3.38125 6.06666ZM9.38958 6.25625C9.33542 6.27395 9.26458 6.28854 9.23125 6.28854C9.19896 6.28854 9.16667 6.29895 9.15937 6.31146C9.15104 6.32291 9.12396 6.33333 9.09687 6.33333C9.04896 6.33333 8.89479 6.38125 8.82292 6.41875C8.80208 6.42916 8.70625 6.47604 8.60937 6.52187C8.43333 6.60625 8.28229 6.69375 8.22812 6.74479C8.2125 6.76041 8.19167 6.77291 8.18333 6.77291C8.17396 6.77291 8.14792 6.79062 8.12396 6.81146C8.10104 6.83333 8.04896 6.87396 8.00833 6.90208L7.93542 6.95416L8.1625 7.17291C8.2875 7.29271 8.41146 7.4125 8.43854 7.4375L8.48854 7.48437L8.53333 7.43646C8.62292 7.33958 9.04167 7.09791 9.16771 7.07083C9.20521 7.0625 9.24062 7.04583 9.24792 7.03541C9.25521 7.02395 9.30208 7.01458 9.35417 7.01458C9.40521 7.01458 9.45625 7.00521 9.46771 6.99375C9.47917 6.98229 9.53854 6.96979 9.59896 6.96666L9.70833 6.95937L9.71042 6.64062C9.71146 6.46562 9.71667 6.30208 9.72187 6.27812C9.73021 6.23854 9.71771 6.23333 9.60937 6.22916C9.54375 6.22708 9.44479 6.23958 9.38958 6.25625ZM10.0104 6.58854L10.0167 6.95937L10.1375 6.97396C10.3333 6.99687 10.4552 7.01979 10.4781 7.03646C10.4906 7.04583 10.5594 7.07083 10.6323 7.09271C10.8281 7.15312 11.1646 7.33437 11.2344 7.41875C11.251 7.43854 11.276 7.45416 11.2896 7.45416C11.3031 7.45312 11.4073 7.35416 11.5219 7.23437C11.6354 7.11354 11.7417 7.01458 11.7573 7.01458C11.7729 7.01458 11.7958 6.99479 11.8083 6.97083C11.8219 6.94687 11.824 6.92708 11.8125 6.92708C11.8021 6.92708 11.7698 6.90625 11.7406 6.88125C11.6417 6.79479 11.3312 6.59896 11.149 6.50729C11.0333 6.44896 10.8573 6.37708 10.8312 6.37708C10.8135 6.37708 10.7937 6.36666 10.7865 6.3552C10.7792 6.3427 10.7396 6.33333 10.6979 6.33333C10.6573 6.33333 10.6177 6.32291 10.6104 6.31146C10.6031 6.29895 10.5573 6.28958 10.5083 6.28958C10.4604 6.28958 10.4 6.27812 10.376 6.26562C10.351 6.25208 10.2583 6.23541 10.1677 6.22916L10.0042 6.21666L10.0104 6.58854ZM12.0573 6.36875C12.0187 6.39583 12.0125 6.41666 12.0219 6.48333C12.0292 6.52708 12.0427 6.57291 12.0531 6.58437C12.0635 6.59583 12.0729 6.62291 12.0729 6.6427C12.0729 6.66354 12.1125 6.73333 12.1604 6.79791C12.2094 6.86145 12.249 6.92708 12.249 6.94166C12.249 6.95729 12.2906 7.0125 12.3427 7.06666C12.3948 7.11979 12.4563 7.20416 12.4781 7.25416C12.5219 7.35 12.5552 7.36562 12.6 7.31146C12.6333 7.27187 12.7031 7.26875 12.7167 7.30625C12.7219 7.32083 12.7167 7.35729 12.7062 7.38646C12.6802 7.45625 12.6979 7.49896 12.7531 7.49896C12.8062 7.49896 12.8094 7.51875 12.7656 7.57708C12.7229 7.63333 12.724 7.65208 12.7708 7.65312C12.8323 7.65416 12.9302 7.81562 12.9302 7.91562C12.9302 7.9625 12.9198 8.00729 12.9083 8.01562C12.8792 8.03333 12.8802 8.1427 12.9104 8.21041C12.9302 8.25312 12.9271 8.28229 12.8958 8.35416C12.874 8.40312 12.8479 8.44375 12.8385 8.44375C12.8281 8.44375 12.8198 8.46875 12.8198 8.49895C12.8198 8.55833 12.8594 8.57396 12.876 8.52083C12.8812 8.50312 12.8927 8.47083 12.901 8.45C12.9083 8.42812 12.9135 8.40208 12.9104 8.39166C12.9042 8.36458 12.976 8.29062 13.0094 8.29062C13.0281 8.29062 13.0406 8.34583 13.049 8.47187C13.0552 8.57083 13.0677 8.72187 13.0781 8.80729L13.0948 8.96041L13.4583 8.95625L13.8208 8.95104L13.8187 8.7802C13.8167 8.5927 13.7719 8.29166 13.7417 8.25833C13.7302 8.24687 13.7219 8.21146 13.7219 8.18125C13.7219 8.15 13.701 8.06979 13.675 8.00416C13.65 7.9375 13.624 7.85625 13.6177 7.82291C13.6115 7.78958 13.5979 7.75625 13.5875 7.75C13.5771 7.7427 13.5677 7.72291 13.5677 7.70416C13.5677 7.68541 13.5479 7.64166 13.5229 7.60729C13.4844 7.55208 13.4708 7.54687 13.4219 7.56562C13.3604 7.58854 13.3531 7.58229 13.1208 7.31354C13.0625 7.24583 12.9958 7.19062 12.975 7.19062C12.9052 7.19062 12.6656 7.01354 12.6271 6.93437C12.5979 6.87291 12.5802 6.86041 12.5208 6.86041C12.4187 6.86041 12.3365 6.75104 12.3365 6.61354C12.3365 6.39687 12.1948 6.27291 12.0573 6.36875ZM6.9125 6.53854C6.86562 6.59791 6.80312 6.67812 6.77187 6.71562C6.61979 6.90104 6.46979 7.13958 6.36354 7.36666C6.33333 7.43333 6.28854 7.52812 6.26562 7.57708C6.24271 7.62604 6.22292 7.67812 6.22292 7.69271C6.22292 7.70729 6.21458 7.73646 6.20417 7.75729C6.18021 7.80416 6.13854 7.925 6.10937 8.02604C6.0875 8.10416 6.08021 8.13541 6.01146 8.45521C5.99062 8.55208 5.97292 8.71041 5.97187 8.80729L5.97083 8.98229H6.69583L6.71146 8.85104C6.75312 8.50208 6.80937 8.225 6.84479 8.18958C6.85417 8.18021 6.86146 8.14687 6.86146 8.11562C6.8625 8.08437 6.88646 8.00937 6.91667 7.94896C6.94583 7.88854 6.97083 7.82187 6.97083 7.80104C6.97083 7.7802 6.98125 7.7625 6.99271 7.7625C7.00521 7.7625 7.01458 7.74271 7.01458 7.71979C7.01458 7.69583 7.02396 7.67083 7.03542 7.66458C7.04687 7.65729 7.08229 7.59791 7.11458 7.53229C7.14687 7.46666 7.1875 7.40104 7.20417 7.38646C7.22083 7.37291 7.23542 7.34791 7.23542 7.33229C7.23542 7.31666 7.24271 7.30104 7.25312 7.29687C7.26771 7.29062 7.36146 7.17187 7.49479 6.9927C7.51979 6.95833 7.49375 6.925 7.25937 6.69166L6.99583 6.4302L6.9125 6.53854ZM15.9646 6.9927C15.9646 7.00521 15.975 7.01458 15.9885 7.01458C16.001 7.01458 16.0052 7.00521 15.9979 6.9927C15.9906 6.98021 15.9802 6.97083 15.974 6.97083C15.9687 6.97083 15.9646 6.98021 15.9646 6.9927ZM11.9521 7.20416C11.9312 7.23541 11.8073 7.36875 11.675 7.5C11.5427 7.63229 11.4354 7.74479 11.4354 7.75104C11.4354 7.75729 11.4542 7.7625 11.4771 7.7625C11.501 7.7625 11.526 7.77083 11.5323 7.78125C11.5385 7.79166 11.6354 7.80521 11.7479 7.81146C11.95 7.82291 12.0729 7.85729 12.0729 7.90312C12.0729 7.91666 12.0979 7.95521 12.1292 7.98958C12.1719 8.03437 12.1833 8.06458 12.1729 8.10521C12.1656 8.13437 12.1698 8.17812 12.1823 8.20104C12.2042 8.24271 12.2073 8.24166 12.2625 8.18958C12.2948 8.16041 12.3333 8.13646 12.3479 8.13646C12.3927 8.13646 12.476 8.18646 12.5562 8.26146C12.6281 8.32812 12.6292 8.33333 12.5937 8.37291C12.5729 8.39583 12.5562 8.43646 12.5562 8.4625C12.5562 8.48854 12.5469 8.51041 12.5344 8.51041C12.5219 8.51041 12.5125 8.53958 12.5125 8.57604C12.5125 8.6125 12.5198 8.64166 12.5292 8.64166C12.5677 8.64166 12.6437 8.57187 12.676 8.50625C12.7146 8.42916 12.7219 8.25625 12.6885 8.23541C12.676 8.22812 12.6667 8.20312 12.6667 8.18021C12.6667 8.12291 12.5802 7.98229 12.5458 7.98229C12.5302 7.98229 12.5062 7.96875 12.4917 7.95104C12.4781 7.93437 12.4312 7.90416 12.3896 7.88333C12.2875 7.83541 12.2771 7.79791 12.3333 7.69687L12.3812 7.6125L12.2823 7.46771C12.1677 7.30104 12.0771 7.19479 12.025 7.16666C11.9979 7.15208 11.9802 7.16146 11.9521 7.20416ZM7.6625 7.25104C7.62812 7.29687 7.59375 7.33854 7.5875 7.34479C7.58021 7.35104 7.525 7.43541 7.46458 7.53229C7.41979 7.60521 7.37396 7.67916 7.32812 7.75208C7.31354 7.77604 7.29062 7.81979 7.27708 7.85C7.26458 7.8802 7.23854 7.93958 7.22083 7.98229L7.15625 8.13125C7.13854 8.17083 7.125 8.22291 7.125 8.24583C7.125 8.26875 7.11458 8.29375 7.10312 8.30104C7.09062 8.30833 7.08125 8.34687 7.08125 8.38646C7.08125 8.425 7.07187 8.46666 7.06042 8.47812C7.04896 8.48958 7.02812 8.58854 7.01354 8.69687C6.97187 9.01146 6.96042 8.98229 7.125 8.98229C7.25833 8.98229 7.26875 8.97916 7.275 8.93125C7.27917 8.90208 7.27187 8.86771 7.25833 8.85521C7.20729 8.80312 7.22812 8.73854 7.38333 8.45521C7.43333 8.36562 7.45937 8.34166 7.53229 8.32187C7.58958 8.30521 7.62292 8.28229 7.62708 8.25521C7.63854 8.19271 7.69687 8.13645 7.75 8.13541C7.77708 8.13541 7.83437 8.09062 7.89167 8.02604C7.94479 7.96562 8.00521 7.91666 8.02604 7.91666C8.04792 7.91666 8.11562 7.86458 8.17812 7.80104L8.29062 7.68541L8.02083 7.42812C7.87292 7.28646 7.74583 7.17083 7.7375 7.16979C7.73021 7.16875 7.69583 7.20625 7.6625 7.25104ZM9.64896 7.26875C9.64375 7.27395 9.60104 7.28229 9.55312 7.28854C9.50625 7.29479 9.44167 7.30833 9.41146 7.31979C9.38125 7.33021 9.3125 7.35208 9.25833 7.36875C9.20312 7.38437 9.09479 7.4302 9.01771 7.47083C8.87604 7.54479 8.62083 7.73645 8.62083 7.76875C8.61979 7.77812 8.64375 7.79479 8.67292 7.8052C8.70208 7.81666 8.73229 7.83646 8.74062 7.84896C8.74792 7.86146 8.77396 7.87187 8.79792 7.87187C8.83125 7.87187 8.84062 7.8875 8.84062 7.94896C8.84062 8.00312 8.85 8.02604 8.87292 8.02604C8.89167 8.02604 8.90625 8.01666 8.90625 8.00416C8.90625 7.99166 8.92604 7.98229 8.95 7.98229C8.97396 7.98229 8.99375 7.99062 8.99375 8.00104C8.99375 8.01041 9.01875 8.03021 9.05 8.04479C9.21458 8.11979 9.41146 8.00729 9.41146 7.8375C9.41146 7.80937 9.43125 7.77604 9.45417 7.76354C9.51146 7.73229 9.51458 7.73333 9.52917 7.7875C9.53854 7.82396 9.55208 7.83125 9.59167 7.82083C9.61979 7.81354 9.66562 7.80729 9.69479 7.80625C9.74271 7.80625 9.74583 7.8 9.73125 7.72396C9.72187 7.67812 9.71562 7.56041 9.71667 7.4625C9.71771 7.33021 9.71042 7.27916 9.6875 7.27083C9.67188 7.26458 9.65417 7.26354 9.64896 7.26875ZM10.025 7.27291C10.024 7.28229 10.024 7.39375 10.0271 7.52083C10.0312 7.77708 10.0427 7.80104 10.1667 7.82083C10.2396 7.83333 10.2604 7.82396 10.3583 7.74166C10.5052 7.61771 10.5469 7.62708 10.5375 7.78541C10.5302 7.92604 10.4875 7.98125 10.3302 8.06145C10.2375 8.10937 10.1875 8.18021 10.2479 8.18021C10.2594 8.18021 10.2698 8.16979 10.2698 8.15833C10.2698 8.11354 10.4062 8.13645 10.4719 8.19166C10.5073 8.22187 10.5458 8.24583 10.5583 8.24583C10.5823 8.24583 10.6875 8.13854 10.6875 8.1125C10.6875 8.10416 10.749 8.05729 10.825 8.00937C10.901 7.96146 10.9771 7.90521 10.9948 7.88437C11.0219 7.85104 11.0219 7.84375 10.9885 7.825C10.9385 7.79687 10.9417 7.75 10.9948 7.69687C11.05 7.64166 11.05 7.625 10.9969 7.59687C10.5406 7.36354 10.4656 7.33437 10.1854 7.27916C10.0469 7.25208 10.0281 7.25104 10.025 7.27291ZM11.3177 7.86875C11.2781 7.9125 11.2687 7.98229 11.3021 7.98229C11.3281 7.98229 11.3906 7.89375 11.3906 7.85625C11.3906 7.81666 11.3594 7.82187 11.3177 7.86875ZM17.1208 8.03958C17.1125 8.07187 17.1125 8.125 17.1198 8.15937C17.1323 8.21666 17.0875 8.48437 17.0417 8.63125C17.0302 8.66771 17.0062 8.74166 16.9896 8.79583C16.9729 8.85 16.9469 8.925 16.9312 8.96041C16.9167 8.99687 16.8948 9.05104 16.8833 9.08125C16.8708 9.1125 16.8521 9.15208 16.8417 9.16979C16.8312 9.1875 16.8167 9.21771 16.8094 9.23541L16.7792 9.3125C16.7698 9.33646 16.7365 9.41146 16.7042 9.47812C16.6729 9.54479 16.6469 9.61458 16.6469 9.63333C16.6469 9.65104 16.6385 9.67604 16.6292 9.6875C16.6198 9.69896 16.5937 9.76771 16.5729 9.84062C16.551 9.9125 16.524 10.0031 16.5125 10.0396C16.5021 10.0771 16.4927 10.1427 16.4927 10.1875C16.4927 10.2312 16.4823 10.2729 16.4708 10.2802C16.4583 10.2875 16.449 10.3354 16.449 10.3875C16.449 10.4385 16.4344 10.5 16.4167 10.5229C16.399 10.5469 16.3833 10.6031 16.3833 10.649C16.3833 10.6937 16.3729 10.7312 16.3604 10.7312C16.3312 10.7312 16.3323 10.5854 16.3625 10.5281C16.3958 10.4677 16.3958 9.85521 16.3625 9.82291C16.349 9.80937 16.3385 9.77604 16.3385 9.74895C16.3385 9.70729 16.2781 9.55 16.2083 9.41146C16.1542 9.30416 16.0656 9.15416 16.0396 9.12395C16.0229 9.10521 16.0083 9.08229 16.0083 9.07396C16.0083 9.05937 15.9 8.88437 15.8771 8.86146C15.8396 8.825 15.6646 8.47187 15.6448 8.39479C15.6292 8.33125 15.5969 8.31458 15.5792 8.3625C15.5552 8.42187 15.624 8.96562 15.6906 9.24687C15.7104 9.33125 15.7323 9.44062 15.7385 9.48854C15.7448 9.53646 15.7583 9.58541 15.7687 9.59791C15.7802 9.60937 15.7885 9.64166 15.7885 9.67083C15.7885 9.69896 15.8 9.74375 15.8146 9.77083C15.8292 9.79687 15.8479 9.85312 15.8573 9.89583C15.8906 10.0469 15.95 10.2396 15.9896 10.3187C16 10.3396 16.0083 10.376 16.0083 10.399C16.0083 10.4229 16.0229 10.4698 16.0406 10.5042C16.0979 10.6177 16.1229 10.8031 16.1135 11.0604C16.1083 11.2 16.0969 11.3365 16.0875 11.3635C16.051 11.4646 16.1125 11.4042 16.2833 11.1687C16.3802 11.0354 16.475 10.9094 16.4927 10.8896C16.5115 10.8687 16.6052 10.7479 16.7021 10.6219C16.799 10.4948 16.8917 10.374 16.9104 10.3531C16.9604 10.2969 17.0667 10.0708 17.1104 9.92812C17.125 9.88021 17.15 9.80937 17.1667 9.77083C17.1833 9.73333 17.1958 9.67708 17.1958 9.64583C17.1958 9.61562 17.2042 9.58437 17.2146 9.57812C17.2927 9.53021 17.2896 8.43958 17.2104 8.14687C17.2042 8.12291 17.1927 8.07604 17.1865 8.04271C17.1698 7.96666 17.1396 7.96458 17.1208 8.03958ZM2.60729 8.07604C2.60208 8.09062 2.59271 8.1375 2.58542 8.18021C2.57396 8.24271 2.56146 8.30521 2.54896 8.36666C2.46667 8.78125 2.46667 9.10104 2.54896 9.56562C2.6 9.84896 2.61146 9.89896 2.63542 9.92291C2.65 9.93646 2.66146 9.97083 2.66146 9.99895C2.66146 10.0271 2.66979 10.0667 2.68021 10.0885C2.69062 10.1094 2.71667 10.1656 2.73958 10.2146C2.78958 10.3208 2.87812 10.4625 2.93021 10.5208C2.95208 10.5437 2.96875 10.5708 2.96875 10.5792C2.96875 10.5885 2.98125 10.6094 2.99687 10.625C3.14271 10.775 3.58021 11.3354 3.60833 11.4073C3.61875 11.4344 3.63646 11.4562 3.64792 11.4562C3.65833 11.4562 3.67396 11.4792 3.68229 11.5062C3.70833 11.5906 3.72083 11.5083 3.69583 11.4198C3.64062 11.2208 3.67812 10.7583 3.7625 10.5937C3.77396 10.5729 3.78229 10.526 3.78229 10.4906C3.78229 10.4552 3.79271 10.4198 3.80417 10.4125C3.81667 10.4042 3.82604 10.375 3.82604 10.3458C3.82604 10.3167 3.84062 10.2604 3.85729 10.2208C3.87396 10.1812 3.9 10.1042 3.91354 10.049C3.93125 9.98333 3.95 9.91666 3.97083 9.85104C3.98854 9.79687 4.00312 9.73125 4.00208 9.70416C4.00208 9.67812 4.01146 9.65104 4.02187 9.64375C4.03333 9.6375 4.04688 9.59479 4.05312 9.54895C4.05937 9.50416 4.08125 9.37708 4.10208 9.26875C4.17292 8.88958 4.22187 8.3125 4.18333 8.3125C4.15625 8.3125 4.13437 8.36458 4.13437 8.43333C4.13437 8.4625 4.12396 8.49166 4.1125 8.49895C4.1 8.50625 4.09062 8.53021 4.09062 8.55208C4.09062 8.60312 4.03854 8.70625 3.92083 8.8875C3.86875 8.96875 3.82604 9.04479 3.82604 9.05625C3.82604 9.06875 3.81875 9.08125 3.80833 9.08541C3.77917 9.09791 3.61771 9.41041 3.55104 9.5875C3.51667 9.67812 3.48021 9.76146 3.47083 9.77291C3.46042 9.78437 3.45312 9.8302 3.45312 9.87291C3.45312 9.91666 3.44167 9.96354 3.42812 9.97708C3.39583 10.0094 3.39583 10.6167 3.42917 10.65C3.45833 10.6802 3.46042 10.7969 3.43021 10.7969C3.41875 10.7969 3.40833 10.7687 3.40833 10.7354C3.40833 10.701 3.39688 10.6615 3.38229 10.6479C3.35833 10.6229 3.3375 10.5187 3.30625 10.2687C3.3 10.2146 3.28542 10.1604 3.275 10.149C3.26354 10.1375 3.25521 10.1073 3.25521 10.0812C3.25521 10.0354 3.16979 9.77395 3.1125 9.6427C3.09583 9.60625 3.06146 9.52708 3.03542 9.46666C3.00937 9.40625 2.97812 9.34166 2.96667 9.32396C2.95625 9.30521 2.94062 9.27604 2.93333 9.25729C2.90417 9.18125 2.84479 9.03646 2.79792 8.92812C2.78437 8.89791 2.76354 8.83854 2.75104 8.79583C2.73333 8.73437 2.71354 8.67187 2.69479 8.61041C2.67396 8.54271 2.66146 8.41771 2.66146 8.275C2.66146 8.13437 2.65208 8.04791 2.63854 8.04791C2.62604 8.04791 2.61146 8.06041 2.60729 8.07604ZM9.7375 8.19479C9.69167 8.20729 9.66354 8.28646 9.69375 8.31666C9.70833 8.33125 9.71979 8.32291 9.73021 8.29271C9.73958 8.2625 9.76354 8.24583 9.79792 8.24583C9.85833 8.24583 9.86979 8.21354 9.81667 8.19375C9.79792 8.18645 9.78021 8.18125 9.77812 8.18229C9.77604 8.18437 9.75833 8.18958 9.7375 8.19479ZM9.73542 8.40833C9.74375 8.44791 9.72812 8.47291 9.67292 8.5125C9.56875 8.58646 9.50104 8.61979 9.45312 8.61979C9.43021 8.61979 9.41146 8.62916 9.41146 8.63958C9.41146 8.65 9.36771 8.70625 9.3125 8.76458C9.2375 8.84479 9.21354 8.88541 9.21354 8.94062C9.21354 8.98021 9.20417 9.03854 9.19167 9.07083C9.17188 9.12291 9.17604 9.13021 9.23333 9.15C9.26771 9.1625 9.30729 9.19687 9.32083 9.22708C9.34271 9.27396 9.33958 9.29271 9.30208 9.34479C9.27812 9.37916 9.25833 9.41666 9.25833 9.42812C9.25833 9.43958 9.23229 9.48646 9.20208 9.53229C9.17083 9.57708 9.15104 9.61979 9.15729 9.62604C9.17396 9.64375 9.40208 9.40729 9.39375 9.38125C9.39062 9.36875 9.39271 9.33646 9.4 9.30833C9.41146 9.26146 9.42396 9.25729 9.56667 9.25729C9.75208 9.25729 9.82187 9.29375 9.825 9.38958C9.82604 9.425 9.81771 9.46041 9.80625 9.4677C9.79479 9.47396 9.78542 9.49896 9.78542 9.52291C9.78542 9.54583 9.77812 9.56562 9.76875 9.56562C9.75937 9.56562 9.73437 9.61458 9.71354 9.675C9.67292 9.78854 9.66771 9.79166 9.47917 9.8125C9.39896 9.82187 9.4 9.86562 9.48229 9.90208C9.65729 9.98021 9.75 10.0052 9.85937 10.0052C9.98854 10.0052 10.05 9.96354 10.05 9.87604C10.05 9.82812 10.1052 9.72291 10.1479 9.69166C10.1604 9.68333 10.2156 9.67708 10.2719 9.67916C10.3823 9.68229 10.4229 9.66666 10.4229 9.62187C10.4229 9.60521 10.4375 9.56562 10.4542 9.53229C10.4854 9.47187 10.4802 9.41146 10.4427 9.41146C10.4323 9.41146 10.4229 9.38437 10.4229 9.35104C10.4229 9.26146 10.3729 9.13333 10.3135 9.07083C10.2635 9.0177 10.2625 9.01146 10.2948 8.95521C10.3385 8.87812 10.324 8.71041 10.2729 8.69166C10.2531 8.68333 10.1948 8.63333 10.1437 8.58021C10.0615 8.49375 10.0427 8.48333 9.98125 8.49583C9.92083 8.50833 9.90104 8.49895 9.83646 8.43333C9.74896 8.34271 9.72188 8.33646 9.73542 8.40833ZM12.7385 8.65312C12.7177 8.69687 12.6854 8.73021 12.6646 8.73021C12.6437 8.73021 12.6073 8.74687 12.5833 8.76875C12.549 8.79791 12.5417 8.825 12.55 8.89062L12.5615 8.97396L12.6823 8.9677L12.8021 8.96041L12.8073 8.76875C12.8094 8.6625 12.8031 8.57604 12.7937 8.57604C12.7833 8.57604 12.7594 8.61041 12.7385 8.65312ZM7.525 8.91041C7.48958 8.94583 7.49271 9.01771 7.53229 9.06979C7.55 9.09271 7.56458 9.14479 7.56458 9.18333C7.56458 9.25 7.55937 9.25521 7.48229 9.26146C7.40833 9.26771 7.39896 9.27604 7.39271 9.33437C7.38229 9.42291 7.32917 9.47708 7.25312 9.47708C7.19167 9.47708 7.16562 9.525 7.2125 9.55416C7.22396 9.56146 7.23229 9.61041 7.23021 9.6625C7.22604 9.74166 7.2375 9.77083 7.30417 9.84896C7.37812 9.93437 7.41458 10.0198 7.42292 10.126C7.42917 10.2104 7.46042 10.3135 7.47917 10.3135C7.49062 10.3135 7.49896 10.3979 7.49896 10.5C7.49896 10.6615 7.50625 10.7 7.55312 10.7729C7.58229 10.8198 7.6125 10.9062 7.62083 10.9656C7.63333 11.0604 7.62917 11.0771 7.57812 11.125C7.54687 11.1542 7.52083 11.1865 7.52083 11.1969C7.52083 11.2562 7.61875 11.1781 7.9125 10.8812L8.24375 10.5469L8.19167 10.501C8.13958 10.4552 8.05833 10.3333 8.03437 10.2635C8.02708 10.2427 8.0125 10.225 8.00208 10.225C7.99167 10.225 7.98229 10.2062 7.98229 10.1823C7.98229 10.1594 7.97292 10.1344 7.96146 10.1271C7.92812 10.1062 7.82917 9.86041 7.74896 9.59896C7.72396 9.51875 7.66667 9.51145 7.65625 9.5875C7.65208 9.61771 7.63958 9.65208 7.62917 9.66354C7.61771 9.675 7.60833 9.70729 7.60833 9.73437C7.60833 9.79895 7.58542 9.79895 7.525 9.73437C7.46667 9.67291 7.46458 9.64062 7.51562 9.6125C7.54375 9.59583 7.55417 9.5625 7.55417 9.48125C7.55417 9.35625 7.56771 9.32916 7.60833 9.37812C7.65 9.42916 7.74687 9.41979 7.78333 9.3625C7.81979 9.30625 7.81875 9.07291 7.78125 8.95521C7.76042 8.8875 7.75312 8.88333 7.65521 8.88333C7.59792 8.88333 7.53958 8.89583 7.525 8.91041ZM8.79479 9.10625C8.73646 9.17187 8.68125 9.32708 8.70625 9.35312C8.71667 9.36354 8.74479 9.36146 8.76875 9.34791C8.79271 9.33541 8.87083 9.31562 8.94167 9.30416C9.04583 9.28854 9.075 9.29062 9.08854 9.31458C9.11458 9.35937 9.14792 9.35208 9.14792 9.30208C9.14792 9.27291 9.13333 9.25729 9.10625 9.25729C9.0625 9.25729 9.03854 9.21666 9.03854 9.14583C9.03854 9.1125 9.02187 9.10416 8.96562 9.10416C8.92604 9.10416 8.88125 9.09271 8.86771 9.07812C8.84896 9.05937 8.83125 9.06666 8.79479 9.10625ZM4.90417 9.43958C4.90417 9.7625 5.04479 10.4458 5.18958 10.8302C5.25729 11.0073 5.28542 11.0771 5.30208 11.1104C5.3125 11.1312 5.32187 11.1635 5.32187 11.1812C5.32187 11.2 5.33125 11.2146 5.34375 11.2146C5.35625 11.2146 5.36562 11.2281 5.36562 11.2437C5.36562 11.2708 5.47708 11.4958 5.58125 11.6802C5.63437 11.7729 5.86458 12.0948 6.05104 12.3365C6.21771 12.551 6.22292 12.5562 6.24062 12.5531C6.24896 12.551 6.37812 12.424 6.52604 12.2708L6.79583 11.9927L6.6875 11.8812C6.62812 11.8208 6.53646 11.7417 6.48437 11.7062C6.43229 11.6719 6.37396 11.6135 6.35625 11.5771C6.34375 11.5521 6.33021 11.5271 6.31771 11.5031C6.31458 11.4979 6.29792 11.5062 6.28125 11.5208C6.2375 11.5562 6.08333 11.4479 6.05104 11.3573C6.02812 11.2958 5.86667 11.1708 5.80937 11.1708C5.79583 11.1708 5.76875 11.1458 5.74792 11.1156C5.71771 11.0687 5.7 11.0625 5.64167 11.0729C5.58125 11.0844 5.5625 11.076 5.51354 11.0187C5.48021 10.9781 5.43542 10.951 5.40521 10.951C5.35208 10.951 5.31771 10.901 5.24583 10.7229C5.17917 10.5562 5.22292 10.3229 5.33542 10.2396C5.38646 10.2021 5.39375 10.2021 5.42917 10.2344C5.48542 10.2844 5.53854 10.2771 5.56667 10.2167C5.59375 10.1573 5.71458 10.1198 5.74167 10.1615C5.75 10.176 5.76771 10.1802 5.78125 10.1719C5.80521 10.1562 5.79375 10.0604 5.76146 10.0167C5.74271 9.99062 5.71875 9.79375 5.69896 9.49375L5.68437 9.2802L5.29479 9.27187L4.90417 9.26458V9.43958ZM5.96458 9.29791C5.93854 9.36562 6.05208 10.0771 6.11354 10.2365L6.13854 10.3021L6.18021 10.225C6.20417 10.1802 6.22187 10.1021 6.22292 10.0365C6.22396 9.89479 6.28646 9.76458 6.38125 9.71041C6.42083 9.6875 6.48229 9.63437 6.51771 9.59375C6.56458 9.5375 6.59479 9.52083 6.63854 9.52604C6.69479 9.53229 6.69583 9.5302 6.69583 9.4052V9.27916L6.33646 9.27396C6.05312 9.26979 5.97396 9.275 5.96458 9.29791ZM12.4021 9.27708C12.4021 9.2875 12.4156 9.30729 12.4323 9.32187C12.449 9.33541 12.4687 9.375 12.476 9.41041C12.4833 9.44583 12.5281 9.51145 12.5771 9.55625C12.626 9.60104 12.6667 9.65521 12.6667 9.67708C12.6667 9.70833 12.7271 9.75625 12.7437 9.73645C12.7458 9.73333 12.7594 9.65625 12.7729 9.56562C12.7854 9.475 12.8031 9.36875 12.8115 9.32916L12.826 9.25729H12.6146C12.4979 9.25729 12.4021 9.26666 12.4021 9.27708ZM13.099 9.27187C13.0906 9.2802 13.0844 9.32916 13.0844 9.38125C13.0844 9.43333 13.0729 9.52604 13.0604 9.58854C13.0365 9.69687 13.0385 9.70416 13.0958 9.76458C13.1687 9.83958 13.1573 9.88229 13.0521 9.92604C13 9.94791 12.974 9.97396 12.974 10.0031C12.974 10.0271 12.9646 10.0531 12.9521 10.0604C12.9396 10.0677 12.9302 10.0927 12.9302 10.1167C12.9302 10.1604 12.925 10.174 12.8573 10.3094C12.8365 10.35 12.8198 10.3958 12.8198 10.4115C12.8198 10.4281 12.7885 10.499 12.749 10.5698C12.7094 10.6406 12.6573 10.7354 12.6333 10.7802C12.6094 10.826 12.5823 10.8625 12.5729 10.8625C12.5635 10.8625 12.5562 10.875 12.5562 10.8906C12.5562 10.9052 12.4927 10.9937 12.4146 11.0865L12.274 11.2542L12.3729 11.3479L12.4729 11.4406L12.526 11.3771L12.5781 11.3135L12.6427 11.3875C12.7073 11.4625 12.776 11.6344 12.776 11.7187C12.776 11.7437 12.7854 11.7646 12.7958 11.7646C12.8458 11.7646 13.3042 11.1583 13.3042 11.0937C13.3042 11.075 13.3125 11.0604 13.324 11.0604C13.3344 11.0604 13.3479 11.0437 13.3552 11.0219C13.3615 11.001 13.3865 10.949 13.4104 10.9073C13.4771 10.7885 13.5677 10.5792 13.5677 10.5448C13.5677 10.5281 13.5781 10.5073 13.5896 10.5C13.6021 10.4927 13.6115 10.4646 13.6115 10.4375C13.6115 10.4104 13.6229 10.3771 13.6365 10.3635C13.6594 10.3406 13.6875 10.2396 13.7135 10.0823C13.7198 10.0458 13.7333 9.99687 13.7427 9.97187C13.7844 9.86979 13.8583 9.29166 13.8333 9.26666C13.8177 9.25104 13.1146 9.25625 13.099 9.27187ZM14.1167 9.2625C14.1156 9.26562 14.1104 9.36562 14.1042 9.48437C14.0979 9.60312 14.0844 9.725 14.0729 9.75521C14.0615 9.78541 14.0521 9.85312 14.0521 9.90625C14.0521 9.95937 14.0417 10.0083 14.0302 10.0156C14.0187 10.0229 14.0021 10.0781 13.9948 10.1385C13.9865 10.199 13.9708 10.2531 13.9604 10.2604C13.95 10.2667 13.9417 10.3 13.9417 10.3354C13.9417 10.3698 13.9323 10.4042 13.9198 10.4125C13.9073 10.4198 13.8979 10.4406 13.8979 10.4594C13.8979 10.4781 13.8823 10.5292 13.8625 10.574C13.8427 10.6187 13.824 10.6635 13.8052 10.7094C13.726 10.9062 13.6792 11.0031 13.5687 11.2042C13.5281 11.276 13.4865 11.3385 13.4771 11.3427C13.4667 11.3469 13.4583 11.3604 13.4583 11.3729C13.4583 11.4115 13.1562 11.8115 13.05 11.9125L12.9979 11.9625L13.274 12.2375C13.426 12.3885 13.5594 12.5125 13.5698 12.5125C13.5875 12.5125 13.8385 12.2042 13.9562 12.0406C14.0646 11.8875 14.274 11.5458 14.3271 11.4344C14.3469 11.3927 14.3792 11.3281 14.3979 11.2917C14.4875 11.1229 14.5792 10.9115 14.5792 10.875C14.5792 10.8573 14.5885 10.8385 14.599 10.8312C14.6094 10.825 14.6229 10.7917 14.6292 10.7583C14.6396 10.7031 14.6677 10.6177 14.7135 10.5C14.7229 10.476 14.7354 10.426 14.7417 10.3906C14.7479 10.3542 14.7625 10.2792 14.774 10.225C14.8521 9.85416 14.8854 9.63333 14.8917 9.43333L14.8979 9.26875L14.5083 9.2625C14.2937 9.25937 14.1167 9.25937 14.1167 9.2625ZM6.98021 9.32916C6.9875 9.35625 7.00417 9.45729 7.01667 9.55416C7.02917 9.65 7.04271 9.73229 7.04583 9.73541C7.04896 9.73854 7.06979 9.72708 7.09271 9.71041C7.12917 9.68333 7.13125 9.67291 7.10625 9.62604C7.08333 9.58437 7.08229 9.55208 7.10104 9.48645C7.11354 9.43958 7.125 9.37291 7.125 9.34062C7.125 9.28541 7.11771 9.27916 7.04583 9.27916C6.97396 9.27916 6.96771 9.28437 6.98021 9.32916ZM8.1 9.6375C8.09271 9.64896 8.09896 9.66875 8.1125 9.68229C8.125 9.69479 8.13646 9.72812 8.13646 9.75416C8.13646 9.78021 8.15104 9.81458 8.16979 9.82916C8.1875 9.84479 8.20208 9.86979 8.20208 9.88646C8.20208 9.91354 8.24687 9.99791 8.37812 10.2198C8.40833 10.2708 8.44375 10.3125 8.45521 10.3125C8.46771 10.3115 8.52083 10.2615 8.57292 10.2021C8.66458 10.0969 8.66875 10.0875 8.65417 9.99062C8.63542 9.86771 8.62187 9.82916 8.59583 9.82916C8.56562 9.82916 8.57292 9.89062 8.60417 9.90104C8.61875 9.90729 8.62396 9.91979 8.61458 9.92916C8.60521 9.93958 8.58542 9.93541 8.57187 9.92187C8.55729 9.90729 8.53125 9.89583 8.51458 9.89583C8.47917 9.89583 8.40208 9.80937 8.40104 9.76875C8.40104 9.75416 8.38021 9.74166 8.35625 9.74166C8.32917 9.74166 8.30312 9.72083 8.29167 9.68854C8.27708 9.65 8.25104 9.63437 8.19167 9.62708C8.14792 9.62187 8.10625 9.62708 8.1 9.6375ZM8.88437 9.8302C8.88437 9.8552 8.89375 9.86979 8.90625 9.8625C8.91771 9.85521 8.92812 9.83437 8.92812 9.81666C8.92812 9.8 8.91771 9.78541 8.90625 9.78541C8.89375 9.78541 8.88437 9.80625 8.88437 9.8302ZM15.6354 10.0042C15.6354 10.0396 15.625 10.075 15.6125 10.0823C15.601 10.0896 15.5906 10.1177 15.5906 10.1437C15.5896 10.1708 15.575 10.2115 15.5573 10.2354C15.5396 10.2583 15.525 10.3021 15.525 10.3323C15.525 10.3625 15.5156 10.4177 15.5052 10.4542C15.475 10.5552 15.4365 10.7812 15.4229 10.9354C15.4167 11.0104 15.4031 11.1312 15.3917 11.2042C15.3802 11.276 15.3708 11.4198 15.3708 11.5219C15.3708 11.8635 15.2604 12.5594 15.174 12.7646C15.1583 12.801 15.1427 12.8385 15.1292 12.875C15.0833 12.9937 15.0375 13.0833 15.0187 13.0948C14.9896 13.1135 14.9917 13.15 15.0229 13.15C15.0365 13.15 15.0792 13.126 15.1156 13.0979C15.1979 13.0354 15.7437 12.6656 15.7542 12.6656C15.776 12.6656 16.2135 12.3604 16.3167 12.274C16.8885 11.7917 17.2125 11.2385 17.3052 10.5833C17.3312 10.4073 17.3354 10.1594 17.3135 10.1594C17.2896 10.1594 17.2417 10.2344 17.2406 10.2729C17.2406 10.2927 17.226 10.3375 17.2083 10.3719C17.1906 10.4062 17.1635 10.4667 17.1479 10.5052C17.1323 10.5448 17.1125 10.5771 17.1031 10.5771C17.0938 10.5771 17.0865 10.5854 17.0865 10.5969C17.0865 10.6542 16.8635 10.9333 16.6 11.2042C16.2385 11.576 16.1021 11.7365 15.9167 12.0073C15.6802 12.3542 15.6271 12.424 15.6073 12.424C15.5958 12.424 15.5906 12.4167 15.5948 12.4073C15.599 12.399 15.6323 12.3271 15.6698 12.2479C15.7896 11.9979 15.8104 11.9406 15.8104 11.8667C15.8104 11.8271 15.8219 11.7844 15.8354 11.7708C15.851 11.7552 15.8552 11.6427 15.8469 11.4208C15.8365 11.1073 15.8219 10.9823 15.7677 10.7417C15.7073 10.4771 15.7 10.4208 15.6958 10.1865C15.6917 10.0062 15.6823 9.93958 15.6625 9.93958C15.6469 9.93958 15.6354 9.96666 15.6354 10.0042ZM12.5677 9.98333C12.5604 9.99583 12.4781 10.0052 12.3854 10.0052C12.2365 10.0052 12.2115 10.0115 12.1594 10.0615C12.1083 10.1104 12.0979 10.1135 12.0729 10.0833C12.0292 10.0302 11.9979 10.0427 11.9521 10.1312C11.9292 10.1771 11.8958 10.2302 11.8792 10.251C11.8552 10.2812 11.8542 10.2906 11.8781 10.3052C11.9521 10.3521 11.9969 10.575 11.9406 10.6104C11.9281 10.6177 11.9187 10.6562 11.9187 10.6958C11.9187 10.7729 11.8104 11.0104 11.7615 11.0417C11.7208 11.0677 11.5948 11.0656 11.5781 11.0385C11.5708 11.0271 11.5375 11.0167 11.5042 11.0167C11.4708 11.0167 11.4344 11.0073 11.4229 10.9958C11.4115 10.9844 11.3427 10.9656 11.2698 10.9542C11.1979 10.9427 11.1115 10.926 11.0781 10.9177C11.0323 10.9062 11.0135 10.9115 11.0031 10.9385C10.9854 10.9854 10.999 10.9969 11.099 11.0187C11.2906 11.0604 11.3167 11.0698 11.3812 11.1187C11.4427 11.1646 11.4667 11.1687 11.6146 11.1604C11.8094 11.149 11.8531 11.1344 11.8531 11.0844C11.8531 11.0417 11.975 10.8406 12.001 10.8406C12.0104 10.8417 12.0354 10.8833 12.0573 10.9344C12.0917 11.0156 12.1 11.0229 12.1229 10.9917C12.2656 10.7969 12.3062 10.7406 12.325 10.7104C12.3375 10.6906 12.3677 10.6458 12.3927 10.6094C12.4583 10.5156 12.6 10.2281 12.6 10.1885C12.6 10.1698 12.6167 10.1271 12.6375 10.0927C12.6677 10.0406 12.6687 10.024 12.6458 9.99583C12.6125 9.95625 12.5865 9.95208 12.5677 9.98333ZM4.09896 10.0594C4.09167 10.0781 4.09479 10.1062 4.10521 10.1208C4.11667 10.1365 4.12292 10.1677 4.11875 10.1927C4.11458 10.2167 4.10521 10.3156 4.09896 10.4125C4.09167 10.5094 4.07708 10.5979 4.06667 10.6094C4.05521 10.6208 4.04687 10.6625 4.04687 10.7021C4.04687 10.7406 4.03229 10.8156 4.01562 10.8677C3.96562 11.0229 3.95104 11.1646 3.95104 11.501C3.95208 11.9208 3.99062 12.0937 4.14167 12.3646C4.20208 12.4729 4.21354 12.5125 4.18333 12.5125C4.17396 12.5125 4.08229 12.3865 3.97917 12.2323C3.76146 11.9031 3.61354 11.7271 3.21458 11.325C2.83542 10.9427 2.61667 10.6365 2.55208 10.401C2.54375 10.3708 2.52813 10.351 2.51667 10.3573C2.48958 10.3719 2.50208 10.9104 2.52917 10.9385C2.54167 10.95 2.55104 10.9875 2.55104 11.0219C2.55104 11.0833 2.55521 11.0948 2.62396 11.2333C2.64479 11.2729 2.66146 11.3229 2.6625 11.3427C2.66354 11.3635 2.68333 11.4094 2.70625 11.4458C2.72917 11.4823 2.75521 11.526 2.76354 11.5448C2.78125 11.5823 2.88646 11.7479 2.90312 11.7646C2.90937 11.7708 2.94375 11.8146 2.97917 11.8635C3.12188 12.0562 3.49375 12.3865 3.79479 12.5896C3.86667 12.6375 3.93021 12.6823 3.93646 12.6885C3.94271 12.6937 3.96771 12.7115 3.99167 12.726C4.04271 12.7573 4.67812 13.1635 4.73229 13.2C4.78125 13.2323 4.81146 13.2021 4.77708 13.1542C4.71458 13.0646 4.57396 12.7365 4.57396 12.6812C4.57396 12.6531 4.56562 12.6219 4.55417 12.6104C4.54271 12.599 4.52917 12.5344 4.52187 12.4677C4.51562 12.4021 4.5 12.2729 4.48646 12.1823C4.47396 12.0917 4.45312 11.95 4.44167 11.8687C4.43021 11.7865 4.41979 11.6312 4.41979 11.524C4.41979 11.4146 4.41042 11.3208 4.39792 11.3135C4.38542 11.3062 4.38021 11.2927 4.38542 11.2844C4.38958 11.276 4.37917 11.1604 4.36146 11.0281C4.30521 10.6094 4.2625 10.3865 4.22604 10.3198C4.2125 10.2937 4.2 10.2469 4.2 10.2156C4.2 10.1844 4.19062 10.1594 4.17812 10.1594C4.16667 10.1594 4.15625 10.1354 4.15625 10.1052C4.15625 10.0417 4.11771 10.0104 4.09896 10.0594ZM8.89062 10.2885C8.76667 10.4177 8.67292 10.5323 8.68125 10.5448C8.70625 10.5802 8.97396 10.7625 9.03854 10.7885C9.09271 10.8094 9.17708 10.8437 9.24687 10.874C9.37083 10.926 9.48958 10.9552 9.55521 10.9469C9.61458 10.9406 9.61979 10.9323 9.62292 10.8469C9.62604 10.7375 9.66146 10.6875 9.73333 10.6875C9.79167 10.6875 9.79896 10.6531 9.75937 10.5656C9.73958 10.5208 9.73958 10.4979 9.75937 10.4656C9.825 10.3604 9.75833 10.2687 9.61458 10.2687C9.56042 10.2687 9.48333 10.2469 9.42083 10.2146C9.36354 10.1844 9.30521 10.1594 9.29167 10.1594C9.27708 10.1594 9.24271 10.1344 9.21354 10.1042C9.18542 10.074 9.15208 10.051 9.13854 10.0521C9.12604 10.0542 9.01354 10.1604 8.89062 10.2885ZM11.6552 10.3906C11.6552 10.4104 11.6344 10.4229 11.601 10.4229C11.5719 10.4229 11.5323 10.4396 11.5125 10.4583C11.4677 10.5031 11.4833 10.5219 11.5396 10.4917C11.5635 10.4792 11.5896 10.475 11.5969 10.4823C11.6156 10.501 11.699 10.4229 11.699 10.3865C11.699 10.3708 11.6885 10.3573 11.6771 10.3573C11.6646 10.3573 11.6552 10.3719 11.6552 10.3906ZM10.7219 10.4344C10.6656 10.4865 10.6615 10.55 10.7167 10.5187C10.7927 10.475 10.8635 10.4177 10.8635 10.4C10.8635 10.3594 10.7812 10.3802 10.7219 10.4344ZM10.8458 10.7302C10.75 10.799 10.7094 10.8125 10.7094 10.775C10.7094 10.7625 10.6948 10.7531 10.676 10.7531C10.6573 10.7531 10.6437 10.7729 10.6437 10.7979C10.6437 10.8594 10.5875 10.875 10.5208 10.8302C10.4688 10.7969 10.4604 10.7969 10.425 10.8292C10.3896 10.8604 10.3823 10.8604 10.3583 10.8302C10.3427 10.8125 10.3062 10.7969 10.2781 10.7969C10.249 10.7969 10.225 10.7854 10.225 10.7719C10.225 10.7552 10.1948 10.751 10.1344 10.7594C10.0615 10.7687 10.026 10.7906 9.96562 10.8625C9.92292 10.9125 9.84479 10.9729 9.79167 10.9969C9.71146 11.0333 9.69896 11.0469 9.72083 11.0729C9.75417 11.1135 9.83854 11.1135 9.90208 11.075C9.97187 11.0312 10.1948 11.0406 10.2302 11.0875C10.2656 11.1344 10.3625 11.1708 10.4521 11.1708C10.5031 11.1708 10.5292 11.1573 10.5448 11.1229C10.5573 11.0948 10.6125 11.0583 10.6823 11.0323C10.8812 10.9573 11.0406 10.7677 10.9667 10.6937C10.9417 10.6687 10.9229 10.674 10.8458 10.7302ZM8.18229 11.0104L7.93125 11.2656L7.99479 11.3187C8.22292 11.5073 8.36979 11.6104 8.48854 11.6677C8.67396 11.7552 8.81042 11.8177 8.85104 11.8312C8.875 11.8396 8.93229 11.8625 8.97812 11.8823C9.02396 11.9021 9.08542 11.9187 9.11458 11.9187C9.14375 11.9187 9.17396 11.9281 9.18125 11.9406C9.18854 11.9521 9.22604 11.9625 9.26354 11.9625H9.33229L9.26562 11.8906C9.12292 11.7375 9.06354 11.6094 9.11354 11.5594C9.12917 11.5448 9.15521 11.4927 9.17187 11.4448C9.18854 11.3969 9.22708 11.3365 9.25729 11.3104C9.31979 11.2573 9.30625 11.2281 9.21771 11.2229C9.08646 11.2156 8.68333 10.9906 8.51042 10.8271L8.43333 10.7552L8.18229 11.0104ZM12.001 11.5104C11.9396 11.5958 11.951 11.6729 12.0323 11.7156C12.1365 11.7729 12.249 11.875 12.249 11.9135C12.249 11.9333 12.2083 11.9969 12.1583 12.0552C12.0646 12.1667 12.0583 12.2115 12.1229 12.301C12.1531 12.3417 12.1615 12.3375 12.3062 12.2219C12.499 12.0667 12.5667 11.9937 12.5365 11.974C12.5229 11.9667 12.5021 11.9656 12.4896 11.974C12.4771 11.9812 12.4469 11.9406 12.4219 11.8812C12.3823 11.7906 12.0896 11.4552 12.051 11.4573C12.0448 11.4573 12.0219 11.4823 12.001 11.5115M15.1073 11.4865C15.1073 11.5031 15.0906 11.5312 15.0708 11.5469C15.0156 11.5927 14.5792 12.2542 14.5792 12.2917C14.5792 12.3021 14.5656 12.3385 14.549 12.3729C14.5312 12.4073 14.5083 12.4604 14.4969 12.4906C14.4823 12.5271 14.4677 12.5635 14.4521 12.6C14.4396 12.6302 14.4125 12.7094 14.3917 12.776C14.3708 12.8427 14.3469 12.9167 14.3375 12.9406C14.2833 13.0927 14.2667 13.1437 14.2573 13.1823C14.251 13.2073 14.2375 13.2469 14.2281 13.2708C14.2188 13.2948 14.1937 13.3594 14.1729 13.4135C14.151 13.4677 14.1167 13.5521 14.0948 13.601C14.0729 13.649 14.05 13.7031 14.0427 13.7219C13.9844 13.8656 13.725 14.2323 13.6427 14.2854C13.6135 14.3042 13.5896 14.3292 13.5896 14.3396C13.5896 14.3667 13.6719 14.3646 13.6885 14.3375C13.6958 14.325 13.7323 14.3156 13.7687 14.3156C13.8052 14.3156 13.8521 14.3062 13.874 14.2948C13.9104 14.275 14.0344 14.249 14.3042 14.2042C14.3646 14.1948 14.4885 14.1708 14.5792 14.151C14.6698 14.1312 14.7812 14.1094 14.8271 14.1031C14.8719 14.0958 14.9146 14.0823 14.9219 14.0708C14.9281 14.0604 14.9542 14.051 14.9792 14.051C15.0031 14.051 15.05 14.0375 15.0823 14.0208C15.1135 14.0042 15.2 13.9625 15.2719 13.9281C15.6927 13.7302 16.15 13.3479 16.4167 12.9719C16.5187 12.8281 16.6792 12.5344 16.7344 12.3917C16.7979 12.2281 16.824 12.1365 16.8115 12.1167C16.7896 12.0812 16.7562 12.0906 16.7562 12.1312C16.7562 12.1781 16.5458 12.4531 16.4229 12.5677C16.2594 12.7187 16.1104 12.8281 15.9698 12.901C15.9312 12.9219 15.899 12.9458 15.899 12.9562C15.899 12.9656 15.8812 12.974 15.8594 12.974C15.8375 12.974 15.8094 12.9833 15.7979 12.9958C15.7854 13.0083 15.6031 13.1052 15.3917 13.2115C14.9771 13.4208 14.6406 13.6302 14.4448 13.801C14.2542 13.9667 14.224 13.9896 14.2115 13.9771C14.2052 13.9708 14.2552 13.9083 14.3219 13.8375C14.3885 13.7677 14.4667 13.6812 14.4948 13.6448C14.5219 13.6083 14.5521 13.574 14.5594 13.5677C14.6125 13.5281 14.8437 13.0646 14.8437 12.9969C14.8437 12.9708 14.8552 12.9271 14.8698 12.901C14.8958 12.8531 14.9167 12.7437 14.951 12.4677C14.9927 12.1365 15.025 11.95 15.0437 11.9302C15.0542 11.9187 15.0635 11.8802 15.0635 11.8437C15.0635 11.7708 15.0958 11.6531 15.1427 11.5594C15.1729 11.4969 15.1677 11.4562 15.1281 11.4562C15.1167 11.4562 15.1073 11.4698 15.1073 11.4865ZM4.61771 11.576C4.61771 11.5937 4.62708 11.6135 4.6375 11.6198C4.66458 11.6365 4.72812 11.8375 4.72812 11.9073C4.72812 11.9396 4.73854 11.9844 4.75104 12.0073C4.77188 12.0458 4.78542 12.1302 4.8375 12.5125C4.86771 12.7333 4.90312 12.9094 4.92708 12.9531C4.93854 12.975 4.94792 13.0177 4.94792 13.0479C4.94792 13.0781 4.95833 13.1094 4.96979 13.1167C4.98229 13.124 4.99167 13.1531 4.99167 13.1812C4.99167 13.2094 5.00729 13.2448 5.025 13.2594C5.04271 13.275 5.05833 13.301 5.05833 13.3177C5.05833 13.3458 5.09896 13.4333 5.12396 13.4573C5.13021 13.4635 5.1625 13.5104 5.19479 13.5604C5.22812 13.6115 5.32917 13.7302 5.41979 13.825C5.51146 13.9187 5.58542 14.0031 5.58542 14.0125C5.58542 14.0208 5.56146 14.0177 5.53021 14.0031C5.5 13.9896 5.47604 13.9698 5.47604 13.9594C5.47604 13.95 5.46458 13.9417 5.45104 13.9417C5.4375 13.9417 5.37083 13.8937 5.30312 13.8365C5.15104 13.7073 5.02188 13.6115 5.00104 13.6115C4.99271 13.6115 4.95417 13.5885 4.91667 13.5604C4.87917 13.5333 4.81458 13.4927 4.77187 13.4719C4.73021 13.451 4.66563 13.4146 4.62917 13.3927C4.59271 13.3698 4.54583 13.35 4.525 13.349C4.50312 13.349 4.48646 13.3375 4.48646 13.326C4.48646 13.3135 4.47396 13.3042 4.45833 13.3042C4.40937 13.3042 3.74062 12.9562 3.67083 12.8948C3.65208 12.8781 3.625 12.8635 3.61146 12.8635C3.56354 12.8635 3.10937 12.3927 3.06667 12.2979C3.04271 12.2469 3.01667 12.2042 3.00833 12.2042C2.97188 12.2042 2.97083 12.251 3.00417 12.3292C3.025 12.375 3.04792 12.4333 3.05625 12.4573C3.06458 12.4812 3.09896 12.5552 3.13125 12.6219C3.16354 12.6885 3.18958 12.751 3.18958 12.7615C3.18854 12.7708 3.21354 12.8115 3.24375 12.851C3.27396 12.8906 3.29896 12.9333 3.29896 12.9469C3.29896 12.9594 3.30729 12.974 3.31667 12.9771C3.32604 12.9812 3.375 13.0396 3.42396 13.1062C3.66146 13.4292 4.12812 13.8146 4.49792 13.9937C4.56979 14.0292 4.64583 14.0656 4.66771 14.076C4.68854 14.0865 4.72812 14.0958 4.75625 14.0958C4.78437 14.0958 4.81667 14.1052 4.82917 14.1167C4.86146 14.149 5.09271 14.1969 5.46458 14.2479C5.56146 14.2615 5.66042 14.2812 5.68437 14.2927C5.70833 14.3042 5.77292 14.3177 5.82708 14.3229C5.97083 14.3375 6.14062 14.3781 6.16667 14.4031C6.17812 14.4156 6.19583 14.425 6.20625 14.425C6.24375 14.425 6.21875 14.3833 6.11771 14.2802C5.9375 14.0948 5.77812 13.8417 5.66979 13.5677C5.65729 13.5375 5.63333 13.4844 5.61667 13.45C5.6 13.4167 5.58542 13.3698 5.58542 13.3469C5.58542 13.325 5.57708 13.301 5.56667 13.2948C5.55521 13.2875 5.54167 13.2552 5.53542 13.2219C5.52604 13.1667 5.5 13.0865 5.45208 12.9625C5.44271 12.9385 5.41875 12.8698 5.39792 12.8094C5.34375 12.649 5.33646 12.6292 5.23542 12.424C5.12292 12.1948 5.12604 12.2 4.9375 11.9333C4.85208 11.8135 4.75833 11.6771 4.72812 11.6302C4.67292 11.5437 4.61771 11.5167 4.61771 11.576ZM7.99792 11.7562C7.99062 11.7635 7.99896 11.7906 8.01667 11.8167C8.03438 11.8417 8.04896 11.8698 8.04896 11.8792C8.04896 11.9177 7.90937 11.9625 7.7875 11.9625C7.71458 11.9625 7.65 11.9708 7.64375 11.9812C7.63021 12.0031 7.43125 12.0719 7.38437 12.0719C7.36771 12.0719 7.31875 12.0479 7.27396 12.0177C7.16771 11.9448 7.14792 11.9823 7.25 12.0635C7.48542 12.2521 7.6 12.3354 7.62292 12.3365C7.6375 12.3365 7.65208 12.3437 7.65625 12.3531C7.66979 12.3865 7.95 12.549 8.19167 12.6646C8.325 12.7281 8.45 12.7896 8.47187 12.8C8.49271 12.8115 8.525 12.8198 8.54375 12.8198C8.56146 12.8198 8.59375 12.8281 8.61458 12.8385C8.71458 12.8885 8.89375 12.9396 9.09271 12.974C9.15312 12.9844 9.25729 13.0031 9.32396 13.0146C9.39062 13.026 9.50625 13.0406 9.58229 13.0469L9.71979 13.0573V12.3427L9.54896 12.3281C9.24687 12.3021 8.96042 12.2448 8.91771 12.2031C8.90625 12.1917 8.87396 12.1823 8.84687 12.1823C8.81875 12.1823 8.77812 12.174 8.75729 12.1635C8.73646 12.1531 8.65937 12.1167 8.5875 12.0833C8.51458 12.051 8.44062 12.0146 8.42187 12.0042C8.40104 11.9917 8.37917 11.9792 8.35625 11.9687C8.32292 11.9542 8.14167 11.8365 8.05833 11.775C8.03229 11.7573 8.00625 11.749 7.99792 11.7562ZM12.6729 12.2875C12.4198 12.5177 12.3271 12.5854 12.1437 12.6792C12.0677 12.7177 11.9187 12.876 11.9187 12.9177C11.9187 12.949 11.5896 13.3042 11.5615 13.3042C11.549 13.3042 11.4927 13.3385 11.4354 13.3802C11.2833 13.4927 11.2115 13.4865 11.0073 13.3448L10.8448 13.2312L10.7271 13.2583C10.6125 13.2844 10.3354 13.3208 10.1375 13.3365C10.0833 13.3406 10.0333 13.3448 10.0271 13.3458C10.0219 13.3469 10.0167 13.5208 10.0167 13.7323V14.1167L10.2365 14.1052C10.475 14.0917 10.7094 14.0562 11.0281 13.9854C11.076 13.975 11.1594 13.9562 11.2115 13.9448C11.2635 13.9344 11.3177 13.9135 11.3312 13.9C11.3448 13.8865 11.3833 13.875 11.4156 13.875C11.449 13.875 11.4823 13.8656 11.4896 13.8531C11.4969 13.8417 11.5208 13.8312 11.5427 13.8312C11.5792 13.8312 11.6729 13.7948 11.7698 13.7417C11.7906 13.7312 11.8208 13.7219 11.8375 13.7219C11.8844 13.7219 12.4229 13.4396 12.4917 13.3781C12.5115 13.3615 12.5354 13.3479 12.5448 13.3479C12.5552 13.3479 12.5958 13.3229 12.6354 13.2927C12.675 13.2625 12.7167 13.2375 12.7271 13.2375C12.7375 13.2375 12.7698 13.2135 12.7979 13.1823C12.8271 13.1521 12.8583 13.1281 12.8687 13.1281C12.8969 13.1281 13.3281 12.774 13.3406 12.7417C13.3469 12.726 13.275 12.6406 13.1802 12.5521C13.0865 12.4635 12.9635 12.3437 12.9083 12.2865C12.8531 12.2292 12.8031 12.1823 12.7969 12.1823C12.7917 12.1833 12.7354 12.2302 12.6729 12.2875ZM6.71875 12.4687C6.56667 12.6187 6.44375 12.7521 6.44375 12.7667C6.44375 12.7812 6.46979 12.8104 6.50312 12.8323C6.53542 12.8531 6.63229 12.9271 6.71667 12.9948C6.80208 13.0635 6.96146 13.1781 7.07083 13.25C7.32917 13.4198 7.33958 13.4271 7.44375 13.4792C7.49167 13.5042 7.54687 13.5333 7.56458 13.5437C7.60937 13.5698 7.93646 13.7219 8.00417 13.749C8.03437 13.7604 8.0875 13.7833 8.12187 13.801C8.15625 13.8177 8.19792 13.8312 8.21562 13.8312C8.23333 13.8312 8.26458 13.8406 8.28542 13.851C8.30625 13.8625 8.38229 13.8885 8.45521 13.9094C8.52812 13.9302 8.61042 13.9562 8.6375 13.9667C8.66562 13.9771 8.71354 13.9854 8.74375 13.9854C8.77396 13.9854 8.81562 13.9948 8.83646 14.0052C8.85625 14.0156 8.92604 14.0302 8.98958 14.0375C9.05417 14.0448 9.11771 14.0573 9.13125 14.0656C9.14479 14.074 9.26562 14.0885 9.4 14.0979C9.53333 14.1062 9.65937 14.1177 9.68021 14.1208C9.7 14.125 9.71771 14.1208 9.71875 14.1115C9.71875 14.1031 9.71979 13.9281 9.71979 13.725V13.3542L9.58229 13.3385C9.1625 13.2917 8.88125 13.2427 8.84896 13.2104C8.84062 13.201 8.79583 13.1937 8.75 13.1937C8.70417 13.1937 8.66042 13.1844 8.65312 13.1719C8.64583 13.1594 8.61771 13.15 8.59062 13.15C8.5625 13.15 8.52187 13.1354 8.49792 13.1177C8.475 13.1 8.4375 13.0854 8.41667 13.0844C8.39479 13.0844 8.36042 13.075 8.33958 13.0646C8.31875 13.0552 8.26667 13.0312 8.22396 13.0125C8.04167 12.9333 7.78646 12.8042 7.675 12.7344C7.53958 12.65 7.25521 12.4437 7.19375 12.3854C7.17187 12.3646 7.11771 12.3135 7.07396 12.2719L6.99375 12.1969L6.71875 12.4687ZM10.0156 12.75C10.0198 12.924 10.0302 13.0708 10.0365 13.0781C10.0427 13.0844 10.076 13.0792 10.1094 13.0656C10.175 13.0396 10.325 13.0219 10.4948 13.0198C10.5729 13.0187 10.599 13.0094 10.599 12.9844C10.599 12.9656 10.5823 12.9448 10.5604 12.9385C10.4646 12.9073 10.4135 12.8698 10.3656 12.7927C10.3052 12.6979 10.3 12.6198 10.3469 12.5479C10.3948 12.475 10.3573 12.4531 10.1656 12.4427L10.0062 12.4333L10.0156 12.75ZM14.0646 13.0292C14.0323 13.0594 14 13.0833 13.9927 13.0833C13.9604 13.0833 13.4937 13.5083 13.1062 13.8885C12.8281 14.1625 12.6208 14.3458 12.5177 14.4115C12.4302 14.4677 12.349 14.5135 12.3385 14.5135C12.3271 14.5135 12.2896 14.5271 12.2562 14.5437C12.1417 14.601 11.9531 14.6677 11.8531 14.6865C11.8062 14.6948 11.776 14.7135 11.776 14.7333C11.776 14.7573 11.8219 14.774 11.9406 14.7948C12.2073 14.8406 12.2958 14.8583 12.4354 14.8969C12.5802 14.9375 12.7125 14.9677 12.8646 14.9948C12.9187 15.0052 13.0073 15.024 13.0625 15.0365C13.375 15.1115 13.7771 15.1271 14.0521 15.074C14.275 15.0312 14.4469 14.9792 14.5646 14.9187C14.599 14.901 14.6354 14.8875 14.6469 14.8875C14.6573 14.8875 14.7208 14.8521 14.7865 14.8104C14.8531 14.7677 14.9177 14.7333 14.9302 14.7333C14.9427 14.7333 14.9531 14.725 14.9531 14.7156C14.9531 14.7062 14.9854 14.6812 15.025 14.6604C15.1323 14.6031 15.5906 14.1531 15.5906 14.1052C15.5906 14.0979 15.6167 14.0594 15.6469 14.0187C15.7146 13.9302 15.6885 13.9 15.6125 13.9792C15.524 14.0719 15.3479 14.1917 15.2062 14.2573C15.1333 14.2906 15.0573 14.3271 15.0365 14.3385C15.0146 14.35 14.974 14.3594 14.9437 14.3594C14.9146 14.3594 14.8833 14.3687 14.876 14.3812C14.8687 14.3937 14.8344 14.4031 14.799 14.4031C14.7646 14.4031 14.7083 14.4135 14.674 14.4271C14.5958 14.4573 14.3375 14.4885 13.9854 14.5115C13.8344 14.5219 13.676 14.5354 13.6344 14.5417C13.5917 14.5479 13.4729 14.5646 13.3698 14.5781C13.1365 14.6094 12.9969 14.6323 12.8406 14.6687C12.7167 14.6969 12.6302 14.6865 12.6552 14.6448C12.6625 14.6333 12.6906 14.6229 12.7177 14.6229C12.8281 14.6229 13.1344 14.4875 13.3021 14.3635C13.4125 14.2823 13.4354 14.2573 13.5594 14.0844C13.6635 13.9375 13.7052 13.8594 13.9208 13.4031C13.9719 13.2937 14.0469 13.1583 14.0875 13.101C14.1687 12.9865 14.1552 12.9448 14.0646 13.0292ZM5.65208 13.0521C5.65208 13.0583 5.68646 13.1146 5.72812 13.1781C5.77083 13.2406 5.80521 13.3042 5.80521 13.3198C5.80521 13.3354 5.81562 13.3479 5.82708 13.3479C5.83958 13.3479 5.85 13.3625 5.85 13.3812C5.85 13.4 5.87396 13.4542 5.90417 13.5021C5.93437 13.55 5.95937 13.599 5.95937 13.6115C5.95937 13.624 5.98229 13.6719 6.00937 13.7167C6.03646 13.7615 6.07396 13.8281 6.09167 13.8646C6.23021 14.1458 6.48333 14.4198 6.70521 14.5271L6.86667 14.6052C6.8875 14.6146 6.92083 14.6229 6.94062 14.6229C6.99583 14.6229 7.19062 14.6969 7.19062 14.7187C7.19062 14.7437 7.04375 14.726 6.85 14.6781C6.68854 14.6385 6.50312 14.6187 5.9375 14.5792C5.75 14.5656 5.56667 14.55 5.53021 14.5437C5.49479 14.5375 5.39062 14.5229 5.3 14.5125C5.03333 14.4812 4.9625 14.4677 4.88958 14.4344C4.85208 14.4177 4.80937 14.4031 4.79583 14.4031C4.78229 14.4031 4.75417 14.3948 4.73333 14.3833C4.7125 14.3729 4.61979 14.3281 4.52917 14.2844C4.4375 14.2396 4.30937 14.1552 4.24375 14.0948C4.17917 14.0354 4.12083 13.9917 4.11562 13.9969C4.09479 14.0177 4.28854 14.2698 4.46458 14.449C4.6875 14.675 4.96042 14.8594 5.24479 14.975C5.28125 14.9896 5.32812 15.0104 5.34896 15.0208C5.48437 15.0906 5.98333 15.1583 6.22292 15.1406C6.55 15.1177 6.96667 15.0594 7.0125 15.0312C7.03229 15.0187 7.10104 15.0031 7.33437 14.9542C7.38229 14.9437 7.45104 14.926 7.4875 14.9135C7.6375 14.8625 7.71354 14.8427 7.76875 14.8427C7.8 14.8427 7.83229 14.8333 7.83958 14.8208C7.84687 14.8094 7.90625 14.799 7.97083 14.799C8.03542 14.799 8.10417 14.7927 8.12396 14.7854C8.175 14.7656 8.14271 14.7333 8.07187 14.7333C8.01562 14.7333 7.72917 14.65 7.61979 14.6031C7.21979 14.4292 7.16146 14.3844 6.50937 13.7573C6.33437 13.5885 6.09167 13.3719 5.97083 13.2771C5.85 13.1812 5.73333 13.0885 5.71146 13.0719C5.67083 13.0385 5.65208 13.0323 5.65208 13.0521ZM8.87292 14.7573C8.78854 14.7687 8.675 14.7896 8.61979 14.8021C8.44062 14.8458 8.34583 14.8677 8.27917 14.8802C8.24271 14.8865 8.20312 14.901 8.19062 14.9104C8.17812 14.9198 8.11875 14.9437 8.05937 14.9635C7.99896 14.9833 7.925 15.0094 7.89479 15.0219C7.78958 15.0667 7.68437 15.1125 7.58021 15.1594C7.51042 15.1906 7.43854 15.2167 7.42083 15.2167C7.40312 15.2167 7.38854 15.2271 7.38854 15.2385C7.38854 15.251 7.37604 15.2604 7.36042 15.2604C7.34375 15.2604 7.28021 15.2854 7.21667 15.3156C7.15417 15.3458 7.09271 15.3708 7.08125 15.3708C7.06875 15.3708 7.04167 15.3792 7.01979 15.3906C6.83437 15.4854 6.10729 15.525 5.92812 15.45C5.88229 15.4302 5.82083 15.4146 5.79271 15.4146C5.76562 15.4146 5.73646 15.4052 5.72812 15.3927C5.72083 15.3802 5.69479 15.3708 5.66979 15.3708C5.64479 15.3708 5.56146 15.3365 5.48437 15.2948C5.40729 15.2531 5.34375 15.226 5.34375 15.2344C5.34479 15.2542 5.50104 15.4021 5.62396 15.5C5.72813 15.5833 5.81458 15.6354 5.95937 15.7021C6.01354 15.7271 6.07292 15.7573 6.09167 15.7687C6.10937 15.7802 6.13958 15.7948 6.15729 15.8021C6.17604 15.8083 6.21042 15.8229 6.23437 15.8323C6.39479 15.8958 6.81562 15.9708 6.94062 15.9583C7.13333 15.9396 7.37708 15.8969 7.41562 15.875C7.4375 15.8635 7.47917 15.8542 7.50937 15.8542C7.54062 15.8542 7.58229 15.8448 7.60312 15.8333C7.625 15.8219 7.68125 15.7969 7.72917 15.7771C7.90937 15.7031 8.33958 15.4521 8.45625 15.3531C8.46875 15.3427 8.50833 15.3156 8.54375 15.2927C8.58021 15.2687 8.62917 15.2323 8.65312 15.2104C8.67708 15.1885 8.72187 15.1583 8.75208 15.1427C8.82708 15.1052 8.91042 15.0573 8.95 15.0281C9.00417 14.9896 9.28021 14.9229 9.35729 14.9302C9.475 14.9406 9.56562 14.9615 9.56562 14.9781C9.56562 14.9896 9.53229 15.0135 9.49062 15.0302C9.44896 15.0479 9.40833 15.0719 9.40104 15.0844C9.39375 15.0969 9.36771 15.1073 9.34479 15.1073C9.32083 15.1073 9.30208 15.1167 9.30208 15.1292C9.30208 15.1406 9.29062 15.151 9.27708 15.151C9.24583 15.151 8.83021 15.4135 8.65312 15.5448C8.39375 15.7385 7.96042 16.125 7.96042 16.1635C7.96042 16.1833 8.2375 16.4042 8.26042 16.4031C8.27083 16.4021 8.35521 16.3094 8.44792 16.1969C8.60104 16.0115 8.93333 15.7021 9.15937 15.5354C9.20729 15.499 9.26562 15.4521 9.28958 15.4312C9.3125 15.4104 9.33958 15.3927 9.34896 15.3927C9.35729 15.3927 9.37812 15.3802 9.39375 15.3656C9.4375 15.324 9.65417 15.1885 9.74167 15.149C9.7875 15.1271 9.83229 15.1062 9.87812 15.0844C9.93229 15.0594 9.94896 15.0635 10.0719 15.1365C10.1458 15.1812 10.2115 15.2167 10.2177 15.2167C10.2292 15.2167 10.5927 15.4781 10.7698 15.6135C10.8333 15.6625 11.0417 15.8552 11.2323 16.0417C11.4219 16.2292 11.5875 16.3812 11.6 16.3823C11.6312 16.3823 11.875 16.1615 11.875 16.1333C11.875 16.1198 11.8281 16.0656 11.7698 16.0125C11.574 15.8312 10.9792 15.3708 10.9406 15.3708C10.9323 15.3708 10.8937 15.349 10.8552 15.3208C10.7635 15.2552 10.6677 15.199 10.5937 15.1677C10.5604 15.1531 10.5333 15.1333 10.5333 15.124C10.5333 15.1146 10.5198 15.1073 10.5031 15.1073C10.4604 15.1073 10.2698 14.9979 10.2698 14.9729C10.2698 14.9458 10.7427 14.9479 10.7979 14.975C10.825 14.9885 10.8521 15.0021 10.8792 15.0146C10.9823 15.0635 11.0917 15.1333 11.3292 15.299C11.4708 15.399 11.5958 15.4802 11.6073 15.4802C11.6177 15.4802 11.6375 15.4927 11.651 15.5083C11.6729 15.5344 11.9667 15.6885 12.0667 15.726C12.0948 15.7365 12.1385 15.7542 12.1656 15.7656C12.4177 15.8719 13.0042 15.9312 13.2604 15.8771C13.4062 15.8458 13.6104 15.7875 13.6562 15.7646C13.674 15.7562 13.724 15.7323 13.7656 15.7135C13.8792 15.6615 14.0052 15.5885 14.124 15.5062C14.2531 15.4167 14.4802 15.1979 14.4615 15.1802C14.4542 15.1729 14.4365 15.1771 14.4208 15.1896C14.3573 15.2406 14.1833 15.3271 14.1427 15.3271C14.1177 15.3271 14.0927 15.3354 14.0865 15.3469C14.074 15.3656 14.0437 15.3729 13.7656 15.4177C13.5312 15.4562 13.0135 15.4385 12.9646 15.3906C12.9531 15.3802 12.9167 15.3708 12.8833 15.3708C12.851 15.3708 12.7958 15.3573 12.7615 15.3396C12.7 15.3094 12.6083 15.2698 12.5229 15.2385C12.375 15.1833 12.2771 15.1437 12.2437 15.1271C12.2219 15.1156 12.1948 15.1073 12.1823 15.1073C12.1698 15.1073 12.1208 15.0823 12.0729 15.0521C12.025 15.0219 11.9719 14.9969 11.9562 14.9969C11.9396 14.9969 11.876 14.9719 11.8125 14.9417C11.75 14.9115 11.6875 14.8875 11.6729 14.8875C11.6583 14.8875 11.6167 14.8781 11.5792 14.8667C11.2281 14.7635 11.099 14.7448 10.7198 14.7458C10.3323 14.7469 10.1896 14.7687 9.98646 14.8615C9.92813 14.8875 9.90417 14.8885 9.87187 14.8687C9.84896 14.8542 9.8125 14.8427 9.79062 14.8427C9.76875 14.8427 9.73229 14.8292 9.70833 14.8135C9.63437 14.7615 9.10417 14.7271 8.87292 14.7573ZM0.028125 20.3365C0.00625007 20.35 0.00104147 21.3229 0.00625 25.124L0.0114583 29.8948L4.81042 29.9L9.60937 29.9062L9.59896 20.3292L4.82708 20.324C2.20208 20.3219 0.0427082 20.3271 0.028125 20.3365ZM10.1698 20.3458C10.1635 20.3615 10.1615 22.5156 10.1646 25.1344L10.1708 29.8948L14.9406 29.9C17.5646 29.9031 19.7198 29.8979 19.7292 29.8885C19.7437 29.874 19.75 26.1885 19.7469 20.3677V20.3187H14.9635C11.1573 20.3187 10.1781 20.324 10.1698 20.3458ZM3.93646 21.8833C3.82187 21.8937 3.65312 21.9125 3.5625 21.926C3.47187 21.9396 3.33854 21.9552 3.26562 21.9615C3.19271 21.9667 3.12187 21.9823 3.10625 21.9948C3.08437 22.0125 3.07917 22.6719 3.07917 25.1594V28.3021L3.88125 28.2896L3.8875 27.0167L3.89271 25.7437L4.06354 25.7635C4.44479 25.8073 5.04896 25.776 5.36562 25.6958C5.44479 25.676 5.53333 25.6542 5.56354 25.6479C5.59375 25.6417 5.67083 25.6125 5.73437 25.5833C5.79896 25.5542 5.8625 25.5292 5.87812 25.5281C5.89271 25.5271 5.93437 25.5073 5.97083 25.4844C6.00729 25.4615 6.05104 25.4354 6.06979 25.4281C6.14167 25.3958 6.32917 25.2521 6.45104 25.1365C6.60729 24.9865 6.8 24.7021 6.85104 24.5458C6.87187 24.4823 6.89687 24.424 6.90729 24.4177C6.91875 24.4115 6.92708 24.3687 6.92708 24.324C6.92708 24.2781 6.93854 24.2302 6.95208 24.2167C6.98646 24.1812 6.9875 23.3167 6.95208 23.2812C6.93854 23.2677 6.92708 23.2323 6.92708 23.2031C6.92708 23.1552 6.89062 23.0521 6.8375 22.9521C6.82604 22.9312 6.81667 22.9031 6.81667 22.8896C6.81667 22.8771 6.79271 22.8344 6.7625 22.7937C6.73229 22.7542 6.70729 22.7115 6.70729 22.7C6.70729 22.6635 6.37292 22.3333 6.26458 22.2625C6.11146 22.1615 6.08229 22.1437 6.04792 22.1302C5.94792 22.0917 5.89792 22.0708 5.84271 22.0427C5.80833 22.026 5.75625 22.0115 5.72812 22.0115C5.7 22.0115 5.67083 22.0031 5.66458 21.9917C5.65729 21.9812 5.61458 21.9667 5.56979 21.9604C5.52396 21.9542 5.42292 21.9375 5.34375 21.924C5.26562 21.9115 5.14062 21.8906 5.06667 21.8792C4.90729 21.8542 4.23333 21.8562 3.93646 21.8833ZM12.5885 21.9729C12.5823 21.9885 12.5802 23.4156 12.5833 25.1448L12.5896 28.2896L13.3521 28.3021L13.3385 26.0635C13.3312 24.8333 13.3198 23.6302 13.3135 23.3917C13.3042 23.0885 13.3073 22.9573 13.324 22.9573C13.3375 22.9573 13.3479 22.9687 13.3479 22.9823C13.3479 23.0125 13.6229 23.5667 13.7323 23.7594C13.774 23.8323 13.8281 23.9312 13.8542 23.9802C13.8792 24.0281 13.9292 24.1167 13.9646 24.1771C14 24.2385 14.0354 24.3021 14.0448 24.3208C14.0573 24.349 14.2896 24.7271 14.376 24.8604C14.3906 24.8844 14.4187 24.9323 14.4396 24.9687C14.4594 25.0042 14.5927 25.2198 14.7365 25.4479C14.8802 25.675 14.9969 25.8708 14.9969 25.8812C14.9969 25.8917 15.0052 25.9031 15.0146 25.9073C15.0292 25.9135 15.5562 26.7385 15.6229 26.8604C15.6365 26.8844 15.6927 26.975 15.749 27.0604C15.8042 27.1458 15.8667 27.2448 15.8854 27.2802C15.9375 27.374 15.9677 27.4198 16.0469 27.5344C16.0865 27.5896 16.1187 27.6437 16.1187 27.6531C16.1187 27.6625 16.1437 27.7021 16.174 27.7417C16.2042 27.7812 16.2281 27.8198 16.2281 27.8271C16.2281 27.8333 16.2854 27.926 16.3552 28.0312C16.424 28.1375 16.4885 28.2406 16.4969 28.2625C16.5115 28.2969 16.5542 28.301 16.9312 28.301H17.35V21.9448L16.9708 21.951L16.5917 21.9562L16.5854 23.0781C16.5771 24.6552 16.6302 26.9542 16.6792 27.1406C16.6958 27.2 16.6792 27.2156 16.6344 27.1844C16.6219 27.175 16.5979 27.126 16.5812 27.074C16.5646 27.0229 16.5385 26.9698 16.5219 26.9562C16.5062 26.9427 16.4927 26.9198 16.4927 26.9052C16.4927 26.8792 16.3437 26.5823 16.2104 26.3437C16.1729 26.2771 16.1229 26.1833 16.0979 26.1344C16.0729 26.0865 16.024 25.9969 15.9875 25.9365C15.951 25.876 15.9146 25.8115 15.9062 25.7937C15.8969 25.776 15.8229 25.6542 15.7406 25.524C15.6583 25.3927 15.5906 25.2802 15.5906 25.2729C15.5906 25.2656 15.5667 25.2271 15.5365 25.1875C15.5062 25.1479 15.4812 25.1083 15.4812 25.099C15.4812 25.0906 15.4562 25.051 15.426 25.0115C15.3958 24.9719 15.3708 24.9323 15.3708 24.924C15.3708 24.9156 15.3365 24.8604 15.2937 24.801C15.2521 24.7427 15.2167 24.6875 15.2167 24.6802C15.2167 24.6719 15.1927 24.6333 15.1625 24.5937C15.1323 24.5542 15.1073 24.5156 15.1073 24.5083C15.1073 24.4885 14.9885 24.3104 14.9698 24.3021C14.9604 24.2979 14.9531 24.2844 14.9531 24.2708C14.9531 24.2583 14.9281 24.2156 14.8979 24.176C14.8677 24.1365 14.8437 24.0969 14.8437 24.0896C14.8437 24.0823 14.8187 24.0437 14.7885 24.0031C14.7583 23.9635 14.7333 23.9198 14.7333 23.9062C14.7333 23.8917 14.724 23.8812 14.7115 23.8812C14.699 23.8812 14.6896 23.8698 14.6896 23.8552C14.6896 23.8417 14.6646 23.7979 14.6344 23.7583C14.6042 23.7177 14.5792 23.6781 14.5792 23.6698C14.5792 23.6615 14.5542 23.6219 14.524 23.5823C14.4937 23.5427 14.4698 23.5042 14.4698 23.4969C14.4698 23.4771 14.351 23.299 14.3323 23.2906C14.3229 23.2865 14.3156 23.2729 14.3156 23.2594C14.3156 23.2469 14.2906 23.2042 14.2604 23.1646C14.2302 23.124 14.2052 23.0854 14.2052 23.0781C14.2052 23.0708 14.1812 23.0312 14.151 22.9917C14.1208 22.9521 14.0958 22.9125 14.0958 22.9031C14.0958 22.8937 14.0615 22.8375 14.0187 22.7781C13.976 22.7198 13.9417 22.6656 13.9417 22.6583C13.9417 22.651 13.9198 22.6146 13.8927 22.576C13.8354 22.4969 13.8052 22.4479 13.7521 22.3469C13.7312 22.3073 13.7052 22.275 13.6958 22.275C13.6854 22.275 13.6781 22.2646 13.6781 22.2521C13.6781 22.2396 13.6531 22.1958 13.6229 22.1562C13.5927 22.1167 13.5677 22.075 13.5667 22.0646C13.5667 22.0531 13.5479 22.0219 13.525 21.9948C13.4844 21.9469 13.4729 21.9458 13.0417 21.9458C12.7073 21.9458 12.5969 21.9521 12.5885 21.9729ZM4.1125 22.5833C4.08229 22.5927 4.01979 22.6021 3.975 22.6031L3.89167 22.6052L3.89792 23.85L3.90312 25.0937L3.99167 25.125C4.09375 25.1604 4.91042 25.1698 5.02292 25.1365L5.22292 25.0771C5.29583 25.0562 5.36458 25.0302 5.37604 25.0198C5.3875 25.0104 5.40937 25.0021 5.42604 25.0021C5.48333 25.0021 5.74062 24.8208 5.84583 24.7052C5.96771 24.5719 6.11354 24.3042 6.11354 24.2135C6.11354 24.1802 6.125 24.1417 6.13854 24.1281C6.15521 24.1115 6.16563 24.0115 6.16667 23.8542C6.16875 23.5375 6.12604 23.3677 5.98021 23.1115C5.88958 22.9531 5.51146 22.6708 5.38958 22.6708C5.36979 22.6708 5.33437 22.6573 5.31042 22.6406C5.28646 22.624 5.22187 22.6031 5.16771 22.5948C5.02396 22.5708 4.17708 22.5615 4.1125 22.5833ZM0.028125 30.426C0.00625007 30.4354 0 31.4135 0 35.2177V39.999H9.60937L9.60417 35.2104L9.59896 30.4229L4.82708 30.4187C2.20208 30.4167 0.0427082 30.4198 0.028125 30.426ZM10.174 30.426C10.1656 30.4344 10.1594 32.5917 10.1594 35.2198V39.999H19.7469L19.7521 35.2333C19.7552 32.5448 19.75 30.4542 19.7385 30.4396C19.724 30.4177 18.7417 30.4115 14.9542 30.4115C12.3333 30.4115 10.1823 30.4188 10.174 30.426ZM13.6562 31.9646C13.1719 31.999 12.8021 32.0323 12.6667 32.0552L12.5677 32.0719L12.5615 35.2073L12.5562 38.3438L12.7646 38.3583C12.8792 38.3656 12.9958 38.3813 13.024 38.3917C13.0927 38.4177 14.6073 38.4188 14.6844 38.3927C14.7167 38.3823 14.8281 38.3625 14.9312 38.351C15.251 38.3135 15.5042 38.2625 15.5958 38.2156C15.6167 38.2052 15.6583 38.1958 15.6885 38.1958C15.7177 38.1958 15.7479 38.1865 15.7552 38.176C15.7615 38.1646 15.799 38.1479 15.8375 38.1396C15.8771 38.1313 15.924 38.1167 15.9417 38.1073C15.9604 38.0979 16.0594 38.05 16.1625 38C16.3604 37.9052 16.5177 37.8198 16.5365 37.799C16.5427 37.7917 16.6021 37.7458 16.6687 37.6969C16.8479 37.5646 17.1771 37.2062 17.2708 37.0417C17.2917 37.0052 17.3365 36.926 17.3719 36.8656C17.474 36.6885 17.5458 36.5312 17.5927 36.3823C17.6073 36.3333 17.6271 36.274 17.6365 36.25C17.7594 35.9104 17.8552 35.049 17.8042 34.7323C17.7958 34.6844 17.7802 34.5656 17.7687 34.4688C17.7281 34.1365 17.7208 34.0948 17.6896 34.026C17.6719 33.9875 17.6583 33.9406 17.6583 33.9219C17.6583 33.9031 17.6469 33.8604 17.6333 33.8271L17.5906 33.7208C17.4333 33.3292 17.2615 33.074 16.951 32.7729C16.7635 32.5917 16.4937 32.3906 16.4365 32.3906C16.4187 32.3906 16.4042 32.3833 16.4042 32.374C16.4042 32.3646 16.3771 32.3448 16.3437 32.3312C16.3104 32.3167 16.2198 32.2771 16.1406 32.2427C16.0625 32.2083 15.9583 32.1688 15.9094 32.1552C15.8615 32.1417 15.7687 32.1146 15.7042 32.0958C15.6385 32.076 15.5646 32.0604 15.5375 32.0604C15.5115 32.0604 15.4802 32.0521 15.4687 32.0406C15.4573 32.0302 15.3937 32.0156 15.3271 32.0104C15.2604 32.0042 15.0375 31.9844 14.8323 31.9646C14.3979 31.925 14.2125 31.925 13.6562 31.9646ZM2.47812 32.0312C2.46979 32.0396 2.46354 32.9479 2.46354 34.049C2.46354 35.7354 2.46979 36.0958 2.49896 36.3271C2.51771 36.4781 2.53854 36.6458 2.54375 36.701C2.55 36.7552 2.56458 36.8094 2.575 36.8208C2.58646 36.8323 2.59479 36.8667 2.59479 36.8979C2.59583 36.9281 2.61042 36.9823 2.62812 37.0167C2.64583 37.051 2.66146 37.0938 2.66146 37.1104C2.66146 37.1271 2.66979 37.1583 2.68021 37.1792C2.69062 37.2 2.72708 37.2771 2.76146 37.349C2.86562 37.5687 2.99688 37.7594 3.14792 37.9104C3.31042 38.0719 3.37812 38.1302 3.40625 38.1302C3.41667 38.1302 3.43646 38.1427 3.45 38.1594C3.47187 38.1854 3.66354 38.2854 3.77187 38.3271C3.79583 38.3365 3.84479 38.3573 3.88125 38.3719C4.21146 38.5115 4.97708 38.5323 5.50833 38.4167C5.56771 38.4042 5.62708 38.3833 5.63854 38.3719C5.65104 38.3594 5.67604 38.35 5.69583 38.35C5.71562 38.35 5.78229 38.325 5.84583 38.2948C5.90833 38.2646 5.96458 38.2396 5.97187 38.2396C5.97917 38.2396 6.05521 38.1948 6.14062 38.1396C6.33646 38.0125 6.52917 37.8292 6.64792 37.6573C6.77292 37.4771 6.78333 37.4583 6.86146 37.2948C6.89896 37.2156 6.93854 37.1344 6.95 37.1135C6.96146 37.0927 6.97083 37.0563 6.97083 37.0323C6.97083 37.0083 6.98021 36.9833 6.99062 36.9771C7.00208 36.9698 7.01771 36.9219 7.02708 36.8708C7.03542 36.8198 7.05 36.7677 7.05937 36.7552C7.06875 36.7437 7.08125 36.6896 7.0875 36.6344C7.09375 36.5802 7.11042 36.4521 7.12292 36.349C7.1375 36.2292 7.14687 35.4198 7.14687 34.0948L7.14792 32.0281L6.33333 32.0156L6.33125 34.1C6.32917 35.2458 6.325 36.2188 6.31979 36.2604C6.31562 36.3031 6.30104 36.3667 6.28958 36.4021C6.27708 36.4365 6.26771 36.4979 6.26771 36.5375C6.26771 36.5771 6.25729 36.6167 6.24583 36.624C6.23333 36.6313 6.22292 36.6667 6.22292 36.7021C6.22292 36.7375 6.21458 36.7844 6.20417 36.8052C6.19479 36.826 6.17083 36.8781 6.15312 36.9208C6.08229 37.0844 6.05729 37.1312 6.00937 37.1979C5.98229 37.2354 5.95937 37.275 5.95937 37.2865C5.95937 37.3229 5.70937 37.5521 5.58542 37.6292C5.51875 37.6708 5.37604 37.7323 5.26667 37.7667C5.09479 37.8208 5.03333 37.8292 4.79375 37.8292C4.53021 37.8302 4.38333 37.8042 4.23958 37.7313C4.21771 37.7208 4.19062 37.7125 4.17708 37.7125C4.10312 37.7125 3.80729 37.4698 3.68437 37.3083C3.6125 37.2125 3.45312 36.899 3.45312 36.8521C3.45312 36.8302 3.44375 36.8073 3.43333 36.801C3.42188 36.7948 3.40833 36.7573 3.40208 36.7177C3.39583 36.6781 3.37083 36.5521 3.34479 36.4365C3.3 36.2333 3.29896 36.176 3.29896 34.1219V32.0167H2.89583C2.67396 32.0167 2.48542 32.024 2.47812 32.0312ZM14.2115 32.5917C14.2021 32.601 14.0656 32.6125 13.9083 32.6188C13.751 32.624 13.576 32.6354 13.5187 32.6437L13.4135 32.6594V35.1865C13.4135 37.5729 13.4156 37.7146 13.4521 37.7292C13.5156 37.7552 14.6406 37.7469 14.8323 37.7188C15.0323 37.6896 15.2271 37.6427 15.2521 37.6188C15.2615 37.6094 15.2917 37.6021 15.3198 37.6021C15.3479 37.6021 15.3885 37.5938 15.4094 37.5833C15.4312 37.5719 15.5542 37.5115 15.6844 37.4479C15.8365 37.3729 15.9792 37.2833 16.0812 37.1958C16.2417 37.0594 16.4917 36.7896 16.4927 36.7531C16.4937 36.7427 16.5135 36.7094 16.5375 36.6792C16.5958 36.6042 16.7562 36.2667 16.7562 36.2156C16.7562 36.1938 16.7667 36.1698 16.7781 36.1615C16.7906 36.1542 16.8 36.1208 16.8 36.0885C16.8 36.0552 16.8104 36.0177 16.8229 36.0052C16.8771 35.951 16.9312 35.475 16.9312 35.051C16.9312 34.6552 16.8833 34.2385 16.8271 34.1344C16.8125 34.1083 16.8 34.0667 16.8 34.0417C16.8 34.0167 16.7906 33.9958 16.7781 33.9958C16.7667 33.9958 16.7562 33.9771 16.7562 33.9531C16.7562 33.9073 16.6198 33.6344 16.5687 33.5771C16.551 33.5573 16.5365 33.5312 16.5365 33.5177C16.5365 33.5042 16.45 33.4042 16.3437 33.2958C16.1583 33.1052 15.9219 32.9365 15.7115 32.8448C15.6635 32.824 15.6062 32.7969 15.5854 32.7854C15.5646 32.774 15.5281 32.7646 15.5042 32.7646C15.4812 32.7646 15.4552 32.7542 15.4479 32.7427C15.4406 32.7302 15.4094 32.7208 15.3792 32.7208C15.349 32.7208 15.3042 32.7104 15.2802 32.6969C15.2115 32.6604 15.0312 32.6323 14.7333 32.6115C14.6031 32.6031 14.4729 32.5938 14.3427 32.5844C14.2792 32.5792 14.2198 32.5823 14.2115 32.5917Z" fill="white"/>
</g>
</svg>
