<svg width="96" height="40" viewBox="0 0 96 40" fill="none" xmlns="http://www.w3.org/2000/svg">
<mask id="mask0_39932_370" style="mask-type:luminance" maskUnits="userSpaceOnUse" x="0" y="0" width="96" height="40">
<path d="M0 0H95.2381V40H0V0Z" fill="white"/>
</mask>
<g mask="url(#mask0_39932_370)">
<path fill-rule="evenodd" clip-rule="evenodd" d="M43.429 4.15675V8.31597H35.0485V16.7584H43.429V25.1389H51.8095V16.7584H60.1899V8.31597H51.8095V0H43.429V4.15675ZM35.6438 30.749C35.304 31.0417 35.4578 31.56 35.9116 31.6518C36.1944 31.7088 36.5094 31.4335 36.5094 31.131C36.5094 30.6672 36.0009 30.4415 35.6438 30.749ZM57.7767 30.8284C57.551 30.9226 57.3228 31.0169 57.0947 31.1086C57.0054 31.1458 56.9682 31.2004 56.9905 31.2649C57.0203 31.3368 57.0872 31.3517 57.2683 31.3219C57.7222 31.25 57.7122 31.1979 57.7122 34.3874C57.7122 36.3988 57.6924 37.2421 57.6403 37.3586C57.5709 37.5124 57.4989 37.5471 57.174 37.5967C57.1046 37.6067 57.0475 37.6587 57.0475 37.7108C57.0475 37.7902 57.2212 37.8051 58.1884 37.8051C59.1582 37.8051 59.3318 37.7902 59.3318 37.7108C59.3318 37.6513 59.245 37.6017 59.0887 37.5769C58.6076 37.5 58.6348 37.7207 58.6175 33.9608L58.6001 30.6002L58.4588 30.6027C58.3794 30.6027 58.0743 30.7069 57.7767 30.8284ZM73.4265 30.878C72.6899 31.1905 72.5461 31.3715 73.052 31.3442C73.3199 31.3319 73.3645 31.3492 73.4364 31.4881C73.5009 31.6121 73.5208 32.2942 73.5208 34.5139V37.381L73.8209 37.5496C74.3169 37.8249 74.7187 37.9316 75.2668 37.9316C75.7008 37.9316 75.8298 37.9043 76.1572 37.7455C77.2088 37.2297 77.7792 36.0739 77.5857 34.8413C77.4593 34.0179 77.1071 33.4821 76.4895 33.1746C75.8844 32.8745 75.2841 33.006 74.7112 33.569L74.4111 33.8641V30.6002L74.235 30.6052C74.1408 30.6052 73.7762 30.7292 73.4265 30.878ZM79.183 30.7019C78.9647 30.8532 78.9027 31.0739 79.0069 31.3244C79.1656 31.7014 79.6591 31.7535 79.8948 31.4137C80.2271 30.94 79.6567 30.3695 79.183 30.7019ZM2.40222 30.9449C0.951327 31.4484 0.00390625 32.8522 0.00390625 34.499C0.00390625 35.3522 0.274244 36.1483 0.780196 36.7882C1.4176 37.5992 2.21125 37.9613 3.33724 37.9613C3.992 37.9613 4.42355 37.8646 4.89478 37.6091C5.2296 37.4256 5.90916 36.746 6.11998 36.3839C6.22662 36.1979 6.22662 36.183 6.12494 36.1434C6.04557 36.1136 5.96125 36.1706 5.82236 36.3492C5.51234 36.751 5.09319 37.123 4.78813 37.2693C4.23506 37.5372 3.24051 37.5372 2.63535 37.2693C2.29309 37.1181 1.82186 36.6865 1.61849 36.3442C1.0927 35.4415 1.07533 33.5094 1.58873 32.4727C1.86651 31.9097 2.11452 31.6468 2.59071 31.4137C2.91065 31.255 3.1165 31.2004 3.45381 31.1806C4.53516 31.1186 5.36601 31.7163 5.76779 32.8373C5.82732 33.0035 5.9166 33.1399 5.96373 33.1399C6.03813 33.1399 6.04557 33.0184 6.01085 32.4554C5.9166 30.9102 5.90172 30.7887 5.78268 30.7887C5.71819 30.7887 5.63635 30.8705 5.5917 30.9821C5.48258 31.2426 5.2792 31.2798 4.90966 31.1062C4.38635 30.8606 4.05648 30.7912 3.43397 30.7937C2.97018 30.7961 2.7296 30.8309 2.40222 30.9449ZM47.3625 30.935C46.7822 31.1334 46.2638 31.4608 45.8968 31.8601C45.557 32.2297 45.1279 33.0481 45.0138 33.5516C44.9171 33.9658 44.9171 34.9901 45.0113 35.3919C45.1477 35.9648 45.5049 36.6096 45.924 37.0387C46.6011 37.7257 47.3352 37.996 48.4116 37.9489C49.488 37.9018 50.1775 37.5422 50.7976 36.7039C51.1423 36.2376 51.1547 36.2004 51.0108 36.1434C50.9488 36.121 50.8744 36.1632 50.8075 36.2574C50.5743 36.5947 50.0783 37.0635 49.7881 37.2222C48.9275 37.691 47.5957 37.5 46.9062 36.808C46.2589 36.1632 45.9761 34.938 46.177 33.6458C46.3382 32.6141 46.6408 32.0189 47.2286 31.5699C48.0198 30.9673 49.3566 31.0665 50.051 31.7808C50.2594 31.9916 50.6388 32.6687 50.7529 33.0283C50.7727 33.0878 50.8348 33.1399 50.8918 33.1399C50.9786 33.1399 50.9885 33.0828 50.9513 32.7331C50.9265 32.5099 50.8893 31.9891 50.867 31.5749C50.8323 30.9425 50.8075 30.8209 50.7182 30.8036C50.6562 30.7912 50.5793 30.8507 50.5297 30.9549C50.3982 31.2202 50.2618 31.2798 50.0163 31.1756C49.2499 30.8581 48.9771 30.7937 48.3819 30.7937C47.923 30.7937 47.6775 30.8284 47.3625 30.935ZM22.5411 31.0392C22.5411 31.1558 22.5808 31.1706 22.8635 31.1706C23.119 31.1706 23.2157 31.2029 23.3397 31.3269L23.4935 31.4831V34.3378C23.4935 35.9077 23.4761 37.2371 23.4563 37.2942C23.3968 37.4479 23.0892 37.5819 22.799 37.5819C22.5857 37.5819 22.5411 37.6042 22.5411 37.7108C22.5411 37.8323 22.5857 37.8373 24.0342 37.8373C25.4851 37.8373 25.5272 37.8323 25.5272 37.7108C25.5272 37.5992 25.4851 37.5819 25.2048 37.5819C24.9493 37.5819 24.8551 37.5521 24.7286 37.4281C24.5748 37.2718 24.5748 37.2693 24.5748 35.935V34.5982H25.1998L26.3655 36.2029L27.5312 37.8051L28.4662 37.8224C29.3467 37.8398 29.3987 37.8323 29.3987 37.7207C29.3987 37.6265 29.3367 37.5893 29.1383 37.557C28.5084 37.4578 28.176 37.1404 27.0525 35.5853C26.301 34.5412 26.2812 34.5065 26.425 34.4494C26.5069 34.4172 26.7549 34.308 26.9731 34.2039C28.1215 33.6657 28.2703 32.1577 27.2509 31.3815C26.7499 30.997 26.5267 30.9623 24.431 30.9325C22.5485 30.9053 22.5411 30.9053 22.5411 31.0392ZM24.6815 31.4162C24.5773 31.4559 24.5699 31.5724 24.5699 32.8547V34.251L25.0014 34.2336C26.0927 34.189 26.7301 33.6458 26.7301 32.7579C26.7301 32.1652 26.4151 31.6766 25.8943 31.4608C25.6512 31.3591 24.8948 31.3319 24.6815 31.4162ZM7.30549 33.2961C6.57633 33.5962 6.45728 33.7351 6.92107 33.75C7.36998 33.7649 7.36998 33.7599 7.36998 35.6548V37.319L7.20133 37.4504C7.10956 37.5248 6.95331 37.5819 6.85162 37.5819C6.71273 37.5819 6.67057 37.6116 6.67057 37.7108C6.67057 37.8323 6.71273 37.8373 7.87593 37.8373C9.0416 37.8373 9.08377 37.8323 9.08377 37.7108C9.08377 37.6091 9.0416 37.5819 8.87543 37.5819C8.5927 37.5819 8.40172 37.4355 8.32484 37.1528C8.28763 37.0213 8.25787 36.374 8.25787 35.7093C8.25787 34.4122 8.27771 34.3304 8.65718 33.9162C8.82583 33.7326 8.97216 33.7351 9.25986 33.9335C9.55748 34.1344 9.74597 34.132 9.94934 33.9286C10.0709 33.807 10.1056 33.7178 10.0857 33.5789C10.0585 33.4053 10.0709 33.3929 10.2618 33.3929C10.3734 33.3929 10.5347 33.4474 10.6165 33.5144C10.7653 33.6334 10.7653 33.6434 10.8 35.3398C10.8199 36.2773 10.8596 37.1007 10.8893 37.1701C11.0902 37.6389 11.554 37.9638 12.0178 37.9613C12.3898 37.9613 12.7296 37.7927 13.1611 37.3958L13.5282 37.061V37.5124C13.5282 37.939 13.5357 37.9638 13.6696 37.9613C13.9226 37.9564 15.1453 37.4132 15.1676 37.2942C15.1874 37.1999 15.1552 37.19 14.9469 37.2222C14.8129 37.2445 14.6666 37.2396 14.622 37.2123C14.4558 37.1081 14.4161 36.6766 14.4161 34.933V33.1399H13.6225C12.871 33.1399 12.8288 33.1448 12.8288 33.2664C12.8288 33.3631 12.871 33.3929 13.0099 33.3929C13.1115 33.3929 13.2678 33.4524 13.3596 33.5243L13.5282 33.6558V36.6791L13.2827 36.8998C13.1487 37.0213 12.9057 37.1726 12.742 37.2346C12.489 37.3314 12.4047 37.3363 12.1914 37.2718C11.7301 37.1329 11.7227 37.0982 11.6855 35.0149L11.6557 33.1696L10.8695 33.1523C10.3462 33.1399 10.056 33.1597 9.99646 33.2093C9.94934 33.249 9.90966 33.254 9.90966 33.2192C9.90966 33.1374 9.61948 33.0109 9.42603 33.0109C9.12841 33.0109 8.6795 33.3581 8.36204 33.8343C8.26035 33.9881 8.25787 33.9782 8.25787 33.502C8.25787 33.0332 8.25043 33.0109 8.11402 33.0184C8.03714 33.0208 7.67256 33.1473 7.30549 33.2961ZM31.1597 33.1622C30.6661 33.3681 30.3883 33.5938 30.1304 33.9856C29.7782 34.5213 29.6344 35.0471 29.6716 35.6473C29.7137 36.2996 29.7881 36.5327 30.1056 37.0089C30.5545 37.6811 31.2093 38.006 32.0079 37.9489C32.8238 37.8894 33.496 37.4231 33.8481 36.6692C34.3566 35.5853 34.2127 34.4792 33.4612 33.6855C33.0471 33.2465 32.6378 33.063 32.0029 33.0308C31.6061 33.0109 31.4647 33.0332 31.1597 33.1622ZM35.4925 33.2961C34.7683 33.5938 34.6468 33.7351 35.1031 33.75C35.2544 33.7574 35.4106 33.7922 35.4528 33.8343C35.5322 33.9137 35.5967 38.5962 35.5247 39.0947C35.4801 39.3948 35.309 39.6156 35.118 39.6156C35.0535 39.6156 34.8452 39.499 34.6592 39.3576C34.2475 39.0476 33.9647 39.0327 33.7589 39.3105C33.4836 39.6801 33.9151 40.0595 34.6046 40.057C35.5074 40.0546 36.1646 39.4717 36.3754 38.4846C36.4201 38.2664 36.4449 37.2396 36.4449 35.5804V33.0109L36.3035 33.0184C36.2241 33.0208 35.8596 33.1473 35.4925 33.2961ZM38.8655 33.1076C38.2926 33.2961 37.9057 33.7326 37.9057 34.1964C37.9057 34.4097 37.9404 34.4891 38.0743 34.5933C38.2777 34.757 38.4216 34.7594 38.6051 34.6131C38.7142 34.5238 38.7539 34.4023 38.7911 34.0625C38.8457 33.5169 38.9697 33.3929 39.4607 33.3929C40.0262 33.3929 40.2767 33.7078 40.242 34.3725L40.2222 34.7396L39.684 34.9554C38.5927 35.3894 38.0272 35.7713 37.8189 36.2103C37.5907 36.689 37.7668 37.4306 38.176 37.7207C38.4116 37.8894 38.9399 37.9464 39.2623 37.8398C39.3888 37.7976 39.6616 37.6389 39.8675 37.4876C40.0733 37.3363 40.2594 37.2272 40.2817 37.2495C40.3015 37.2693 40.3189 37.3537 40.3189 37.438C40.3189 37.5198 40.3883 37.6587 40.4751 37.7455C40.7678 38.0382 41.2613 37.9092 41.7127 37.4206C41.8541 37.2669 41.9682 37.0833 41.9682 37.0139C41.9682 36.8428 41.8963 36.8502 41.7152 37.0437C41.559 37.2098 41.3109 37.2545 41.2316 37.128C41.2068 37.0883 41.1696 36.3095 41.1497 35.3993C41.1125 33.7798 41.1076 33.7376 40.9588 33.5268C40.7331 33.2118 40.3288 33.0556 39.684 33.0357C39.3417 33.0233 39.0416 33.0506 38.8655 33.1076ZM53.4513 33.1076C52.7866 33.3209 52.2931 33.8194 51.993 34.5833C51.8789 34.871 51.8467 35.0769 51.8467 35.5506C51.8442 36.0987 51.864 36.1954 52.0451 36.5823C52.4369 37.4157 53.0619 37.882 53.8779 37.9489C55.2098 38.0556 56.3159 36.9023 56.3184 35.4018C56.3184 34.0972 55.423 33.0928 54.2028 33.0357C53.9151 33.0208 53.6373 33.0481 53.4513 33.1076ZM61.5143 33.1101C60.862 33.311 60.3536 33.8269 60.0535 34.5833C59.9419 34.8735 59.9121 35.0744 59.9121 35.5506C59.9121 36.0913 59.932 36.2004 60.1081 36.5799C60.4925 37.4107 61.1224 37.882 61.9409 37.9489C63.2876 38.0556 64.3863 36.8948 64.3764 35.3695C64.369 34.2783 63.739 33.3953 62.7643 33.1052C62.3774 32.9886 61.9012 32.9911 61.5143 33.1101ZM65.5222 33.2912C64.7633 33.6062 64.6071 33.7822 65.1105 33.7649C65.304 33.7574 65.4255 33.7822 65.4602 33.8418C65.5619 34.003 65.5967 34.69 65.5768 36.0193C65.5545 37.319 65.552 37.3413 65.4032 37.4603C65.3214 37.5273 65.1725 37.5819 65.0709 37.5819C64.9295 37.5819 64.8873 37.6116 64.8873 37.7108C64.8873 37.8323 64.9295 37.8373 66.0307 37.8373C67.1294 37.8373 67.174 37.8323 67.174 37.7108C67.174 37.6091 67.1294 37.5819 66.9632 37.5819C66.4771 37.5819 66.4201 37.3686 66.4151 35.5432L66.4101 34.2956L66.6458 34.0898C67.1393 33.6558 67.7073 33.5293 68.0297 33.7847C68.3496 34.0352 68.3794 34.2113 68.3794 35.7961C68.3794 37.4479 68.3645 37.5 67.9007 37.5769C67.7321 37.6042 67.6428 37.6538 67.6279 37.7282C67.6081 37.8323 67.6924 37.8373 68.8035 37.8224C69.808 37.8075 69.9989 37.7902 69.9989 37.7108C69.9989 37.6513 69.9096 37.6017 69.7608 37.5769C69.6294 37.557 69.4657 37.4876 69.3963 37.4231C69.2747 37.314 69.2673 37.2297 69.2673 35.7689V34.2287L69.5699 34.0079C69.9865 33.7029 70.3362 33.6037 70.6636 33.7029C71.12 33.8393 71.1373 33.9063 71.1597 35.6796C71.1795 37.128 71.1721 37.252 71.0604 37.3884C70.991 37.4752 70.8422 37.5521 70.6934 37.5769C70.5322 37.6017 70.4429 37.6513 70.4429 37.7108C70.4429 37.7902 70.6165 37.8051 71.5862 37.8051C72.5585 37.8051 72.7271 37.7902 72.7271 37.7108C72.7271 37.6488 72.6552 37.6067 72.5287 37.5942C72.1096 37.5546 72.0972 37.5 72.0599 35.6548C72.0277 34.0724 72.0203 33.9831 71.8764 33.688C71.6805 33.2887 71.3432 33.063 70.8893 33.0258C70.4429 32.9886 69.9865 33.192 69.5351 33.6334L69.2028 33.9583L69.1061 33.7227C68.9697 33.4003 68.7886 33.2242 68.4662 33.1002C67.9305 32.8968 67.3972 33.0655 66.7822 33.6334L66.4101 33.9782V33.4945C66.4101 33.0754 66.3953 33.0134 66.301 33.0134C66.239 33.0159 65.8893 33.1399 65.5222 33.2912ZM78.9821 33.2937C78.5604 33.4697 78.3075 33.6111 78.2926 33.6781C78.2752 33.7624 78.3149 33.7822 78.4836 33.7723C78.6001 33.7674 78.744 33.7649 78.8035 33.7674C79.0044 33.7798 79.0515 34.2064 79.0317 35.8011C79.0143 37.185 79.0019 37.3264 78.8928 37.4504C78.8159 37.5347 78.6944 37.5819 78.558 37.5819C78.3893 37.5819 78.3471 37.6091 78.3471 37.7108C78.3471 37.8323 78.3893 37.8373 79.493 37.8373C80.552 37.8373 80.6388 37.8274 80.619 37.7257C80.6066 37.6563 80.5297 37.6067 80.4082 37.5942C80.304 37.5819 80.1552 37.5124 80.0758 37.4405C79.9344 37.3066 79.9344 37.3041 79.9344 35.1587V33.0109L79.7906 33.0134C79.7112 33.0159 79.3466 33.1424 78.9821 33.2937ZM82.3452 33.1101C81.5614 33.3606 81.1076 34.2014 81.549 34.5809C81.7673 34.7669 81.9335 34.7644 82.1269 34.5709C82.2559 34.442 82.2832 34.3527 82.2832 34.06C82.2832 33.5665 82.4543 33.3929 82.9379 33.3929C83.4935 33.3929 83.677 33.6111 83.7737 34.38L83.8159 34.7024L83.0991 34.9826C81.9583 35.4291 81.3233 35.9152 81.2291 36.4112C81.0753 37.2396 81.554 37.8993 82.3104 37.8993C82.675 37.8993 82.9726 37.7778 83.4042 37.4529C83.5877 37.314 83.7514 37.2024 83.7713 37.2024C83.7911 37.2024 83.806 37.2892 83.806 37.3958C83.806 37.8199 84.2648 38.0184 84.7311 37.8001C85.0436 37.6513 85.4578 37.1776 85.4578 36.9692V36.7956L85.2469 36.999C85.0312 37.2073 84.803 37.2619 84.7162 37.123C84.6889 37.0784 84.6517 36.2996 84.6343 35.3919C84.5996 33.7773 84.5971 33.7376 84.4459 33.5268C84.2226 33.2118 83.8184 33.0556 83.1711 33.0357C82.8288 33.0233 82.5262 33.0506 82.3452 33.1101ZM86.2192 33.2912C85.4578 33.6062 85.304 33.7822 85.8075 33.7649C86.0034 33.7574 86.1224 33.7822 86.1572 33.8418C86.2638 34.0104 86.2936 34.5759 86.2713 35.9573C86.2514 37.3214 86.2489 37.3413 86.1001 37.4628C86.0183 37.5273 85.867 37.5819 85.7678 37.5819C85.6264 37.5819 85.5843 37.6116 85.5843 37.7108C85.5843 37.8373 85.6165 37.8398 86.7425 37.8224C87.7221 37.8075 87.9007 37.7902 87.9007 37.7108C87.9007 37.6463 87.8114 37.6017 87.6229 37.5769C87.174 37.5174 87.1716 37.505 87.1716 35.7986V34.2932L87.4568 34.0427C87.9181 33.6334 88.4687 33.5466 88.7564 33.8343C88.9672 34.0451 89.0118 34.3948 89.0118 35.8433C89.0118 37.1577 89.0044 37.2594 88.8829 37.4107C88.7936 37.5248 88.682 37.5819 88.5183 37.5942C88.3596 37.6091 88.2827 37.6463 88.2827 37.7108C88.2827 37.7902 88.4612 37.8075 89.4409 37.8224C90.5669 37.8398 90.5991 37.8373 90.5991 37.7108C90.5991 37.6067 90.557 37.5819 90.3809 37.5819C90.2221 37.5819 90.1279 37.5372 90.0312 37.4157C89.9072 37.257 89.8997 37.1677 89.8997 35.7813C89.8972 34.9727 89.8675 34.184 89.8328 34.0278C89.7385 33.6136 89.493 33.2763 89.183 33.1349C88.6423 32.8894 88.1016 33.0382 87.5163 33.5913L87.1716 33.9187V33.4648C87.1716 33.0357 87.1641 33.0109 87.0277 33.0134C86.9483 33.0159 86.5862 33.1399 86.2192 33.2912ZM92.1319 33.1076C91.5565 33.2961 91.1721 33.7326 91.1696 34.1964C91.1696 34.4097 91.2043 34.4891 91.3382 34.5933C91.5565 34.7669 91.7127 34.7594 91.9037 34.5709C92.0327 34.442 92.0599 34.3527 92.0599 34.06C92.0599 33.564 92.2286 33.3929 92.7172 33.3929C93.1983 33.3929 93.4116 33.5739 93.5108 34.0675C93.6348 34.69 93.6373 34.685 93.1215 34.8834C91.4746 35.5159 90.924 36.0218 90.9984 36.8353C91.0604 37.5074 91.4597 37.8993 92.0872 37.8993C92.4518 37.8993 92.7494 37.7778 93.181 37.4529C93.3645 37.314 93.5257 37.2024 93.5406 37.2024C93.5555 37.2024 93.5852 37.314 93.6076 37.4529C93.7018 38.0506 94.3293 38.0605 94.932 37.4702C95.1577 37.2495 95.2345 37.128 95.2345 36.9866V36.7956L95.0237 36.999C94.808 37.2098 94.5823 37.2619 94.4905 37.123C94.4632 37.0784 94.426 36.2946 94.4087 35.382C94.3715 33.4821 94.3739 33.4896 93.806 33.2044C93.4215 33.0134 92.5709 32.9638 92.1319 33.1076ZM15.7281 33.182C15.7058 33.2044 15.6859 33.5045 15.6859 33.8467C15.6859 34.4296 15.6934 34.4717 15.8124 34.4717C15.9042 34.4717 15.9389 34.4296 15.9389 34.3204C15.9389 34.1195 16.0977 33.7525 16.2316 33.6409C16.3134 33.5739 16.5986 33.5466 17.3774 33.5293C17.9479 33.5193 18.4166 33.5268 18.4166 33.5491C18.4166 33.5714 17.7296 34.499 16.8913 35.6101C16.053 36.7237 15.3685 37.6786 15.3685 37.7356C15.3685 37.8274 15.5768 37.8373 17.4221 37.8373H19.4756L19.5178 37.4082C19.5401 37.1726 19.5575 36.8428 19.5575 36.6741C19.5575 36.4162 19.5401 36.3715 19.4483 36.3889C19.3715 36.4038 19.3243 36.503 19.2871 36.7262C19.2177 37.1329 18.997 37.3735 18.6448 37.4256C18.5009 37.4454 17.9727 37.4529 17.4717 37.443L16.559 37.4231L16.807 37.1057C17.9503 35.6498 19.622 33.3681 19.622 33.2664C19.622 33.1424 19.5773 33.1399 17.6974 33.1399C16.6358 33.1399 15.7504 33.1572 15.7281 33.182ZM31.3357 33.4821C31.0853 33.5913 30.9588 33.7426 30.7876 34.1245C30.6686 34.3924 30.6463 34.5486 30.6512 35.1389C30.6611 36.5749 31.2291 37.5446 32.0649 37.5446C32.4791 37.5446 32.7594 37.3661 32.9528 36.9792C33.1016 36.6865 33.1115 36.5947 33.1115 35.7738C33.1115 34.7917 33.0644 34.5536 32.7494 34.0303C32.4146 33.4697 31.8541 33.2515 31.3357 33.4821ZM53.4315 33.5367C53.0371 33.7599 52.866 34.1592 52.8362 34.9306C52.7941 35.9499 53.0322 36.7684 53.5059 37.2445C54.0912 37.8299 55.0014 37.5521 55.2445 36.7163C55.3883 36.2153 55.3561 35.1017 55.18 34.5809C54.8402 33.569 54.1259 33.1424 53.4315 33.5367ZM61.4945 33.5317C61.0877 33.7698 60.9265 34.1617 60.8968 34.9826C60.862 35.9821 61.0852 36.7386 61.5565 37.2247C61.988 37.6662 62.6081 37.6687 63.0272 37.2247C63.2777 36.9593 63.3571 36.6964 63.4042 35.9945C63.4687 35.0248 63.1512 34.0303 62.6502 33.626C62.3228 33.3631 61.8516 33.3259 61.4945 33.5317ZM75.0138 33.8616C74.9096 33.9087 74.7286 34.0228 74.6145 34.1195L74.4087 34.2956L74.426 35.6969L74.4409 37.1007L74.7112 37.2892C75.0783 37.5471 75.6339 37.5967 75.9538 37.4008C76.4424 37.0982 76.6954 36.4831 76.6954 35.6076C76.6954 34.9182 76.5466 34.4717 76.2043 34.1394C75.8298 33.7748 75.4255 33.6806 75.0138 33.8616ZM93.1066 35.2455C92.5237 35.4985 92.1914 35.7267 92.0079 35.997C91.8839 36.1806 91.8615 36.2773 91.8863 36.5625C91.9087 36.8527 91.9459 36.9345 92.1219 37.0933C92.3055 37.257 92.3675 37.2768 92.6353 37.2495C92.8313 37.2321 93.052 37.1503 93.2603 37.0139L93.5828 36.808V35.9251C93.5828 35.4415 93.5753 35.0446 93.5679 35.0471C93.558 35.0496 93.3521 35.1389 93.1066 35.2455ZM39.7782 35.2753C38.9374 35.6349 38.6051 35.9896 38.6051 36.5203C38.6051 36.7956 38.6324 36.8626 38.8283 37.0585C39.0342 37.2644 39.0738 37.2793 39.3591 37.252C39.555 37.2321 39.7658 37.1553 39.9444 37.0362L40.2222 36.8477L40.242 35.9772C40.2494 35.4985 40.237 35.1091 40.2098 35.1091C40.1825 35.1116 39.989 35.186 39.7782 35.2753ZM83.2033 35.3026C82.3972 35.6523 82.0922 35.9871 82.0922 36.5253C82.0922 36.7907 82.1219 36.8626 82.308 37.0486C82.5684 37.3115 82.8784 37.3363 83.2678 37.1329C83.7985 36.8502 83.806 36.8328 83.806 35.9201C83.806 35.31 83.7861 35.1067 83.7266 35.1091C83.682 35.1116 83.4488 35.1984 83.2033 35.3026Z" fill="white"/>
</g>
</svg>
