<svg width="217" height="40" viewBox="0 0 217 40" fill="none" xmlns="http://www.w3.org/2000/svg">
<mask id="mask0_39932_311" style="mask-type:luminance" maskUnits="userSpaceOnUse" x="0" y="0" width="217" height="40">
<path d="M0 0H216.61V40H0V0Z" fill="white"/>
</mask>
<g mask="url(#mask0_39932_311)">
<path fill-rule="evenodd" clip-rule="evenodd" d="M6.59565 0.597896C4.08212 1.49887 2.23147 3.11142 1.12487 5.36521C0.326709 6.99129 0.177899 7.7164 0.196839 9.85114C0.213072 11.3717 0.440345 12.9004 0.759609 13.6363C1.51448 15.376 3.51123 17.481 5.19684 18.3171L6.62812 19.0259H1.36296V36.691H5.77855V31.9345H8.10268C12.1422 31.9345 15.0318 30.6547 16.1059 28.3901L16.666 27.2104L17.8186 27.9924C18.4517 28.4226 19.7071 28.9637 20.6135 29.1991C25.8083 30.5492 26.7066 31.1877 25.508 32.6677C24.9506 33.3576 24.5772 33.4604 22.7104 33.4361C21.2872 33.4199 19.9966 33.1601 18.9008 32.6731C17.989 32.2673 17.1259 31.9345 16.9825 31.9345C16.8419 31.9345 16.4658 32.5811 16.1492 33.3712C15.5892 34.7754 15.5919 34.8187 16.3088 35.4004C17.916 36.7018 22.6563 37.3701 25.4755 36.6937C26.5037 36.4475 27.7428 35.8387 28.4084 35.2543L29.561 34.2424V36.691H33.6059L33.8061 31.875L34.8722 33.3901C37.686 37.3863 44.9506 38.1899 48.7114 34.9188L49.9912 33.8041L48.614 32.4675L47.2369 31.1282L46.4685 31.8479C43.0377 35.0622 37.3749 32.6109 37.3749 27.9166C37.3749 24.9485 39.1822 22.8192 41.9717 22.5054C43.8819 22.2889 44.8965 22.5622 46.1627 23.6255L47.1909 24.4913L48.5762 23.2386C49.9236 22.0238 49.9452 21.9669 49.3581 21.3068C49.028 20.9334 48.2975 20.3436 47.7374 19.9972C47.1746 19.6509 46.9095 19.3668 47.1422 19.3668C47.429 19.3641 47.567 18.7635 47.567 17.4972V15.6277H38.054V0.679065H33.6384V1.91824C33.6384 2.60277 34.0388 3.98264 34.534 4.98913C35.1292 6.20666 35.4836 7.59194 35.5919 9.11792C35.7353 11.093 35.6243 11.7234 34.818 13.6066C34.304 14.8133 33.8116 16.5232 33.725 17.4107L33.5708 19.0259L30.8002 19.0178L28.0323 19.0097L29.3906 18.3793C35.1671 15.7007 36.5307 7.21857 31.896 2.81922C29.9209 0.946922 27.7591 0.175818 24.4636 0.173113C21.9826 0.170407 21.3034 0.302983 19.6314 1.12549C15.9247 2.94638 14.0469 6.27701 14.3473 10.4924C14.4447 11.8235 14.8018 13.3116 15.2266 14.1423C16.0383 15.7332 18.7385 18.2602 19.9479 18.5633C20.673 18.7472 20.5864 18.8446 19.0821 19.5427C18.0973 19.9972 17.1611 20.7359 16.8067 21.3338L16.206 22.3511L15.416 21.4123C14.9804 20.8955 14.1471 20.2732 13.5626 20.0324L12.4993 19.5914L14.5772 18.6498L16.6552 17.7056L15.4214 16.047L14.1876 14.3858L12.9566 15.0324C12.015 15.5248 11.2872 15.6358 9.87487 15.5005C6.70387 15.1975 5.02368 13.3955 4.84511 10.1028C4.70441 7.49454 5.61892 5.67095 7.57238 4.66175C9.14705 3.85006 11.7255 3.79595 13.1784 4.54811L14.239 5.09736L15.2753 3.59032C15.8435 2.7624 16.3116 2.00212 16.3116 1.8993C16.3116 1.79649 15.673 1.38794 14.8938 0.990212C12.8754 -0.0406322 8.89814 -0.22732 6.59565 0.597896ZM60.2996 2.85168C58.6817 3.55785 58.4382 4.54541 58.4382 10.4004C58.4382 15.7007 58.6222 16.691 59.7666 17.5703C60.3375 18.0086 63.0973 18.152 64.028 17.7949C64.9073 17.4567 65.5729 15.8008 65.5729 13.9475V12.2294H64.4014C63.2461 12.2294 63.2298 12.251 63.127 13.8446C63.0377 15.2516 62.9214 15.4734 62.2125 15.5735C61.7688 15.6358 61.2737 15.4843 61.114 15.2326C60.9571 14.9837 60.8245 12.7651 60.8218 10.3003C60.8164 6.68015 60.9192 5.72235 61.3494 5.28945C61.6443 4.99725 61.9961 4.75645 62.1314 4.75645C62.7049 4.75645 63.1947 5.6466 63.1947 6.69368C63.1947 7.74887 63.265 7.81381 64.3824 7.81381C65.5702 7.81381 65.5729 7.80839 65.5729 6.26348C65.5729 4.27755 65.1184 3.45775 63.6871 2.8598C62.2856 2.27268 61.6308 2.27268 60.2996 2.85168ZM68.8007 2.68123C68.4274 2.84357 67.8159 3.31705 67.4425 3.73101C66.8337 4.40471 66.7499 5.05406 66.6525 9.75645C66.5036 16.8641 67.0285 18.0059 70.4295 18.0059C71.8013 18.0059 72.2477 17.8382 73.0729 17.0129L74.0659 16.02V4.76727L73.1324 3.72019C72.1314 2.60006 70.1048 2.11575 68.8007 2.68123ZM92.1855 2.87333C91.5929 3.13036 90.9409 3.64984 90.7407 4.02593C90.5215 4.43448 90.3727 6.92095 90.3727 10.1866C90.3727 17.3511 90.673 18.0059 93.9414 18.0059C94.7504 18.0059 95.6622 17.9112 95.9652 17.7949C97.0339 17.3836 97.5074 15.7846 97.5074 12.5865V9.51294H95.8083C94.1497 9.51294 94.1119 9.53458 94.1119 10.533C94.1119 11.2256 94.2796 11.5503 94.6368 11.5503C95.0642 11.5503 95.1454 11.9237 95.0615 13.5037C94.9696 15.2705 94.883 15.468 94.1497 15.5735C93.7033 15.6358 93.2082 15.4843 93.0513 15.2326C92.8916 14.9837 92.759 12.7651 92.7563 10.3003C92.7536 6.68015 92.8538 5.72235 93.2867 5.28945C93.5789 4.99725 93.9306 4.75645 94.0659 4.75645C94.6395 4.75645 95.1292 5.6466 95.1292 6.69368C95.1292 7.74887 95.1995 7.81381 96.3197 7.81381C97.4831 7.81381 97.5074 7.78404 97.5074 6.43935C97.5074 4.57787 96.7363 3.21153 95.4295 2.75428C94.055 2.27539 93.5139 2.29432 92.1855 2.87333ZM104.813 2.70017C104.439 2.85168 103.828 3.31705 103.454 3.73101C102.856 4.3966 102.762 5.05677 102.662 9.26673C102.532 14.8782 102.708 16.1011 103.801 17.1942C104.458 17.8517 104.964 18.0059 106.466 18.0059C108.119 18.0059 108.414 17.8923 109.198 16.9615C110.064 15.9334 110.078 15.8279 110.078 10.5221C110.078 7.21316 109.929 4.79974 109.691 4.28026C109.02 2.80569 106.525 1.99941 104.813 2.70017ZM116.355 2.85168C114.74 3.55785 114.496 4.54541 114.496 10.4004C114.496 17.2213 114.861 17.9761 118.165 17.9951C119.68 18.0032 120.094 17.8652 120.797 17.1076C121.485 16.3663 121.631 15.8603 121.631 14.2207V12.2294H120.459C119.304 12.2294 119.288 12.251 119.185 13.8446C119.093 15.3003 118.996 15.468 118.192 15.5627C117.015 15.698 116.885 15.1352 116.877 9.96207C116.874 6.64768 116.98 5.71694 117.407 5.28945C117.702 4.99725 118.051 4.75645 118.189 4.75645C118.763 4.75645 119.253 5.6466 119.253 6.69368C119.253 7.74887 119.323 7.81381 120.44 7.81381C121.625 7.81381 121.631 7.80839 121.631 6.26348C121.631 4.27755 121.176 3.45775 119.745 2.8598C118.341 2.27268 117.689 2.27268 116.355 2.85168ZM124.856 2.70017C124.483 2.85168 123.871 3.31705 123.498 3.73101C122.892 4.40471 122.808 5.05406 122.71 9.75645C122.562 16.9237 123.073 18.0059 126.601 18.0059C128.151 18.0059 128.471 17.8814 129.244 16.9615C130.11 15.9334 130.124 15.8279 130.124 10.5221C130.124 7.21316 129.975 4.79974 129.737 4.28026C129.066 2.80569 126.569 1.99941 124.856 2.70017ZM140.427 2.87333C139.834 3.13036 139.185 3.64984 138.982 4.02593C138.763 4.43989 138.617 6.99671 138.617 10.4599C138.617 16.0903 138.633 16.2256 139.45 17.1076C140.159 17.8733 140.565 18.0059 142.183 18.0059C143.747 18.0059 144.231 17.8598 144.918 17.1726C145.738 16.3528 145.751 16.2445 145.751 10.5248C145.751 7.01023 145.605 4.43989 145.383 4.02593C144.997 3.30082 143.13 2.37008 142.11 2.39173C141.777 2.39984 141.019 2.61629 140.427 2.87333ZM191.409 2.69476C191.014 2.86251 190.365 3.41716 189.964 3.92582C189.29 4.7835 189.239 5.24346 189.239 10.4329V16.02L190.232 17.0129C191.569 18.3522 194.136 18.4361 195.589 17.1861L196.542 16.3663V4.43177L195.659 3.54974C194.699 2.58653 192.629 2.16987 191.409 2.69476ZM23.771 3.62549C22.9214 4.11521 21.8229 5.07571 21.3278 5.76294C20.5215 6.88577 20.4647 7.15904 20.7569 8.45504C21.0329 9.68339 20.9788 10.0405 20.3943 10.863C20.0156 11.3934 19.7071 11.8993 19.7071 11.9913C19.7071 12.0833 20.3565 12.4134 21.1519 12.7299C21.9447 13.0438 23.0026 13.6904 23.5031 14.1639C24.0009 14.6347 24.9182 15.1271 25.5405 15.2543C26.2656 15.4031 26.6741 15.6872 26.6768 16.0443C26.6849 17.1401 27.1043 16.994 27.3262 15.8198C27.4587 15.1055 27.3884 14.3127 27.1476 13.8663C26.8635 13.336 26.8527 13.0763 27.1151 12.9897C27.318 12.922 27.4046 12.6596 27.3072 12.408C27.0556 11.7505 28.4544 11.3961 29.1227 11.948C29.6151 12.3538 29.6422 12.297 29.3824 11.3825C29.2201 10.8198 29.1065 9.87549 29.1308 9.28026C29.1714 8.12495 29.3554 8.23047 26.2196 7.62982C25.5567 7.50266 25.0886 7.0914 24.7179 6.31489C24.2174 5.2651 24.2228 5.11359 24.8045 4.1585C25.1454 3.59573 25.6324 3.0519 25.8814 2.95179C26.2223 2.81651 26.2087 2.76781 25.8218 2.75428C25.5432 2.74616 24.6178 3.13848 23.771 3.62549ZM75.4241 10.3625V18.0059H81.8797V15.6277H77.8024V2.71911H75.4241V10.3625ZM82.5588 10.3625V18.0059H89.3554V15.6277H85.278V11.5503H86.8067C88.3272 11.5503 88.3354 11.5449 88.3354 10.3625C88.3354 9.18015 88.3272 9.17203 86.8067 9.17203H85.278V5.09736H89.3554V2.71911H82.5588V10.3625ZM98.8684 10.3625V18.0059H101.247V2.71911H98.8684V10.3625ZM131.482 10.3625V18.0059H137.938V15.6277H133.86V2.71911H131.482V10.3625ZM147.11 10.3625V18.0059H149.488L149.531 13.8446L149.572 9.68339L150.275 13.8446L150.976 18.0059H153.465L154.158 13.5037L154.85 9.00428L154.886 13.5037L154.924 18.0059H157.302V2.71911H155.641C154.623 2.71911 153.914 2.88415 153.814 3.14389C153.725 3.37658 153.376 5.53837 153.04 7.94909C152.667 10.6168 152.334 12.0779 152.191 11.6856C152.061 11.3311 151.677 9.16932 151.341 6.88036L150.727 2.71911H147.11V10.3625ZM158.66 10.3625V18.0059H161.228C164.396 18.0059 165.586 17.4621 166.149 15.7575C166.652 14.2288 166.358 11.3392 165.611 10.5167C165.116 9.96748 165.113 9.82409 165.6 8.87982C166.222 7.67852 166.298 5.48697 165.76 4.29919C165.218 3.11413 164.077 2.71911 161.192 2.71911H158.66V10.3625ZM167.494 10.3625V18.0059H170.213V2.71911H167.494V10.3625ZM173.27 2.91932C173.27 3.11684 171.428 14.7375 171.052 16.902C170.868 17.9761 170.895 18.0059 172.061 18.0059C173.203 18.0059 173.273 17.9383 173.481 16.6287C173.701 15.257 173.706 15.2543 175.099 15.3571C176.45 15.4545 176.501 15.5032 176.604 16.7316C176.707 17.9707 176.744 18.0059 178.046 18.0059C178.782 18.0059 179.385 17.8625 179.385 17.6893C179.385 17.3106 177.418 4.98642 177.145 3.65255C176.964 2.77052 176.847 2.71911 175.113 2.71911C174.098 2.71911 173.27 2.80839 173.27 2.91932ZM180.405 10.3625V18.0059H182.426L182.518 12.9951L182.613 7.98426L183.971 12.9951L185.332 18.0059H187.878V2.71911H185.841L185.806 6.70991L185.768 10.7007L185.14 8.66337C184.734 7.33761 184.342 6.00645 183.963 4.67257L183.414 2.71911H180.405V10.3625ZM201.128 10.3625V18.0059H203.874C206.452 18.0059 206.677 17.9464 207.61 17.0129L208.603 16.02V10.5735C208.603 7.30515 208.452 4.79703 208.227 4.29919C207.686 3.11413 206.544 2.71911 203.66 2.71911H201.128V10.3625ZM209.961 10.3625V18.0059H216.417V15.6277H212.681V11.5503H214.209C215.73 11.5503 215.738 11.5449 215.738 10.3625C215.738 9.18015 215.73 9.17203 214.209 9.17203H212.681V5.09736H216.417V2.71911H209.961V10.3625ZM69.7342 4.98101C69.4203 5.10818 69.3094 6.48264 69.3094 10.2083C69.3094 14.6807 69.3797 15.3003 69.9046 15.5708C71.2196 16.2472 71.3494 15.7873 71.3494 10.3706C71.3494 5.94151 71.2683 5.13794 70.811 4.96207C70.5161 4.84844 70.2482 4.76727 70.2158 4.7835C70.1833 4.79703 69.9696 4.88632 69.7342 4.98101ZM105.73 5.165C105.451 5.44368 105.321 7.10222 105.321 10.4193C105.321 14.7402 105.389 15.3003 105.935 15.5925C107.313 16.3311 107.532 15.6195 107.532 10.3625C107.532 6.33112 107.434 5.35168 107.02 5.08924C106.358 4.66987 106.217 4.67798 105.73 5.165ZM125.776 5.165C125.494 5.44368 125.367 7.10222 125.367 10.4193C125.367 14.7402 125.432 15.3003 125.979 15.5925C127.359 16.3311 127.575 15.6195 127.575 10.3625C127.575 6.33112 127.48 5.35168 127.066 5.08924C126.401 4.66987 126.263 4.67798 125.776 5.165ZM141.404 5.165C141.125 5.44097 140.995 7.06164 140.995 10.2353C140.995 14.0232 141.095 15 141.528 15.4329C141.823 15.7278 142.118 15.9686 142.183 15.9686C142.25 15.9686 142.545 15.7278 142.84 15.4329C143.273 15 143.373 14.0232 143.373 10.2353C143.373 5.65201 143.178 4.75645 142.183 4.75645C141.977 4.75645 141.628 4.94043 141.404 5.165ZM192.38 4.98101C192.066 5.10818 191.955 6.5124 191.955 10.3625C191.955 15.7873 192.083 16.2472 193.4 15.5708C193.925 15.3003 193.996 14.6807 193.996 10.2164C193.996 5.92798 193.914 5.13794 193.457 4.96207C193.162 4.84844 192.894 4.76727 192.862 4.7835C192.829 4.79703 192.613 4.88632 192.38 4.98101ZM161.379 6.96424C161.379 8.85277 161.393 8.87712 162.313 8.7716C163.195 8.66878 163.249 8.56597 163.249 6.96424C163.249 5.36521 163.195 5.25969 162.313 5.15958C161.393 5.05136 161.379 5.07842 161.379 6.96424ZM203.847 10.3625V15.6277H204.629C206.052 15.6277 206.225 15.073 206.225 10.4924C206.225 8.11413 206.133 5.92798 206.019 5.63307C205.898 5.3138 205.413 5.09736 204.829 5.09736H203.847V10.3625ZM174.856 7.81381C174.729 8.46857 174.496 9.8809 174.339 10.9577L174.052 12.9112H175.021C176.138 12.9112 176.141 12.8842 175.516 9.17203C175.124 6.83707 175.067 6.72344 174.856 7.81381ZM161.379 13.4415V15.6709L162.483 15.5654C163.546 15.4626 163.592 15.395 163.692 13.8176C163.812 11.9669 163.373 11.2121 162.188 11.2121C161.42 11.2121 161.379 11.3203 161.379 13.4415ZM90.067 19.5535C89.1822 21.0551 89.1822 21.0633 90.1373 21.0633C90.8435 21.0633 93.0918 19.1774 93.0918 18.5849C93.0918 18.4523 92.5724 18.3468 91.9365 18.3468C90.9706 18.3468 90.6622 18.547 90.067 19.5535ZM33.6384 21.5746C33.6384 22.7867 33.6979 23.7824 33.7737 23.7824C33.8494 23.7824 34.2255 23.2467 34.6124 22.5919C34.9966 21.9372 36.0356 20.9442 36.9203 20.3842L38.5275 19.3641H33.6384V21.5746ZM29.1011 21.488C28.9955 21.9074 28.7114 22.5135 28.4706 22.8327C28.0594 23.3739 27.9052 23.3685 25.9923 22.7137C24.6719 22.2619 23.4896 22.0806 22.6319 22.1942C21.0004 22.4134 19.8884 23.4226 20.1968 24.3993C20.4268 25.1217 21.1519 25.441 24.6314 26.3446C25.7515 26.6369 27.318 27.2375 28.1135 27.6812L29.561 28.4902V24.6076C29.561 22.4702 29.5015 20.7251 29.4284 20.7251C29.3554 20.7251 29.2093 21.0687 29.1011 21.488ZM68.403 21.8831C67.034 22.4972 66.5929 23.336 66.5929 25.3111C66.5929 27.2754 66.9122 27.8896 69.1849 30.2976C71.0843 32.3051 71.5496 33.7824 70.5432 34.6185C69.745 35.2786 68.9712 34.6915 68.9712 33.428C68.9712 32.3024 68.936 32.2754 67.567 32.2754H66.1654L66.39 33.6769C66.7066 35.6547 67.1557 36.3365 68.5058 36.902C71.0058 37.9464 73.3299 36.5773 73.633 33.8825C73.8467 31.9994 73.192 30.6385 70.9815 28.3658C69.1876 26.5232 68.568 24.8782 69.4068 24.1829C70.1319 23.5795 71.0139 24.0638 71.2385 25.1839C71.409 26.0362 71.5848 26.1607 72.6238 26.1607H73.817L73.6276 24.7483C73.2812 22.1645 70.8002 20.8035 68.403 21.8831ZM80.8922 21.691C80.4403 21.8208 79.7531 22.3566 79.3635 22.8787C78.7304 23.7229 78.6411 24.3858 78.5437 28.8555C78.4598 32.7949 78.5491 34.1531 78.9576 35.1298C79.9127 37.4188 83.2461 37.9816 84.9723 36.1444C85.5459 35.5357 85.7812 34.8024 85.8922 33.29L86.0383 31.2554H84.8099C83.6032 31.2554 83.5789 31.2824 83.5789 32.5919C83.5789 34.2397 82.8132 35.1515 81.8581 34.6401C81.2547 34.3181 81.2006 33.8852 81.2006 29.4426C81.2006 24.8403 81.3981 23.7824 82.2639 23.7824C82.8483 23.7824 83.5789 24.9269 83.5789 25.8441C83.5789 26.7613 83.6763 26.8398 84.8099 26.8398H86.0437L85.8759 25.1109C85.6189 22.4188 83.4625 20.9388 80.8922 21.691ZM88.8359 21.8614C87.2179 22.5919 86.9771 23.5741 86.9771 29.4209C86.9771 35.6547 87.2315 36.461 89.3797 37.0373C91.133 37.5108 92.8835 36.9859 93.6979 35.744C94.4284 34.6293 94.7342 26.4339 94.1281 24.1883C93.5247 21.9507 91.0518 20.863 88.8359 21.8614ZM105.11 21.6287C104.713 21.7126 104.025 22.1672 103.582 22.6379C102.794 23.474 102.775 23.6525 102.775 29.4074V35.3165L103.698 36.2391C104.458 36.9994 104.921 37.1617 106.341 37.1617C107.762 37.1617 108.224 36.9994 108.987 36.2391L109.91 35.3165V29.3885C109.91 23.5119 109.902 23.4496 109.06 22.6244C108.205 21.7857 106.455 21.3446 105.11 21.6287ZM113.306 21.7234C112.932 21.8777 112.321 22.343 111.947 22.757C111.322 23.4523 111.268 23.9908 111.268 29.4155C111.268 35.2624 111.276 35.3246 112.118 36.1525C113.996 37.9951 117.323 37.3538 118.127 34.9918C118.352 34.3398 118.544 32.619 118.552 31.1715L118.571 28.5389H114.834V29.7267C114.834 30.5573 114.988 30.9172 115.346 30.9172C115.735 30.9172 115.854 31.3474 115.854 32.7489C115.854 34.6374 115.43 35.2002 114.326 34.7754C113.568 34.4859 113.568 24.2884 114.326 23.9989C115.319 23.6174 115.854 24.1477 115.854 25.5167V26.8398H118.665L118.454 25.2976C118.165 23.2007 117.702 22.4513 116.347 21.8831C115.07 21.3501 114.317 21.3095 113.306 21.7234ZM121.452 21.8614C119.832 22.5919 119.591 23.5741 119.591 29.4209C119.591 35.6547 119.845 36.461 121.993 37.0373C123.747 37.5108 125.497 36.9859 126.314 35.744C127.042 34.6293 127.348 26.4339 126.744 24.1883C126.141 21.9507 123.665 20.863 121.452 21.8614ZM130.294 21.6369C129.198 21.9209 128.446 22.7786 128.07 24.1747C127.534 26.1688 128.146 27.8869 130.083 29.8051C132.578 32.2754 133.178 33.9258 131.845 34.6401C131.014 35.0865 130.124 34.2911 130.124 33.1006C130.124 32.3782 129.97 32.2754 128.89 32.2754H127.656L127.832 33.8446C128.076 35.9983 129.223 37.1239 131.217 37.1672C133.176 37.2132 134.401 36.3798 134.918 34.6536C135.486 32.7624 134.888 30.9577 133.089 29.1314C131.195 27.2132 130.467 26.1417 130.465 25.2678C130.459 23.6038 132.375 23.4388 132.567 25.0838C132.648 25.7981 132.878 26.0146 133.646 26.1011C134.182 26.1634 134.769 26.0687 134.945 25.8901C135.389 25.4464 134.704 23.0167 133.947 22.3349C133.284 21.7397 131.336 21.369 130.294 21.6369ZM58.4382 29.3885V37.0319H61.1573V31.2554H62.3667C64.0172 31.2554 64.8613 30.7359 65.4322 29.3722C66.4333 26.9724 65.784 22.922 64.2634 22.1103C63.8873 21.9074 62.4236 21.7424 61.0085 21.7424H58.4382V29.3885ZM74.745 29.3885V37.0319H77.4641V21.7424H74.745V29.3885ZM95.4701 29.3885V37.0319H101.926V34.6536H98.1865V21.7424H95.4701V29.3885ZM5.77855 25.5303V28.6363L8.18926 28.4334C10.9598 28.2034 12.0854 27.6109 12.3884 26.231C12.9106 23.8474 11.1411 22.4215 7.65896 22.4215H5.77855V25.5303ZM89.8884 24.3154C89.1065 25.0974 89.1038 33.6769 89.8884 34.4588C90.2888 34.862 90.581 34.9053 91.0761 34.6401C91.6768 34.3181 91.7336 33.8852 91.7336 29.4426C91.7336 26.1282 91.6038 24.4696 91.3251 24.1883C90.7867 23.6525 90.5296 23.6742 89.8884 24.3154ZM105.746 24.007C105.432 24.1342 105.321 25.5357 105.321 29.3804C105.321 33.6904 105.411 34.613 105.833 34.7754C106.111 34.8836 106.571 34.8836 106.85 34.7754C107.632 34.4778 107.605 24.2884 106.823 23.988C106.528 23.8744 106.26 23.7932 106.228 23.8095C106.198 23.823 105.981 23.9123 105.746 24.007ZM122.502 24.3154C121.72 25.0974 121.72 33.6769 122.502 34.4588C122.905 34.862 123.197 34.9053 123.692 34.6401C124.293 34.3181 124.347 33.8852 124.347 29.4426C124.347 26.1282 124.22 24.4696 123.939 24.1883C123.403 23.6525 123.143 23.6742 122.502 24.3154ZM61.1573 26.4989V28.9231L62.0908 28.8149C63.0026 28.7094 63.0242 28.6553 63.0242 26.4989C63.0242 24.3425 63.0026 24.2884 62.0908 24.1829L61.1573 24.0773V26.4989ZM1.36296 39.5806C1.36296 40.0135 2.2477 40.0892 7.30723 40.0892C12.3668 40.0892 13.2515 40.0135 13.2515 39.5806C13.2515 39.145 12.3668 39.0692 7.30723 39.0692C2.2477 39.0692 1.36296 39.145 1.36296 39.5806ZM13.5924 39.5806C13.5924 39.9918 14.1389 40.0892 16.4793 40.0892C18.8197 40.0892 19.3689 39.9918 19.3689 39.5806C19.3689 39.1666 18.8197 39.0692 16.4793 39.0692C14.1389 39.0692 13.5924 39.1666 13.5924 39.5806ZM19.7071 39.5806C19.7071 39.9918 20.2564 40.0892 22.5967 40.0892C24.9371 40.0892 25.4836 39.9918 25.4836 39.5806C25.4836 39.1666 24.9371 39.0692 22.5967 39.0692C20.2564 39.0692 19.7071 39.1666 19.7071 39.5806Z" fill="white"/>
</g>
</svg>
