<svg width="68" height="40" viewBox="0 0 68 40" fill="none" xmlns="http://www.w3.org/2000/svg">
<mask id="mask0_39932_375" style="mask-type:luminance" maskUnits="userSpaceOnUse" x="0" y="0" width="68" height="40">
<path d="M0 0H67.3566V40H0V0Z" fill="white"/>
</mask>
<g mask="url(#mask0_39932_375)">
<path fill-rule="evenodd" clip-rule="evenodd" d="M0.00195312 4.13787C0.00195312 6.41466 0.0300184 8.2775 0.0650999 8.2775C0.100182 8.2775 0.347507 8.14769 0.614126 7.98983C2.09106 7.1198 4.66429 6.61989 6.98494 6.7532C9.24945 6.88476 10.4247 7.23031 13.0242 8.53184C13.0821 8.56166 13.1312 6.65322 13.1312 4.29223V0H0.00195312V4.13787ZM18.3233 9.72987C18.29 9.78249 18.4093 9.84739 18.5864 9.87195C18.9074 9.91756 18.9092 9.93159 18.9092 12.3364V14.7571L18.5531 14.8553C18.3443 14.9132 18.732 14.9605 19.481 14.9675C20.6036 14.9781 20.7194 14.957 20.4089 14.7992C20.0563 14.6202 20.0511 14.5957 20.0107 12.5539C19.9634 10.1824 20.0125 9.84564 20.4107 9.84564C20.5668 9.84564 20.6931 9.79828 20.6931 9.73864C20.6931 9.60533 18.4057 9.59656 18.3233 9.72987ZM3.92056 10.3315C2.35768 10.7104 1.04563 11.6576 0.487833 12.8083C0.345753 13.103 0.208934 13.7607 0.180869 14.2694C0.121231 15.4447 0.470292 16.1077 1.55256 16.8637C2.53835 17.5531 3.84689 17.9775 7.35154 18.7511C10.4071 19.4264 11.2438 19.6702 12.3103 20.2L12.9874 20.5367V17.6618C12.9874 14.2256 12.9295 14.0379 11.3543 12.4855C9.37399 10.5332 6.50783 9.70181 3.92056 10.3315ZM27.9707 10.6543C27.4813 10.849 27.1147 11.3313 27.1147 11.7874C27.1147 12.2856 27.2884 12.4627 28.6127 13.3135C29.3915 13.8134 29.5143 14.0572 29.2003 14.4869C29.0442 14.6992 28.8267 14.7693 28.3268 14.7693C27.7743 14.7693 27.6024 14.7009 27.3165 14.3694C26.9779 13.9747 26.9727 13.9747 26.9744 14.2975C26.9779 14.8167 27.1358 14.9412 27.9146 15.0482C29.1793 15.2201 29.9686 14.7027 29.9686 13.7029C29.9686 13.1573 29.5512 12.7118 28.5776 12.2189C27.7199 11.7839 27.5427 11.4506 27.9777 11.0963C28.4461 10.7174 28.9407 10.7841 29.4126 11.2892L29.8265 11.7313V11.2173C29.8265 10.7788 29.7792 10.7016 29.5055 10.7016C29.3284 10.6999 28.96 10.6701 28.6846 10.635C28.411 10.5981 28.0883 10.6069 27.9707 10.6543ZM30.6001 10.6911C30.5668 10.7227 30.5405 10.9647 30.5405 11.2261C30.5405 11.7471 30.7474 11.8681 30.8667 11.4155C30.9281 11.1822 31.0614 11.1314 31.5964 11.1314H32.2524V12.9188C32.2524 14.6395 32.2402 14.7115 31.9314 14.836C31.6999 14.929 31.9086 14.9623 32.6804 14.9553C33.2698 14.95 33.6066 14.9167 33.4294 14.8834C33.1172 14.822 33.1084 14.7764 33.1084 12.9767V11.1314H33.7557C34.2924 11.1314 34.424 11.1858 34.531 11.4524C34.6415 11.726 34.6608 11.6874 34.6696 11.2015L34.6783 10.6315H32.6682C31.5631 10.6315 30.6317 10.6578 30.6001 10.6911ZM37.8778 10.6911C37.8444 10.7227 37.8181 10.9647 37.8181 11.2261C37.8181 11.7471 38.0269 11.8681 38.1444 11.4155C38.2058 11.1822 38.3391 11.1314 38.8741 11.1314H39.5301V12.9188C39.5301 14.6395 39.5178 14.7115 39.2091 14.836C38.9758 14.9307 39.1793 14.9658 39.9581 14.9658C40.7369 14.9658 40.9404 14.9307 40.7071 14.836C40.3984 14.7115 40.3861 14.6413 40.3861 12.882V11.0577L41.0386 11.1086C41.5438 11.1489 41.7192 11.2296 41.8139 11.4664C41.9157 11.7172 41.9402 11.6681 41.9472 11.2015L41.956 10.6315H39.9458C38.8408 10.6315 37.9093 10.6578 37.8778 10.6911ZM47.9497 11.1752C47.9497 11.5015 48.0058 11.6839 48.0918 11.6295C48.1707 11.5822 48.2356 11.4489 48.2356 11.3366C48.2356 11.184 48.4215 11.1314 48.9478 11.1314H49.6617V12.9188C49.6617 14.6395 49.6494 14.7115 49.3407 14.836C49.1056 14.9307 49.288 14.964 50.0177 14.9588C50.5685 14.9535 50.9053 14.9219 50.7685 14.8851C50.6299 14.85 50.5159 14.7764 50.5141 14.7237C50.5106 14.6711 50.4948 13.8397 50.4773 12.8784L50.4475 11.1314H51.1035C51.642 11.1314 51.7859 11.1875 51.9139 11.4524C52.0525 11.7418 52.07 11.7172 52.077 11.2015L52.0876 10.6315H47.9497V11.1752ZM54.2994 10.7683C52.712 11.3401 52.3191 13.424 53.589 14.5396C54.6029 15.4289 56.3377 15.1517 57.0007 13.9958C58.0409 12.1786 56.2675 10.0596 54.2994 10.7683ZM21.728 10.9262L22.1209 11.1402V12.924C22.1209 14.6395 22.1086 14.7132 21.7999 14.836C21.5543 14.9342 21.6824 14.9658 22.3349 14.9658C22.9786 14.9658 23.1119 14.9342 22.8734 14.8377C22.4612 14.6711 22.384 14.3185 22.4349 12.8048L22.477 11.5541L24.1188 13.3731L25.7588 15.1938L25.7992 13.1398C25.8325 11.3927 25.8764 11.0577 26.0851 10.8981C26.2956 10.7367 26.2219 10.7122 25.5448 10.7192C25.1133 10.7227 24.8572 10.7595 24.9748 10.8016C25.4168 10.9595 25.5448 11.3296 25.5448 12.4417C25.5448 13.0556 25.4975 13.552 25.4378 13.545C25.38 13.538 24.7643 12.896 24.0697 12.1172L22.8067 10.7034L22.0718 10.7086C21.3386 10.7139 21.3368 10.7139 21.728 10.9262ZM35.5694 10.856C35.7887 10.984 35.8202 11.2436 35.8202 12.9118C35.8202 14.6097 35.7922 14.8272 35.5694 14.8851C35.4326 14.9219 35.7694 14.9535 36.3201 14.9588C37.0498 14.964 37.2323 14.9307 36.9972 14.836C36.6867 14.7115 36.6762 14.643 36.6762 12.8434C36.6762 11.0437 36.6867 10.9735 36.9972 10.849C37.2358 10.7543 37.0604 10.7192 36.3201 10.7157C35.5747 10.7122 35.3835 10.749 35.5694 10.856ZM42.7769 10.849C43.0804 10.9718 43.0979 11.0577 43.0979 12.4469C43.0979 13.6467 43.1488 13.9958 43.3768 14.3677C43.7995 15.0623 44.9344 15.3166 45.8658 14.9272C46.678 14.5887 46.8078 14.2571 46.8078 12.5206C46.8078 11.056 46.8236 10.9718 47.1288 10.849C47.3726 10.7507 47.2463 10.7209 46.5938 10.7209C45.9413 10.7209 45.815 10.7507 46.0588 10.849C46.364 10.9735 46.3798 11.0542 46.3798 12.5592C46.3798 14.0484 46.3587 14.1607 46.029 14.4904C45.915 14.6045 45.7834 14.6939 45.6343 14.7553C45.4834 14.8167 45.3291 14.8483 45.166 14.8483C45.0046 14.8483 44.8485 14.8167 44.6994 14.7553C44.5503 14.6939 44.4187 14.6045 44.3047 14.4904C43.9749 14.1607 43.9539 14.0484 43.9539 12.5592C43.9539 11.0542 43.9697 10.9735 44.2749 10.849C44.5082 10.756 44.3047 10.7209 43.5259 10.7209C42.7453 10.7209 42.5419 10.756 42.7769 10.849ZM54.5169 11.0279C54.3222 11.1279 54.0819 11.3664 53.9837 11.5611C53.7329 12.0558 53.7522 13.6222 54.0153 14.1309C54.4187 14.9097 55.2326 15.0675 55.8974 14.4975C56.278 14.1677 56.2973 14.094 56.2973 12.9153C56.2973 11.6979 56.2903 11.6716 55.8308 11.2612C55.3203 10.8051 55.0519 10.7578 54.5169 11.0279ZM18.2672 17.2636C18.2672 17.3092 18.4601 17.4198 18.6952 17.5092L19.1232 17.6706V22.1102L18.732 22.3224C18.3549 22.5259 18.3829 22.5346 19.4091 22.5241C19.9984 22.5189 20.351 22.482 20.1949 22.4434C19.5915 22.2943 19.5512 22.1575 19.5512 20.1737V18.2635L21.5859 20.5069L23.6189 22.7504L23.6575 20.1368C23.6943 17.6706 23.7136 17.5197 23.9784 17.4496C24.517 17.3092 24.2573 17.1952 23.4399 17.2145C22.384 17.2391 22.2349 17.2794 22.7629 17.3917L23.1909 17.4829L23.2312 19.1703L23.2716 20.856L21.6368 19.0405L20.0037 17.225L19.1354 17.2022C18.6583 17.19 18.2672 17.218 18.2672 17.2636ZM27.0253 18.2898C26.9569 18.3933 26.5797 19.3124 26.1868 20.3315C25.6308 21.7664 25.3905 22.2242 25.1151 22.3627C24.7871 22.5294 24.8204 22.5434 25.5378 22.5452C26.1956 22.5469 26.2763 22.5189 26.0676 22.3663C25.8465 22.2049 25.8413 22.1312 26.0184 21.6173C26.2044 21.077 26.2482 21.0454 26.8604 21.0051C27.5006 20.963 27.5094 20.9683 27.7497 21.5699C27.9795 22.147 27.9795 22.1873 27.7409 22.3627C27.5252 22.5189 27.6339 22.5469 28.4759 22.5469C29.3845 22.5469 29.4389 22.5311 29.1617 22.3364C28.9811 22.2101 28.5619 21.3717 28.1093 20.2315C27.2831 18.1512 27.2042 18.0091 27.0253 18.2898ZM31.5613 18.2564C30.9088 18.4231 30.1388 19.2072 29.9528 19.8965C29.7529 20.6385 29.9914 21.4629 30.5597 21.9944C31.0614 22.4627 32.291 22.7592 33.1856 22.6241C33.6996 22.5469 33.8223 22.4645 33.9451 22.1119C34.1188 21.6173 34.0662 21.5892 33.6838 21.9716C33.0172 22.6381 31.7332 22.4312 31.1509 21.5629C30.579 20.7104 30.793 19.0931 31.5315 18.6985C31.8455 18.5301 33.2452 18.5038 33.475 18.6599C33.5592 18.7178 33.6855 18.8932 33.7539 19.051C33.8627 19.2966 33.8872 19.2703 33.9328 18.8581C33.9609 18.595 33.9627 18.3582 33.9346 18.3301C33.8083 18.2056 31.9893 18.1477 31.5613 18.2564ZM39.0898 18.2529C38.083 18.5757 37.5322 19.337 37.5322 20.4069C37.5322 21.74 38.4163 22.6083 39.7704 22.6083C41.9595 22.6083 42.7646 19.8439 40.9579 18.5318C40.5352 18.2266 39.6073 18.0881 39.0898 18.2529ZM49.2249 20.1491C48.6127 21.7523 48.3724 22.2207 48.0918 22.3627C47.762 22.5294 47.7918 22.5434 48.511 22.5452C49.1705 22.5469 49.2512 22.5189 49.0425 22.3663C48.8215 22.2049 48.8162 22.1312 48.9934 21.6173C49.1793 21.077 49.2231 21.0454 49.8353 21.0051C50.4756 20.963 50.4843 20.9683 50.7246 21.5699C50.9544 22.147 50.9544 22.1873 50.7159 22.3627C50.5001 22.5189 50.6054 22.5469 51.435 22.5469C52.3787 22.5469 52.3963 22.5399 52.1033 22.2978C51.9367 22.1593 51.4543 21.1822 51.0316 20.1263C50.6106 19.0686 50.2054 18.1845 50.1335 18.1617C50.0616 18.1372 49.6529 19.0317 49.2249 20.1491ZM58.9372 18.2442C58.4268 18.3196 58.3601 18.3582 58.6162 18.4319C58.9285 18.5213 58.9372 18.5757 58.9372 20.4543C58.9372 22.3417 58.9302 22.3855 58.6162 22.4452C58.4391 22.4803 58.9934 22.5171 59.8458 22.5276C61.1824 22.5434 61.4701 22.5048 61.9332 22.2452C63.4119 21.4138 63.4627 19.1808 62.0174 18.495C61.4403 18.2214 59.9248 18.0968 58.9372 18.2442ZM35.0712 18.4126C35.38 18.5371 35.3922 18.6055 35.3922 20.4069C35.3922 22.2066 35.38 22.275 35.0712 22.3996C34.8362 22.4943 35.0169 22.5259 35.7483 22.5206C36.2973 22.5171 36.6341 22.4838 36.4973 22.4487C36.2745 22.3908 36.2482 22.1698 36.2482 20.4069C36.2482 18.6441 36.2745 18.4231 36.4973 18.3634C36.6341 18.3284 36.2973 18.295 35.7483 18.2915C35.0169 18.2863 34.8362 18.3178 35.0712 18.4126ZM42.9541 18.4494C43.3031 18.6266 43.3119 18.6722 43.3522 20.4227C43.3908 22.1645 43.3821 22.2189 43.0663 22.3715C42.7892 22.5031 42.8699 22.5294 43.5978 22.5346C44.3766 22.5417 44.4222 22.5259 44.096 22.3627C43.7522 22.1891 43.7381 22.1259 43.6996 20.6157L43.661 19.051L44.5538 20.0491C45.0449 20.5981 45.815 21.4331 46.2675 21.9049L47.0884 22.7609L47.0902 20.663C47.0937 18.8178 47.1235 18.5476 47.3428 18.4196C47.5322 18.3108 47.3831 18.2775 46.7359 18.2845C46.157 18.2915 45.9956 18.3266 46.2377 18.3933C46.5815 18.488 46.5955 18.5389 46.6359 19.8404C46.6587 20.5946 46.6236 21.1261 46.5552 21.0472C46.4885 20.97 45.8992 20.3122 45.2449 19.586L44.0574 18.2652L43.3277 18.2687C42.6471 18.2705 42.6225 18.281 42.9541 18.4494ZM53.2645 18.3634C53.4873 18.4231 53.5154 18.6441 53.5154 20.4069C53.5154 22.1698 53.4873 22.3908 53.2645 22.4487C53.1277 22.4838 53.675 22.5206 54.4819 22.5294C55.9307 22.5469 55.95 22.5417 56.0868 22.1803C56.3079 21.5997 56.2517 21.5348 55.8676 21.919C55.5869 22.1996 55.3905 22.268 54.9748 22.2347L54.4415 22.1908L54.4029 20.3684C54.3626 18.5862 54.3696 18.5424 54.6871 18.4143C54.9292 18.3178 54.7555 18.2863 54.0135 18.2915C53.4645 18.295 53.1277 18.3284 53.2645 18.3634ZM64.0381 18.4126C64.3486 18.5371 64.3608 18.6055 64.3608 20.4069C64.3608 22.2066 64.3486 22.275 64.0381 22.3996C63.8188 22.4873 64.2503 22.5311 65.408 22.5382C67.0411 22.5469 67.1007 22.5364 67.1919 22.2259C67.2428 22.0488 67.32 23.3503 67.3603 25.1149L67.4357 28.3266L67.4427 24.2589C67.4445 22.0225 67.4235 20.4911 67.3954 20.8577C67.3165 21.8435 66.8534 22.2908 65.9641 22.2329L65.287 22.1908L65.2449 21.298L65.2028 20.4069H65.708C66.0588 20.4069 66.2675 20.4929 66.3903 20.6911C66.6692 21.1366 66.7867 21.0314 66.7867 20.335C66.7867 19.7053 66.6113 19.4825 66.4482 19.907C66.3938 20.0474 66.171 20.121 65.7922 20.121H65.2168V18.5511H65.7746C66.4657 18.5511 66.7867 18.6669 66.7867 18.9142C66.7867 19.0195 66.8499 19.144 66.9288 19.1931C67.013 19.2457 67.0709 19.0756 67.0709 18.7739V18.2652L65.394 18.274C64.2451 18.281 63.8188 18.3249 64.0381 18.4126ZM39.1021 18.5862C38.6478 18.823 38.3215 20.0298 38.4601 20.9577C38.5671 21.6699 39.174 22.4048 39.6546 22.4048C40.4299 22.4048 40.8264 21.9576 41.0141 20.8648C41.1211 20.2386 40.8579 19.0633 40.5457 18.7809C40.1914 18.4599 39.5196 18.3687 39.1021 18.5862ZM59.8634 18.5757C59.8195 18.6897 59.802 19.5492 59.8248 20.4859L59.8651 22.1908L60.4177 22.2347C60.7229 22.261 61.1649 22.2014 61.4 22.1031C62.4015 21.6874 62.4963 19.6422 61.5508 18.802C61.1649 18.4582 59.9686 18.2985 59.8634 18.5757ZM26.7148 19.8C26.6376 20.0158 26.5569 20.2298 26.4727 20.442C26.3868 20.6525 26.4517 20.6911 26.8779 20.6911H27.3831L27.1639 20.0491C27.0446 19.6965 26.9253 19.4071 26.9025 19.4071C26.8779 19.4071 26.7937 19.5843 26.7148 19.8ZM49.6073 19.9754C49.474 20.3105 49.3933 20.6139 49.4284 20.6473C49.4635 20.6823 49.6827 20.6911 49.9178 20.6665L50.344 20.6209L50.0967 19.9947L49.8511 19.3685L49.6073 19.9754ZM0.144033 24.643V28.7388L0.517652 29.2773C1.15614 30.1982 2.41557 30.9805 4.07492 31.4857C5.39925 31.8874 8.58641 31.8576 9.91951 31.4296C11.9525 30.7771 12.9242 29.6053 12.905 27.8267C12.8786 25.3236 11.0334 23.9537 6.06756 22.7521C3.37855 22.1014 1.71043 21.5225 0.679027 20.8788L0.144033 20.5455V24.643ZM19.2512 24.8956C18.8057 25.1447 18.4882 25.8358 18.6057 26.3024C18.725 26.7778 19.3565 27.3671 20.1931 27.7864C21.1614 28.2722 21.407 28.5143 21.407 28.9826C21.407 29.5282 20.9369 29.8246 20.0721 29.8246C19.4477 29.8246 19.3161 29.7667 18.8671 29.2896L18.3619 28.7546L18.4566 29.2352C18.5092 29.5001 18.5531 29.8106 18.5531 29.9228C18.5531 30.0368 18.6653 30.1123 18.8022 30.093C18.9407 30.0737 19.3845 30.107 19.7897 30.1666C21.1123 30.3631 22.263 29.5773 22.263 28.481C22.263 27.9881 21.5771 27.2496 20.6685 26.7637C19.716 26.255 19.4091 25.9919 19.4091 25.6867C19.4091 25.3184 19.8792 24.9728 20.3773 24.9728C20.8351 24.9728 21.549 25.2307 21.549 25.3955C21.549 25.4464 21.6438 25.6131 21.7595 25.7657C21.9542 26.0235 21.97 25.9972 21.9735 25.4008L21.977 24.7588L20.8001 24.7237C19.9774 24.6974 19.5108 24.75 19.2512 24.8956ZM24.4749 27.0707C23.568 29.4387 23.3698 29.8456 23.0611 29.9719C22.8418 30.0596 22.9716 30.0947 23.5399 30.1017C24.231 30.1088 24.2872 30.0877 24.0486 29.914C23.7995 29.7334 23.796 29.679 23.9907 29.1651C24.1872 28.6459 24.2398 28.609 24.8485 28.5687C25.4922 28.5266 25.4992 28.5301 25.7378 29.1405C25.9641 29.7176 25.9641 29.7632 25.7343 29.9316C25.5308 30.0807 25.6483 30.1105 26.4535 30.1105H27.4164L27.0656 29.7895C26.8569 29.5983 26.4254 28.7178 25.9974 27.6162C25.601 26.5971 25.2168 25.7429 25.1432 25.7183C25.0695 25.6937 24.7678 26.3024 24.4749 27.0707ZM37.4603 25.82C37.2252 25.8849 37.1375 25.9463 37.2673 25.9551C37.6199 25.9797 37.6743 26.2691 37.6743 28.1284C37.6743 29.7632 37.662 29.8386 37.3533 29.9632C37.1305 30.0526 37.4901 30.0947 38.532 30.0982C39.8283 30.1035 40.1054 30.0614 40.5878 29.786C41.2807 29.3913 41.6946 28.6248 41.6946 27.7372C41.6946 26.9777 41.3929 26.4761 40.6878 26.0621C40.1791 25.7657 38.2005 25.6166 37.4603 25.82ZM28.2216 25.9761C28.5303 26.1007 28.5426 26.1691 28.5426 27.9688C28.5426 29.7702 28.5303 29.8386 28.2216 29.9632C27.9988 30.0526 28.3724 30.0947 29.4371 30.1017C30.9597 30.1105 30.9772 30.107 31.114 29.7439C31.3438 29.1405 31.2737 29.0475 30.8948 29.4562C30.6071 29.7667 30.4335 29.8334 30.0037 29.7965L29.4705 29.7527L29.4301 27.9302C29.3898 26.1498 29.3968 26.1059 29.7143 25.9779C29.9546 25.8814 29.7599 25.8463 28.9706 25.8463C28.19 25.8463 27.9865 25.8814 28.2216 25.9761ZM31.9314 25.9761C32.2366 26.0989 32.2524 26.1796 32.2524 27.6706C32.2524 29.0896 32.2823 29.2721 32.5734 29.6106C33.1242 30.2491 34.552 30.3806 35.3449 29.8649C35.8027 29.5667 35.9623 28.9423 35.9623 27.4443C35.9623 26.1884 35.9834 26.0972 36.2833 25.9761C36.5254 25.8779 36.3956 25.8481 35.7483 25.8551C35.2782 25.8586 35.0046 25.8919 35.1414 25.927C35.3624 25.9849 35.3922 26.1901 35.3905 27.6583C35.3887 28.5757 35.3396 29.4019 35.28 29.4948C35.1081 29.765 34.3643 29.9912 33.9697 29.893C33.1926 29.6983 33.1084 29.4896 33.1084 27.7285C33.1084 26.1779 33.1225 26.0989 33.4294 25.9761C33.6627 25.8814 33.4592 25.8463 32.6804 25.8463C31.9016 25.8463 31.6981 25.8814 31.9314 25.9761ZM38.5268 26.0428C38.5233 26.0814 38.5215 26.8848 38.5215 27.8267C38.5215 28.7686 38.5233 29.6036 38.5268 29.6825C38.5338 29.8983 39.6336 29.8527 40.0932 29.6141C41.1649 29.0598 41.0281 26.6532 39.8967 26.1796C39.4196 25.9814 38.5373 25.8919 38.5268 26.0428ZM24.638 27.4513C24.3187 28.2073 24.3328 28.2547 24.8958 28.2547H25.3887L25.1993 27.7916C25.0958 27.5355 24.98 27.2303 24.9414 27.1128C24.8976 26.976 24.7888 27.097 24.638 27.4513ZM0.00195312 36.8058V39.9561H13.1312V33.7046L12.1226 34.201C9.29681 35.592 5.508 35.7867 2.42784 34.6992C1.79111 34.4747 0.74042 34.0239 0.108952 33.7081C0.049313 33.6783 0.00195312 35.071 0.00195312 36.8058Z" fill="white"/>
</g>
</svg>
