<svg width="99" height="40" viewBox="0 0 99 40" fill="none" xmlns="http://www.w3.org/2000/svg">
<path fill-rule="evenodd" clip-rule="evenodd" d="M12.0321 0.504998C11.7784 0.785552 11.3556 1.45187 11.0914 1.98843C10.1789 3.86814 9.77728 4.7589 9.77728 4.93074C9.77728 5.02543 9.67158 5.30598 9.54123 5.55848C9.41439 5.80747 9.18891 6.30546 9.04094 6.66316L8.77318 7.31545L7.14197 7.50132C6.24357 7.60302 4.84489 7.72226 4.03456 7.76785C1.02581 7.93267 -0.404586 8.56743 0.0992222 9.50378C0.314134 9.90357 2.35755 11.2187 2.76624 11.2187C2.89307 11.2187 3.03752 11.2853 3.08684 11.366C3.13617 11.4466 4.28118 12.0673 5.63054 12.7407C6.98343 13.4175 8.11436 13.9997 8.14606 14.0312C8.21653 14.1014 6.60645 17.2927 6.40563 17.4715C6.29642 17.5697 5.30642 19.4775 3.72453 22.6548C3.60122 22.9038 3.49905 23.4614 3.49905 23.8962V24.6853H4.22481C5.01047 24.6853 5.59179 24.3872 7.23005 23.1387C7.73033 22.753 8.19186 22.4408 8.25528 22.4408C8.31517 22.4408 8.62873 22.2234 8.95286 21.9534C9.82308 21.2309 9.9182 21.1573 10.0098 21.1573C10.0591 21.1573 10.2247 21.0556 10.3797 20.9293C10.7602 20.6207 11.9123 19.7721 12.9798 19.0181L13.843 18.4044L14.4278 18.6989C14.7484 18.8603 15.0479 19.0321 15.0937 19.0812C15.136 19.1268 15.5517 19.3442 16.0167 19.5581C16.4818 19.7756 16.8623 20.007 16.8623 20.0737C16.8623 20.1403 17.0032 20.1964 17.1759 20.1964C17.3485 20.1964 17.5282 20.263 17.5775 20.3402C17.6268 20.4208 18.1588 20.7365 18.7542 21.0416C20.5334 21.9499 20.9668 22.1954 21.0231 22.3216C21.0513 22.3847 21.2063 22.4408 21.3649 22.4408C21.5234 22.4408 21.7454 22.5496 21.8546 22.6793C21.9673 22.8126 22.1752 22.9248 22.3196 22.9283C22.4606 22.9283 22.7213 23.037 22.8939 23.1668C23.063 23.2965 23.5175 23.4017 23.8945 23.4017C24.4617 23.4017 24.6343 23.3281 24.8633 22.9809C25.1241 22.5846 25.1241 22.532 24.8669 22.0866C24.7154 21.8271 24.5921 21.5396 24.5921 21.4519C24.5921 21.3116 23.218 19.1443 22.9855 18.9129C22.9397 18.8708 22.8305 18.713 22.7424 18.5692C22.6508 18.4219 22.073 17.5697 21.4529 16.6719C20.8329 15.7777 20.2516 14.922 20.1635 14.7747C20.0719 14.6274 19.8605 14.3013 19.6879 14.0488L19.3778 13.5893L20.2551 12.7792C21.9145 11.2467 23.4224 9.85798 24.0495 9.28635C25.3953 8.05542 25.7476 7.40313 25.4623 6.66667C25.3812 6.45275 25.0536 6.41067 23.5175 6.41067C22.5028 6.41067 21.541 6.4808 21.3825 6.56848C21.2204 6.65264 20.4841 6.79643 19.7407 6.8841C19.0008 6.97177 18.1201 7.09101 17.7889 7.14712C17.204 7.24531 17.1759 7.22778 16.9328 6.6281C16.7954 6.28792 16.4325 5.49886 16.1295 4.87814C15.823 4.2539 15.5764 3.65422 15.5764 3.542C15.5764 3.43328 15.4671 3.23339 15.3333 3.10363C15.1994 2.97037 15.0937 2.72138 15.0937 2.55304C15.0937 2.38471 15.0267 2.24443 14.9492 2.24443C14.8682 2.24443 14.759 2.06207 14.7026 1.84464C14.6498 1.62371 14.53 1.44135 14.4454 1.44135C14.3574 1.44135 14.2869 1.34315 14.2869 1.2169C14.2869 0.897774 13.2088 0 12.8213 0C12.6451 0 12.2893 0.227951 12.0321 0.504998ZM28.8198 6.77539C28.2667 6.86657 27.8122 6.99983 27.8122 7.07348C27.8122 7.15063 27.7171 7.21375 27.5973 7.21375C27.2626 7.21375 26.1246 8.08698 25.649 8.7077C25.4165 9.01281 25.11 9.71419 24.969 10.2613C24.7541 11.1064 24.7471 11.3589 24.9232 11.9201C25.5856 14.0172 26.8433 15.0272 29.9226 15.925C30.4158 16.0723 31.0112 16.188 31.2402 16.188C31.4692 16.188 31.7017 16.2546 31.7511 16.3388C31.8004 16.4194 32.0787 16.5352 32.3641 16.5948C34.6788 17.0823 33.488 19.716 30.9548 19.716C29.7675 19.716 28.1363 18.7831 28.1363 18.1063C28.1363 17.7275 27.6818 16.8753 27.4317 16.7807C27.1463 16.6719 24.5568 17.1243 24.3631 17.3172C24.208 17.4715 24.5568 18.8357 25.0043 19.8106C25.2121 20.2665 26.1634 21.3326 26.7095 21.7184C27.5304 22.3006 29.7288 22.9213 30.9619 22.9213C31.7299 22.9213 33.6994 22.4759 34.4146 22.1427C35.2566 21.7465 36.2607 20.7575 36.7328 19.8527C37.5889 18.208 37.1802 15.7636 35.8309 14.4766C35.2037 13.8804 33.865 13.1475 33.3858 13.137C33.1991 13.137 32.9067 13.0282 32.734 12.8985C32.5614 12.7687 32.2443 12.6635 32.0259 12.6635C31.5679 12.6635 30.0917 12.2497 29.2637 11.892C28.2702 11.4641 28.0342 10.8399 28.6401 10.2367C28.9255 9.95617 29.225 9.88253 30.37 9.82641C32.0646 9.74575 32.4029 9.89655 32.9666 10.9802L33.3858 11.7798L34.9078 11.7237C35.7428 11.6921 36.4826 11.6325 36.5496 11.5939C36.7222 11.4922 36.7011 10.3104 36.5214 9.97721C36.4404 9.82291 36.3276 9.58794 36.2748 9.45819C35.9471 8.66211 35.1403 7.6942 34.8056 7.6942C34.6929 7.6942 34.5801 7.63809 34.5484 7.57497C34.4357 7.31896 33.3259 6.90865 32.3077 6.74382C31.0817 6.54393 30.2256 6.55094 28.8198 6.77539ZM55.5639 10.868C55.0848 10.896 54.6515 11.0153 54.5387 11.1485C54.433 11.2748 54.2463 11.38 54.123 11.38C53.9997 11.38 53.901 11.4396 53.901 11.5132C53.901 11.5904 53.7213 11.7307 53.4994 11.8324C53.1295 12.0007 53.0942 11.9832 53.0942 11.622C53.0942 11.0889 52.6644 10.8995 51.4454 10.8995C49.7543 10.8995 49.8635 10.4682 49.9128 16.8298L49.9551 22.3602H53.3373L53.4184 18.4464C53.4782 15.5147 53.5487 14.5152 53.7002 14.4661C53.8094 14.4275 53.901 14.2977 53.901 14.1715C53.901 14.0488 53.9785 13.9435 54.0737 13.9435C54.1688 13.9435 54.3555 13.8383 54.4859 13.7051C54.817 13.3754 55.726 13.4 56.0255 13.7437C56.5469 14.3433 56.6385 15.1008 56.6385 18.7761V22.4408H58.2521C59.3971 22.4408 59.8903 22.3812 59.9432 22.2409C59.9855 22.1287 60.0383 20.4138 60.0665 18.4289C60.1088 15.1324 60.1405 14.7817 60.4294 14.3959C61.134 13.4526 62.1381 13.2071 62.73 13.8348C63.0682 14.196 63.0788 14.3223 63.0788 18.1448C63.0788 21.3221 63.1246 22.1182 63.3043 22.2655C63.4487 22.3882 64.0653 22.4373 65.0377 22.4058L66.542 22.3602V17.8713C66.542 13.9225 66.5068 13.3158 66.2602 12.8248C65.8585 12.0218 65.6648 11.8078 64.8791 11.3169C64.2661 10.9311 64.0195 10.8785 62.8427 10.875C61.666 10.8715 61.4229 10.9241 60.8028 11.3063C60.4153 11.5448 59.9502 11.878 59.767 12.0428C59.4359 12.3409 59.4253 12.3409 59.1223 12.0042C58.2838 11.0749 57.3255 10.7663 55.5639 10.868ZM40.6963 11.4045C39.7415 11.9271 38.6036 12.9265 38.6036 13.2422C38.6036 13.3509 38.5472 13.4631 38.4803 13.4912C38.2407 13.5964 37.8073 14.687 37.6488 15.5918C37.4233 16.8613 37.6876 18.8462 38.209 19.8387C38.977 21.2906 40.2489 22.1673 42.317 22.6653C43.6205 22.9809 43.6804 22.9809 44.7444 22.6618C46.0867 22.262 46.668 21.9393 47.5382 21.1292C48.8312 19.9229 49.3914 18.5937 49.3914 16.7491C49.3914 14.9044 48.7819 13.4912 47.4325 12.1971C47.2811 12.0568 46.7174 11.7061 46.1713 11.4186C45.2235 10.9206 45.1108 10.8995 43.3809 10.9101C41.6898 10.9206 41.5278 10.9486 40.6963 11.4045ZM71.2207 11.0468C71.1679 11.1275 70.9107 11.2432 70.6465 11.2993C70.3822 11.3589 70.1638 11.4712 70.1638 11.5518C70.1638 11.636 70.0616 11.7026 69.9383 11.7026C69.6741 11.7026 67.909 13.5858 67.909 13.8664C67.909 13.9716 67.7857 14.3013 67.6307 14.6029C67.4158 15.0202 67.3523 15.5357 67.3594 16.8298C67.3664 18.3027 67.4228 18.6288 67.7963 19.4284C68.3142 20.5401 69.1315 21.4729 69.9559 21.8902C70.2906 22.0621 70.6042 22.2409 70.65 22.2935C70.6923 22.3426 71.337 22.5145 72.0804 22.6723C73.3663 22.9458 73.4791 22.9458 74.4162 22.6793C74.9553 22.5285 75.6493 22.2865 75.9523 22.1427C76.8437 21.7219 78.1331 20.3647 78.637 19.3162C79.0386 18.4885 79.102 18.1624 79.102 16.9911C79.102 15.7251 78.873 14.5187 78.5207 13.9435C78.4432 13.8138 78.3304 13.6069 78.2705 13.4841C78.0275 12.9721 76.7626 11.8639 75.8924 11.401C74.9976 10.9241 74.8602 10.8995 73.1303 10.8995C72.1297 10.8995 71.2701 10.9662 71.2207 11.0468ZM81.2229 11.3624C80.1625 11.9481 79.183 13.2948 79.183 14.1715C79.183 15.0693 79.7186 16.209 80.4408 16.8403C80.8354 17.1875 81.2652 17.4715 81.3956 17.4715C81.5224 17.4715 81.8219 17.5697 82.0579 17.6925C82.5617 17.9555 83.6398 18.2501 84.6791 18.4149C85.7325 18.5797 86.2962 18.9725 86.1271 19.4249C85.9827 19.8141 85.1794 20.1648 84.3973 20.1859C83.6257 20.2034 82.84 19.8001 82.4948 19.2074C82.3257 18.9129 82.1213 18.6288 82.0368 18.5762C81.6563 18.3202 79.0914 18.8287 78.9505 19.1829C78.7286 19.765 80.0392 21.4729 81.1736 22.0796C81.769 22.3988 83.7314 22.9038 84.4078 22.9143C85.0631 22.9248 86.8917 22.4759 87.4765 22.1673C87.9098 21.9358 88.692 21.1959 89.3156 20.4314C89.6714 19.9965 89.6397 17.8433 89.2733 17.2295C88.9492 16.693 87.8781 15.8689 87.5012 15.8689C87.3673 15.8689 87.1594 15.7707 87.0361 15.6479C86.9163 15.5287 86.5675 15.3919 86.261 15.3428C85.9545 15.2937 85.3802 15.1675 84.9786 15.0623C82.833 14.4976 82.5652 14.3924 82.5652 14.1224C82.5652 13.6174 82.9211 13.4631 84.1119 13.4631H85.2745L85.8418 14.1434C86.3949 14.8063 86.416 14.8168 86.9516 14.6239C87.2545 14.5152 87.7337 14.4275 88.0226 14.4275C88.6885 14.4275 89.1676 14.1715 89.1676 13.8173C89.1676 13.4035 88.537 12.3128 88.0578 11.8955C87.1242 11.0819 86.3878 10.8995 84.1154 10.9171C82.1389 10.9311 81.9487 10.9592 81.2229 11.3624ZM42.627 13.8489C42.2888 13.9716 41.8801 14.3153 41.5947 14.7151C41.1578 15.3288 41.1261 15.4761 41.1332 16.8262C41.1402 18.0817 41.1931 18.3518 41.5207 18.8357C41.7321 19.1408 41.9646 19.3933 42.0351 19.3933C42.1091 19.3933 42.2782 19.502 42.4086 19.6353C42.7961 20.0175 44.1525 19.9509 44.7444 19.5161C45.5301 18.9409 45.8507 18.1448 45.8507 16.7701C45.8507 15.0552 45.3398 14.182 44.1349 13.8208C43.3598 13.5893 43.3563 13.5893 42.627 13.8489ZM72.4715 13.8208C72.1931 13.912 71.7246 14.2276 71.4357 14.5257C70.9142 15.0588 70.9107 15.0833 70.9037 16.6299C70.8966 17.9064 70.9565 18.2886 71.2172 18.7235C71.9254 19.9088 73.5813 20.2771 74.5114 19.4529C75.2688 18.7796 75.6388 17.9169 75.6388 16.8192C75.6388 15.2516 75.0257 14.1996 73.8842 13.8103C73.2571 13.5964 73.169 13.5999 72.4715 13.8208ZM20.9104 24.1207C20.6144 24.2539 20.2339 24.3626 20.0684 24.3626C19.6315 24.3626 18.18 25.2814 17.3872 26.0565C16.6509 26.7754 15.5764 28.6902 15.5764 29.2758C15.5764 29.4722 15.5024 29.6791 15.4143 29.7352C15.3192 29.7914 15.2522 30.8014 15.2522 32.2182C15.2522 33.635 15.3192 34.6449 15.4143 34.7046C15.5024 34.7572 15.5764 34.9045 15.5764 35.0307C15.5764 35.3674 16.2563 36.8683 16.4113 36.8683C16.4818 36.8683 16.5417 36.9595 16.5417 37.0717C16.5417 37.447 18.3772 39.0497 19.3461 39.5266C20.2516 39.9685 20.4031 39.993 22.4183 39.993C24.4265 39.993 24.585 39.9685 25.4376 39.5406C26.713 38.8953 27.7558 37.8713 28.3231 36.6965C29.0418 35.2166 29.0065 34.6239 28.2068 34.6239C27.9989 34.6239 27.7911 34.5573 27.7417 34.4766C27.6924 34.396 27.3612 34.2802 27.0089 34.2206C26.6531 34.161 26.3642 34.0418 26.3642 33.9576C26.3642 33.6385 25.6455 33.912 25.4517 34.3013C25.2861 34.6449 25.117 34.9921 24.9549 35.3358C24.7858 35.683 24.3807 36.1845 24.053 36.451C23.5034 36.8929 23.3625 36.928 22.2562 36.9139C21.1676 36.8999 20.9949 36.8508 20.4242 36.4019C20.0789 36.1284 19.6526 35.6339 19.48 35.3043C18.7049 33.8103 18.719 30.2297 19.5117 28.7323C19.8217 28.1466 20.7025 27.4102 21.0971 27.4102C21.2416 27.4102 21.541 27.326 21.7665 27.2243C22.0836 27.0805 22.3831 27.0875 23.0947 27.2558C24.1129 27.5013 24.9197 28.1431 25.1804 28.9216C25.427 29.6581 25.7547 29.7738 26.6672 29.4512C27.1005 29.2969 27.6114 29.1741 27.8052 29.1741C27.9989 29.1741 28.3054 29.0935 28.4851 28.9988C28.7635 28.848 28.7987 28.7217 28.7141 28.1887C28.4569 26.5895 26.6284 24.8326 24.5921 24.2294C23.4506 23.8927 21.5481 23.8366 20.9104 24.1207ZM41.1226 24.3346C40.876 24.3837 40.8584 25.0149 40.8971 32.1094L40.9394 39.8317L42.4438 39.8773C43.4162 39.9088 44.0292 39.8598 44.1736 39.737C44.3498 39.5932 44.3991 38.969 44.3991 36.8473V34.1435L46.8548 34.1364C48.7608 34.1329 49.3808 34.0803 49.6239 33.898C49.7966 33.7682 50.0291 33.6595 50.1454 33.6595C50.4554 33.6595 51.6321 32.8108 51.6392 32.5794C51.6427 32.4707 51.7096 32.3795 51.7871 32.3795C51.8611 32.3795 52.15 31.9201 52.4284 31.3554C53.3831 29.4301 53.0449 27.1962 51.5793 25.7374C50.2123 24.3767 50.2158 24.3767 45.5124 24.3276C43.2435 24.303 41.2706 24.3065 41.1226 24.3346ZM58.164 24.3311L56.7125 24.3767L56.494 24.8922C56.3531 25.2218 56.2087 25.548 56.0537 25.8706C55.9339 26.1266 55.8317 26.4422 55.8317 26.5685C55.8317 26.6947 55.7331 26.9893 55.6097 27.2243C55.4864 27.4593 55.275 27.9397 55.1447 28.2904C54.8206 29.1566 54.3907 30.2543 54.1089 30.9346C53.9821 31.2432 53.82 31.643 53.7531 31.8184C53.6826 31.9937 53.5064 32.411 53.3585 32.7442C53.214 33.0774 53.0942 33.4842 53.0942 33.6455C53.0942 33.8103 52.9885 34.0312 52.8547 34.1435C52.7208 34.2522 52.6116 34.4977 52.6116 34.6905C52.6116 34.8834 52.5059 35.1815 52.3755 35.3533C52.2451 35.5252 52.1359 35.7917 52.1359 35.946C52.1289 36.2301 52.0866 36.3423 51.5934 37.3207C51.4454 37.6153 51.3256 37.9274 51.3256 38.0186C51.3256 38.1063 51.2093 38.4219 51.0684 38.7165C50.5858 39.7265 50.7161 39.8282 52.5939 39.8773C54.0384 39.9194 54.2886 39.8843 54.4788 39.6388C54.5986 39.481 54.6973 39.2531 54.7008 39.1338C54.7043 39.0146 54.8065 38.6919 54.9298 38.4149C55.0531 38.1343 55.2891 37.5662 55.4547 37.1489L55.7542 36.3879H58.4987C61.3243 36.3844 61.6308 36.451 61.6308 37.0472C61.6308 37.198 61.7329 37.5276 61.8563 37.7766C62.1346 38.3272 62.3777 38.8918 62.5891 39.4705L62.7511 39.9124H70.3012C76.8719 39.9124 77.883 39.8808 78.0592 39.6669C78.2001 39.4985 78.2318 39.1128 78.1648 38.3868C78.0556 37.2331 78.2071 37.0647 78.6052 37.9029C78.9047 38.5306 79.9581 39.4284 80.7931 39.7651C81.4977 40.0491 85.2534 40.0877 85.4296 39.8142C85.493 39.716 85.6938 39.5897 85.8735 39.5336C86.6274 39.2986 88.0402 37.5487 88.0402 36.8508C88.0402 36.3809 87.0291 36.0442 85.7924 36.1003C84.9222 36.1389 84.732 36.195 84.6862 36.4405C84.5699 37.0437 84.0591 37.3488 83.1571 37.3488C82.4243 37.3488 82.2341 37.2787 81.8078 36.8648C81.3181 36.3879 81.001 35.6444 81.2018 35.4445C81.2582 35.3884 82.8718 35.3078 84.7919 35.2657L88.2798 35.185L88.3326 34.5713C88.396 33.8103 88.079 31.7132 87.8711 31.5062C87.7865 31.4221 87.7161 31.2537 87.7161 31.1345C87.7161 30.8785 86.9586 29.8264 86.557 29.5283C86.409 29.4161 86.1906 29.2373 86.0743 29.1285C85.3873 28.4728 83.439 28.0484 82.0826 28.2588C80.8636 28.4447 80.2047 28.7919 79.2641 29.7423C78.2952 30.7207 78.0169 31.2678 77.6505 32.909C77.4109 33.9786 77.4003 34.2872 77.5694 35.0728C77.6787 35.5743 77.8055 36.1845 77.8513 36.4265L77.9323 36.8683H69.6318L69.9383 36.5071C70.1074 36.3072 70.2906 36.1108 70.347 36.0653C70.4034 36.0197 70.7029 35.6514 71.0164 35.2446C71.5449 34.5503 72.1156 33.8594 72.5067 33.4386C72.5948 33.3404 73.0281 32.7898 73.465 32.2182C73.8983 31.6465 74.3141 31.1345 74.3845 31.0854C74.455 31.0363 74.691 30.7593 74.9024 30.4717C75.1173 30.1806 75.5542 29.6651 75.8713 29.3249C76.1849 28.9848 76.4456 28.6306 76.4456 28.5394C76.4456 28.4482 76.5055 28.3711 76.5794 28.3711C76.6534 28.3711 76.9423 28.0519 77.2242 27.6627C77.6963 27.0104 77.735 26.8596 77.735 25.6567V24.3591L66.2214 24.4433L66.1721 25.7935C66.1404 26.7614 66.1827 27.1787 66.3342 27.2769C66.4469 27.3505 67.9196 27.4066 69.6001 27.4031C71.2842 27.3996 72.7251 27.3996 72.7991 27.4031C72.8766 27.4066 72.6969 27.6872 72.3975 28.0274C72.0487 28.4307 71.7069 28.8375 71.3722 29.2548C70.6007 30.2297 70.0969 30.8505 70.0053 30.9346C69.9595 30.9802 69.6353 31.3765 69.2866 31.8184C68.9342 32.2567 68.6066 32.6565 68.5573 32.6986C68.5079 32.7442 68.0077 33.3579 67.4475 34.0628C65.3512 36.707 65.1786 36.8718 65.168 36.2651C65.1645 36.1108 65.0553 35.8443 64.9249 35.6725C64.7981 35.5041 64.6889 35.1955 64.6889 34.9921C64.6889 34.7887 64.6219 34.6239 64.5409 34.6239C64.4599 34.6239 64.3436 34.3889 64.2802 34.1084C64.2168 33.8243 64.1075 33.4806 64.0336 33.3474C63.9596 33.2106 63.7834 32.8108 63.6425 32.4601C63.498 32.1059 63.2761 31.615 63.1493 31.3625C63.0224 31.1135 62.9202 30.8119 62.9202 30.6961C62.9202 30.5769 62.8145 30.2753 62.6912 30.0263C62.5644 29.7773 62.3389 29.2478 62.1874 28.8515C62.0359 28.4552 61.8175 27.9152 61.7012 27.6486C61.2397 26.5895 61.0142 26.0179 60.8099 25.4077C60.4294 24.2644 60.4153 24.2574 58.164 24.3311ZM44.452 27.4557C44.4097 27.5224 44.3745 28.3535 44.3745 29.2969V31.0153L45.8753 31.0644C47.5171 31.1135 48.6198 30.8329 48.9123 30.2929C49.0955 29.9492 49.1201 28.3675 48.9475 28.1326C48.5529 27.5995 48.1548 27.4873 46.3721 27.4102C45.3574 27.3646 44.4943 27.3856 44.452 27.4557ZM33.1286 28.2904C31.4727 28.585 30.592 29.1812 29.9155 30.4717C29.454 31.3519 29.4857 31.7097 30.0283 31.8219C30.2714 31.8745 30.8562 32.0148 31.3283 32.1375C32.269 32.383 32.5861 32.3304 32.7199 31.9095C32.9454 31.2011 33.4246 30.9346 34.478 30.9346C35.6019 30.9346 36.0282 31.2047 36.0246 31.9095C36.0246 32.2427 35.8908 32.3409 35.098 32.5829C34.5907 32.7372 33.9742 32.8634 33.7276 32.8634C33.4809 32.8599 33.0194 32.9686 32.6988 33.0984C32.3817 33.2317 31.9836 33.3404 31.818 33.3404C31.4587 33.3404 30.4228 33.9751 30.0529 34.417C29.5209 35.0588 29.2637 35.8092 29.2637 36.714C29.2637 37.9555 29.6513 38.6709 30.7822 39.5196C31.3917 39.9755 31.4727 39.993 33.1603 39.993C34.2736 39.993 34.9536 39.9264 35.0241 39.8142C35.0875 39.716 35.3024 39.5827 35.5032 39.5231C35.704 39.46 35.8661 39.3512 35.8661 39.2776C35.8661 39.204 35.9718 39.1058 36.1021 39.0567C36.2501 38.997 36.4122 39.1233 36.5461 39.3968C36.7504 39.8212 36.7962 39.8352 38.3217 39.8773L39.8895 39.9229V39.4565C39.8895 39.1969 39.7838 38.7796 39.6499 38.5271C39.4562 38.1589 39.4104 37.3453 39.4104 34.4486C39.4068 31.38 39.3681 30.7417 39.1391 30.2858C38.8009 29.6125 38.1279 28.8515 37.8708 28.8515C37.7651 28.8515 37.5924 28.7533 37.4938 28.6341C37.3317 28.4377 36.8913 28.364 34.6577 28.1536C34.3934 28.1291 33.7029 28.1887 33.1286 28.2904ZM91.6831 28.3184C90.8869 28.4131 89.1676 29.4968 89.1676 29.9001C89.1676 29.9702 89.0513 30.1561 88.9104 30.3104C88.5687 30.6856 88.5616 32.639 88.8963 33.2808C89.2698 33.9927 90.4571 34.943 90.975 34.943C91.0877 34.9465 91.3696 35.0447 91.5986 35.164C91.8311 35.2832 92.3525 35.4305 92.7612 35.4936C93.1734 35.5532 93.5504 35.6725 93.5997 35.7531C93.6526 35.8373 93.9802 35.9039 94.329 35.9039C94.7553 35.9039 95.0724 36.0126 95.2979 36.2371C95.5973 36.5352 95.6079 36.6053 95.4 36.9174C94.9596 37.5838 92.8035 37.6118 92.1094 36.963C91.9121 36.7772 91.7465 36.5457 91.7465 36.444C91.7395 36.0056 91.3026 35.9074 89.8758 36.0267C88.4524 36.1459 88.4418 36.1494 88.389 36.5983C88.3009 37.3768 88.8329 38.2431 89.8898 39.0391C91.0912 39.9404 91.3061 39.993 93.6596 39.993C96.0976 39.993 96.464 39.8913 97.6478 38.8813C98.8703 37.8363 99.3459 36.0933 98.7329 34.9115C98.4088 34.2907 97.3871 33.3439 97.0383 33.3404C96.8938 33.3404 96.686 33.2317 96.5732 33.0984C96.464 32.9686 96.1963 32.8599 95.9813 32.8599C95.7629 32.8599 95.4423 32.7828 95.2662 32.6881C95.0865 32.5934 94.6038 32.4531 94.1881 32.376C92.4159 32.0498 91.9192 31.878 91.8135 31.5448C91.662 31.0644 91.9826 30.9416 93.3954 30.9381C94.4734 30.9381 94.6848 30.9837 94.9244 31.2748C95.5445 32.0218 95.5691 32.0323 96.612 31.9446C97.9437 31.8324 98.4123 31.6079 98.4757 31.0539C98.5039 30.8119 98.4511 30.6155 98.3559 30.6155C98.2608 30.6155 98.1833 30.5138 98.1833 30.3875C98.1833 30.093 97.3378 29.2513 96.5274 28.7428C95.9673 28.3886 95.6819 28.336 94.1 28.2939C93.1135 28.2658 92.0249 28.2764 91.6831 28.3184ZM58.1816 29.6686C58.0301 30.1456 57.8047 30.7277 57.6743 30.9592C57.5475 31.1941 57.4453 31.5238 57.4453 31.6886C57.4453 31.8569 57.3784 32.0639 57.3008 32.148C57.2198 32.2287 57.1071 32.5338 57.0437 32.8178L56.9344 33.3404H58.5586C60.0313 33.3404 60.4752 33.2176 60.0207 32.9406C59.9326 32.8845 59.8551 32.6811 59.8551 32.4882C59.8516 32.2953 59.7424 31.9972 59.612 31.8289C59.4817 31.657 59.376 31.394 59.376 31.2432C59.376 31.0959 59.2668 30.7663 59.1364 30.5138C59.0025 30.2613 58.8933 29.9457 58.8898 29.8124C58.8827 29.6826 58.7841 29.3986 58.6678 29.1882C58.4564 28.8129 58.4459 28.8234 58.1816 29.6686ZM82.2623 31.0503C81.8782 31.2011 81.4942 31.6711 81.3004 32.2182C81.1983 32.5092 81.1137 32.7722 81.1137 32.8038C81.1137 32.8354 81.9839 32.8599 83.0479 32.8599C84.6228 32.8599 84.9786 32.8178 84.9786 32.6285C84.9786 32.5022 84.9081 32.3514 84.8201 32.2988C84.732 32.2427 84.658 32.0638 84.658 31.9025C84.658 31.2818 83.0902 30.7207 82.2623 31.0503ZM35.2214 34.8939C34.5273 35.0062 33.2202 35.4796 32.9278 35.7216C32.5191 36.0582 32.5755 36.7456 33.0405 37.184C33.3893 37.5066 33.5443 37.5417 34.2913 37.4575C35.468 37.3207 36.0246 36.7175 36.0246 35.5813C36.0246 35.0377 35.9612 34.7887 35.8238 34.8063C35.7146 34.8168 35.4433 34.8554 35.2214 34.8939Z" fill="white"/>
</svg>
