<svg width="32" height="32" viewBox="0 0 32 32" fill="none" xmlns="http://www.w3.org/2000/svg">
<path d="M25.7625 7.41625C25.56 7.31159 25.3629 7.19687 25.1719 7.0725C24.6164 6.70528 24.1071 6.27259 23.655 5.78375C22.5237 4.48938 22.1012 3.17625 21.9456 2.25688H21.9519C21.8219 1.49375 21.8756 1 21.8837 1H16.7312V20.9237C16.7312 21.1912 16.7312 21.4556 16.72 21.7169C16.72 21.7494 16.7169 21.7794 16.715 21.8144C16.715 21.8288 16.715 21.8438 16.7119 21.8587V21.87C16.6576 22.5849 16.4284 23.2754 16.0446 23.8809C15.6607 24.4864 15.134 24.9884 14.5106 25.3425C13.861 25.7121 13.1262 25.906 12.3787 25.905C9.97812 25.905 8.03249 23.9475 8.03249 21.53C8.03249 19.1125 9.97812 17.155 12.3787 17.155C12.8332 17.1546 13.2848 17.2261 13.7169 17.3669L13.7231 12.1206C12.4115 11.9512 11.0789 12.0554 9.8096 12.4268C8.54025 12.7981 7.36164 13.4285 6.34812 14.2781C5.46003 15.0498 4.71342 15.9704 4.14187 16.9988C3.92437 17.3738 3.10374 18.8806 3.00437 21.3263C2.94187 22.7144 3.35874 24.1525 3.55749 24.7469V24.7594C3.68249 25.1094 4.16687 26.3037 4.95624 27.3106C5.59276 28.1183 6.3448 28.8278 7.18812 29.4163V29.4037L7.20062 29.4163C9.69499 31.1112 12.4606 31 12.4606 31C12.9394 30.9806 14.5431 31 16.3644 30.1369C18.3844 29.18 19.5344 27.7544 19.5344 27.7544C20.269 26.9025 20.8532 25.9318 21.2619 24.8838C21.7281 23.6581 21.8837 22.1881 21.8837 21.6006V11.0306C21.9462 11.0681 22.7787 11.6187 22.7787 11.6187C22.7787 11.6187 23.9781 12.3875 25.8494 12.8881C27.1919 13.2444 29.0006 13.3194 29.0006 13.3194V8.20438C28.3669 8.27313 27.08 8.07313 25.7625 7.41625Z" fill="#D8D8D8"/>
</svg>
