<svg width="355" height="60" viewBox="0 0 355 60" fill="none" xmlns="http://www.w3.org/2000/svg">
<mask id="mask0_40036_941" style="mask-type:luminance" maskUnits="userSpaceOnUse" x="0" y="0" width="355" height="60">
<path d="M0 0H354.745V60H0V0Z" fill="white"/>
</mask>
<g mask="url(#mask0_40036_941)">
<path fill-rule="evenodd" clip-rule="evenodd" d="M10.8061 0.896906C6.68969 2.24837 3.65886 4.6672 1.84656 8.04788C0.539409 10.487 0.295701 11.5747 0.326718 14.7768C0.353304 17.0576 0.725511 19.3506 1.24837 20.4545C2.48463 23.0641 5.75474 26.2216 8.51528 27.4756L10.8593 28.5389H2.2365V55.0365H9.46795V47.9018H13.2742C19.8898 47.9018 24.6221 45.9821 26.3812 42.5852L27.2985 40.8157L29.1861 41.9886C30.2229 42.6339 32.2789 43.4456 33.7633 43.7987C42.2709 45.8238 43.742 46.7816 41.7791 49.0016C40.8663 50.0365 40.2548 50.1907 37.1974 50.1542C34.8667 50.1299 32.7531 49.7402 30.9585 49.0097C29.4652 48.401 28.0517 47.9018 27.8169 47.9018C27.5865 47.9018 26.9706 48.8717 26.4521 50.0568C25.5349 52.1631 25.5393 52.2281 26.7136 53.1006C29.3456 55.0527 37.1088 56.0552 41.7259 55.0406C43.4097 54.6713 45.4391 53.7581 46.5292 52.8815L48.4168 51.3636V55.0365H55.0412L55.3691 47.8125L57.1149 50.0852C61.7232 56.0795 73.6205 57.2849 79.7797 52.3782L81.8756 50.7062L79.6202 48.7013L77.3648 46.6924L76.1064 47.7719C70.4878 52.5933 61.2136 48.9164 61.2136 41.875C61.2136 37.4229 64.1736 34.2289 68.742 33.7581C71.8703 33.4334 73.5319 33.8433 75.6056 35.4383L77.2894 36.737L79.5581 34.8579C81.7648 33.0357 81.8002 32.9505 80.8387 31.9602C80.2981 31.4001 79.1017 30.5154 78.1845 29.9959C77.2629 29.4764 76.8286 29.0503 77.2097 29.0503C77.6794 29.0463 77.9054 28.1453 77.9054 26.2459V23.4415H62.3258V1.01866H55.0944V2.87742C55.0944 3.90421 55.7502 5.97402 56.561 7.48376C57.5359 9.31005 58.1163 11.388 58.2936 13.6769C58.5284 16.6396 58.3467 17.5852 57.0263 20.4099C56.1844 22.22 55.3779 24.7849 55.2362 26.1161L54.9836 28.5389L50.4462 28.5268L45.9133 28.5146L48.1376 27.569C57.5979 23.5511 59.8311 10.8279 52.2408 4.22889C49.0061 1.42044 45.4657 0.263789 40.0687 0.25973C36.0054 0.255672 34.8933 0.454535 32.1549 1.6883C26.0843 4.41963 23.0092 9.41557 23.5011 15.7386C23.6606 17.7354 24.2455 19.9675 24.9411 21.2135C26.2705 23.5998 30.6926 27.3904 32.6733 27.845C33.8608 28.1209 33.719 28.267 31.2554 29.3141C29.6425 29.9959 28.1093 31.1039 27.5289 32.0008L26.5452 33.5268L25.2513 32.1185C24.5379 31.3433 23.1732 30.4099 22.2161 30.0487L20.4747 29.3872L23.8777 27.9748L27.2807 26.5584L25.2602 24.0706L23.2396 21.5787L21.2235 22.5487C19.6815 23.2873 18.4895 23.4537 16.1765 23.2508C10.9834 22.7963 8.23169 20.0933 7.93924 15.1542C7.70883 11.2419 9.20652 8.50648 12.4057 6.99268C14.9846 5.77515 19.2074 5.69398 21.5868 6.82223L23.3238 7.64609L25.0209 5.38554C25.9514 4.14366 26.718 3.00324 26.718 2.84902C26.718 2.69479 25.6723 2.08197 24.3961 1.48538C21.0906 -0.0608873 14.5769 -0.34092 10.8061 0.896906ZM98.7578 4.27759C96.1081 5.33684 95.7093 6.81817 95.7093 15.6006C95.7093 23.5511 96.0106 25.0365 97.8849 26.3555C98.8199 27.013 103.34 27.2281 104.864 26.6924C106.304 26.1851 107.394 23.7013 107.394 20.9213V18.3441H105.475C103.583 18.3441 103.557 18.3766 103.388 20.767C103.242 22.8774 103.051 23.2102 101.891 23.3604C101.164 23.4537 100.353 23.2264 100.092 22.849C99.8346 22.4756 99.6174 19.1477 99.613 15.4505C99.6042 10.0203 99.7725 8.58359 100.477 7.93424C100.96 7.49593 101.536 7.13473 101.758 7.13473C102.697 7.13473 103.499 8.46996 103.499 10.0406C103.499 11.6234 103.614 11.7208 105.444 11.7208C107.389 11.7208 107.394 11.7127 107.394 9.39528C107.394 6.41639 106.65 5.18668 104.305 4.28976C102.01 3.40908 100.938 3.40908 98.7578 4.27759ZM112.68 4.02191C112.069 4.26541 111.067 4.97564 110.456 5.59658C109.459 6.60713 109.321 7.58116 109.162 14.6347C108.918 25.2963 109.778 27.0089 115.348 27.0089C117.594 27.0089 118.325 26.7573 119.677 25.5195L121.303 24.03V7.15096L119.774 5.58035C118.135 3.90015 114.816 3.17369 112.68 4.02191ZM150.978 4.31005C150.007 4.69561 148.939 5.47483 148.611 6.03895C148.253 6.65178 148.009 10.3815 148.009 15.28C148.009 26.0268 148.501 27.0089 153.853 27.0089C155.178 27.0089 156.671 26.8669 157.168 26.6924C158.918 26.0755 159.693 23.6769 159.693 18.8799V14.2695H156.911C154.195 14.2695 154.133 14.3019 154.133 15.7995C154.133 16.8385 154.407 17.3255 154.992 17.3255C155.692 17.3255 155.825 17.8855 155.688 20.2557C155.537 22.9058 155.395 23.2021 154.195 23.3604C153.463 23.4537 152.653 23.2264 152.396 22.849C152.134 22.4756 151.917 19.1477 151.913 15.4505C151.908 10.0203 152.072 8.58359 152.781 7.93424C153.26 7.49593 153.836 7.13473 154.057 7.13473C154.997 7.13473 155.799 8.46996 155.799 10.0406C155.799 11.6234 155.914 11.7208 157.748 11.7208C159.654 11.7208 159.693 11.6761 159.693 9.65908C159.693 6.86687 158.431 4.81736 156.29 4.13148C154.039 3.41314 153.153 3.44155 150.978 4.31005ZM171.657 4.05031C171.046 4.27759 170.044 4.97564 169.433 5.59658C168.454 6.59496 168.299 7.58522 168.135 13.9002C167.922 22.3174 168.21 24.1518 170 25.7914C171.077 26.7776 171.905 27.0089 174.365 27.0089C177.072 27.0089 177.555 26.8385 178.84 25.4424C180.258 23.9001 180.28 23.7419 180.28 15.7833C180.28 10.8198 180.036 7.19966 179.646 6.42044C178.548 4.20859 174.462 2.99918 171.657 4.05031ZM190.56 4.27759C187.915 5.33684 187.516 6.81817 187.516 15.6006C187.516 25.832 188.114 26.9643 193.524 26.9927C196.006 27.0049 196.684 26.7979 197.836 25.6615C198.961 24.5495 199.201 23.7906 199.201 21.3312V18.3441H197.282C195.39 18.3441 195.363 18.3766 195.195 20.767C195.044 22.9505 194.885 23.2021 193.569 23.3441C191.641 23.5471 191.429 22.7029 191.415 14.9432C191.411 9.97158 191.584 8.57548 192.284 7.93424C192.767 7.49593 193.338 7.13473 193.564 7.13473C194.504 7.13473 195.306 8.46996 195.306 10.0406C195.306 11.6234 195.421 11.7208 197.251 11.7208C199.192 11.7208 199.201 11.7127 199.201 9.39528C199.201 6.41639 198.456 5.18668 196.112 4.28976C193.812 3.40908 192.745 3.40908 190.56 4.27759ZM204.482 4.05031C203.871 4.27759 202.87 4.97564 202.258 5.59658C201.265 6.60713 201.128 7.58116 200.969 14.6347C200.725 25.3855 201.562 27.0089 207.34 27.0089C209.879 27.0089 210.402 26.8222 211.67 25.4424C213.087 23.9001 213.11 23.7419 213.11 15.7833C213.11 10.8198 212.866 7.19966 212.476 6.42044C211.377 4.20859 207.287 2.99918 204.482 4.05031ZM229.983 4.31005C229.013 4.69561 227.949 5.47483 227.617 6.03895C227.258 6.65989 227.019 10.4951 227.019 15.6899C227.019 24.1355 227.045 24.3385 228.383 25.6615C229.544 26.8101 230.209 27.0089 232.859 27.0089C235.42 27.0089 236.213 26.7898 237.339 25.7589C238.681 24.5292 238.703 24.3669 238.703 15.7873C238.703 10.5154 238.464 6.65989 238.101 6.03895C237.467 4.95129 234.41 3.55518 232.739 3.58765C232.194 3.59983 230.953 3.9245 229.983 4.31005ZM313.477 4.0422C312.83 4.29382 311.767 5.1258 311.111 5.88879C310.008 7.17531 309.923 7.86525 309.923 15.6493V24.03L311.55 25.5195C313.739 27.5284 317.944 27.6542 320.323 25.7792L321.883 24.5495V6.64772L320.438 5.32466C318.865 3.87986 315.476 3.25486 313.477 4.0422ZM38.9344 5.4383C37.543 6.17288 35.744 7.61362 34.9331 8.64447C33.6127 10.3287 33.5196 10.7386 33.9982 12.6826C34.4502 14.5252 34.3615 15.0609 33.4044 16.2946C32.7841 17.0901 32.2789 17.849 32.2789 17.987C32.2789 18.125 33.3424 18.6201 34.6451 19.095C35.9434 19.5657 37.6759 20.5357 38.4957 21.2459C39.311 21.9521 40.8131 22.6907 41.8323 22.8815C43.0198 23.1047 43.6889 23.5308 43.6933 24.0665C43.7066 25.7102 44.3934 25.4911 44.7567 23.7297C44.9739 22.6583 44.8587 21.4691 44.4643 20.7995C43.999 20.004 43.9813 19.6144 44.4111 19.4846C44.7435 19.3831 44.8853 18.9894 44.7257 18.612C44.3136 17.6258 46.6045 17.0941 47.699 17.9221C48.5054 18.5308 48.5497 18.4456 48.1243 17.0739C47.8585 16.2297 47.6724 14.8133 47.7123 13.9204C47.7787 12.1875 48.08 12.3458 42.9445 11.4448C41.8588 11.254 41.0923 10.6372 40.4852 9.47239C39.6655 7.89772 39.6743 7.67044 40.627 6.23781C41.1853 5.39366 41.9829 4.57791 42.3906 4.42775C42.9489 4.22483 42.9267 4.15178 42.2931 4.13148C41.8367 4.11931 40.3213 4.70778 38.9344 5.4383ZM123.527 15.5438V27.0089H134.1V23.4415H127.422V4.07872H123.527V15.5438ZM135.212 15.5438V27.0089H146.343V23.4415H139.665V17.3255H142.169C144.659 17.3255 144.672 17.3174 144.672 15.5438C144.672 13.7703 144.659 13.7581 142.169 13.7581H139.665V7.64609H146.343V4.07872H135.212V15.5438ZM161.922 15.5438V27.0089H165.817V4.07872H161.922V15.5438ZM215.334 15.5438V27.0089H225.906V23.4415H219.229V4.07872H215.334V15.5438ZM240.928 15.5438V27.0089H244.823L244.893 20.767L244.96 14.5252L246.112 20.767L247.26 27.0089H251.336L252.471 20.2557L253.605 13.5065L253.663 20.2557L253.725 27.0089H257.619V4.07872H254.899C253.233 4.07872 252.072 4.32629 251.908 4.7159C251.762 5.06492 251.19 8.30762 250.641 11.9237C250.029 15.9253 249.484 18.1169 249.249 17.5284C249.037 16.9967 248.407 13.754 247.858 10.3206L246.852 4.07872H240.928V15.5438ZM259.844 15.5438V27.0089H264.049C269.238 27.0089 271.187 26.1932 272.109 23.6364C272.933 21.3433 272.45 17.0089 271.227 15.7752C270.416 14.9513 270.412 14.7362 271.209 13.3198C272.229 11.5178 272.353 8.23051 271.471 6.44885C270.585 4.67126 268.715 4.07872 263.991 4.07872H259.844V15.5438ZM274.311 15.5438V27.0089H278.764V4.07872H274.311V15.5438ZM283.771 4.37905C283.771 4.67531 280.754 22.1063 280.138 25.3531C279.837 26.9643 279.881 27.0089 281.791 27.0089C283.661 27.0089 283.776 26.9075 284.117 24.9432C284.476 22.8855 284.485 22.8815 286.767 23.0357C288.978 23.1818 289.062 23.2549 289.23 25.0974C289.399 26.9562 289.461 27.0089 291.592 27.0089C292.797 27.0089 293.786 26.7938 293.786 26.5341C293.786 25.9659 290.564 7.4797 290.117 5.47889C289.82 4.15583 289.629 4.07872 286.789 4.07872C285.127 4.07872 283.771 4.21265 283.771 4.37905ZM295.456 15.5438V27.0089H298.766L298.917 19.4927L299.072 11.9764L301.296 19.4927L303.525 27.0089H307.695V4.07872H304.358L304.3 10.0649L304.238 16.0511L303.21 12.9951C302.546 11.0065 301.903 9.00973 301.283 7.00892L300.383 4.07872H295.456V15.5438ZM329.393 15.5438V27.0089H333.891C338.114 27.0089 338.481 26.9196 340.01 25.5195L341.636 24.03V15.8604C341.636 10.9578 341.388 7.19561 341.02 6.44885C340.134 4.67126 338.264 4.07872 333.541 4.07872H329.393V15.5438ZM343.861 15.5438V27.0089H354.433V23.4415H348.314V17.3255H350.817C353.308 17.3255 353.321 17.3174 353.321 15.5438C353.321 13.7703 353.308 13.7581 350.817 13.7581H348.314V7.64609H354.433V4.07872H343.861V15.5438ZM114.209 7.47158C113.695 7.66233 113.513 9.72401 113.513 15.3125C113.513 22.0211 113.628 22.9505 114.488 23.3563C116.641 24.3709 116.854 23.681 116.854 15.556C116.854 8.91233 116.721 7.70697 115.972 7.44317C115.489 7.27272 115.051 7.15096 114.998 7.17531C114.944 7.19561 114.594 7.32954 114.209 7.47158ZM173.159 7.74755C172.703 8.16557 172.49 10.6534 172.49 15.629C172.49 22.1104 172.601 22.9505 173.496 23.3888C175.752 24.4967 176.11 23.4294 176.11 15.5438C176.11 9.49674 175.951 8.02759 175.273 7.63392C174.187 7.00486 173.957 7.01703 173.159 7.74755ZM205.989 7.74755C205.528 8.16557 205.32 10.6534 205.32 15.629C205.32 22.1104 205.426 22.9505 206.321 23.3888C208.581 24.4967 208.936 23.4294 208.936 15.5438C208.936 9.49674 208.781 8.02759 208.103 7.63392C207.013 7.00486 206.787 7.01703 205.989 7.74755ZM231.583 7.74755C231.126 8.16151 230.914 10.5925 230.914 15.3531C230.914 21.0349 231.078 22.5 231.786 23.1493C232.269 23.5917 232.752 23.9529 232.859 23.9529C232.97 23.9529 233.453 23.5917 233.936 23.1493C234.644 22.5 234.808 21.0349 234.808 15.3531C234.808 8.47807 234.489 7.13473 232.859 7.13473C232.522 7.13473 231.95 7.4107 231.583 7.74755ZM315.068 7.47158C314.554 7.66233 314.372 9.76866 314.372 15.5438C314.372 23.681 314.58 24.3709 316.738 23.3563C317.598 22.9505 317.713 22.0211 317.713 15.3247C317.713 8.89203 317.58 7.70697 316.831 7.44317C316.348 7.27272 315.91 7.15096 315.857 7.17531C315.803 7.19561 315.449 7.32954 315.068 7.47158ZM264.297 10.4464C264.297 13.2792 264.319 13.3157 265.826 13.1575C267.27 13.0032 267.359 12.849 267.359 10.4464C267.359 8.04788 267.27 7.8896 265.826 7.73944C264.319 7.5771 264.297 7.61768 264.297 10.4464ZM333.847 15.5438V23.4415H335.127C337.458 23.4415 337.741 22.6096 337.741 15.7386C337.741 12.1713 337.591 8.89203 337.405 8.44966C337.205 7.97077 336.412 7.64609 335.455 7.64609H333.847V15.5438ZM286.368 11.7208C286.16 12.7029 285.779 14.8214 285.522 16.4367L285.052 19.3669H286.638C288.468 19.3669 288.473 19.3263 287.449 13.7581C286.807 10.2557 286.714 10.0852 286.368 11.7208ZM264.297 20.1623V23.5065L266.105 23.3482C267.846 23.194 267.922 23.0925 268.086 20.7264C268.281 17.9505 267.563 16.8182 265.622 16.8182C264.363 16.8182 264.297 16.9805 264.297 20.1623ZM147.508 29.3303C146.059 31.5828 146.059 31.595 147.623 31.595C148.78 31.595 152.462 28.7662 152.462 27.8774C152.462 27.6786 151.611 27.5203 150.57 27.5203C148.988 27.5203 148.483 27.8206 147.508 29.3303ZM55.0944 32.362C55.0944 34.1802 55.1918 35.6737 55.3159 35.6737C55.44 35.6737 56.0559 34.8701 56.6895 33.888C57.3187 32.9058 59.0203 31.4164 60.4692 30.5763L63.1013 29.0463H55.0944V32.362ZM47.6635 32.2321C47.4907 32.8612 47.0254 33.7703 46.6311 34.2492C45.9576 35.0609 45.705 35.0527 42.5722 34.0706C40.4099 33.3928 38.4735 33.1209 37.0689 33.2914C34.397 33.6201 32.5758 35.1339 33.081 36.599C33.4576 37.6826 34.6451 38.1615 40.3434 39.517C42.1779 39.9553 44.7435 40.8563 46.0462 41.5219L48.4168 42.7354V36.9115C48.4168 33.7053 48.3193 31.0876 48.1997 31.0876C48.08 31.0876 47.8408 31.6031 47.6635 32.2321ZM112.029 32.8247C109.787 33.7459 109.064 35.004 109.064 37.9667C109.064 40.9131 109.587 41.8344 113.309 45.4464C116.42 48.4578 117.182 50.6737 115.534 51.9277C114.227 52.918 112.959 52.0373 112.959 50.142C112.959 48.4537 112.902 48.4131 110.66 48.4131H108.364L108.732 50.5154C109.251 53.4821 109.986 54.5049 112.197 55.3531C116.291 56.9196 120.098 54.8661 120.594 50.8238C120.944 47.9992 119.872 45.9578 116.252 42.5487C113.314 39.7849 112.299 37.3174 113.673 36.2743C114.86 35.3693 116.305 36.0958 116.673 37.776C116.952 39.0544 117.24 39.2411 118.941 39.2411H120.895L120.585 37.1226C120.018 33.2467 115.955 31.2053 112.029 32.8247ZM132.482 32.5365C131.742 32.7313 130.617 33.5349 129.979 34.3182C128.942 35.5844 128.796 36.5787 128.636 43.2833C128.499 49.1924 128.645 51.2297 129.314 52.6948C130.878 56.1282 136.337 56.9724 139.164 54.2167C140.104 53.3036 140.489 52.2037 140.671 49.935L140.91 46.8831H138.899C136.922 46.8831 136.882 46.9237 136.882 48.888C136.882 51.3596 135.628 52.7273 134.064 51.9602C133.076 51.4773 132.988 50.8279 132.988 44.1639C132.988 37.2605 133.311 35.6737 134.729 35.6737C135.686 35.6737 136.882 37.3904 136.882 38.7662C136.882 40.142 137.042 40.2597 138.899 40.2597H140.919L140.644 37.6664C140.223 33.6282 136.692 31.4083 132.482 32.5365ZM145.492 32.7922C142.842 33.888 142.448 35.3612 142.448 44.1315C142.448 53.4821 142.864 54.6915 146.383 55.556C149.254 56.2662 152.121 55.4789 153.455 53.6161C154.651 51.944 155.152 39.651 154.159 36.2825C153.171 32.9261 149.121 31.2946 145.492 32.7922ZM172.145 32.4432C171.493 32.569 170.368 33.2508 169.641 33.957C168.352 35.211 168.321 35.4789 168.321 44.1112V52.9748L169.832 54.3588C171.077 55.4992 171.835 55.7427 174.161 55.7427C176.487 55.7427 177.245 55.4992 178.494 54.3588L180.005 52.9748V44.0828C180.005 35.2678 179.992 35.1745 178.614 33.9367C177.214 32.6786 174.347 32.017 172.145 32.4432ZM185.566 32.5852C184.955 32.8165 183.953 33.5146 183.342 34.1355C182.318 35.1786 182.23 35.9862 182.23 44.1234C182.23 52.8937 182.243 52.987 183.621 54.2289C186.696 56.9927 192.146 56.0308 193.462 52.4878C193.83 51.5097 194.145 48.9286 194.158 46.7573L194.189 42.8084H188.07V44.5901C188.07 45.836 188.322 46.3758 188.907 46.3758C189.545 46.3758 189.74 47.0211 189.74 49.1234C189.74 51.9562 189.045 52.8003 187.237 52.1631C185.996 51.7289 185.996 36.4326 187.237 35.9984C188.863 35.4261 189.74 36.2216 189.74 38.2751V40.2597H194.344L193.999 37.9464C193.524 34.8011 192.767 33.6769 190.547 32.8247C188.455 32.0251 187.224 31.9643 185.566 32.5852ZM198.908 32.7922C196.254 33.888 195.86 35.3612 195.86 44.1315C195.86 53.4821 196.276 54.6915 199.794 55.556C202.666 56.2662 205.533 55.4789 206.871 53.6161C208.063 51.944 208.563 39.651 207.575 36.2825C206.587 32.9261 202.533 31.2946 198.908 32.7922ZM213.389 32.4553C211.594 32.8815 210.362 34.168 209.746 36.2622C208.869 39.2532 209.871 41.8303 213.043 44.7078C217.129 48.4131 218.112 50.8888 215.928 51.9602C214.567 52.6299 213.11 51.4367 213.11 49.651C213.11 48.5674 212.857 48.4131 211.089 48.4131H209.069L209.357 50.767C209.755 53.9975 211.634 55.6859 214.9 55.7508C218.108 55.8198 220.115 54.5698 220.961 51.9805C221.892 49.1437 220.913 46.4367 217.966 43.6972C214.864 40.8198 213.672 39.2126 213.668 37.9018C213.659 35.4058 216.796 35.1583 217.111 37.6258C217.244 38.6972 217.62 39.0219 218.879 39.1518C219.756 39.2451 220.718 39.1031 221.006 38.8352C221.732 38.1696 220.611 34.5251 219.371 33.5024C218.285 32.6096 215.095 32.0536 213.389 32.4553ZM95.7093 44.0828V55.5479H100.162V46.8831H102.143C104.846 46.8831 106.229 46.1039 107.164 44.0584C108.803 40.4586 107.74 34.3831 105.249 33.1656C104.633 32.8612 102.236 32.6136 99.9188 32.6136H95.7093V44.0828ZM122.415 44.0828V55.5479H126.868V32.6136H122.415V44.0828ZM156.357 44.0828V55.5479H166.929V51.9805H160.806V32.6136H156.357V44.0828ZM9.46795 38.2954V42.9545L13.416 42.6501C17.9534 42.3052 19.7967 41.4164 20.293 39.3466C21.1482 35.7711 18.2503 33.6323 12.5475 33.6323H9.46795V38.2954ZM147.216 36.4732C145.935 37.6461 145.931 50.5154 147.216 51.6883C147.871 52.293 148.35 52.3579 149.161 51.9602C150.145 51.4773 150.238 50.8279 150.238 44.1639C150.238 39.1924 150.025 36.7045 149.569 36.2825C148.687 35.4789 148.266 35.5113 147.216 36.4732ZM173.186 36.0105C172.672 36.2013 172.49 38.3036 172.49 44.0706C172.49 50.5357 172.637 51.9196 173.328 52.1631C173.784 52.3255 174.537 52.3255 174.994 52.1631C176.274 51.7167 176.23 36.4326 174.95 35.9821C174.467 35.8117 174.028 35.6899 173.975 35.7143C173.926 35.7346 173.571 35.8685 173.186 36.0105ZM200.627 36.4732C199.347 37.6461 199.347 50.5154 200.627 51.6883C201.288 52.293 201.766 52.3579 202.577 51.9602C203.561 51.4773 203.649 50.8279 203.649 44.1639C203.649 39.1924 203.441 36.7045 202.98 36.2825C202.103 35.4789 201.678 35.5113 200.627 36.4732ZM100.162 39.7484V43.3847L101.691 43.2224C103.184 43.0641 103.22 42.9829 103.22 39.7484C103.22 36.5138 103.184 36.4326 101.691 36.2743L100.162 36.1161V39.7484ZM2.2365 59.3709C2.2365 60.0203 3.68545 60.1339 11.9715 60.1339C20.2575 60.1339 21.7065 60.0203 21.7065 59.3709C21.7065 58.7175 20.2575 58.6039 11.9715 58.6039C3.68545 58.6039 2.2365 58.7175 2.2365 59.3709ZM22.2648 59.3709C22.2648 59.9878 23.1599 60.1339 26.9927 60.1339C30.8256 60.1339 31.7251 59.9878 31.7251 59.3709C31.7251 58.75 30.8256 58.6039 26.9927 58.6039C23.1599 58.6039 22.2648 58.75 22.2648 59.3709ZM32.2789 59.3709C32.2789 59.9878 33.1784 60.1339 37.0113 60.1339C40.8441 60.1339 41.7392 59.9878 41.7392 59.3709C41.7392 58.75 40.8441 58.6039 37.0113 58.6039C33.1784 58.6039 32.2789 58.75 32.2789 59.3709Z" fill="white"/>
</g>
</svg>
