<svg width="156" height="60" viewBox="0 0 156 60" fill="none" xmlns="http://www.w3.org/2000/svg">
<mask id="mask0_40036_946" style="mask-type:luminance" maskUnits="userSpaceOnUse" x="0" y="0" width="156" height="60">
<path d="M0 0H155.973V60H0V0Z" fill="white"/>
</mask>
<g mask="url(#mask0_40036_946)">
<path fill-rule="evenodd" clip-rule="evenodd" d="M71.1246 6.23512V12.474H57.3999V25.1377H71.1246V37.7083H84.8494V25.1377H98.5742V12.474H84.8494V0H71.1246V6.23512ZM58.3747 46.1235C57.8182 46.5625 58.07 47.34 58.8134 47.4777C59.2764 47.5633 59.7922 47.1503 59.7922 46.6964C59.7922 46.0007 58.9596 45.6622 58.3747 46.1235ZM94.622 46.2426C94.2524 46.3839 93.8787 46.5253 93.5051 46.663C93.3588 46.7188 93.2979 46.8006 93.3345 46.8973C93.3832 47.0052 93.4929 47.0275 93.7894 46.9829C94.5327 46.875 94.5164 46.7969 94.5164 51.5811C94.5164 54.5982 94.4839 55.8631 94.3986 56.038C94.2849 56.2686 94.1671 56.3207 93.635 56.3951C93.5213 56.41 93.4279 56.4881 93.4279 56.5662C93.4279 56.6853 93.7122 56.7076 95.2963 56.7076C96.8845 56.7076 97.1688 56.6853 97.1688 56.5662C97.1688 56.4769 97.0266 56.4025 96.7707 56.3653C95.9827 56.25 96.0274 56.5811 95.999 50.9412L95.9706 45.9003L95.739 45.904C95.6091 45.904 95.1095 46.0603 94.622 46.2426ZM120.252 46.317C119.046 46.7857 118.81 47.0573 119.639 47.0164C120.077 46.9978 120.15 47.0238 120.268 47.2321C120.374 47.4182 120.406 48.4412 120.406 51.7708V56.0714L120.898 56.3244C121.71 56.7374 122.368 56.8973 123.266 56.8973C123.977 56.8973 124.188 56.8564 124.724 56.6183C126.446 55.8445 127.38 54.1109 127.064 52.2619C126.856 51.0268 126.28 50.2232 125.268 49.7619C124.277 49.3118 123.294 49.5089 122.356 50.3534L121.864 50.7961V45.9003L121.576 45.9077C121.422 45.9077 120.825 46.0938 120.252 46.317ZM129.679 46.0528C129.322 46.2798 129.22 46.6109 129.391 46.9866C129.651 47.5521 130.459 47.6302 130.845 47.1205C131.389 46.41 130.455 45.5543 129.679 46.0528ZM3.93458 46.4174C1.55844 47.1726 0.00683594 49.2783 0.00683594 51.7485C0.00683594 53.0283 0.44957 54.2225 1.27817 55.1823C2.32205 56.3988 3.62182 56.942 5.46587 56.942C6.53819 56.942 7.24494 56.7969 8.01668 56.4137C8.56502 56.1384 9.67795 55.1191 10.0232 54.5759C10.1979 54.2969 10.1979 54.2746 10.0313 54.215C9.90134 54.1704 9.76324 54.256 9.53578 54.5238C9.02806 55.1265 8.34162 55.6845 7.84202 55.904C6.93624 56.3058 5.30746 56.3058 4.31639 55.904C3.75586 55.6771 2.98412 55.0298 2.65106 54.5164C1.78996 53.1622 1.76153 50.2641 2.60232 48.7091C3.05724 47.8646 3.46341 47.4702 4.24328 47.1205C4.76725 46.8824 5.10438 46.8006 5.65678 46.7708C7.42772 46.6778 8.78841 47.5744 9.44642 49.256C9.54391 49.5052 9.69013 49.7098 9.7673 49.7098C9.88916 49.7098 9.90134 49.5275 9.84448 48.683C9.69013 46.3653 9.66576 46.183 9.47079 46.183C9.36519 46.183 9.23115 46.3058 9.15804 46.4732C8.97932 46.8638 8.64625 46.9196 8.04105 46.6592C7.18401 46.2909 6.64379 46.1868 5.62428 46.1905C4.86473 46.1942 4.47074 46.2463 3.93458 46.4174ZM77.5666 46.4025C76.6162 46.7002 75.7672 47.1912 75.1661 47.7902C74.6096 48.3445 73.9069 49.5722 73.7201 50.3274C73.5617 50.9487 73.5617 52.4851 73.716 53.0878C73.9394 53.9472 74.5243 54.9144 75.2108 55.558C76.3196 56.5885 77.5219 56.9941 79.2847 56.9234C81.0476 56.8527 82.1767 56.3133 83.1922 55.0558C83.7568 54.3564 83.7771 54.3006 83.5415 54.215C83.44 54.1816 83.3181 54.2448 83.2084 54.3862C82.8266 54.8921 82.0143 55.5952 81.539 55.8333C80.1296 56.5365 77.9484 56.25 76.8192 55.2121C75.7591 54.2448 75.2961 52.407 75.6251 50.4688C75.8891 48.9211 76.3846 48.0283 77.3473 47.3549C78.643 46.4509 80.8323 46.5997 81.9696 47.6711C82.3108 47.9874 82.9322 49.003 83.1191 49.5424C83.1516 49.6317 83.2531 49.7098 83.3465 49.7098C83.4887 49.7098 83.5049 49.6243 83.444 49.0997C83.4034 48.7649 83.3425 47.9836 83.3059 47.3624C83.249 46.4137 83.2084 46.2314 83.0622 46.2054C82.9607 46.1868 82.8347 46.276 82.7535 46.4323C82.5382 46.8304 82.3148 46.9196 81.9127 46.7634C80.6576 46.2872 80.2108 46.1905 79.236 46.1905C78.4846 46.1905 78.0825 46.2426 77.5666 46.4025ZM36.9163 46.5588C36.9163 46.7336 36.9813 46.756 37.4443 46.756C37.8627 46.756 38.0211 46.8043 38.2242 46.9903L38.476 47.2247V51.5067C38.476 53.8616 38.4476 55.8557 38.4151 55.9412C38.3176 56.1719 37.8139 56.3728 37.3387 56.3728C36.9894 56.3728 36.9163 56.4063 36.9163 56.5662C36.9163 56.7485 36.9894 56.756 39.3615 56.756C41.7376 56.756 41.8067 56.7485 41.8067 56.5662C41.8067 56.3988 41.7376 56.3728 41.2786 56.3728C40.8603 56.3728 40.7059 56.3281 40.4988 56.1421C40.2469 55.9077 40.2469 55.904 40.2469 53.9025V51.8973H41.2705L43.1795 54.3043L45.0886 56.7076L46.6199 56.7336C48.0618 56.7597 48.1471 56.7485 48.1471 56.5811C48.1471 56.4397 48.0456 56.3839 47.7206 56.3356C46.6889 56.1868 46.1446 55.7106 44.3047 53.378C43.0739 51.8118 43.0414 51.7597 43.277 51.6741C43.4111 51.6258 43.8172 51.4621 44.1747 51.3058C46.0553 50.4985 46.299 48.2366 44.6296 47.0722C43.8091 46.4955 43.4436 46.4435 40.0114 46.3988C36.9285 46.3579 36.9163 46.3579 36.9163 46.5588ZM40.4216 47.1243C40.251 47.1838 40.2388 47.3586 40.2388 49.282V51.3765L40.9456 51.3505C42.7327 51.2835 43.7766 50.4688 43.7766 49.1369C43.7766 48.2478 43.2608 47.5149 42.4078 47.1912C42.0097 47.0387 40.7709 46.9978 40.4216 47.1243ZM11.9647 49.9442C10.7706 50.3944 10.5756 50.6027 11.3352 50.625C12.0703 50.6473 12.0703 50.6399 12.0703 53.4821V55.9784L11.7941 56.1756C11.6438 56.2872 11.388 56.3728 11.2214 56.3728C10.994 56.3728 10.9249 56.4174 10.9249 56.5662C10.9249 56.7485 10.994 56.756 12.8989 56.756C14.808 56.756 14.877 56.7485 14.877 56.5662C14.877 56.4137 14.808 56.3728 14.5358 56.3728C14.0728 56.3728 13.76 56.1533 13.6341 55.7292C13.5732 55.532 13.5245 54.561 13.5245 53.564C13.5245 51.6183 13.5569 51.4955 14.1784 50.8743C14.4546 50.599 14.6942 50.6027 15.1654 50.9003C15.6528 51.2016 15.9615 51.1979 16.2946 50.8929C16.4936 50.7106 16.5505 50.5766 16.518 50.3683C16.4733 50.1079 16.4936 50.0893 16.8064 50.0893C16.9892 50.0893 17.2532 50.1711 17.3872 50.2716C17.6309 50.4502 17.6309 50.465 17.6878 53.0097C17.7203 54.4159 17.7853 55.651 17.834 55.7552C18.163 56.4583 18.9226 56.9457 19.6821 56.942C20.2914 56.942 20.8479 56.689 21.5546 56.0938L22.1557 55.5915V56.2686C22.1557 56.9085 22.1679 56.9457 22.3873 56.942C22.8016 56.9345 24.804 56.1198 24.8406 55.9412C24.8731 55.7999 24.8203 55.785 24.4791 55.8333C24.2598 55.8668 24.0201 55.8594 23.947 55.8185C23.6749 55.6622 23.6099 55.0149 23.6099 52.3996V49.7098H22.3101C21.0794 49.7098 21.0103 49.7173 21.0103 49.8996C21.0103 50.0446 21.0794 50.0893 21.3068 50.0893C21.4734 50.0893 21.7293 50.1786 21.8795 50.2865L22.1557 50.4836V55.0186L21.7536 55.3497C21.5343 55.532 21.1362 55.7589 20.8682 55.8519C20.4539 55.997 20.3158 56.0045 19.9664 55.9077C19.211 55.6994 19.1988 55.6473 19.1378 52.5223L19.0891 49.7545L17.8015 49.7284C16.9445 49.7098 16.4692 49.7396 16.3718 49.814C16.2946 49.8735 16.2296 49.881 16.2296 49.8289C16.2296 49.7061 15.7544 49.5164 15.4376 49.5164C14.9501 49.5164 14.215 50.0372 13.6951 50.7515C13.5285 50.9821 13.5245 50.9673 13.5245 50.253C13.5245 49.5499 13.5123 49.5164 13.2889 49.5275C13.163 49.5313 12.5659 49.721 11.9647 49.9442ZM51.031 49.7433C50.2227 50.0521 49.7678 50.3906 49.3453 50.9784C48.7686 51.782 48.533 52.5707 48.5939 53.471C48.663 54.4494 48.7848 54.7991 49.3047 55.5134C50.0399 56.5216 51.1122 57.0089 52.4201 56.9234C53.7564 56.8341 54.8572 56.1347 55.4339 55.0037C56.2666 53.378 56.031 51.7188 54.8003 50.5283C54.122 49.8698 53.4518 49.5945 52.412 49.5461C51.7621 49.5164 51.5306 49.5499 51.031 49.7433ZM58.1269 49.9442C56.9409 50.3906 56.7418 50.6027 57.4892 50.625C57.737 50.6362 57.9929 50.6883 58.0619 50.7515C58.1919 50.8705 58.2975 57.8944 58.1797 58.6421C58.1066 59.0923 57.8263 59.4234 57.5136 59.4234C57.408 59.4234 57.0668 59.2485 56.7622 59.0365C56.0879 58.5714 55.6249 58.5491 55.2877 58.9658C54.8369 59.5201 55.5436 60.0893 56.6728 60.0856C58.1513 60.0819 59.2277 59.2076 59.5729 57.7269C59.646 57.3996 59.6866 55.8594 59.6866 53.3705V49.5164L59.4551 49.5275C59.3251 49.5313 58.7281 49.721 58.1269 49.9442ZM63.6509 49.6615C62.7127 49.9442 62.079 50.599 62.079 51.2946C62.079 51.6146 62.1359 51.7336 62.3552 51.8899C62.6883 52.1354 62.9239 52.1391 63.2245 51.9196C63.4032 51.7857 63.4682 51.6034 63.5291 51.0938C63.6184 50.2753 63.8215 50.0893 64.6258 50.0893C65.5519 50.0893 65.9621 50.5618 65.9052 51.5588L65.8727 52.1094L64.9913 52.433C63.2041 53.0841 62.2781 53.657 61.9369 54.3155C61.5632 55.0335 61.8516 56.1458 62.5218 56.5811C62.9076 56.8341 63.7728 56.9196 64.3008 56.7597C64.508 56.6964 64.9548 56.4583 65.2919 56.2314C65.629 56.0045 65.9337 55.8408 65.9702 55.8743C66.0027 55.904 66.0311 56.0305 66.0311 56.157C66.0311 56.2798 66.1449 56.4881 66.287 56.6183C66.7663 57.0573 67.5746 56.8638 68.3139 56.131C68.5454 55.9003 68.7322 55.625 68.7322 55.5208C68.7322 55.2641 68.6144 55.2753 68.3179 55.5655C68.062 55.8147 67.6559 55.8817 67.5259 55.692C67.4853 55.6324 67.4243 54.4643 67.3918 53.099C67.3309 50.6696 67.3228 50.6064 67.0791 50.2902C66.7095 49.8177 66.0474 49.5833 64.9913 49.5536C64.4308 49.535 63.9393 49.5759 63.6509 49.6615ZM87.5383 49.6615C86.4497 49.9814 85.6414 50.7292 85.15 51.875C84.9631 52.3066 84.9103 52.6153 84.9103 53.3259C84.9063 54.1481 84.9388 54.2932 85.2353 54.8735C85.877 56.1235 86.9006 56.8229 88.2369 56.9234C90.4181 57.0833 92.2297 55.3534 92.2337 53.1027C92.2337 51.1458 90.7674 49.6391 88.769 49.5536C88.2978 49.5313 87.8429 49.5722 87.5383 49.6615ZM100.743 49.6652C99.6749 49.9665 98.8422 50.7403 98.3508 51.875C98.168 52.3103 98.1192 52.6116 98.1192 53.3259C98.1192 54.1369 98.1517 54.3006 98.4401 54.8698C99.0697 56.1161 100.101 56.8229 101.442 56.9234C103.647 57.0833 105.447 55.3423 105.43 53.0543C105.418 51.4174 104.387 50.093 102.79 49.6577C102.157 49.4829 101.377 49.4866 100.743 49.6652ZM107.307 49.9368C106.064 50.4092 105.808 50.6734 106.633 50.6473C106.95 50.6362 107.149 50.6734 107.205 50.7627C107.372 51.0045 107.429 52.035 107.396 54.029C107.36 55.9784 107.356 56.0119 107.112 56.1905C106.978 56.2909 106.734 56.3728 106.568 56.3728C106.336 56.3728 106.267 56.4174 106.267 56.5662C106.267 56.7485 106.336 56.756 108.14 56.756C109.939 56.756 110.012 56.7485 110.012 56.5662C110.012 56.4137 109.939 56.3728 109.667 56.3728C108.871 56.3728 108.777 56.0528 108.769 53.3147L108.761 51.4435L109.147 51.1347C109.955 50.4836 110.885 50.2939 111.413 50.6771C111.937 51.0528 111.986 51.317 111.986 53.6942C111.986 56.1719 111.962 56.25 111.202 56.3653C110.926 56.4063 110.78 56.4807 110.755 56.5923C110.723 56.7485 110.861 56.756 112.681 56.7336C114.326 56.7113 114.639 56.6853 114.639 56.5662C114.639 56.4769 114.492 56.4025 114.249 56.3653C114.033 56.3356 113.765 56.2314 113.652 56.1347C113.452 55.971 113.44 55.8445 113.44 53.6533V51.343L113.936 51.0119C114.618 50.5543 115.191 50.4055 115.727 50.5543C116.474 50.7589 116.503 50.8594 116.539 53.5194C116.572 55.692 116.56 55.878 116.377 56.0826C116.263 56.2128 116.02 56.3281 115.776 56.3653C115.512 56.4025 115.366 56.4769 115.366 56.5662C115.366 56.6853 115.65 56.7076 117.238 56.7076C118.83 56.7076 119.106 56.6853 119.106 56.5662C119.106 56.4732 118.989 56.41 118.782 56.3914C118.095 56.3319 118.075 56.25 118.014 53.4821C117.961 51.1086 117.949 50.9747 117.713 50.532C117.392 49.933 116.84 49.5945 116.097 49.5387C115.366 49.4829 114.618 49.788 113.879 50.4502L113.335 50.9375L113.176 50.5841C112.953 50.1005 112.656 49.8363 112.128 49.6503C111.251 49.3452 110.378 49.5982 109.37 50.4502L108.761 50.9673V50.2418C108.761 49.6131 108.737 49.5201 108.582 49.5201C108.481 49.5238 107.908 49.7098 107.307 49.9368ZM129.35 49.9405C128.66 50.2046 128.245 50.4167 128.221 50.5171C128.193 50.6436 128.258 50.6734 128.534 50.6585C128.725 50.651 128.96 50.6473 129.058 50.651C129.387 50.6696 129.464 51.3095 129.432 53.7016C129.403 55.7775 129.383 55.9896 129.204 56.1756C129.078 56.3021 128.879 56.3728 128.656 56.3728C128.38 56.3728 128.31 56.4137 128.31 56.5662C128.31 56.7485 128.38 56.756 130.187 56.756C131.921 56.756 132.064 56.7411 132.031 56.5885C132.011 56.4844 131.885 56.41 131.686 56.3914C131.515 56.3728 131.272 56.2686 131.142 56.1607C130.91 55.9598 130.91 55.9561 130.91 52.7381V49.5164L130.674 49.5201C130.544 49.5238 129.947 49.7135 129.35 49.9405ZM134.858 49.6652C133.575 50.0409 132.831 51.3021 133.554 51.8713C133.912 52.1503 134.184 52.1466 134.501 51.8564C134.712 51.663 134.757 51.529 134.757 51.09C134.757 50.3497 135.037 50.0893 135.829 50.0893C136.739 50.0893 137.039 50.4167 137.198 51.5699L137.267 52.0536L136.093 52.474C134.224 53.1436 133.185 53.8728 133.03 54.6168C132.778 55.8594 133.562 56.849 134.801 56.849C135.398 56.849 135.886 56.6667 136.592 56.1793C136.893 55.971 137.161 55.8036 137.194 55.8036C137.226 55.8036 137.25 55.9338 137.25 56.0938C137.25 56.7299 138.002 57.0275 138.766 56.7002C139.277 56.4769 139.956 55.7664 139.956 55.4539V55.1935L139.61 55.4985C139.257 55.811 138.883 55.8929 138.741 55.6845C138.696 55.6176 138.636 54.4494 138.607 53.0878C138.55 50.6659 138.546 50.6064 138.298 50.2902C137.933 49.8177 137.271 49.5833 136.211 49.5536C135.65 49.535 135.155 49.5759 134.858 49.6652ZM141.203 49.9368C139.956 50.4092 139.704 50.6734 140.528 50.6473C140.849 50.6362 141.044 50.6734 141.101 50.7627C141.276 51.0156 141.324 51.8638 141.288 53.936C141.255 55.9822 141.251 56.0119 141.008 56.1942C140.874 56.2909 140.626 56.3728 140.463 56.3728C140.232 56.3728 140.163 56.4174 140.163 56.5662C140.163 56.756 140.216 56.7597 142.06 56.7336C143.664 56.7113 143.956 56.6853 143.956 56.5662C143.956 56.4695 143.81 56.4025 143.502 56.3653C142.766 56.276 142.762 56.2574 142.762 53.6979V51.4397L143.229 51.064C143.985 50.4502 144.887 50.3199 145.358 50.7515C145.703 51.0677 145.776 51.5923 145.776 53.7649C145.776 55.7366 145.764 55.8891 145.565 56.1161C145.419 56.2872 145.236 56.3728 144.968 56.3914C144.708 56.4137 144.582 56.4695 144.582 56.5662C144.582 56.6853 144.874 56.7113 146.479 56.7336C148.323 56.7597 148.376 56.756 148.376 56.5662C148.376 56.41 148.307 56.3728 148.018 56.3728C147.758 56.3728 147.604 56.3058 147.446 56.1235C147.242 55.8854 147.23 55.7515 147.23 53.6719C147.226 52.4591 147.177 51.276 147.121 51.0417C146.966 50.4204 146.564 49.9144 146.056 49.7024C145.171 49.3341 144.285 49.5573 143.327 50.3869L142.762 50.878V50.1972C142.762 49.5536 142.75 49.5164 142.527 49.5201C142.397 49.5238 141.804 49.7098 141.203 49.9368ZM150.886 49.6615C149.944 49.9442 149.314 50.599 149.31 51.2946C149.31 51.6146 149.367 51.7336 149.586 51.8899C149.944 52.1503 150.199 52.1391 150.512 51.8564C150.723 51.663 150.768 51.529 150.768 51.09C150.768 50.346 151.044 50.0893 151.844 50.0893C152.632 50.0893 152.982 50.3609 153.144 51.1012C153.347 52.035 153.351 52.0275 152.507 52.3252C149.81 53.2738 148.908 54.0327 149.03 55.253C149.131 56.2612 149.785 56.849 150.813 56.849C151.41 56.849 151.897 56.6667 152.604 56.1793C152.905 55.971 153.169 55.8036 153.193 55.8036C153.217 55.8036 153.266 55.971 153.303 56.1793C153.457 57.0759 154.485 57.0908 155.472 56.2054C155.841 55.8743 155.967 55.692 155.967 55.4799V55.1935L155.622 55.4985C155.269 55.8147 154.899 55.8929 154.749 55.6845C154.704 55.6176 154.643 54.442 154.615 53.0729C154.554 50.2232 154.558 50.2344 153.628 49.8066C152.998 49.5201 151.605 49.4457 150.886 49.6615ZM25.7586 49.7731C25.722 49.8066 25.6895 50.2567 25.6895 50.7701C25.6895 51.6444 25.7017 51.7076 25.8967 51.7076C26.0469 51.7076 26.1038 51.6444 26.1038 51.4807C26.1038 51.1793 26.3638 50.6287 26.5831 50.4613C26.7171 50.3609 27.1842 50.3199 28.4596 50.2939C29.3938 50.279 30.1615 50.2902 30.1615 50.3237C30.1615 50.3572 29.0364 51.7485 27.6635 53.4152C26.2906 55.0856 25.1696 56.5179 25.1696 56.6034C25.1696 56.7411 25.5108 56.756 28.5327 56.756H31.8959L31.965 56.1124C32.0015 55.7589 32.0299 55.2641 32.0299 55.0112C32.0299 54.6243 32.0015 54.5573 31.8512 54.5833C31.7253 54.6057 31.6481 54.7545 31.5872 55.0893C31.4735 55.6994 31.112 56.0603 30.5352 56.1384C30.2996 56.1682 29.4345 56.1793 28.614 56.1644L27.1192 56.1347L27.5254 55.6585C29.3979 53.4747 32.1356 50.0521 32.1356 49.8996C32.1356 49.7135 32.0624 49.7098 28.9836 49.7098C27.2452 49.7098 25.7951 49.7359 25.7586 49.7731ZM51.3194 50.2232C50.9091 50.3869 50.702 50.6138 50.4217 51.1868C50.2267 51.5885 50.1902 51.8229 50.1983 52.7083C50.2146 54.8624 51.1447 56.317 52.5135 56.317C53.1918 56.317 53.6508 56.0491 53.9676 55.4688C54.2114 55.0298 54.2276 54.8921 54.2276 53.6607C54.2276 52.1875 54.1504 51.8304 53.6346 51.0454C53.0862 50.2046 52.1683 49.8772 51.3194 50.2232ZM87.5058 50.3051C86.86 50.6399 86.5797 51.2388 86.531 52.3958C86.4619 53.9249 86.8519 55.1525 87.6277 55.8668C88.5862 56.7448 90.0769 56.3281 90.475 55.0744C90.7105 54.3229 90.6577 52.6525 90.3694 51.8713C89.8129 50.3534 88.6431 49.7135 87.5058 50.3051ZM100.711 50.2976C100.045 50.6548 99.7805 51.2426 99.7318 52.474C99.6749 53.9732 100.04 55.1079 100.812 55.8371C101.519 56.4993 102.534 56.503 103.221 55.8371C103.631 55.439 103.761 55.0446 103.838 53.9918C103.944 52.5372 103.424 51.0454 102.603 50.439C102.067 50.0446 101.296 49.9888 100.711 50.2976ZM122.851 50.7924C122.681 50.8631 122.384 51.0342 122.198 51.1793L121.86 51.4435L121.889 53.5454L121.913 55.651L122.356 55.9338C122.957 56.3207 123.867 56.3951 124.391 56.1012C125.191 55.6473 125.605 54.7247 125.605 53.4115C125.605 52.3772 125.362 51.7076 124.801 51.2091C124.188 50.6622 123.526 50.5208 122.851 50.7924ZM152.482 52.8683C151.528 53.2478 150.983 53.59 150.683 53.9955C150.48 54.2708 150.443 54.4159 150.484 54.8438C150.52 55.279 150.581 55.4018 150.87 55.6399C151.17 55.8854 151.272 55.9152 151.71 55.8743C152.031 55.8482 152.393 55.7255 152.734 55.5208L153.262 55.2121V53.8877C153.262 53.1622 153.25 52.567 153.238 52.5707C153.221 52.5744 152.884 52.7083 152.482 52.8683ZM65.1457 52.913C63.7687 53.4524 63.2245 53.9844 63.2245 54.7805C63.2245 55.1935 63.2691 55.2939 63.59 55.5878C63.9271 55.8966 63.9921 55.9189 64.4592 55.878C64.7801 55.8482 65.1254 55.7329 65.4178 55.5543L65.8727 55.2716L65.9052 53.9658C65.9174 53.2478 65.8971 52.6637 65.8524 52.6637C65.8077 52.6674 65.4909 52.779 65.1457 52.913ZM136.263 52.9539C134.943 53.4784 134.444 53.9807 134.444 54.788C134.444 55.186 134.493 55.2939 134.797 55.5729C135.224 55.9673 135.731 56.0045 136.369 55.6994C137.238 55.2753 137.25 55.2493 137.25 53.8802C137.25 52.965 137.218 52.66 137.12 52.6637C137.047 52.6674 136.666 52.7976 136.263 52.9539Z" fill="white"/>
</g>
</svg>
