<svg width="111" height="60" viewBox="0 0 111 60" fill="none" xmlns="http://www.w3.org/2000/svg">
<mask id="mask0_40036_951" style="mask-type:luminance" maskUnits="userSpaceOnUse" x="0" y="0" width="111" height="60">
<path d="M0 0H110.311V60H0V0Z" fill="white"/>
</mask>
<g mask="url(#mask0_40036_951)">
<path fill-rule="evenodd" clip-rule="evenodd" d="M0.00244141 6.20681C0.00244141 9.622 0.0484042 12.4162 0.105858 12.4162C0.163311 12.4162 0.568359 12.2215 1.00501 11.9847C3.4238 10.6797 7.63801 9.92984 11.4386 10.1298C15.1472 10.3271 17.0719 10.8455 21.3292 12.7978C21.424 12.8425 21.5044 9.97983 21.5044 6.43834V0H0.00244141V6.20681ZM30.0075 14.5948C29.953 14.6737 30.1483 14.7711 30.4384 14.8079C30.9641 14.8763 30.967 14.8974 30.967 18.5046V22.1356L30.3839 22.2829C30.042 22.3698 30.6769 22.4408 31.9035 22.4513C33.742 22.4671 33.9316 22.4355 33.4232 22.1987C32.8457 21.9304 32.8371 21.8935 32.7711 18.8309C32.6935 15.2736 32.7739 14.7685 33.426 14.7685C33.6817 14.7685 33.8885 14.6974 33.8885 14.608C33.8885 14.408 30.1426 14.3948 30.0075 14.5948ZM6.42 15.4973C3.86045 16.0656 1.71168 17.4864 0.798173 19.2124C0.565486 19.6544 0.341417 20.6411 0.295454 21.4041C0.197784 23.167 0.769445 24.1615 2.54189 25.2956C4.15633 26.3296 6.29935 26.9663 12.039 28.1266C17.0432 29.1396 18.4134 29.5053 20.16 30.2999L21.2689 30.8051V26.4927C21.2689 21.3384 21.1741 21.0568 18.5944 18.7283C15.3511 15.7999 10.6572 14.5527 6.42 15.4973ZM45.8073 15.9814C45.0058 16.2735 44.4054 16.997 44.4054 17.6811C44.4054 18.4283 44.6898 18.6941 46.8587 19.9702C48.1341 20.72 48.3352 21.0858 47.821 21.7304C47.5653 22.0488 47.2091 22.154 46.3904 22.154C45.4855 22.154 45.204 22.0514 44.7357 21.5541C44.1813 20.9621 44.1727 20.9621 44.1756 21.4462C44.1813 22.225 44.4399 22.4119 45.7153 22.5724C47.7865 22.8302 49.0792 22.054 49.0792 20.5543C49.0792 19.736 48.3955 19.0677 46.8012 18.3284C45.3965 17.6758 45.1063 17.1759 45.8187 16.6444C46.5858 16.0761 47.3958 16.1761 48.1686 16.9339L48.8465 17.5969V16.826C48.8465 16.1682 48.769 16.0524 48.3208 16.0524C48.0307 16.0498 47.4274 16.0051 46.9764 15.9525C46.5283 15.8972 45.9997 15.9104 45.8073 15.9814ZM50.1134 16.0367C50.0588 16.084 50.0157 16.4471 50.0157 16.8391C50.0157 17.6206 50.3547 17.8021 50.55 17.1233C50.6506 16.7734 50.8689 16.6971 51.7451 16.6971H52.8195V19.3782C52.8195 21.9593 52.7993 22.0672 52.2938 22.254C51.9146 22.3934 52.2564 22.4434 53.5204 22.4329C54.4856 22.425 55.0372 22.375 54.747 22.325C54.2357 22.2329 54.2213 22.1645 54.2213 19.465V16.6971H55.2813C56.1604 16.6971 56.3758 16.7786 56.5511 17.1786C56.732 17.589 56.7636 17.5311 56.778 16.8023L56.7924 15.9472H53.5003C51.6905 15.9472 50.1651 15.9867 50.1134 16.0367ZM62.0321 16.0367C61.9775 16.084 61.9345 16.4471 61.9345 16.8391C61.9345 17.6206 62.2763 17.8021 62.4688 17.1233C62.5693 16.7734 62.7876 16.6971 63.6638 16.6971H64.7382V19.3782C64.7382 21.9593 64.7181 22.0672 64.2125 22.254C63.8304 22.3961 64.1637 22.4487 65.4391 22.4487C66.7146 22.4487 67.0478 22.3961 66.6658 22.254C66.1602 22.0672 66.1401 21.9619 66.1401 19.3229V16.5866L67.2087 16.6629C68.036 16.7234 68.3233 16.8444 68.4784 17.1996C68.645 17.5759 68.6852 17.5022 68.6967 16.8023L68.7111 15.9472H65.419C63.6092 15.9472 62.0838 15.9867 62.0321 16.0367ZM78.527 16.7628C78.527 17.2522 78.619 17.5259 78.7597 17.4443C78.889 17.3733 78.9953 17.1733 78.9953 17.0049C78.9953 16.776 79.2998 16.6971 80.1616 16.6971H81.3308V19.3782C81.3308 21.9593 81.3107 22.0672 80.8051 22.254C80.4201 22.3961 80.7189 22.4461 81.9139 22.4382C82.8159 22.4303 83.3675 22.3829 83.1434 22.3277C82.9165 22.275 82.7298 22.1645 82.7269 22.0856C82.7211 22.0067 82.6953 20.7595 82.6666 19.3177L82.6177 16.6971H83.6921C84.574 16.6971 84.8096 16.7813 85.0193 17.1786C85.2462 17.6127 85.2749 17.5759 85.2864 16.8023L85.3037 15.9472H78.527V16.7628ZM88.9261 16.1524C86.3263 17.0102 85.6829 20.1359 87.7627 21.8093C89.4231 23.1433 92.2642 22.7276 93.35 20.9937C95.0535 18.2678 92.1493 15.0895 88.9261 16.1524ZM35.5834 16.3892L36.2269 16.7102V19.3861C36.2269 21.9593 36.2068 22.0698 35.7012 22.254C35.299 22.4013 35.5087 22.4487 36.5773 22.4487C37.6316 22.4487 37.8499 22.4013 37.4593 22.2566C36.7842 22.0067 36.6578 21.4778 36.7411 19.2072L36.81 17.3312L39.4989 20.0596L42.1848 22.7907L42.2509 19.7097C42.3055 17.0891 42.3773 16.5866 42.7191 16.3471C43.0638 16.1051 42.9432 16.0682 41.8343 16.0788C41.1277 16.084 40.7083 16.1393 40.9007 16.2024C41.6246 16.4392 41.8343 16.9944 41.8343 18.6625C41.8343 19.5834 41.7568 20.328 41.6591 20.3175C41.5643 20.307 40.556 19.344 39.4184 18.1758L37.3501 16.0551L36.1464 16.063C34.9457 16.0709 34.9428 16.0709 35.5834 16.3892ZM58.2517 16.284C58.6108 16.4761 58.6625 16.8655 58.6625 19.3677C58.6625 21.9146 58.6165 22.2408 58.2517 22.3277C58.0276 22.3829 58.5792 22.4303 59.4812 22.4382C60.6762 22.4461 60.975 22.3961 60.59 22.254C60.0816 22.0672 60.0643 21.9646 60.0643 19.265C60.0643 16.5655 60.0816 16.4603 60.59 16.2735C60.9807 16.1314 60.6935 16.0788 59.4812 16.0735C58.2603 16.0682 57.9472 16.1235 58.2517 16.284ZM70.0555 16.2735C70.5525 16.4576 70.5812 16.5866 70.5812 18.6704C70.5812 20.4701 70.6645 20.9937 71.038 21.5515C71.7303 22.5934 73.5889 22.9749 75.1143 22.3908C76.4443 21.883 76.6569 21.3857 76.6569 18.7809C76.6569 16.5839 76.6828 16.4576 77.1826 16.2735C77.5819 16.1261 77.3751 16.0814 76.3065 16.0814C75.2378 16.0814 75.031 16.1261 75.4303 16.2735C75.9301 16.4603 75.956 16.5813 75.956 18.8388C75.956 21.0726 75.9215 21.241 75.3815 21.7357C75.1947 21.9067 74.9793 22.0409 74.7351 22.133C74.488 22.225 74.2353 22.2724 73.9681 22.2724C73.7038 22.2724 73.4481 22.225 73.204 22.133C72.9598 22.0409 72.7443 21.9067 72.5576 21.7357C72.0175 21.241 71.9831 21.0726 71.9831 18.8388C71.9831 16.5813 72.0089 16.4603 72.5088 16.2735C72.8908 16.134 72.5576 16.0814 71.2821 16.0814C70.0038 16.0814 69.6706 16.134 70.0555 16.2735ZM89.2823 16.5418C88.9635 16.6918 88.5699 17.0496 88.409 17.3417C87.9982 18.0837 88.0298 20.4333 88.4607 21.1963C89.1215 22.3645 90.4544 22.6013 91.5431 21.7462C92.1665 21.2515 92.1981 21.141 92.1981 19.3729C92.1981 17.5469 92.1866 17.5075 91.434 16.8918C90.598 16.2077 90.1585 16.1366 89.2823 16.5418ZM29.9156 25.8955C29.9156 25.9639 30.2316 26.1296 30.6165 26.2638L31.3175 26.5059V33.1652L30.6769 33.4836C30.0592 33.7888 30.1052 33.802 31.7857 33.7862C32.7509 33.7783 33.3284 33.723 33.0727 33.6651C32.0845 33.4415 32.0184 33.2363 32.0184 30.2605V27.3952L35.3507 30.7604L38.6801 34.1256L38.7433 30.2052C38.8037 26.5059 38.8353 26.2796 39.269 26.1744C40.151 25.9639 39.7258 25.7928 38.3871 25.8218C36.6578 25.8586 36.4136 25.9191 37.2783 26.0875L37.9792 26.2243L38.0453 28.7555L38.1114 31.284L35.434 28.5608L32.7596 25.8376L31.3376 25.8034C30.5562 25.7849 29.9156 25.827 29.9156 25.8955ZM44.2589 27.4347C44.1468 27.5899 43.5292 28.9686 42.8857 30.4973C41.9751 32.6495 41.5815 33.3363 41.1305 33.5441C40.5933 33.7941 40.6479 33.8151 41.8229 33.8177C42.9001 33.8204 43.0322 33.7783 42.6904 33.5494C42.3284 33.3073 42.3198 33.1968 42.61 32.4259C42.9145 31.6155 42.9863 31.5681 43.9889 31.5076C45.0374 31.4445 45.0517 31.4524 45.4453 32.3548C45.8216 33.2205 45.8216 33.281 45.4309 33.5441C45.0776 33.7783 45.2557 33.8204 46.6346 33.8204C48.1226 33.8204 48.2117 33.7967 47.7578 33.5046C47.4619 33.3152 46.7753 32.0575 46.0342 30.3473C44.6812 27.2268 44.5519 27.0137 44.2589 27.4347ZM51.6876 27.3847C50.619 27.6346 49.3579 28.8107 49.0534 29.8448C48.7259 30.9577 49.1166 32.1943 50.0473 32.9916C50.8689 33.6941 52.8827 34.1387 54.3477 33.9361C55.1894 33.8204 55.3905 33.6967 55.5916 33.1679C55.876 32.4259 55.7898 32.3838 55.1636 32.9574C54.0719 33.9572 51.9691 33.6467 51.0154 32.3443C50.0789 31.0656 50.4294 28.6397 51.6388 28.0477C52.153 27.7951 54.4454 27.7557 54.8217 27.9898C54.9596 28.0767 55.1664 28.3398 55.2785 28.5766C55.4566 28.9449 55.4968 28.9055 55.5715 28.2871C55.6174 27.8925 55.6203 27.5373 55.5744 27.4952C55.3675 27.3084 52.3886 27.2215 51.6876 27.3847ZM64.0171 27.3794C62.3682 27.8635 61.4662 29.0054 61.4662 30.6104C61.4662 32.6101 62.914 33.9125 65.1317 33.9125C68.7168 33.9125 70.0354 29.7658 67.0765 27.7978C66.3842 27.3399 64.8646 27.1321 64.0171 27.3794ZM80.6155 30.2236C79.6129 32.6285 79.2193 33.331 78.7597 33.5441C78.2197 33.7941 78.2685 33.8151 79.4463 33.8177C80.5264 33.8204 80.6586 33.7783 80.3167 33.5494C79.9548 33.3073 79.9461 33.1968 80.2363 32.4259C80.5408 31.6155 80.6126 31.5681 81.6152 31.5076C82.6637 31.4445 82.678 31.4524 83.0716 32.3548C83.4479 33.2205 83.4479 33.281 83.0572 33.5441C82.7039 33.7783 82.8763 33.8204 84.235 33.8204C85.7805 33.8204 85.8093 33.8099 85.3295 33.4468C85.0566 33.2389 84.2666 31.7734 83.5743 30.1894C82.8849 28.6029 82.2213 27.2768 82.1035 27.2426C81.9857 27.2058 81.3164 28.5476 80.6155 30.2236ZM96.5215 27.3662C95.6855 27.4794 95.5764 27.5373 95.9958 27.6478C96.5071 27.782 96.5215 27.8635 96.5215 30.6815C96.5215 33.5125 96.51 33.5783 95.9958 33.6678C95.7056 33.7204 96.6134 33.7757 98.0095 33.7914C100.198 33.8151 100.67 33.7572 101.428 33.3678C103.85 32.1207 103.933 28.7713 101.566 27.7425C100.621 27.332 98.1388 27.1452 96.5215 27.3662ZM57.4358 27.6188C57.9414 27.8056 57.9615 27.9083 57.9615 30.6104C57.9615 33.3099 57.9414 33.4126 57.4358 33.5994C57.0509 33.7414 57.3468 33.7888 58.5447 33.7809C59.4438 33.7757 59.9954 33.7257 59.7713 33.673C59.4065 33.5862 59.3634 33.2547 59.3634 30.6104C59.3634 27.9661 59.4065 27.6346 59.7713 27.5452C59.9954 27.4925 59.4438 27.4426 58.5447 27.4373C57.3468 27.4294 57.0509 27.4768 57.4358 27.6188ZM70.3457 27.6741C70.9173 27.9398 70.9317 28.0082 70.9977 30.6341C71.0609 33.2468 71.0466 33.3284 70.5295 33.5573C70.0756 33.7546 70.2078 33.7941 71.3999 33.802C72.6754 33.8125 72.7501 33.7888 72.2158 33.5441C71.6527 33.2836 71.6297 33.1889 71.5665 30.9235L71.5033 28.5766L72.9655 30.0737C73.7699 30.8972 75.031 32.1496 75.7721 32.8574L77.1165 34.1414L77.1194 30.9946C77.1252 28.2266 77.174 27.8214 77.5331 27.6294C77.8433 27.4662 77.5992 27.4162 76.5391 27.4268C75.5912 27.4373 75.3269 27.4899 75.7233 27.5899C76.2863 27.732 76.3093 27.8083 76.3754 29.7606C76.4127 30.8919 76.3553 31.6892 76.2433 31.5708C76.1341 31.455 75.1689 30.4683 74.0974 29.3791L72.1526 27.3978L70.9575 27.4031C69.8429 27.4057 69.8027 27.4215 70.3457 27.6741ZM87.2312 27.5452C87.5961 27.6346 87.642 27.9661 87.642 30.6104C87.642 33.2547 87.5961 33.5862 87.2312 33.673C87.0072 33.7257 87.9034 33.7809 89.2249 33.7941C91.5977 33.8204 91.6293 33.8125 91.8534 33.2705C92.2153 32.3996 92.1234 32.3022 91.4943 32.8784C91.0347 33.2994 90.7129 33.402 90.0321 33.352L89.1588 33.2863L89.0956 30.5525C89.0295 27.8793 89.041 27.8135 89.561 27.6215C89.9574 27.4768 89.673 27.4294 88.4579 27.4373C87.5587 27.4426 87.0072 27.4925 87.2312 27.5452ZM104.875 27.6188C105.384 27.8056 105.404 27.9083 105.404 30.6104C105.404 33.3099 105.384 33.4126 104.875 33.5994C104.516 33.7309 105.223 33.7967 107.119 33.8072C109.793 33.8204 109.891 33.8046 110.04 33.3389C110.124 33.0731 110.25 35.0254 110.316 37.6723L110.44 42.4899L110.451 36.3883C110.454 33.0337 110.419 30.7367 110.374 31.2866C110.244 32.7653 109.486 33.4362 108.029 33.3494L106.921 33.2863L106.852 31.947L106.783 30.6104H107.61C108.185 30.6104 108.526 30.7393 108.727 31.0367C109.184 31.705 109.377 31.5471 109.377 30.5025C109.377 29.558 109.089 29.2238 108.822 29.8605C108.733 30.071 108.368 30.1815 107.748 30.1815H106.806V27.8267H107.719C108.851 27.8267 109.377 28.0003 109.377 28.3713C109.377 28.5292 109.48 28.716 109.609 28.7897C109.747 28.8686 109.842 28.6134 109.842 28.1608V27.3978L107.096 27.411C105.214 27.4215 104.516 27.4873 104.875 27.6188ZM64.0373 27.8793C63.2932 28.2345 62.7589 30.0447 62.9859 31.4366C63.1611 32.5048 64.155 33.6073 64.9421 33.6073C66.2119 33.6073 66.8611 32.9363 67.1685 31.2971C67.3437 30.3578 66.9128 28.595 66.4015 28.1714C65.8212 27.6899 64.721 27.5531 64.0373 27.8793ZM98.0382 27.8635C97.9664 28.0346 97.9377 29.3238 97.975 30.7288L98.0411 33.2863L98.946 33.352C99.4459 33.3915 100.17 33.302 100.555 33.1547C102.195 32.5311 102.35 29.4632 100.802 28.2029C100.17 27.6872 98.2106 27.4478 98.0382 27.8635ZM43.7504 29.7001C43.624 30.0237 43.4919 30.3447 43.354 30.663C43.2132 30.9788 43.3195 31.0367 44.0176 31.0367H44.8449L44.4858 30.0737C44.2905 29.5448 44.0951 29.1107 44.0578 29.1107C44.0176 29.1107 43.8797 29.3764 43.7504 29.7001ZM81.2417 29.9632C81.0234 30.4657 80.8912 30.9209 80.9487 30.9709C81.0061 31.0235 81.3652 31.0367 81.7502 30.9998L82.4482 30.9314L82.0432 29.9921L81.641 29.0528L81.2417 29.9632ZM0.235128 36.9646V43.1082L0.847008 43.916C1.89266 45.2973 3.95524 46.4708 6.67279 47.2286C8.84166 47.8311 14.0613 47.7863 16.2445 47.1444C19.574 46.1656 21.1654 44.408 21.1338 41.74C21.0908 37.9854 18.0687 35.9305 9.93615 34.1282C5.53234 33.1521 2.80043 32.2838 1.11129 31.3182L0.235128 30.8183V36.9646ZM31.5272 37.3434C30.7975 37.7171 30.2776 38.7537 30.47 39.4536C30.6654 40.1666 31.6995 41.0507 33.0698 41.6795C34.6555 42.4083 35.0577 42.7714 35.0577 43.4739C35.0577 44.2922 34.2878 44.7369 32.8716 44.7369C31.8489 44.7369 31.6335 44.6501 30.8981 43.9344L30.0707 43.1319L30.2259 43.8528C30.312 44.2501 30.3839 44.7158 30.3839 44.8842C30.3839 45.0552 30.5677 45.1684 30.7918 45.1394C31.0187 45.1105 31.7455 45.1605 32.4091 45.25C34.5751 45.5446 36.4596 44.3659 36.4596 42.7214C36.4596 41.9821 35.3364 40.8744 33.8483 40.1456C32.2884 39.3826 31.7857 38.9879 31.7857 38.5301C31.7857 37.9775 32.5556 37.4592 33.3714 37.4592C34.1212 37.4592 35.2904 37.846 35.2904 38.0933C35.2904 38.1696 35.4455 38.4196 35.6351 38.6485C35.954 39.0353 35.9798 38.9958 35.9856 38.1012L35.9913 37.1382L34.0638 37.0856C32.7165 37.0461 31.9523 37.1251 31.5272 37.3434ZM40.082 40.606C38.5968 44.158 38.2722 44.7685 37.7666 44.9579C37.4076 45.0895 37.6201 45.1421 38.5509 45.1526C39.6827 45.1631 39.7746 45.1316 39.384 44.8711C38.976 44.6001 38.9703 44.5185 39.2892 43.7476C39.6109 42.9688 39.6971 42.9135 40.6939 42.853C41.7482 42.7899 41.7597 42.7951 42.1503 43.7107C42.5209 44.5764 42.5209 44.6448 42.1446 44.8974C41.8114 45.121 42.0038 45.1658 43.3224 45.1658H44.8995L44.325 44.6843C43.9831 44.3975 43.2764 43.0766 42.5755 41.4243C41.9263 39.8956 41.2972 38.6143 41.1765 38.5774C41.0558 38.5406 40.5617 39.4536 40.082 40.606ZM61.3484 38.73C60.9635 38.8274 60.8199 38.9195 61.0324 38.9326C61.6098 38.9695 61.6989 39.4036 61.6989 42.1926C61.6989 44.6448 61.6788 44.7579 61.1732 44.9447C60.8084 45.0789 61.3973 45.1421 63.1036 45.1473C65.2265 45.1552 65.6804 45.0921 66.4704 44.679C67.6051 44.087 68.2831 42.9372 68.2831 41.6059C68.2831 40.4666 67.789 39.7141 66.6342 39.0931C65.8011 38.6485 62.5607 38.4248 61.3484 38.73ZM46.218 38.9642C46.7236 39.151 46.7437 39.2536 46.7437 41.9532C46.7437 44.6553 46.7236 44.7579 46.218 44.9447C45.8532 45.0789 46.4651 45.1421 48.2088 45.1526C50.7023 45.1658 50.731 45.1605 50.9551 44.6159C51.3314 43.7107 51.2165 43.5713 50.596 44.1843C50.1249 44.6501 49.8405 44.75 49.1367 44.6948L48.2634 44.629L48.1973 41.8953C48.1312 39.2247 48.1427 39.1589 48.6627 38.9668C49.0563 38.8221 48.7374 38.7695 47.4447 38.7695C46.1663 38.7695 45.8331 38.8221 46.218 38.9642ZM52.2938 38.9642C52.7936 39.1484 52.8195 39.2694 52.8195 41.5059C52.8195 43.6344 52.8683 43.9081 53.3452 44.4159C54.2472 45.3736 56.5855 45.5709 57.884 44.7974C58.6338 44.3501 58.8952 43.4134 58.8952 41.1665C58.8952 39.2826 58.9296 39.1458 59.4209 38.9642C59.8173 38.8169 59.6047 38.7721 58.5447 38.7827C57.7748 38.7879 57.3267 38.8379 57.5508 38.8905C57.9127 38.9774 57.9615 39.2852 57.9587 41.4875C57.9558 42.8635 57.8754 44.1028 57.7777 44.2422C57.4962 44.6474 56.2782 44.9868 55.6318 44.8395C54.3592 44.5474 54.2213 44.2343 54.2213 41.5927C54.2213 39.2668 54.2443 39.1484 54.747 38.9642C55.1291 38.8221 54.7959 38.7695 53.5204 38.7695C52.2449 38.7695 51.9117 38.8221 52.2938 38.9642ZM63.095 39.0642C63.0893 39.1221 63.0864 40.3271 63.0864 41.74C63.0864 43.153 63.0893 44.4054 63.095 44.5238C63.1065 44.8474 64.9077 44.779 65.6603 44.4212C67.4155 43.5897 67.1915 39.9798 65.3386 39.2694C64.5572 38.9721 63.1123 38.8379 63.095 39.0642ZM40.3492 41.177C39.8263 42.311 39.8493 42.382 40.7715 42.382H41.5787L41.2684 41.6874C41.0989 41.3033 40.9093 40.8455 40.8461 40.6692C40.7743 40.464 40.5962 40.6455 40.3492 41.177ZM0.00244141 55.2087V59.9342H21.5044V50.5569L19.8526 51.3015C15.2247 53.388 9.01977 53.6801 3.97535 52.0488C2.93257 51.712 1.21184 51.0358 0.177675 50.5622C0.0800033 50.5174 0.00244141 52.6066 0.00244141 55.2087Z" fill="white"/>
</g>
</svg>
