<svg width="170" height="60" viewBox="0 0 170 60" fill="none" xmlns="http://www.w3.org/2000/svg">
<path fill-rule="evenodd" clip-rule="evenodd" d="M20.6131 0.757497C20.1785 1.17833 19.4542 2.1778 19.0016 2.98264C17.4383 5.80221 16.7502 7.13835 16.7502 7.39611C16.7502 7.53814 16.5692 7.95897 16.3458 8.33772C16.1285 8.71121 15.7423 9.45819 15.4888 9.99475L15.03 10.9732L12.2355 11.252C10.6964 11.4045 8.30016 11.5834 6.91193 11.6518C1.75739 11.899 -0.693129 12.8511 0.169985 14.2557C0.538168 14.8553 4.03891 16.828 4.73906 16.828C4.95634 16.828 5.20381 16.9279 5.28831 17.0489C5.37281 17.1699 7.33444 18.101 9.64613 19.111C11.9639 20.1263 13.9013 20.9995 13.9557 21.0468C14.0764 21.152 11.318 25.939 10.974 26.2073C10.7869 26.3546 9.09084 29.2162 6.38079 33.9821C6.16953 34.3556 5.9945 35.192 5.9945 35.8443V37.0279H7.23786C8.58384 37.0279 9.57974 36.5808 12.3864 34.7081C13.2434 34.1294 14.0341 33.6613 14.1428 33.6613C14.2454 33.6613 14.7826 33.3351 15.3379 32.9301C16.8287 31.8464 16.9917 31.7359 17.1486 31.7359C17.2331 31.7359 17.5168 31.5834 17.7823 31.394C18.4342 30.9311 20.4079 29.6581 22.2367 28.5271L23.7155 27.6065L24.7174 28.0484C25.2667 28.2904 25.7797 28.5481 25.8582 28.6218C25.9306 28.6902 26.6428 29.0163 27.4396 29.3372C28.2363 29.6634 28.8881 30.0105 28.8881 30.1105C28.8881 30.2104 29.1296 30.2946 29.4253 30.2946C29.7211 30.2946 30.0289 30.3945 30.1134 30.5103C30.1979 30.6313 31.1093 31.1047 32.1293 31.5624C35.1774 32.9248 35.9198 33.293 36.0164 33.4824C36.0647 33.5771 36.3302 33.6613 36.6019 33.6613C36.8735 33.6613 37.2537 33.8243 37.4408 34.019C37.634 34.2189 37.9901 34.3872 38.2375 34.3924C38.479 34.3924 38.9256 34.5555 39.2214 34.7502C39.5111 34.9448 40.2897 35.1026 40.9355 35.1026C41.9073 35.1026 42.203 34.9921 42.5954 34.4714C43.042 33.8769 43.042 33.798 42.6014 33.13C42.3419 32.7407 42.1306 32.3093 42.1306 32.1778C42.1306 31.9674 39.7767 28.7165 39.3783 28.3693C39.2998 28.3062 39.1127 28.0695 38.9618 27.8538C38.8049 27.6328 37.815 26.3546 36.7527 25.0079C35.6905 23.6665 34.6945 22.383 34.5437 22.162C34.3867 21.9411 34.0246 21.4519 33.7288 21.0731L33.1977 20.384L34.7006 19.1689C37.5434 16.8701 40.1267 14.787 41.2011 13.9295C43.5068 12.0831 44.1103 11.1047 43.6214 10C43.4826 9.67912 42.9213 9.616 40.2897 9.616C38.5514 9.616 36.9036 9.72121 36.632 9.85272C36.3544 9.97897 35.0929 10.1946 33.8194 10.3262C32.5519 10.4577 31.0429 10.6365 30.4756 10.7207C29.4736 10.868 29.4253 10.8417 29.0089 9.94214C28.7735 9.43188 28.1518 8.2483 27.6327 7.31721C27.1076 6.38086 26.6851 5.48133 26.6851 5.313C26.6851 5.14992 26.498 4.85008 26.2686 4.65545C26.0393 4.45555 25.8582 4.08206 25.8582 3.82957C25.8582 3.57707 25.7435 3.36665 25.6107 3.36665C25.4719 3.36665 25.2848 3.09311 25.1882 2.76697C25.0977 2.43556 24.8925 2.16202 24.7476 2.16202C24.5967 2.16202 24.476 2.01473 24.476 1.82536C24.476 1.34666 22.6291 0 21.9651 0C21.6633 0 21.0537 0.341927 20.6131 0.757497ZM49.3735 10.1631C48.4259 10.2998 47.6473 10.4997 47.6473 10.6102C47.6473 10.7259 47.4843 10.8206 47.2791 10.8206C46.7057 10.8206 44.7562 12.1305 43.9413 13.0616C43.543 13.5192 43.0179 14.5713 42.7764 15.3919C42.4083 16.6597 42.3962 17.0384 42.698 17.8801C43.8327 21.0258 45.9875 22.5408 51.2627 23.8874C52.1077 24.1084 53.1278 24.282 53.5201 24.282C53.9124 24.282 54.3108 24.3819 54.3953 24.5082C54.4798 24.6292 54.9566 24.8028 55.4455 24.8922C59.411 25.6234 57.3709 29.5739 53.0312 29.5739C50.9971 29.5739 48.2026 28.1747 48.2026 27.1594C48.2026 26.5913 47.424 25.313 46.9954 25.171C46.5065 25.0079 42.0703 25.6865 41.7383 25.9758C41.4727 26.2073 42.0703 28.2536 42.8368 29.716C43.1929 30.3998 44.8226 31.999 45.7581 32.5776C47.1644 33.4508 50.9308 34.3819 53.0433 34.3819C54.3591 34.3819 57.7331 33.7139 58.9583 33.2141C60.4009 32.6197 62.1211 31.1363 62.9298 29.7791C64.3965 27.312 63.6964 23.6455 61.3847 21.7149C60.3103 20.8206 58.0167 19.7212 57.1959 19.7054C56.876 19.7054 56.375 19.5424 56.0793 19.3477C55.7835 19.1531 55.2403 18.9953 54.8661 18.9953C54.0814 18.9953 51.5524 18.3746 50.134 17.838C48.4319 17.1962 48.0275 16.2599 49.0657 15.3551C49.5546 14.9343 50.0676 14.8238 52.0293 14.7396C54.9325 14.6186 55.5119 14.8448 56.4776 16.4703L57.1959 17.6697L59.8033 17.5855C61.2338 17.5381 62.5013 17.4487 62.616 17.3909C62.9117 17.2383 62.8755 15.4656 62.5677 14.9658C62.4289 14.7344 62.2357 14.3819 62.1452 14.1873C61.5839 12.9932 60.2017 11.5413 59.6283 11.5413C59.4351 11.5413 59.242 11.4571 59.1877 11.3624C58.9945 10.9784 57.0933 10.363 55.3489 10.1157C53.2485 9.81589 51.7818 9.82641 49.3735 10.1631ZM95.191 16.302C94.3701 16.344 93.6277 16.5229 93.4346 16.7228C93.2535 16.9122 92.9336 17.07 92.7224 17.07C92.5111 17.07 92.3421 17.1594 92.3421 17.2699C92.3421 17.3856 92.0343 17.596 91.654 17.7486C91.0203 18.0011 90.9599 17.9748 90.9599 17.4329C90.9599 16.6334 90.2236 16.3493 88.1352 16.3493C85.238 16.3493 85.4251 15.7023 85.5096 25.2446L85.5821 33.5403H91.3764L91.5152 27.6697C91.6178 23.272 91.7385 21.7728 91.9981 21.6991C92.1852 21.6413 92.3421 21.4466 92.3421 21.2572C92.3421 21.0731 92.4749 20.9153 92.6379 20.9153C92.8008 20.9153 93.1207 20.7575 93.3441 20.5576C93.9114 20.0631 95.4686 20.1 95.9817 20.6155C96.875 21.515 97.0319 22.6513 97.0319 28.1641V33.6613H99.7963C101.758 33.6613 102.603 33.5718 102.693 33.3614C102.766 33.1931 102.856 30.6207 102.905 27.6434C102.977 22.6986 103.031 22.1726 103.526 21.5939C104.734 20.1789 106.454 19.8106 107.468 20.7522C108.047 21.2941 108.065 21.4834 108.065 27.2173C108.065 31.9832 108.144 33.1773 108.452 33.3982C108.699 33.5823 109.755 33.656 111.421 33.6086L113.998 33.5403V26.807C113.998 20.8838 113.938 19.9737 113.516 19.2373C112.827 18.0326 112.496 17.7117 111.15 16.9753C110.099 16.3966 109.677 16.3177 107.661 16.3125C105.645 16.3072 105.228 16.3861 104.166 16.9595C103.502 17.3172 102.706 17.817 102.392 18.0642C101.824 18.5113 101.806 18.5113 101.287 18.0063C99.8506 16.6123 98.2089 16.1494 95.191 16.302ZM69.7201 17.1068C68.0844 17.8906 66.1348 19.3898 66.1348 19.8632C66.1348 20.0263 66.0383 20.1946 65.9236 20.2367C65.5132 20.3945 64.7708 22.0305 64.4991 23.3877C64.1129 25.292 64.5655 28.2694 65.4588 29.758C66.7746 31.9358 68.9535 33.2509 72.4965 33.9979C74.7298 34.4714 74.8324 34.4714 76.6552 33.9927C78.9548 33.393 79.9507 32.909 81.4415 31.6939C83.6567 29.8843 84.6163 27.8906 84.6163 25.1236C84.6163 22.3567 83.5722 20.2367 81.2605 18.2956C81.0009 18.0852 80.0352 17.5592 79.0997 17.1278C77.476 16.3809 77.2829 16.3493 74.3193 16.3651C71.4222 16.3809 71.1445 16.4229 69.7201 17.1068ZM122.014 16.5702C121.923 16.6912 121.483 16.8648 121.03 16.949C120.577 17.0384 120.203 17.2067 120.203 17.3277C120.203 17.454 120.028 17.5539 119.817 17.5539C119.364 17.5539 116.34 20.3788 116.34 20.7996C116.34 20.9574 116.129 21.4519 115.863 21.9043C115.495 22.5303 115.387 23.3035 115.399 25.2446C115.411 27.454 115.507 27.9432 116.147 29.1426C117.034 30.8101 118.435 32.2094 119.847 32.8354C120.42 33.0931 120.958 33.3614 121.036 33.4403C121.109 33.514 122.213 33.7717 123.487 34.0084C125.69 34.4187 125.883 34.4188 127.488 34.019C128.412 33.7928 129.601 33.4298 130.12 33.2141C131.647 32.5829 133.856 30.5471 134.719 28.9742C135.407 27.7328 135.516 27.2436 135.516 25.4866C135.516 23.5876 135.124 21.778 134.52 20.9153C134.387 20.7207 134.194 20.4103 134.091 20.2262C133.675 19.4582 131.508 17.7959 130.017 17.1015C128.484 16.3861 128.249 16.3493 125.285 16.3493C123.571 16.3493 122.098 16.4492 122.014 16.5702ZM139.149 17.0437C137.333 17.9222 135.655 19.9421 135.655 21.2572C135.655 22.6039 136.572 24.3135 137.81 25.2604C138.486 25.7812 139.222 26.2073 139.445 26.2073C139.662 26.2073 140.176 26.3546 140.58 26.5387C141.443 26.9332 143.29 27.3751 145.071 27.6223C146.875 27.8696 147.841 28.4587 147.551 29.1373C147.304 29.7212 145.928 30.2473 144.588 30.2788C143.266 30.3051 141.92 29.7002 141.328 28.8112C141.039 28.3693 140.689 27.9432 140.544 27.8643C139.892 27.4803 135.498 28.243 135.256 28.7743C134.876 29.6476 137.121 32.2094 139.065 33.1194C140.085 33.5981 143.447 34.3556 144.606 34.3714C145.728 34.3872 148.861 33.7139 149.863 33.2509C150.605 32.9038 151.945 31.7938 153.014 30.647C153.623 29.9948 153.569 26.7649 152.941 25.8443C152.386 25.0395 150.551 23.8033 149.905 23.8033C149.676 23.8033 149.32 23.656 149.108 23.4719C148.903 23.293 148.306 23.0879 147.781 23.0142C147.255 22.9406 146.272 22.7512 145.584 22.5934C141.908 21.7465 141.449 21.5887 141.449 21.1836C141.449 20.4261 142.059 20.1946 144.099 20.1946H146.091L147.062 21.2152C148.01 22.2094 148.046 22.2252 148.964 21.9358C149.483 21.7728 150.304 21.6413 150.798 21.6413C151.939 21.6413 152.76 21.2572 152.76 20.7259C152.76 20.1052 151.68 18.4692 150.859 17.8433C149.259 16.6228 147.998 16.3493 144.105 16.3756C140.719 16.3966 140.393 16.4387 139.149 17.0437ZM73.0277 20.7733C72.4482 20.9574 71.7481 21.4729 71.2592 22.0726C70.5108 22.9932 70.4564 23.2141 70.4685 25.2394C70.4806 27.1226 70.5711 27.5276 71.1325 28.2536C71.4946 28.7112 71.893 29.09 72.0137 29.09C72.1404 29.09 72.4301 29.253 72.6535 29.4529C73.3174 30.0263 75.6412 29.9264 76.6552 29.2741C78.0011 28.4114 78.5504 27.2173 78.5504 25.1552C78.5504 22.5829 77.6752 21.273 75.611 20.7312C74.2831 20.384 74.2771 20.384 73.0277 20.7733ZM124.157 20.7312C123.68 20.868 122.877 21.3414 122.382 21.7885C121.489 22.5881 121.483 22.6249 121.471 24.9448C121.459 26.8596 121.561 27.4329 122.008 28.0852C123.221 29.8632 126.058 30.4156 127.651 29.1794C128.949 28.1694 129.583 26.8753 129.583 25.2288C129.583 22.8774 128.533 21.2993 126.577 20.7154C125.503 20.3945 125.352 20.3998 124.157 20.7312ZM35.8232 36.181C35.3162 36.3809 34.6644 36.5439 34.3807 36.5439C33.6323 36.5439 31.1455 37.9222 29.7875 39.0847C28.526 40.1631 26.6851 43.0353 26.6851 43.9138C26.6851 44.2083 26.5583 44.5187 26.4074 44.6029C26.2445 44.687 26.1298 46.202 26.1298 48.3272C26.1298 50.4524 26.2445 51.9674 26.4074 52.0568C26.5583 52.1358 26.6851 52.3567 26.6851 52.5461C26.6851 53.0511 27.85 55.3025 28.1156 55.3025C28.2363 55.3025 28.3389 55.4393 28.3389 55.6076C28.3389 56.1705 31.4835 58.5745 33.1434 59.2899C34.6945 59.9527 34.9541 59.9895 38.4065 59.9895C41.8469 59.9895 42.1185 59.9527 43.5792 59.3109C45.7641 58.343 47.5507 56.807 48.5225 55.0448C49.7538 52.8249 49.6934 51.9359 48.3233 51.9359C47.9672 51.9359 47.6111 51.8359 47.5266 51.7149C47.4421 51.5939 46.8747 51.4203 46.2711 51.3309C45.6615 51.2415 45.1666 51.0626 45.1666 50.9364C45.1666 50.4577 43.9353 50.868 43.6033 51.4519C43.3197 51.9674 43.0299 52.4882 42.7523 53.0037C42.4626 53.5245 41.7685 54.2767 41.2071 54.6765C40.2656 55.3393 40.0241 55.3919 38.1289 55.3709C36.2638 55.3499 35.9681 55.2762 34.9903 54.6029C34.3988 54.1926 33.6685 53.4508 33.3727 52.9564C32.0448 50.7154 32.069 45.3446 33.427 43.0984C33.9582 42.2199 35.4671 41.1152 36.1431 41.1152C36.3906 41.1152 36.9036 40.989 37.2899 40.8364C37.8331 40.6208 38.3462 40.6313 39.5654 40.8838C41.3097 41.252 42.6919 42.2147 43.1386 43.3825C43.5611 44.4871 44.1224 44.6607 45.6857 44.1768C46.4281 43.9453 47.3033 43.7612 47.6352 43.7612C47.9672 43.7612 48.4923 43.6402 48.8001 43.4982C49.277 43.272 49.3373 43.0826 49.1925 42.283C48.7518 39.8843 45.6193 37.2488 42.1306 36.3441C40.175 35.8391 36.9157 35.7549 35.8232 36.181ZM70.4504 36.5019C70.0279 36.5755 69.9977 37.5224 70.0641 48.1642L70.1365 59.7475L72.7138 59.8159C74.3797 59.8633 75.4299 59.7896 75.6774 59.6055C75.9792 59.3898 76.0637 58.4535 76.0637 55.2709V51.2152L80.2706 51.2047C83.5359 51.1994 84.5982 51.1205 85.0147 50.847C85.3105 50.6523 85.7088 50.4893 85.908 50.4893C86.4391 50.4893 88.4551 49.2162 88.4672 48.869C88.4732 48.706 88.5879 48.5692 88.7207 48.5692C88.8474 48.5692 89.3423 47.8801 89.8192 47.0332C91.4549 44.1452 90.8754 40.7943 88.3646 38.606C86.0227 36.565 86.0287 36.565 77.971 36.4913C74.0839 36.4545 70.7039 36.4598 70.4504 36.5019ZM99.6454 36.4966L97.1587 36.565L96.7844 37.3383C96.543 37.8327 96.2955 38.322 96.03 38.8059C95.8248 39.1899 95.6497 39.6634 95.6497 39.8527C95.6497 40.0421 95.4807 40.484 95.2695 40.8364C95.0582 41.1889 94.6961 41.9095 94.4727 42.4356C93.9175 43.7349 93.1811 45.3814 92.6982 46.4019C92.4809 46.8648 92.2033 47.4645 92.0886 47.7275C91.9679 47.9906 91.6661 48.6166 91.4126 49.1163C91.1651 49.616 90.9599 50.2262 90.9599 50.4682C90.9599 50.7154 90.7789 51.0469 90.5495 51.2152C90.3201 51.3783 90.133 51.7465 90.133 52.0358C90.133 52.3251 89.952 52.7723 89.7286 53.03C89.5053 53.2878 89.3182 53.6876 89.3182 53.919C89.3061 54.3451 89.2337 54.5134 88.3887 55.9811C88.1352 56.423 87.93 56.8911 87.93 57.0279C87.93 57.1594 87.7308 57.6329 87.4894 58.0747C86.6625 59.5897 86.8858 59.7423 90.1029 59.8159C92.5775 59.8791 93.0061 59.8264 93.332 59.4582C93.5372 59.2215 93.7062 58.8796 93.7122 58.7007C93.7183 58.5219 93.8933 58.0379 94.1046 57.6223C94.3158 57.2015 94.7202 56.3493 95.0039 55.7233L95.5169 54.5818H100.219C105.059 54.5766 105.585 54.6765 105.585 55.5708C105.585 55.797 105.76 56.2915 105.971 56.665C106.448 57.4908 106.864 58.3378 107.226 59.2057L107.504 59.8685H120.439C131.695 59.8685 133.428 59.8212 133.729 59.5003C133.971 59.2478 134.025 58.6692 133.91 57.5803C133.723 55.8496 133.983 55.5971 134.665 56.8543C135.178 57.7959 136.983 59.1426 138.413 59.6476C139.62 60.0737 146.054 60.1315 146.356 59.7212C146.465 59.5739 146.809 59.3846 147.117 59.3004C148.408 58.948 150.829 56.323 150.829 55.2762C150.829 54.5713 149.096 54.0663 146.978 54.1505C145.487 54.2083 145.161 54.2925 145.083 54.6607C144.883 55.5655 144.008 56.0232 142.463 56.0232C141.208 56.0232 140.882 55.918 140.151 55.2972C139.312 54.5818 138.769 53.4666 139.113 53.1668C139.21 53.0826 141.974 52.9616 145.264 52.8985L151.239 52.7775L151.33 51.8569C151.438 50.7154 150.895 47.5697 150.539 47.2594C150.394 47.1331 150.273 46.8806 150.273 46.7018C150.273 46.3178 148.976 44.7396 148.288 44.2925C148.034 44.1242 147.66 43.8559 147.461 43.6928C146.284 42.7091 142.946 42.0726 140.622 42.3882C138.534 42.667 137.405 43.1878 135.794 44.6134C134.134 46.081 133.657 46.9017 133.029 49.3635C132.619 50.9679 132.601 51.4309 132.89 52.6092C133.077 53.3614 133.295 54.2767 133.373 54.6397L133.512 55.3025H119.292L119.817 54.7607C120.107 54.4608 120.42 54.1663 120.517 54.0979C120.614 54.0295 121.127 53.4772 121.664 52.8669C122.569 51.8254 123.547 50.7891 124.217 50.1578C124.368 50.0106 125.11 49.1847 125.859 48.3272C126.601 47.4698 127.313 46.7018 127.434 46.6281C127.555 46.5545 127.959 46.1389 128.321 45.7076C128.689 45.2709 129.438 44.4977 129.981 43.9874C130.518 43.4771 130.965 42.9458 130.965 42.8091C130.965 42.6723 131.068 42.5566 131.194 42.5566C131.321 42.5566 131.816 42.0779 132.299 41.494C133.108 40.5155 133.174 40.2893 133.174 38.485V36.5387L113.449 36.6649L113.365 38.6902C113.31 40.1421 113.383 40.768 113.642 40.9153C113.835 41.0258 116.358 41.11 119.237 41.1047C122.123 41.0994 124.591 41.0994 124.718 41.1047C124.851 41.11 124.543 41.5308 124.03 42.0411C123.432 42.646 122.847 43.2562 122.273 43.8822C120.952 45.3446 120.089 46.2757 119.932 46.4019C119.853 46.4703 119.298 47.0647 118.7 47.7275C118.097 48.3851 117.535 48.9848 117.451 49.0479C117.366 49.1163 116.509 50.0369 115.55 51.0942C111.958 55.0605 111.663 55.3078 111.644 54.3977C111.638 54.1663 111.451 53.7665 111.228 53.5087C111.011 53.2562 110.824 52.7933 110.824 52.4882C110.824 52.1831 110.709 51.9359 110.57 51.9359C110.431 51.9359 110.232 51.5834 110.123 51.1626C110.015 50.7365 109.828 50.221 109.701 50.0211C109.574 49.8159 109.272 49.2162 109.031 48.6902C108.784 48.1589 108.403 47.4224 108.186 47.0437C107.969 46.6702 107.794 46.2178 107.794 46.0442C107.794 45.8654 107.613 45.413 107.401 45.0395C107.184 44.666 106.798 43.8717 106.538 43.2772C106.279 42.6828 105.904 41.8727 105.705 41.4729C104.915 39.8843 104.528 39.0269 104.178 38.1115C103.526 36.3967 103.502 36.3861 99.6454 36.4966ZM76.1542 41.1836C76.0818 41.2836 76.0214 42.5303 76.0214 43.9453V46.5229L78.5926 46.5966C81.4053 46.6702 83.2945 46.2494 83.7955 45.4393C84.1093 44.9238 84.1516 42.5513 83.8558 42.1989C83.1798 41.3993 82.4978 41.231 79.4437 41.1152C77.7054 41.0468 76.2266 41.0784 76.1542 41.1836ZM56.7553 42.4356C53.9185 42.8775 52.4095 43.7717 51.2506 45.7076C50.46 47.0279 50.5143 47.5645 51.4438 47.7328C51.8603 47.8117 52.8622 48.0221 53.671 48.2062C55.2825 48.5745 55.8258 48.4956 56.0551 47.8643C56.4414 46.8017 57.2623 46.4019 59.067 46.4019C60.9924 46.4019 61.7227 46.807 61.7167 47.8643C61.7167 48.364 61.4873 48.5113 60.1293 48.8743C59.2601 49.1058 58.2038 49.2951 57.7813 49.2951C57.3588 49.2899 56.5682 49.453 56.0189 49.6476C55.4757 49.8475 54.7936 50.0106 54.51 50.0106C53.8943 50.0106 52.1198 50.9627 51.486 51.6255C50.5746 52.5881 50.134 53.7139 50.134 55.0711C50.134 56.9332 50.798 58.0064 52.7354 59.2794C53.7796 59.9632 53.9185 59.9895 56.8096 59.9895C58.7169 59.9895 59.8818 59.8896 60.0025 59.7212C60.1111 59.5739 60.4793 59.3741 60.8234 59.2846C61.1674 59.1899 61.445 59.0269 61.445 58.9164C61.445 58.8059 61.6261 58.6586 61.8494 58.585C62.1029 58.4956 62.3806 58.6849 62.61 59.0953C62.96 59.7318 63.0385 59.7528 65.652 59.8159L68.3379 59.8843V59.1847C68.3379 58.7954 68.1568 58.1694 67.9275 57.7907C67.5955 57.2383 67.517 56.0179 67.517 51.6728C67.511 47.07 67.4446 46.1126 67.0523 45.4288C66.4728 44.4188 65.32 43.2772 64.8794 43.2772C64.6983 43.2772 64.4026 43.13 64.2336 42.9511C63.9559 42.6565 63.2015 42.5461 59.3748 42.2304C58.9221 42.1936 57.7391 42.283 56.7553 42.4356ZM157.07 42.4777C155.706 42.6197 152.76 44.2452 152.76 44.8501C152.76 44.9553 152.561 45.2341 152.319 45.4656C151.734 46.0284 151.722 48.9585 152.295 49.9211C152.935 50.989 154.969 52.4146 155.856 52.4146C156.05 52.4198 156.532 52.5671 156.925 52.746C157.323 52.9248 158.216 53.1457 158.917 53.2404C159.623 53.3299 160.269 53.5087 160.353 53.6297C160.444 53.756 161.005 53.8559 161.602 53.8559C162.333 53.8559 162.876 54.019 163.262 54.3556C163.775 54.8028 163.793 54.908 163.437 55.3762C162.683 56.3756 158.989 56.4177 157.8 55.4445C157.462 55.1657 157.178 54.8186 157.178 54.666C157.166 54.0085 156.418 53.8612 153.973 54.04C151.535 54.2189 151.517 54.2241 151.426 54.8975C151.275 56.0653 152.187 57.3646 153.997 58.5587C156.056 59.9106 156.424 59.9895 160.456 59.9895C164.632 59.9895 165.26 59.837 167.288 58.322C169.383 56.7544 170.197 54.14 169.147 52.3672C168.592 51.4361 166.842 50.0158 166.244 50.0106C165.997 50.0106 165.64 49.8475 165.447 49.6476C165.26 49.453 164.801 49.2899 164.433 49.2899C164.059 49.2899 163.51 49.1742 163.208 49.0321C162.9 48.8901 162.073 48.6797 161.361 48.5639C158.325 48.0747 157.474 47.817 157.293 47.3172C157.033 46.5966 157.583 46.4124 160.003 46.4072C161.85 46.4072 162.212 46.4756 162.623 46.9122C163.685 48.0326 163.727 48.0484 165.514 47.9169C167.795 47.7486 168.598 47.4119 168.707 46.5808C168.755 46.2178 168.664 45.9232 168.501 45.9232C168.338 45.9232 168.206 45.7707 168.206 45.5813C168.206 45.1394 166.757 43.8769 165.369 43.1142C164.409 42.5829 163.92 42.504 161.21 42.4408C159.52 42.3988 157.655 42.4145 157.07 42.4777ZM99.6756 44.5029C99.416 45.2183 99.0297 46.0916 98.8064 46.4387C98.5891 46.7912 98.4141 47.2857 98.4141 47.5329C98.4141 47.7854 98.2994 48.0958 98.1666 48.222C98.0278 48.343 97.8347 48.8007 97.726 49.2268L97.5389 50.0106H100.321C102.844 50.0106 103.605 49.8264 102.826 49.4109C102.675 49.3267 102.543 49.0216 102.543 48.7323C102.537 48.443 102.349 47.9958 102.126 47.7433C101.903 47.4856 101.722 47.091 101.722 46.8648C101.722 46.6439 101.535 46.1494 101.311 45.7707C101.082 45.3919 100.895 44.9185 100.889 44.7186C100.877 44.524 100.708 44.0979 100.509 43.7822C100.146 43.2194 100.128 43.2352 99.6756 44.5029ZM140.93 46.5755C140.272 46.8017 139.614 47.5066 139.282 48.3272C139.107 48.7638 138.962 49.1584 138.962 49.2057C138.962 49.2531 140.453 49.2899 142.276 49.2899C144.974 49.2899 145.584 49.2268 145.584 48.9427C145.584 48.7533 145.463 48.5271 145.312 48.4482C145.161 48.3641 145.034 48.0958 145.034 47.8538C145.034 46.9227 142.348 46.081 140.93 46.5755ZM60.3405 52.3409C59.1515 52.5092 56.9122 53.2194 56.4112 53.5824C55.7111 54.0874 55.8076 55.1184 56.6044 55.7759C57.2019 56.2599 57.4675 56.3125 58.7471 56.1863C60.763 55.9811 61.7167 55.0763 61.7167 53.3719C61.7167 52.5566 61.608 52.1831 61.3726 52.2094C61.1855 52.2252 60.7208 52.283 60.3405 52.3409Z" fill="white"/>
</svg>
