<svg width="33" height="60" viewBox="0 0 33 60" fill="none" xmlns="http://www.w3.org/2000/svg">
<mask id="mask0_40036_957" style="mask-type:luminance" maskUnits="userSpaceOnUse" x="0" y="0" width="33" height="60">
<path d="M0 0H32.4267V60H0V0Z" fill="white"/>
</mask>
<g mask="url(#mask0_40036_957)">
<path fill-rule="evenodd" clip-rule="evenodd" d="M0.0704323 0.0734921C0.00219423 0.0969297 0.000488281 0.27818 0.000488281 14.8547C0.000488281 28.2813 0.00560603 29.6141 0.0584906 29.6329C0.162554 29.6704 32.3027 29.6563 32.3794 29.6188C32.4477 29.586 32.4477 29.3844 32.4477 14.8329V0.0797421L32.3675 0.0734921C32.1167 0.0547421 0.128435 0.0531797 0.0704323 0.0734921ZM0.0192537 14.8594C0.0192537 22.9876 0.022666 26.3063 0.0277835 22.2376C0.0329015 18.1672 0.0329015 11.5172 0.0277835 7.45943C0.022666 3.40318 0.0192537 6.73287 0.0192537 14.8594ZM15.5042 5.77505C15.4257 5.78912 15.279 5.80318 15.18 5.80318C15.0811 5.80474 14.9429 5.82193 14.8747 5.84068C14.8047 5.85943 14.6597 5.88912 14.5505 5.90474C14.2759 5.94537 14.0626 5.98912 13.8306 6.05474C13.7215 6.08443 13.5867 6.11724 13.5321 6.12662C13.4775 6.13599 13.4246 6.1563 13.4127 6.17193C13.4024 6.18755 13.3564 6.20162 13.312 6.20162C13.2677 6.20162 13.1994 6.22349 13.1619 6.25005C13.1227 6.27662 13.063 6.29849 13.0288 6.29849C12.9708 6.30005 12.8975 6.32818 12.7491 6.40474C12.7149 6.42193 12.6791 6.43755 12.6416 6.45162C12.3482 6.55943 11.8705 6.77818 11.7357 6.86412C11.6828 6.89849 11.6317 6.92662 11.6214 6.92662C11.5873 6.92662 10.852 7.40006 10.8043 7.45318C10.7957 7.46412 10.6439 7.58287 10.4699 7.71568C9.78583 8.24068 9.00109 9.16568 8.50977 10.0266C8.46201 10.1094 8.41083 10.1985 8.39377 10.2251C8.37842 10.2532 8.32041 10.3641 8.26753 10.4719C8.21294 10.5813 8.15494 10.6969 8.13617 10.7282C8.11911 10.7594 8.10376 10.8126 8.10376 10.8454C8.10376 10.8782 8.09011 10.9188 8.07305 10.936C8.0287 10.9813 7.88369 11.4047 7.83251 11.6438C7.81886 11.7079 7.79498 11.7735 7.77963 11.7922C7.76427 11.8094 7.7421 11.8985 7.73186 11.9907C7.67898 12.4235 7.63974 12.6641 7.6005 12.7829C7.53738 12.9813 7.57321 14.5079 7.65168 14.9094C7.68409 15.0813 7.71992 15.2813 7.73015 15.3547C7.74039 15.4266 7.76257 15.5157 7.78133 15.5516C7.81886 15.6282 7.88539 15.8641 7.91269 16.0219C7.92293 16.0813 7.94681 16.1376 7.96387 16.1485C7.98093 16.1579 7.99628 16.2001 7.99628 16.2407C7.99628 16.2813 8.02017 16.3438 8.04917 16.3782C8.07817 16.4141 8.10205 16.4688 8.10205 16.5016C8.10376 16.5329 8.1174 16.5844 8.13446 16.6172C8.15152 16.6485 8.19076 16.7251 8.22147 16.7891C8.41765 17.1985 8.75372 17.786 8.84585 17.8797C8.87314 17.9094 8.89532 17.9438 8.89532 17.9563C8.89532 17.9907 9.31157 18.5204 9.50946 18.7376C9.90865 19.1782 10.5279 19.7188 11.0022 20.0376C11.0823 20.0907 11.1523 20.1454 11.1591 20.161C11.1659 20.1751 11.1864 20.186 11.2035 20.186C11.2222 20.186 11.3468 20.2579 11.4798 20.3438C11.6129 20.4297 11.7954 20.536 11.8859 20.5797C11.9746 20.6219 12.0735 20.6782 12.1042 20.7032C12.1349 20.7266 12.1793 20.7469 12.1997 20.7469C12.2219 20.7469 12.326 20.786 12.4318 20.8344C12.5375 20.8813 12.6638 20.9344 12.7132 20.9532C12.7747 20.9766 12.8344 21.0001 12.8941 21.0266C12.9435 21.0485 13.0561 21.0844 13.1448 21.1079C13.2353 21.1313 13.3359 21.1626 13.37 21.1782C13.469 21.2266 13.9893 21.3422 14.5147 21.436C14.9463 21.511 15.2056 21.536 15.7737 21.5579C16.1013 21.5688 16.3844 21.5766 16.4049 21.5751C16.4254 21.5719 16.6352 21.5626 16.8723 21.5532C17.1112 21.5438 17.362 21.5219 17.4319 21.5047C17.5001 21.4876 17.6059 21.4735 17.6656 21.4735C17.7867 21.4735 18.2439 21.3813 18.3395 21.3376C18.3736 21.3204 18.4384 21.3079 18.4811 21.3079C18.5766 21.3079 18.7796 21.2532 18.9195 21.1891C18.9758 21.1641 19.044 21.1438 19.073 21.1438C19.102 21.1438 19.1532 21.1297 19.1873 21.1157C19.2504 21.0876 19.421 21.0188 19.5916 20.9532C21.0417 20.4001 22.3331 19.4297 23.2901 18.1751C23.4488 17.9657 23.633 17.7063 23.6979 17.5969C23.7644 17.4891 23.8582 17.3329 23.9077 17.2516C24.0118 17.0782 24.0322 17.0391 24.0936 16.9047C24.1772 16.7251 24.2472 16.5751 24.2796 16.5172C24.2949 16.486 24.3103 16.4344 24.3103 16.4016C24.312 16.3704 24.3359 16.3157 24.3649 16.2797C24.3939 16.2454 24.4178 16.1829 24.4178 16.1422C24.4178 16.1001 24.4314 16.0594 24.4502 16.0485C24.4672 16.0391 24.4894 15.9829 24.4997 15.9235C24.5099 15.8641 24.5457 15.7266 24.5781 15.6188C24.66 15.3516 24.7027 15.1454 24.7436 14.8094C24.7624 14.6563 24.7948 14.4954 24.8135 14.4547C24.834 14.4126 24.8494 14.086 24.8494 13.7219C24.8494 13.3579 24.834 13.0313 24.8135 12.9891C24.7828 12.9219 24.759 12.7782 24.6839 12.1719C24.6737 12.0891 24.6498 11.9938 24.631 11.9563C24.5986 11.8922 24.5389 11.6657 24.5014 11.4532C24.4911 11.3938 24.4672 11.3376 24.4502 11.3282C24.4314 11.3188 24.4178 11.2844 24.4178 11.2547C24.4178 11.2235 24.3922 11.1563 24.3632 11.1032C24.3342 11.0516 24.3103 10.9891 24.3103 10.9626C24.3103 10.9376 24.2949 10.8907 24.2762 10.8594C24.2574 10.8282 24.1994 10.7141 24.1482 10.6047C24.0322 10.3657 23.7354 9.82349 23.6296 9.66412C23.5887 9.60162 23.5426 9.52662 23.529 9.50006C23.4846 9.40787 23.0752 8.89224 22.8125 8.59224C22.5463 8.29224 22.0516 7.83755 21.7309 7.60162C21.6337 7.52974 21.5228 7.44381 21.4835 7.41099C21.4204 7.35943 20.6442 6.88443 20.4378 6.77193C20.2228 6.65474 19.6138 6.39537 19.259 6.27193C19.2146 6.2563 19.1157 6.2188 19.0423 6.18912C18.9673 6.15943 18.8751 6.13599 18.8359 6.13599C18.7984 6.13599 18.7574 6.12037 18.7455 6.10162C18.7335 6.08443 18.6824 6.0688 18.6329 6.0688C18.5834 6.0688 18.5066 6.05162 18.464 6.02974C18.3889 5.99224 18.2798 5.9688 17.8806 5.90474C17.7816 5.88912 17.6127 5.86099 17.5035 5.84224C16.8706 5.73912 15.8692 5.70474 15.5042 5.77505ZM16.41 6.15787C16.3981 6.1688 16.3862 6.38443 16.3862 6.63443C16.3862 7.0813 16.3879 7.09068 16.4749 7.14224C16.5226 7.17193 16.567 7.22505 16.5738 7.26255C16.5823 7.3188 16.6165 7.3313 16.7836 7.34224C17.0191 7.3563 17.4063 7.41412 17.5598 7.4563C17.6213 7.47349 17.7014 7.48755 17.739 7.48755C17.8123 7.48755 18.1245 7.57349 18.232 7.62349C18.2661 7.63912 18.319 7.65318 18.348 7.65318C18.4043 7.65318 18.6482 7.74849 19.0696 7.93599C19.3306 8.05318 19.462 8.07506 19.5046 8.01099C19.5217 7.98599 19.6172 7.97974 19.7998 7.99224C20.0147 8.0063 20.0881 8.02662 20.1631 8.08912C20.216 8.1313 20.3405 8.21568 20.4412 8.27662C20.6101 8.37974 20.8148 8.61881 20.8182 8.71724C20.8182 8.73912 20.8506 8.79224 20.8882 8.83287L20.9581 8.90943L21.3539 8.53755C21.5722 8.3313 21.7514 8.16099 21.7531 8.15787C21.7531 8.15474 21.6115 8.04224 21.4375 7.90943C21.0912 7.64224 20.7619 7.42193 20.7107 7.42193C20.6937 7.42193 20.6732 7.40943 20.6664 7.39693C20.6493 7.36099 20.3388 7.18443 20.042 7.04381C19.9038 6.97662 19.7656 6.91099 19.7366 6.89537C19.7059 6.8813 19.6326 6.85006 19.5746 6.82818C19.4193 6.77037 19.2641 6.71099 19.16 6.66881C18.9758 6.59537 18.522 6.46568 18.4486 6.46568C18.406 6.46568 18.3616 6.45006 18.3497 6.4313C18.3378 6.41412 18.2815 6.39849 18.2252 6.39849C18.1706 6.39849 18.0665 6.37662 17.9949 6.35005C17.9232 6.32193 17.8004 6.30005 17.7219 6.30005C17.6434 6.30005 17.5701 6.28599 17.5564 6.26724C17.5445 6.24849 17.4507 6.23443 17.3483 6.23443C17.2459 6.23443 17.0634 6.22037 16.9457 6.20474C16.4919 6.14224 16.4339 6.13599 16.41 6.15787ZM15.3575 6.19849C15.3472 6.20787 15.221 6.22818 15.0794 6.24068C14.6495 6.28287 14.1786 6.37037 14.0371 6.43599C14.0029 6.45162 13.9466 6.46568 13.9108 6.46568C13.875 6.46568 13.7573 6.49693 13.6498 6.53443C13.5406 6.57193 13.4144 6.61099 13.37 6.62037C13.3257 6.62974 13.2796 6.65162 13.2694 6.66724C13.2574 6.68287 13.2267 6.69537 13.1977 6.69537C13.1704 6.69537 13.0613 6.7313 12.9572 6.77505C12.8531 6.8188 12.7439 6.86256 12.7132 6.87349C12.6842 6.88599 12.6109 6.92349 12.5512 6.95787C12.4915 6.99224 12.4147 7.02193 12.3806 7.02349C12.3465 7.02506 12.3175 7.03912 12.3175 7.05474C12.3175 7.07037 12.2885 7.09224 12.2543 7.10318C12.0496 7.16568 11.1284 7.73599 10.8742 7.95943C10.765 8.0563 10.6473 8.14537 10.6132 8.1563C10.5228 8.18912 10.5381 8.22818 10.6814 8.32818C10.7531 8.37818 10.9612 8.55943 11.1472 8.73131L11.4815 9.04537L11.6555 8.90162C11.7374 8.83287 11.8193 8.76568 11.9029 8.69693C12.0292 8.59381 12.7593 8.1563 12.9828 8.04849C13.1022 7.99224 13.2233 7.93287 13.254 7.9188C13.283 7.90318 13.3479 7.87662 13.3973 7.85787C13.4468 7.83912 13.5526 7.80006 13.631 7.7688C13.7112 7.73912 13.8085 7.70162 13.8477 7.68755C13.8869 7.67193 13.9927 7.64224 14.0814 7.62037C14.1718 7.59849 14.2844 7.56412 14.3339 7.54537C14.4277 7.50943 14.6154 7.47506 15.0316 7.41881C15.1681 7.40162 15.3063 7.37349 15.3387 7.35943C15.3694 7.3438 15.5008 7.32974 15.6304 7.32506C15.7584 7.32193 15.8641 7.31568 15.8641 7.31255C15.8641 7.30943 15.859 7.05006 15.8539 6.73599L15.8437 6.16568L15.6099 6.17349C15.4803 6.17818 15.3677 6.18912 15.3575 6.19849ZM22.5446 6.49068C22.5446 6.50474 22.6675 6.62662 22.8176 6.76256C22.9677 6.89849 23.1622 7.10631 23.2492 7.22349C23.7354 7.88287 24.3308 8.48599 25.0183 9.01412C25.1991 9.15474 25.3663 9.26881 25.3867 9.26881C25.4345 9.26881 25.4362 9.22193 25.3936 9.1438C25.3441 9.05474 25.2827 8.85787 25.281 8.78756C25.281 8.75318 25.2554 8.69537 25.2264 8.66099C25.1974 8.62506 25.1735 8.56881 25.1735 8.53599C25.1735 8.50318 25.1599 8.45006 25.1411 8.41881C25.1223 8.38756 25.0473 8.24693 24.9739 8.1063C24.9006 7.96568 24.817 7.83443 24.7914 7.81412C24.7641 7.7938 24.7419 7.7563 24.7419 7.7313C24.7419 7.68287 24.1261 7.09224 24.0766 7.09224C24.0595 7.09224 23.9964 7.05787 23.935 7.01568C23.7968 6.92349 23.3396 6.71568 23.1212 6.64849C22.821 6.5563 22.6896 6.51099 22.6658 6.48755C22.6316 6.4563 22.5446 6.45943 22.5446 6.49068ZM9.47193 6.62037C9.36275 6.66568 9.24163 6.71568 9.20239 6.72974C8.72302 6.91256 8.65478 6.94381 8.33747 7.12349C8.18053 7.21412 8.09864 7.27349 7.86151 7.46881C7.71309 7.59068 7.3719 8.03287 7.28661 8.21255C7.20813 8.37974 7.13819 8.56256 7.09725 8.70787C7.0273 8.95006 6.94883 9.1813 6.90618 9.26099C6.86182 9.34537 6.89594 9.39693 6.96589 9.35006C7.10919 9.25474 7.64997 8.82193 7.91269 8.59381C8.19247 8.35162 8.53536 7.96412 8.53536 7.88912C8.53536 7.87193 8.56095 7.83912 8.59166 7.81568C8.62237 7.79224 8.70425 7.69693 8.77078 7.60631C8.9482 7.36099 9.2638 7.0063 9.50946 6.77193C9.62888 6.65943 9.71247 6.56099 9.69712 6.55318C9.68347 6.54537 9.58111 6.57506 9.47193 6.62037ZM17.2528 6.80943C17.2272 6.83756 17.176 6.86099 17.1402 6.86099C17.1044 6.86099 16.9986 6.89849 16.9048 6.94381C16.8126 6.98912 16.6966 7.02505 16.6489 7.02505C16.5329 7.02505 16.5585 7.08756 16.7137 7.18443C16.8109 7.24537 16.8672 7.25787 16.9815 7.24224C17.06 7.2313 17.2784 7.21099 17.4677 7.19849C17.7407 7.17974 17.8328 7.15943 17.9266 7.09849C17.9915 7.0563 18.0426 7.01099 18.0426 6.99849C18.0426 6.96099 17.9027 6.86099 17.8516 6.86099C17.826 6.86099 17.7901 6.84693 17.7697 6.82818C17.7509 6.81099 17.6366 6.78756 17.5172 6.77662C17.3449 6.76099 17.2903 6.76724 17.2528 6.80943ZM24.921 7.51412C24.921 7.52818 24.9995 7.61568 25.095 7.70787C25.2673 7.87662 25.5062 8.27037 25.5505 8.46099C25.5625 8.51568 25.5881 8.61099 25.6051 8.67505C25.6307 8.76255 25.6546 8.85162 25.6785 8.93912C25.7024 9.02037 25.7348 9.13287 25.7535 9.18912C25.7706 9.2438 25.7859 9.32818 25.7859 9.37662C25.7859 9.42349 25.803 9.47193 25.8218 9.48287C25.8422 9.49381 25.8576 9.5438 25.8576 9.59224C25.8576 9.64068 25.8832 9.72349 25.9122 9.77506C25.9412 9.82818 25.9668 9.89693 25.9668 9.92818C25.9668 9.96099 25.9907 10.0297 26.0197 10.0813C26.0487 10.1329 26.0742 10.1985 26.0742 10.2266C26.0742 10.2547 26.093 10.2954 26.1169 10.3172C26.151 10.3485 26.151 10.3657 26.1169 10.3969C26.0845 10.4282 26.0742 10.4204 26.0742 10.3672C26.0742 10.3297 26.0504 10.2891 26.0197 10.2797C25.9907 10.2688 25.9668 10.2422 25.9668 10.2219C25.9668 10.1626 25.5829 9.74693 25.4328 9.64381C25.3595 9.59381 25.2912 9.54068 25.281 9.52662C25.2622 9.50474 24.8221 9.22506 24.4741 9.01568C24.2898 8.90474 23.819 8.46724 23.7883 8.37974C23.7746 8.34224 23.749 8.31256 23.7303 8.31256C23.662 8.31256 23.7064 8.53912 23.8241 8.79068C23.8497 8.84537 23.8906 8.94068 23.9162 9.00474C23.9401 9.06881 23.9793 9.14224 24.0015 9.17037C24.0237 9.19693 24.0646 9.25943 24.0919 9.30943C24.1909 9.49224 24.7351 9.96881 25.2486 10.3235C25.7791 10.6907 26.308 11.1641 26.4359 11.3876C26.4751 11.4563 26.5195 11.511 26.5349 11.511C26.5792 11.511 26.5843 9.53755 26.54 9.30162C26.5007 9.10005 26.4325 8.89693 26.3591 8.76568C26.3404 8.73443 26.3267 8.69224 26.3267 8.67349C26.3267 8.59068 25.9924 8.17974 25.745 7.95943C25.4533 7.69693 24.921 7.40943 24.921 7.51412ZM7.15013 7.68599C7.13648 7.70318 7.05289 7.75005 6.96077 7.78755C6.68952 7.90162 6.01567 8.56568 6.01567 8.7188C6.01567 8.74693 6.00032 8.77818 5.98326 8.78912C5.9389 8.81255 5.8519 9.09693 5.79731 9.38599C5.7666 9.55006 5.76149 9.80631 5.78025 10.2438C5.81778 11.1688 5.81949 11.3126 5.79049 11.5079L5.7649 11.686L5.85361 11.6094C5.90308 11.5672 5.94232 11.5157 5.94232 11.4954C5.94232 11.3985 6.6537 10.7344 6.93518 10.5688C6.99318 10.5344 7.09042 10.4672 7.15013 10.4188C7.20813 10.3719 7.37361 10.2422 7.5152 10.1313C7.80351 9.9063 8.21464 9.42037 8.37159 9.12037C8.42789 9.01099 8.4876 8.89693 8.50466 8.86568C8.52171 8.83287 8.53536 8.77818 8.53536 8.74224C8.53536 8.7063 8.56095 8.60787 8.59337 8.52349C8.67525 8.30318 8.60531 8.26099 8.49442 8.46412C8.3733 8.69068 7.95363 9.0563 7.42649 9.39693C6.87888 9.75006 6.60764 9.99224 6.38075 10.3235C6.22721 10.5516 6.21186 10.5641 6.20162 10.4782C6.1948 10.4282 6.20503 10.3688 6.22209 10.3469C6.25962 10.3016 6.34833 10.0735 6.40804 9.86256C6.43193 9.7813 6.47457 9.63912 6.50187 9.54849C6.55816 9.36724 6.58546 9.22974 6.61446 9.00474C6.6264 8.92349 6.64858 8.84224 6.66735 8.82506C6.68441 8.80787 6.69976 8.75943 6.69976 8.7188C6.69976 8.67818 6.72535 8.58756 6.75776 8.51881C6.79017 8.45006 6.83282 8.35787 6.85329 8.31256C6.87206 8.26724 6.90277 8.20787 6.91983 8.17974C6.93689 8.15318 6.96589 8.10005 6.98465 8.06255C7.00171 8.02505 7.08189 7.92974 7.16378 7.84849C7.24396 7.76724 7.31049 7.69068 7.31049 7.67662C7.3122 7.64068 7.17572 7.64693 7.15013 7.68599ZM20.042 7.74693C19.9704 7.81099 20.2655 8.11568 20.4105 8.12662C20.4634 8.12974 20.4719 8.10787 20.4634 7.98287C20.4565 7.88599 20.431 7.82349 20.3917 7.80162C20.3201 7.76255 20.0676 7.72349 20.042 7.74693ZM15.685 7.78443C15.6253 7.79849 15.482 7.81099 15.3677 7.81412C15.2534 7.81568 15.1016 7.83912 15.0299 7.86724C14.96 7.89381 14.8593 7.91568 14.8099 7.91568C14.7587 7.91568 14.6683 7.92974 14.6068 7.94693C14.5454 7.96412 14.3987 8.00474 14.2793 8.03599C14.1616 8.0688 14.0473 8.10474 14.0285 8.11568C14.0081 8.12662 13.9193 8.1563 13.8306 8.17974C13.7402 8.20474 13.643 8.24381 13.6106 8.26881C13.5799 8.29224 13.5372 8.31256 13.5167 8.31256C13.469 8.31256 12.9231 8.5688 12.7132 8.68912C12.6245 8.74224 12.3772 8.91099 12.1656 9.06568L11.7784 9.34849L11.9131 9.44693C11.9865 9.50162 12.1861 9.67974 12.3567 9.84224L12.6672 10.1391L12.7712 10.0485C12.8838 9.95005 13.3854 9.61724 13.5594 9.52505C13.8068 9.39224 14.3185 9.18599 14.5147 9.13755C14.6034 9.11568 14.7297 9.07662 14.7945 9.05162C14.8593 9.02506 14.9446 9.00474 14.9822 9.00474C15.0214 9.00474 15.122 8.99068 15.2073 8.97193C15.2909 8.95474 15.482 8.9313 15.6321 8.92037L15.9034 8.90162L15.8931 8.35631C15.888 8.05631 15.8744 7.79849 15.8624 7.7813C15.8402 7.74849 15.8385 7.74849 15.685 7.78443ZM16.4049 7.79068C16.393 7.81568 16.3896 8.07349 16.3947 8.36256L16.4049 8.88912L16.5124 8.89849C16.9235 8.92974 17.466 9.01568 17.5633 9.06412C17.6076 9.08599 17.6827 9.10318 17.7321 9.10318C17.7816 9.10318 17.8328 9.1188 17.8447 9.13755C17.8584 9.15474 17.8993 9.17037 17.9386 9.17037C17.9761 9.17037 18.0358 9.18287 18.0716 9.19849C18.1057 9.21412 18.1979 9.25162 18.2781 9.28443C18.5561 9.39693 18.8615 9.55006 18.9502 9.62193C19.027 9.68287 19.1106 9.64693 19.0491 9.57974C19.027 9.55474 19.0167 9.51099 19.0287 9.48287C19.0526 9.42662 18.9843 9.26881 18.9383 9.26881C18.9212 9.26881 18.9075 9.24693 18.9075 9.21881C18.9075 9.10631 19.056 9.17662 19.2214 9.36724C19.3562 9.52193 19.4159 9.56568 19.4927 9.56568C19.5968 9.56568 19.6121 9.53599 19.5609 9.44068C19.4432 9.2313 19.4364 9.2063 19.4825 9.15474C19.5319 9.10162 19.5115 9.06256 19.3733 8.93443C19.3409 8.90318 19.3033 8.82193 19.2914 8.75162C19.2641 8.59537 19.0031 8.35474 18.7642 8.26568C18.6738 8.23287 18.5698 8.19381 18.5288 8.17818C18.4896 8.16412 18.377 8.12818 18.2781 8.09693C18.1791 8.06724 18.0699 8.02818 18.0341 8.01255C18 7.99537 17.9249 7.98287 17.8652 7.98287C17.8072 7.98287 17.7492 7.96724 17.7373 7.95006C17.7253 7.9313 17.6707 7.91568 17.6178 7.91568C17.565 7.91568 17.449 7.89537 17.3585 7.87037C17.2698 7.84693 17.06 7.81568 16.8911 7.80318C16.7222 7.79068 16.5482 7.77193 16.5039 7.76256C16.4544 7.75162 16.4169 7.76256 16.4049 7.79068ZM22.0414 8.50787C22.0414 8.55318 21.3163 9.24693 21.2396 9.27662C21.1355 9.31568 21.1645 9.37193 21.4016 9.58599C21.7787 9.92506 22.4013 10.6594 22.4013 10.7641C22.4013 10.7922 22.4167 10.8251 22.4372 10.836C22.4559 10.8469 22.473 10.8907 22.473 10.9344C22.473 10.9766 22.4952 11.0532 22.5242 11.1047C22.5736 11.1985 22.5907 11.2344 22.7067 11.511C22.7408 11.5938 22.7835 11.686 22.8005 11.7172C22.8193 11.7485 22.8329 11.8047 22.8329 11.8422C22.8329 11.8782 22.8466 11.9344 22.8654 11.9657C22.9165 12.0594 22.9814 12.3063 23.0104 12.5172C23.0257 12.6266 23.0479 12.7376 23.0598 12.7657C23.0718 12.7922 23.0888 12.9563 23.0991 13.1282C23.1093 13.3001 23.1178 13.4438 23.1195 13.4454C23.1195 13.4485 23.4061 13.4485 23.7559 13.4454L24.3905 13.4407L24.3683 13.0954C24.3376 12.6235 24.2455 12.0782 24.1636 11.8907C24.1482 11.8547 24.1261 11.7876 24.1175 11.7422C24.0698 11.5329 24.0152 11.361 23.9828 11.3313C23.964 11.3141 23.9486 11.2672 23.9486 11.2266C23.9486 11.186 23.9333 11.1438 23.9128 11.1329C23.894 11.1204 23.877 11.0876 23.877 11.0594C23.877 10.8954 23.0547 9.50005 22.8449 9.30787C22.8193 9.28443 22.7971 9.25318 22.7971 9.23912C22.7971 9.22662 22.7681 9.18599 22.7306 9.15005C22.6948 9.11412 22.6163 9.02506 22.5583 8.95162C22.2768 8.59537 22.0414 8.39224 22.0414 8.50787ZM10.0298 8.72662C9.93595 8.82662 9.808 8.97037 9.74659 9.04537C9.53164 9.30474 9.32863 9.5688 9.32863 9.58443C9.32863 9.60006 9.27575 9.6813 9.05056 10.0126C8.9192 10.2079 8.53536 10.9657 8.53536 11.0329C8.53536 11.0579 8.52001 11.0876 8.49954 11.1001C8.48077 11.111 8.46371 11.1469 8.46371 11.1797C8.46371 11.2126 8.43983 11.2829 8.41083 11.3344C8.38012 11.386 8.35624 11.461 8.35624 11.5016C8.35624 11.5407 8.34088 11.5813 8.32382 11.5922C8.30677 11.6016 8.28288 11.6579 8.27265 11.7172C8.26241 11.7766 8.22659 11.9282 8.19417 12.0563C8.0867 12.4719 7.98263 13.386 8.03381 13.4626C8.04575 13.4797 8.32553 13.4891 8.68207 13.4829L9.30986 13.4735L9.3201 13.1766C9.32692 13.0141 9.3474 12.8282 9.36616 12.7657C9.38493 12.7016 9.40028 12.5938 9.40028 12.5251C9.40028 12.4579 9.41563 12.3751 9.4344 12.3438C9.47022 12.286 9.53334 12.0501 9.56917 11.8501C9.57941 11.7907 9.60329 11.7344 9.62035 11.7235C9.63741 11.7141 9.65276 11.6813 9.65276 11.6501C9.65276 11.6188 9.67323 11.5563 9.69882 11.511C9.72441 11.4657 9.76706 11.3626 9.79435 11.2813C9.82336 11.1985 9.866 11.1094 9.8933 11.0797C9.91889 11.0516 9.94107 11.011 9.94107 10.9907C9.94107 10.9516 10.1083 10.6594 10.1611 10.6063C10.1782 10.5891 10.1918 10.5501 10.1918 10.5188C10.1918 10.4876 10.2055 10.4563 10.2191 10.4501C10.2345 10.4454 10.3198 10.336 10.4085 10.2094C10.4972 10.0813 10.5791 9.97037 10.5893 9.96099C10.6013 9.95162 10.6576 9.88599 10.7139 9.81256C10.7719 9.74068 10.8913 9.61099 10.9817 9.52505L11.1438 9.36724L10.7139 8.95943C10.4767 8.73599 10.2652 8.55005 10.243 8.54849C10.2208 8.54537 10.1253 8.62506 10.0298 8.72662ZM26.7106 8.99537C26.7225 9.02818 26.7515 9.07662 26.7754 9.10318C26.8249 9.16099 26.8982 9.37193 26.9187 9.51568C26.9272 9.57037 26.9511 9.67505 26.9716 9.74693C27.0193 9.91568 27.0193 10.2688 26.9733 10.4391C26.9528 10.5126 26.9255 10.6829 26.9119 10.8188C26.888 11.0516 26.888 12.3204 26.9102 12.7454C26.917 12.8797 26.9068 12.9454 26.876 12.9547C26.8436 12.9641 26.83 12.9188 26.83 12.7954C26.83 12.5938 26.7754 12.4094 26.6202 12.1047C26.511 11.8876 26.2977 11.6547 25.9088 11.3282C25.2571 10.7797 24.8886 10.436 24.8494 10.3391C24.8204 10.2704 24.7999 10.2563 24.7709 10.2844C24.7402 10.3126 24.7402 10.3438 24.7709 10.4079C24.7948 10.4547 24.8135 10.5266 24.8135 10.5672C24.8135 10.6079 24.8374 10.6704 24.8664 10.7047C24.8954 10.7407 24.9193 10.8094 24.921 10.8579C24.921 10.9079 24.9381 10.9563 24.9586 10.9672C24.9773 10.9782 24.9944 11.0094 24.9944 11.0344C24.9944 11.1454 25.3373 11.7297 25.5744 12.0235C25.7689 12.261 26.1305 12.7001 26.2244 12.8094C26.2687 12.8626 26.3267 12.9438 26.354 12.9907C26.3813 13.0376 26.4171 13.0844 26.4325 13.0938C26.4854 13.1235 26.83 13.7563 26.83 13.8204C26.83 13.8547 26.847 13.8922 26.8658 13.9032C26.8863 13.9141 26.9016 13.9891 26.9016 14.0672C26.9016 14.2063 26.9596 14.3016 26.9886 14.211C27.0211 14.1063 27.1626 13.5297 27.1797 13.4329C27.1899 13.3735 27.2121 13.3172 27.2309 13.3063C27.2479 13.2969 27.2633 13.2563 27.2633 13.2141C27.2633 13.1735 27.2872 13.111 27.3162 13.0766C27.3452 13.0407 27.3691 12.9797 27.3691 12.9376C27.3708 12.8969 27.3844 12.8641 27.4032 12.8641C27.4202 12.8641 27.4424 12.8313 27.4527 12.7891C27.4629 12.7485 27.5038 12.6344 27.5431 12.5344C27.671 12.2126 27.712 11.9407 27.712 11.4297C27.712 10.9626 27.6574 10.5094 27.584 10.3829C27.5652 10.3516 27.5499 10.2938 27.5499 10.2563C27.5499 10.2172 27.5277 10.1469 27.5004 10.0985C27.4731 10.0501 27.4305 9.96568 27.4066 9.91256C27.2821 9.63756 26.8539 9.0188 26.7549 8.97037C26.6986 8.94224 26.6918 8.94693 26.7106 8.99537ZM5.53801 9.10005C5.50389 9.13287 5.47489 9.17506 5.47489 9.1938C5.47489 9.21412 5.46124 9.23443 5.44418 9.24068C5.41518 9.25162 5.18999 9.56412 5.13881 9.66412C5.12517 9.69224 5.08252 9.75787 5.04499 9.81256C5.00746 9.86724 4.97504 9.93599 4.97334 9.96568C4.97163 9.99537 4.94604 10.0376 4.91704 10.061C4.88633 10.0829 4.86245 10.136 4.86245 10.1782C4.86245 10.2204 4.8488 10.2626 4.83004 10.2719C4.81298 10.2829 4.78909 10.3313 4.77886 10.3813C4.76692 10.4313 4.73109 10.5766 4.69697 10.7032C4.62703 10.9657 4.58609 11.8813 4.64068 11.9891C4.67309 12.0532 4.73791 12.3063 4.77886 12.5266C4.78909 12.586 4.81298 12.6422 4.83004 12.6516C4.8488 12.6626 4.86245 12.7047 4.86245 12.7469C4.86245 12.7891 4.88633 12.8407 4.91704 12.8641C4.94604 12.886 4.96992 12.9329 4.96992 12.9672C4.96992 13.0016 4.98528 13.0563 5.00404 13.0876C5.07058 13.2016 5.15076 13.386 5.15076 13.4219C5.15076 13.4422 5.16611 13.4844 5.18317 13.5157C5.20193 13.5469 5.23605 13.6407 5.25994 13.7219C5.29064 13.8188 5.32135 13.9157 5.35376 14.011C5.38106 14.0891 5.40324 14.1891 5.40324 14.2329C5.40324 14.2751 5.41688 14.3204 5.43565 14.3297C5.47318 14.3516 5.51071 14.2735 5.51071 14.1719C5.51242 14.0938 5.59089 13.8688 5.63013 13.8329C5.64378 13.8204 5.65572 13.7844 5.65572 13.7532C5.65572 13.7219 5.6796 13.6782 5.7086 13.6563C5.73931 13.6329 5.76319 13.5938 5.76319 13.5704C5.76319 13.5454 5.87578 13.3657 6.01567 13.1704C6.39098 12.6407 6.4541 12.5563 6.50699 12.5079C6.53428 12.4829 6.55475 12.4532 6.55475 12.4391C6.55475 12.4251 6.58375 12.386 6.61958 12.3501C6.78506 12.1844 7.16207 11.5969 7.27466 11.3297C7.29002 11.2938 7.32243 11.2204 7.34802 11.1657C7.3992 11.0532 7.43502 10.9313 7.51179 10.6204C7.57321 10.3657 7.5715 10.3907 7.52715 10.3907C7.50838 10.3907 7.49132 10.4141 7.49132 10.4438C7.49132 10.4751 7.15866 10.8001 6.75264 11.1688C6.34663 11.5376 6.01567 11.8547 6.01567 11.8751C6.01567 11.8938 5.98155 11.9422 5.94061 11.9829C5.81266 12.1079 5.58577 12.5797 5.58065 12.7329C5.57895 12.7782 5.54824 12.8969 5.51242 12.9954C5.41518 13.261 5.39129 13.1391 5.45612 12.7172C5.51753 12.3188 5.52436 11.7157 5.47318 11.4626C5.35888 10.9094 5.31282 9.86255 5.38959 9.58287C5.41006 9.50943 5.47659 9.35787 5.5363 9.2438C5.64889 9.03287 5.64889 8.99693 5.53801 9.10005ZM15.3779 9.38443C15.2892 9.41099 15.1732 9.43287 15.1186 9.43287C15.0657 9.43287 15.0129 9.44849 15.0009 9.46724C14.9873 9.48443 14.9429 9.50006 14.8986 9.50006C14.8201 9.50006 14.5676 9.57193 14.4499 9.62818C14.4158 9.6438 14.2588 9.71412 14.1002 9.78287C13.8119 9.90943 13.5645 10.0407 13.4758 10.1172C13.4502 10.1407 13.4161 10.1594 13.4024 10.1594C13.3871 10.1594 13.3444 10.186 13.3052 10.2172C13.2677 10.2501 13.1824 10.311 13.1158 10.3532L12.9964 10.4313L13.3683 10.7594C13.573 10.9391 13.776 11.1188 13.8204 11.1563L13.9023 11.2266L13.9756 11.1547C14.1224 11.0094 14.8081 10.6469 15.0146 10.6063C15.076 10.5938 15.134 10.5688 15.1459 10.5532C15.1579 10.536 15.2346 10.5219 15.3199 10.5219C15.4035 10.5219 15.4871 10.5079 15.5059 10.4907C15.5246 10.4735 15.6219 10.4547 15.7208 10.4501L15.9 10.4391L15.9034 9.96099C15.9051 9.69849 15.9136 9.45318 15.9221 9.41724C15.9358 9.35787 15.9153 9.35006 15.7379 9.34381C15.6304 9.34068 15.4683 9.35943 15.3779 9.38443ZM16.3947 9.88287L16.4049 10.4391L16.6028 10.461C16.9235 10.4954 17.1231 10.5297 17.1607 10.5547C17.1811 10.5688 17.2937 10.6063 17.4131 10.6391C17.7339 10.7297 18.2849 11.0016 18.3992 11.1282C18.4265 11.1579 18.4674 11.1813 18.4896 11.1813C18.5118 11.1797 18.6824 11.0313 18.87 10.8516C19.056 10.6704 19.23 10.5219 19.2556 10.5219C19.2811 10.5219 19.3187 10.4922 19.3392 10.4563C19.3613 10.4204 19.3647 10.3907 19.346 10.3907C19.3289 10.3907 19.276 10.3594 19.2283 10.3219C19.0662 10.1922 18.5578 9.89849 18.2593 9.76099C18.0699 9.67349 17.7816 9.56568 17.739 9.56568C17.71 9.56568 17.6776 9.55005 17.6656 9.53287C17.6537 9.51412 17.5888 9.50006 17.5206 9.50006C17.4541 9.50006 17.3892 9.48443 17.3773 9.46724C17.3654 9.44849 17.2903 9.43443 17.2101 9.43443C17.1317 9.43443 17.0327 9.41724 16.9935 9.39849C16.9525 9.37818 16.8007 9.35318 16.6523 9.34381L16.3844 9.32505L16.3947 9.88287ZM19.7469 9.55318C19.6838 9.59381 19.6735 9.62506 19.6889 9.72506C19.7008 9.79068 19.723 9.85943 19.74 9.87662C19.7571 9.8938 19.7725 9.93443 19.7725 9.96412C19.7725 9.99537 19.8373 10.1001 19.9158 10.1969C19.9959 10.2922 20.0608 10.3907 20.0608 10.4126C20.0608 10.436 20.129 10.5188 20.2143 10.6001C20.2996 10.6797 20.4003 10.8063 20.4361 10.8813C20.5077 11.0251 20.5623 11.0485 20.6357 10.9672C20.6903 10.9079 20.8046 10.9032 20.8267 10.9594C20.8353 10.9813 20.8267 11.036 20.8097 11.0797C20.767 11.1844 20.796 11.2485 20.8864 11.2485C20.9735 11.2485 20.9786 11.2782 20.9069 11.3657C20.837 11.4501 20.8387 11.4782 20.9155 11.4797C21.0161 11.4813 21.1765 11.7235 21.1765 11.8735C21.1765 11.9438 21.1594 12.011 21.1406 12.0235C21.0929 12.0501 21.0946 12.2141 21.144 12.3157C21.1765 12.3797 21.1713 12.4235 21.1202 12.5313C21.0843 12.6047 21.0417 12.6657 21.0263 12.6657C21.0093 12.6657 20.9956 12.7032 20.9956 12.7485C20.9956 12.8376 21.0605 12.861 21.0878 12.7813C21.0963 12.7547 21.115 12.7063 21.1287 12.6751C21.1406 12.6422 21.1492 12.6032 21.144 12.5876C21.1338 12.5469 21.2515 12.436 21.3061 12.436C21.3368 12.436 21.3573 12.5188 21.3709 12.7079C21.3812 12.8563 21.4016 13.0829 21.4187 13.211L21.446 13.4407L22.0414 13.4344L22.6351 13.4266L22.6316 13.1704C22.6282 12.8891 22.5549 12.4376 22.5054 12.3876C22.4866 12.3704 22.473 12.3172 22.473 12.2719C22.473 12.2251 22.4389 12.1047 22.3962 12.0063C22.3553 11.9063 22.3126 11.7844 22.3024 11.7344C22.2922 11.6844 22.27 11.6344 22.2529 11.6251C22.2359 11.6141 22.2205 11.5844 22.2205 11.5563C22.2205 11.5282 22.1881 11.4626 22.1471 11.411C22.084 11.3282 22.0619 11.3204 21.9817 11.3485C21.881 11.3829 21.8691 11.3735 21.4887 10.9704C21.3931 10.8688 21.2839 10.786 21.2498 10.786C21.1355 10.786 20.7432 10.5204 20.68 10.4016C20.6323 10.3094 20.6033 10.2907 20.506 10.2907C20.3388 10.2907 20.2041 10.1266 20.2041 9.92037C20.2041 9.59537 19.9721 9.40943 19.7469 9.55318ZM11.3212 9.80787C11.2444 9.89693 11.1421 10.0172 11.0909 10.0735C10.8418 10.3516 10.5962 10.7094 10.4221 11.0501C10.3727 11.1501 10.2993 11.2922 10.2618 11.3657C10.2243 11.4391 10.1918 11.5172 10.1918 11.5391C10.1918 11.561 10.1782 11.6047 10.1611 11.636C10.1219 11.7063 10.0537 11.8876 10.0059 12.0391C9.97007 12.1563 9.95813 12.2032 9.84553 12.6829C9.81141 12.8282 9.78241 13.0657 9.78071 13.211L9.779 13.4735H10.9663L10.9919 13.2766C11.0602 12.7532 11.1523 12.3376 11.2103 12.2844C11.2256 12.2704 11.2376 12.2204 11.2376 12.1735C11.2393 12.1266 11.2785 12.0141 11.328 11.9235C11.3758 11.8329 11.4167 11.7329 11.4167 11.7016C11.4167 11.6704 11.4338 11.6438 11.4525 11.6438C11.473 11.6438 11.4884 11.6141 11.4884 11.5797C11.4884 11.5438 11.5037 11.5063 11.5225 11.4969C11.5412 11.486 11.5993 11.3969 11.6521 11.2985C11.705 11.2001 11.7716 11.1016 11.7988 11.0797C11.8261 11.0594 11.85 11.0219 11.85 10.9985C11.85 10.9751 11.862 10.9516 11.879 10.9454C11.9029 10.936 12.0564 10.7579 12.2748 10.4891C12.3158 10.4376 12.2731 10.3876 11.8893 10.0376L11.4577 9.64537L11.3212 9.80787ZM26.1459 10.4891C26.1459 10.5079 26.163 10.5219 26.1851 10.5219C26.2056 10.5219 26.2124 10.5079 26.2005 10.4891C26.1885 10.4704 26.1715 10.4563 26.1613 10.4563C26.1527 10.4563 26.1459 10.4704 26.1459 10.4891ZM19.5746 10.8063C19.5405 10.8532 19.3374 11.0532 19.1208 11.2501C18.9041 11.4485 18.7284 11.6172 18.7284 11.6266C18.7284 11.636 18.7591 11.6438 18.7967 11.6438C18.8359 11.6438 18.8768 11.6563 18.8871 11.6719C18.8973 11.6876 19.056 11.7079 19.2402 11.7172C19.5712 11.7344 19.7725 11.786 19.7725 11.8547C19.7725 11.8751 19.8134 11.9329 19.8646 11.9844C19.9345 12.0516 19.9533 12.0969 19.9362 12.1579C19.9243 12.2016 19.9311 12.2672 19.9516 12.3016C19.9874 12.3641 19.9925 12.3626 20.0829 12.2844C20.1358 12.2407 20.199 12.2047 20.2228 12.2047C20.2962 12.2047 20.4327 12.2797 20.564 12.3922C20.6817 12.4922 20.6834 12.5001 20.6254 12.5594C20.5913 12.5938 20.564 12.6547 20.564 12.6938C20.564 12.7329 20.5487 12.7657 20.5282 12.7657C20.5077 12.7657 20.4924 12.8094 20.4924 12.8641C20.4924 12.9188 20.5043 12.9626 20.5197 12.9626C20.5828 12.9626 20.7073 12.8579 20.7602 12.7594C20.8233 12.6438 20.8353 12.3844 20.7807 12.3532C20.7602 12.3422 20.7449 12.3047 20.7449 12.2704C20.7449 12.1844 20.6033 11.9735 20.547 11.9735C20.5214 11.9735 20.4821 11.9532 20.4583 11.9266C20.4361 11.9016 20.3593 11.8563 20.2911 11.8251C20.1239 11.7532 20.1068 11.6969 20.199 11.5454L20.2774 11.4188L20.1154 11.2016C19.9277 10.9516 19.7793 10.7922 19.694 10.7501C19.6496 10.7282 19.6206 10.7422 19.5746 10.8063ZM12.5495 10.8766C12.4932 10.9454 12.4369 11.0079 12.4266 11.0172C12.4147 11.0266 12.3243 11.1532 12.2253 11.2985C12.152 11.4079 12.0769 11.5188 12.0019 11.6282C11.978 11.6641 11.9404 11.7297 11.9183 11.7751C11.8978 11.8204 11.8551 11.9094 11.8261 11.9735L11.7204 12.1969C11.6914 12.2563 11.6692 12.3344 11.6692 12.3688C11.6692 12.4032 11.6521 12.4407 11.6334 12.4516C11.6129 12.4626 11.5975 12.5204 11.5975 12.5797C11.5975 12.6376 11.5822 12.7001 11.5634 12.7172C11.5447 12.7344 11.5105 12.8829 11.4867 13.0454C11.4184 13.5172 11.3997 13.4735 11.6692 13.4735C11.8876 13.4735 11.9046 13.4688 11.9149 13.3969C11.9217 13.3532 11.9097 13.3016 11.8876 13.2829C11.804 13.2047 11.8381 13.1079 12.0923 12.6829C12.1742 12.5485 12.2168 12.5126 12.3362 12.4829C12.43 12.4579 12.4846 12.4235 12.4915 12.3829C12.5102 12.2891 12.6058 12.2047 12.6928 12.2032C12.7371 12.2032 12.8309 12.136 12.9248 12.0391C13.0118 11.9485 13.1107 11.8751 13.1448 11.8751C13.1807 11.8751 13.2916 11.7969 13.3939 11.7016L13.5782 11.5282L13.1363 11.1422C12.8941 10.9297 12.6859 10.7563 12.6723 10.7547C12.6604 10.7532 12.6041 10.8094 12.5495 10.8766ZM15.8027 10.9032C15.7942 10.911 15.7242 10.9235 15.6458 10.9329C15.569 10.9422 15.4632 10.9626 15.4138 10.9797C15.3643 10.9954 15.2517 11.0282 15.163 11.0532C15.0726 11.0766 14.8951 11.1454 14.7689 11.2063C14.5369 11.3172 14.1189 11.6047 14.1189 11.6532C14.1172 11.6672 14.1565 11.6922 14.2042 11.7079C14.252 11.7251 14.3015 11.7547 14.3151 11.7735C14.3271 11.7922 14.3697 11.8079 14.409 11.8079C14.4635 11.8079 14.4789 11.8313 14.4789 11.9235C14.4789 12.0047 14.4943 12.0391 14.5318 12.0391C14.5625 12.0391 14.5864 12.0251 14.5864 12.0063C14.5864 11.9876 14.6188 11.9735 14.658 11.9735C14.6973 11.9735 14.7297 11.986 14.7297 12.0016C14.7297 12.0157 14.7706 12.0454 14.8218 12.0672C15.0913 12.1797 15.4138 12.011 15.4138 11.7563C15.4138 11.7141 15.4462 11.6641 15.4837 11.6454C15.5775 11.5985 15.5826 11.6001 15.6065 11.6813C15.6219 11.736 15.6441 11.7469 15.7089 11.7313C15.7549 11.7204 15.83 11.711 15.8778 11.7094C15.9563 11.7094 15.9614 11.7001 15.9375 11.586C15.9221 11.5172 15.9119 11.3407 15.9136 11.1938C15.9153 10.9954 15.9034 10.9188 15.8658 10.9063C15.8402 10.8969 15.8112 10.8954 15.8027 10.9032ZM16.4186 10.9094C16.4169 10.9235 16.4169 11.0907 16.422 11.2813C16.4288 11.6657 16.4476 11.7016 16.6506 11.7313C16.77 11.7501 16.8041 11.736 16.9645 11.6126C17.205 11.4266 17.2732 11.4407 17.2579 11.6782C17.2459 11.8891 17.176 11.9719 16.9184 12.0922C16.7666 12.1641 16.6847 12.2704 16.7836 12.2704C16.8024 12.2704 16.8195 12.2547 16.8195 12.2376C16.8195 12.1704 17.0429 12.2047 17.1504 12.2876C17.2084 12.3329 17.2715 12.3688 17.292 12.3688C17.3312 12.3688 17.5035 12.2079 17.5035 12.1688C17.5035 12.1563 17.6042 12.086 17.7287 12.0141C17.8533 11.9422 17.9778 11.8579 18.0068 11.8266C18.0512 11.7766 18.0512 11.7657 17.9966 11.7376C17.9147 11.6954 17.9198 11.6251 18.0068 11.5454C18.0972 11.4626 18.0972 11.4376 18.0102 11.3954C17.263 11.0454 17.1402 11.0016 16.6813 10.9188C16.4544 10.8782 16.4237 10.8766 16.4186 10.9094ZM18.5356 11.8032C18.4708 11.8688 18.4555 11.9735 18.5101 11.9735C18.5527 11.9735 18.6551 11.8407 18.6551 11.7844C18.6551 11.7251 18.6039 11.7329 18.5356 11.8032ZM28.0395 12.0594C28.0259 12.1079 28.0259 12.1876 28.0378 12.2391C28.0583 12.3251 27.9849 12.7266 27.9099 12.9469C27.8911 13.0016 27.8518 13.1126 27.8246 13.1938C27.7973 13.2751 27.7546 13.3876 27.729 13.4407C27.7051 13.4954 27.6693 13.5766 27.6505 13.6219C27.6301 13.6688 27.5994 13.7282 27.5823 13.7547C27.5653 13.7813 27.5414 13.8266 27.5294 13.8532L27.48 13.9688C27.4646 14.0047 27.41 14.1172 27.3571 14.2172C27.3059 14.3172 27.2633 14.4219 27.2633 14.4501C27.2633 14.4766 27.2496 14.5141 27.2343 14.5313C27.2189 14.5485 27.1763 14.6516 27.1422 14.761C27.1063 14.8688 27.062 15.0047 27.0432 15.0594C27.0262 15.1157 27.0108 15.2141 27.0108 15.2813C27.0108 15.3469 26.9938 15.4094 26.975 15.4204C26.9545 15.4313 26.9392 15.5032 26.9392 15.5813C26.9392 15.6579 26.9153 15.7501 26.8863 15.7844C26.8573 15.8204 26.8317 15.9047 26.8317 15.9735C26.8317 16.0407 26.8146 16.0969 26.7942 16.0969C26.7464 16.0969 26.7481 15.8782 26.7976 15.7922C26.8522 15.7016 26.8522 14.7829 26.7976 14.7344C26.7754 14.7141 26.7583 14.6641 26.7583 14.6235C26.7583 14.561 26.6594 14.3251 26.5451 14.1172C26.4564 13.9563 26.3114 13.7313 26.2687 13.686C26.2414 13.6579 26.2175 13.6235 26.2175 13.611C26.2175 13.5891 26.0401 13.3266 26.0026 13.2922C25.9412 13.2376 25.6546 12.7079 25.6222 12.5922C25.5966 12.4969 25.5437 12.4719 25.5147 12.5438C25.4755 12.6329 25.5881 13.4485 25.6972 13.8704C25.7296 13.9969 25.7655 14.161 25.7757 14.2329C25.7859 14.3047 25.8081 14.3782 25.8252 14.3969C25.8439 14.4141 25.8576 14.4626 25.8576 14.5063C25.8576 14.5485 25.8764 14.6157 25.9002 14.6563C25.9241 14.6954 25.9548 14.7797 25.9702 14.8438C26.0248 15.0704 26.122 15.3594 26.1868 15.4782C26.2039 15.5094 26.2175 15.5641 26.2175 15.5985C26.2175 15.6344 26.2414 15.7047 26.2704 15.7563C26.3643 15.9266 26.4052 16.2047 26.3898 16.5907C26.3813 16.8001 26.3626 17.0047 26.3472 17.0454C26.2875 17.1969 26.3881 17.1063 26.6679 16.7532C26.8266 16.5532 26.9818 16.3641 27.0108 16.3344C27.0415 16.3032 27.1951 16.1219 27.3537 15.9329C27.5124 15.7422 27.6642 15.561 27.6949 15.5297C27.7768 15.4454 27.9508 15.1063 28.0224 14.8922C28.0463 14.8204 28.0873 14.7141 28.1146 14.6563C28.1419 14.6001 28.1623 14.5157 28.1623 14.4688C28.1623 14.4235 28.176 14.3766 28.193 14.3672C28.321 14.2954 28.3159 12.6594 28.1862 12.2204C28.176 12.1844 28.1572 12.1141 28.147 12.0641C28.1197 11.9501 28.0702 11.9469 28.0395 12.0594ZM4.27048 12.1141C4.26195 12.136 4.2466 12.2063 4.23466 12.2704C4.21589 12.3641 4.19542 12.4579 4.17495 12.5501C4.04018 13.1719 4.04018 13.6516 4.17495 14.3485C4.25854 14.7735 4.27731 14.8485 4.31654 14.8844C4.34043 14.9047 4.35919 14.9563 4.35919 14.9985C4.35919 15.0407 4.37284 15.1001 4.3899 15.1329C4.40696 15.1641 4.44961 15.2485 4.48714 15.3219C4.56903 15.4813 4.71403 15.6938 4.79933 15.7813C4.83515 15.8157 4.86245 15.8563 4.86245 15.8688C4.86245 15.8829 4.88292 15.9141 4.90851 15.9376C5.14734 16.1626 5.86384 17.0032 5.9099 17.111C5.92696 17.1516 5.95596 17.1844 5.97473 17.1844C5.99179 17.1844 6.01738 17.2188 6.03103 17.2594C6.07367 17.386 6.09415 17.2626 6.0532 17.1297C5.96279 16.8313 6.0242 16.1376 6.16238 15.8907C6.18115 15.8594 6.1948 15.7891 6.1948 15.736C6.1948 15.6829 6.21186 15.6297 6.23062 15.6188C6.25109 15.6063 6.26645 15.5626 6.26645 15.5188C6.26645 15.4751 6.29033 15.3907 6.31763 15.3313C6.34492 15.2719 6.38757 15.1563 6.40975 15.0735C6.43875 14.9751 6.46946 14.8751 6.50357 14.7766C6.53258 14.6954 6.55646 14.5969 6.55475 14.5563C6.55475 14.5172 6.57011 14.4766 6.58717 14.4657C6.60593 14.4563 6.62811 14.3922 6.63834 14.3235C6.64858 14.2563 6.68441 14.0657 6.71852 13.9032C6.83453 13.3344 6.91471 12.4688 6.85159 12.4688C6.80723 12.4688 6.77141 12.5469 6.77141 12.6501C6.77141 12.6938 6.75435 12.7376 6.73558 12.7485C6.71511 12.7594 6.69976 12.7954 6.69976 12.8282C6.69976 12.9047 6.61446 13.0594 6.42169 13.3313C6.33639 13.4532 6.26645 13.5672 6.26645 13.5844C6.26645 13.6032 6.25451 13.6219 6.23745 13.6282C6.18968 13.6469 5.92526 14.1157 5.81608 14.3813C5.75978 14.5172 5.70007 14.6422 5.68472 14.6594C5.66766 14.6766 5.65572 14.7454 5.65572 14.8094C5.65572 14.8751 5.63695 14.9454 5.61477 14.9657C5.56189 15.0141 5.56189 15.9251 5.61648 15.9751C5.66425 16.0204 5.66766 16.1954 5.61819 16.1954C5.59942 16.1954 5.58236 16.1532 5.58236 16.1032C5.58236 16.0516 5.5636 15.9922 5.53971 15.9719C5.50048 15.9344 5.46636 15.7782 5.41518 15.4032C5.40494 15.3219 5.38106 15.2407 5.364 15.2235C5.34523 15.2063 5.33159 15.161 5.33159 15.1219C5.33159 15.0532 5.1917 14.661 5.09787 14.4641C5.07058 14.4094 5.01428 14.2907 4.97163 14.2001C4.92898 14.1094 4.8778 14.0126 4.85904 13.986C4.84198 13.9579 4.81639 13.9141 4.80445 13.886C4.75668 13.7719 4.65944 13.5547 4.58267 13.3922C4.5605 13.3469 4.52638 13.2579 4.50591 13.1938C4.4769 13.1016 4.44449 13.0079 4.41378 12.9157C4.37967 12.8141 4.35919 12.6266 4.35919 12.4126C4.35919 12.2016 4.34384 12.0719 4.32166 12.0719C4.30119 12.0719 4.27731 12.0907 4.27048 12.1141ZM15.9477 12.2922C15.8727 12.311 15.8266 12.4297 15.8761 12.4751C15.9 12.4969 15.9187 12.4844 15.9358 12.4391C15.9511 12.3938 15.9904 12.3688 16.0467 12.3688C16.1456 12.3688 16.1644 12.3204 16.0774 12.2907C16.0467 12.2797 16.0177 12.2719 16.0143 12.2735C16.0108 12.2766 15.9818 12.2844 15.9477 12.2922ZM15.9443 12.6126C15.958 12.6719 15.9324 12.7094 15.842 12.7688C15.6714 12.8797 15.5605 12.9297 15.482 12.9297C15.4445 12.9297 15.4138 12.9438 15.4138 12.9594C15.4138 12.9751 15.3421 13.0594 15.2517 13.1469C15.1289 13.2672 15.0896 13.3282 15.0896 13.411C15.0896 13.4704 15.0743 13.5579 15.0538 13.6063C15.0214 13.6844 15.0282 13.6954 15.122 13.7251C15.1783 13.7438 15.2432 13.7954 15.2653 13.8407C15.3012 13.911 15.296 13.9391 15.2346 14.0172C15.1954 14.0688 15.163 14.1251 15.163 14.1422C15.163 14.1594 15.1203 14.2297 15.0709 14.2985C15.0197 14.3657 14.9873 14.4297 14.9975 14.4391C15.0248 14.4657 15.3984 14.111 15.3848 14.0719C15.3796 14.0532 15.3831 14.0047 15.395 13.9626C15.4138 13.8922 15.4342 13.886 15.6679 13.886C15.9716 13.886 16.0859 13.9407 16.091 14.0844C16.0927 14.1376 16.0791 14.1907 16.0603 14.2016C16.0415 14.211 16.0262 14.2485 16.0262 14.2844C16.0262 14.3188 16.0143 14.3485 15.9989 14.3485C15.9835 14.3485 15.9426 14.4219 15.9085 14.5126C15.842 14.6829 15.8334 14.6876 15.5246 14.7188C15.3933 14.7329 15.395 14.7985 15.5298 14.8532C15.8164 14.9704 15.9682 15.0079 16.1473 15.0079C16.3589 15.0079 16.4595 14.9454 16.4595 14.8141C16.4595 14.7422 16.5499 14.5844 16.6199 14.5376C16.6403 14.5251 16.7308 14.5157 16.8229 14.5188C17.0037 14.5235 17.0702 14.5001 17.0702 14.4329C17.0702 14.4079 17.0941 14.3485 17.1214 14.2985C17.1726 14.2079 17.1641 14.1172 17.1027 14.1172C17.0856 14.1172 17.0702 14.0766 17.0702 14.0266C17.0702 13.8922 16.9884 13.7001 16.8911 13.6063C16.8092 13.5266 16.8075 13.5172 16.8604 13.4329C16.9321 13.3172 16.9082 13.0657 16.8246 13.0376C16.7922 13.0251 16.6966 12.9501 16.613 12.8704C16.4783 12.7407 16.4476 12.7251 16.3469 12.7438C16.248 12.7626 16.2156 12.7485 16.1098 12.6501C15.9665 12.5141 15.9221 12.5047 15.9443 12.6126ZM20.8626 12.9797C20.8284 13.0454 20.7756 13.0954 20.7414 13.0954C20.7073 13.0954 20.6476 13.1204 20.6084 13.1532C20.5521 13.1969 20.5401 13.2376 20.5538 13.336L20.5726 13.461L20.7704 13.4516L20.9666 13.4407L20.9752 13.1532C20.9786 12.9938 20.9683 12.8641 20.953 12.8641C20.9359 12.8641 20.8967 12.9157 20.8626 12.9797ZM12.3243 13.3657C12.2663 13.4188 12.2714 13.5266 12.3362 13.6047C12.3652 13.6391 12.3891 13.7172 12.3891 13.7751C12.3891 13.8751 12.3806 13.8829 12.2543 13.8922C12.1332 13.9016 12.1179 13.9141 12.1076 14.0016C12.0906 14.1344 12.0036 14.2157 11.879 14.2157C11.7784 14.2157 11.7357 14.2876 11.8125 14.3313C11.8313 14.3422 11.8449 14.4157 11.8415 14.4938C11.8347 14.6126 11.8534 14.6563 11.9626 14.7735C12.0837 14.9016 12.1435 15.0297 12.1571 15.1891C12.1673 15.3157 12.2185 15.4704 12.2492 15.4704C12.268 15.4704 12.2816 15.5969 12.2816 15.7501C12.2816 15.9922 12.2936 16.0501 12.3703 16.1594C12.4181 16.2297 12.4676 16.3594 12.4812 16.4485C12.5017 16.5907 12.4949 16.6157 12.4113 16.6876C12.3601 16.7313 12.3175 16.7797 12.3175 16.7954C12.3175 16.8844 12.4778 16.7672 12.9589 16.3219L13.5014 15.8204L13.4161 15.7516C13.3308 15.6829 13.1977 15.5001 13.1585 15.3954C13.1465 15.3641 13.1227 15.3376 13.1056 15.3376C13.0885 15.3376 13.0732 15.3094 13.0732 15.2735C13.0732 15.2391 13.0578 15.2016 13.0391 15.1907C12.9845 15.1594 12.8224 14.7907 12.6911 14.3985C12.6501 14.2782 12.5563 14.2672 12.5392 14.3813C12.5324 14.4266 12.5119 14.4782 12.4949 14.4954C12.4761 14.5126 12.4608 14.561 12.4608 14.6016C12.4608 14.6985 12.4232 14.6985 12.3243 14.6016C12.2287 14.5094 12.2253 14.461 12.3089 14.4188C12.355 14.3938 12.372 14.3438 12.372 14.2219C12.372 14.0344 12.3942 13.9938 12.4608 14.0672C12.529 14.1438 12.6876 14.1297 12.7474 14.0438C12.8071 13.9594 12.8054 13.6094 12.7439 13.4329C12.7098 13.3313 12.6979 13.3251 12.5375 13.3251C12.4437 13.3251 12.3482 13.3438 12.3243 13.3657ZM14.4038 13.6594C14.3083 13.7579 14.2179 13.9907 14.2588 14.0297C14.2759 14.0454 14.3219 14.0422 14.3612 14.0219C14.4004 14.0032 14.5284 13.9735 14.6444 13.9563C14.815 13.9329 14.8627 13.936 14.8849 13.9719C14.9276 14.0391 14.9822 14.0282 14.9822 13.9532C14.9822 13.9094 14.9583 13.886 14.9139 13.886C14.8423 13.886 14.803 13.8251 14.803 13.7188C14.803 13.6688 14.7757 13.6563 14.6836 13.6563C14.6188 13.6563 14.5454 13.6391 14.5233 13.6172C14.4925 13.5891 14.4635 13.6001 14.4038 13.6594ZM8.03211 14.1594C8.03211 14.6438 8.26241 15.6688 8.49954 16.2454C8.61042 16.511 8.65648 16.6157 8.68378 16.6657C8.70084 16.6969 8.71619 16.7454 8.71619 16.7719C8.71619 16.8001 8.73155 16.8219 8.75202 16.8219C8.77249 16.8219 8.78784 16.8422 8.78784 16.8657C8.78784 16.9063 8.97038 17.2438 9.14097 17.5204C9.22798 17.6594 9.60499 18.1422 9.91036 18.5047C10.1833 18.8266 10.1918 18.8344 10.2208 18.8297C10.2345 18.8266 10.446 18.636 10.6883 18.4063L11.1301 17.9891L10.9527 17.8219C10.8555 17.7313 10.7053 17.6126 10.62 17.5594C10.5347 17.5079 10.4392 17.4204 10.4102 17.3657C10.3897 17.3282 10.3676 17.2907 10.3471 17.2547C10.342 17.2469 10.3147 17.2594 10.2874 17.2813C10.2157 17.3344 9.96324 17.1719 9.91036 17.036C9.87283 16.9438 9.60841 16.7563 9.51458 16.7563C9.4924 16.7563 9.44805 16.7188 9.41393 16.6735C9.36445 16.6032 9.33545 16.5938 9.23992 16.6094C9.14098 16.6266 9.11027 16.6141 9.03009 16.5282C8.9755 16.4672 8.90214 16.4266 8.85267 16.4266C8.76567 16.4266 8.70937 16.3516 8.59166 16.0844C8.48248 15.8344 8.55413 15.4844 8.73837 15.3594C8.82196 15.3032 8.8339 15.3032 8.89191 15.3516C8.98403 15.4266 9.07103 15.4157 9.11709 15.3251C9.16145 15.236 9.35934 15.1797 9.40369 15.2422C9.41734 15.2641 9.44634 15.2704 9.46852 15.2579C9.50775 15.2344 9.48899 15.0907 9.4361 15.0251C9.4054 14.986 9.36616 14.6907 9.33375 14.2407L9.30986 13.9204L8.67184 13.9079L8.03211 13.8969V14.1594ZM9.76877 13.9469C9.72612 14.0485 9.91207 15.1157 10.0127 15.3547L10.0537 15.4532L10.1219 15.3376C10.1611 15.2704 10.1901 15.1532 10.1918 15.0547C10.1935 14.8422 10.2959 14.6469 10.4511 14.5657C10.516 14.5313 10.6166 14.4516 10.6746 14.3907C10.7514 14.3063 10.8009 14.2813 10.8725 14.2891C10.9646 14.2985 10.9663 14.2954 10.9663 14.1079V13.9188L10.3778 13.911C9.91377 13.9047 9.78412 13.9126 9.76877 13.9469ZM20.3115 13.9157C20.3115 13.9313 20.3337 13.961 20.361 13.9829C20.3883 14.0032 20.4207 14.0626 20.4327 14.1157C20.4446 14.1688 20.518 14.2672 20.5981 14.3344C20.6783 14.4016 20.7449 14.4829 20.7449 14.5157C20.7449 14.5626 20.8438 14.6344 20.8711 14.6047C20.8745 14.6001 20.8967 14.4844 20.9189 14.3485C20.9393 14.2126 20.9683 14.0532 20.982 13.9938L21.0059 13.886H20.6596C20.4685 13.886 20.3115 13.9001 20.3115 13.9157ZM21.4528 13.9079C21.4392 13.9204 21.4289 13.9938 21.4289 14.0719C21.4289 14.1501 21.4102 14.2891 21.3897 14.3829C21.3505 14.5454 21.3539 14.5563 21.4477 14.6469C21.5671 14.7594 21.5484 14.8235 21.3761 14.8891C21.2908 14.9219 21.2481 14.961 21.2481 15.0047C21.2481 15.0407 21.2328 15.0797 21.2123 15.0907C21.1918 15.1016 21.1765 15.1391 21.1765 15.1751C21.1765 15.2407 21.1679 15.261 21.057 15.4641C21.0229 15.5251 20.9956 15.5938 20.9956 15.6172C20.9956 15.6422 20.9445 15.7485 20.8796 15.8547C20.8148 15.961 20.7295 16.1032 20.6903 16.1704C20.651 16.2391 20.6067 16.2938 20.5913 16.2938C20.576 16.2938 20.564 16.3126 20.564 16.336C20.564 16.3579 20.46 16.4907 20.332 16.6297L20.1017 16.8813L20.2638 17.0219L20.4275 17.161L20.5146 17.0657L20.5999 16.9704L20.7056 17.0813C20.8114 17.1938 20.924 17.4516 20.924 17.5782C20.924 17.6157 20.9393 17.6469 20.9564 17.6469C21.0383 17.6469 21.7889 16.7376 21.7889 16.6407C21.7889 16.6126 21.8025 16.5907 21.8213 16.5907C21.8384 16.5907 21.8605 16.5657 21.8725 16.5329C21.8827 16.5016 21.9237 16.4235 21.9629 16.361C22.0721 16.1829 22.2205 15.8688 22.2205 15.8172C22.2205 15.7922 22.2376 15.761 22.2563 15.7501C22.2768 15.7391 22.2922 15.6969 22.2922 15.6563C22.2922 15.6157 22.3109 15.5657 22.3331 15.5454C22.3706 15.511 22.4167 15.3594 22.4593 15.1235C22.4696 15.0688 22.4918 14.9954 22.5071 14.9579C22.5753 14.8047 22.6965 13.9376 22.6555 13.9001C22.6299 13.8766 21.4784 13.8844 21.4528 13.9079ZM23.1195 13.8938C23.1178 13.8985 23.1093 14.0485 23.0991 14.2266C23.0888 14.4047 23.0667 14.5876 23.0479 14.6329C23.0291 14.6782 23.0138 14.7797 23.0138 14.8594C23.0138 14.9391 22.9967 15.0126 22.9779 15.0235C22.9592 15.0344 22.9319 15.1172 22.9199 15.2079C22.9063 15.2985 22.8807 15.3797 22.8636 15.3907C22.8466 15.4001 22.8329 15.4501 22.8329 15.5032C22.8329 15.5547 22.8176 15.6063 22.7971 15.6188C22.7766 15.6297 22.7613 15.661 22.7613 15.6891C22.7613 15.7172 22.7357 15.7938 22.7033 15.861C22.6709 15.9282 22.6402 15.9954 22.6095 16.0641C22.4798 16.3594 22.403 16.5047 22.2222 16.8063C22.1557 16.9141 22.0874 17.0079 22.0721 17.0141C22.055 17.0204 22.0414 17.0407 22.0414 17.0594C22.0414 17.1172 21.5467 17.7172 21.3726 17.8688L21.2873 17.9438L21.7394 18.3563C21.9885 18.5829 22.2069 18.7688 22.2239 18.7688C22.2529 18.7688 22.6641 18.3063 22.8568 18.061C23.0342 17.8313 23.3771 17.3188 23.4641 17.1516C23.4966 17.0891 23.5494 16.9922 23.5801 16.9376C23.7269 16.6844 23.877 16.3672 23.877 16.3126C23.877 16.286 23.8923 16.2579 23.9094 16.2469C23.9265 16.2376 23.9486 16.1876 23.9589 16.1376C23.9759 16.0547 24.022 15.9266 24.097 15.7501C24.1124 15.7141 24.1329 15.6391 24.1431 15.586C24.1533 15.5313 24.1772 15.4188 24.196 15.3376C24.3239 14.7813 24.3785 14.4501 24.3888 14.1501L24.399 13.9032L23.761 13.8938C23.4096 13.8891 23.1195 13.8891 23.1195 13.8938ZM11.4321 13.9938C11.444 14.0344 11.4713 14.186 11.4918 14.3313C11.5122 14.4751 11.5344 14.5985 11.5395 14.6032C11.5447 14.6079 11.5788 14.5907 11.6163 14.5657C11.676 14.5251 11.6794 14.5094 11.6385 14.4391C11.601 14.3766 11.5993 14.3282 11.63 14.2297C11.6504 14.1594 11.6692 14.0594 11.6692 14.011C11.6692 13.9282 11.6573 13.9188 11.5395 13.9188C11.4218 13.9188 11.4116 13.9266 11.4321 13.9938ZM13.266 14.4563C13.254 14.4735 13.2643 14.5032 13.2864 14.5235C13.3069 14.5422 13.3257 14.5922 13.3257 14.6313C13.3257 14.6704 13.3496 14.7219 13.3803 14.7438C13.4093 14.7672 13.4331 14.8047 13.4331 14.8297C13.4331 14.8704 13.5065 14.9969 13.7215 15.3297C13.7709 15.4063 13.8289 15.4688 13.8477 15.4688C13.8682 15.4672 13.9552 15.3922 14.0405 15.3032C14.1906 15.1454 14.1974 15.1313 14.1735 14.986C14.1428 14.8016 14.1206 14.7438 14.078 14.7438C14.0285 14.7438 14.0405 14.836 14.0916 14.8516C14.1155 14.861 14.1241 14.8797 14.1087 14.8938C14.0934 14.9094 14.0609 14.9032 14.0388 14.8829C14.0149 14.861 13.9722 14.8438 13.9449 14.8438C13.8869 14.8438 13.7607 14.7141 13.759 14.6532C13.759 14.6313 13.7249 14.6126 13.6856 14.6126C13.6413 14.6126 13.5986 14.5813 13.5799 14.5329C13.556 14.4751 13.5133 14.4516 13.4161 14.4407C13.3444 14.4329 13.2762 14.4407 13.266 14.4563ZM14.5505 14.7454C14.5505 14.7829 14.5659 14.8047 14.5864 14.7938C14.6051 14.7829 14.6222 14.7516 14.6222 14.7251C14.6222 14.7001 14.6051 14.6782 14.5864 14.6782C14.5659 14.6782 14.5505 14.7094 14.5505 14.7454ZM25.6068 15.0063C25.6068 15.0594 25.5898 15.1126 25.5693 15.1235C25.5505 15.1344 25.5335 15.1766 25.5335 15.2157C25.5318 15.2563 25.5079 15.3172 25.4789 15.3532C25.4499 15.3876 25.426 15.4532 25.426 15.4985C25.426 15.5438 25.4106 15.6266 25.3936 15.6813C25.3441 15.8329 25.281 16.1719 25.2588 16.4032C25.2486 16.5157 25.2264 16.6969 25.2076 16.8063C25.1889 16.9141 25.1735 17.1297 25.1735 17.2829C25.1735 17.7954 24.9927 18.8391 24.8511 19.1469C24.8255 19.2016 24.7999 19.2579 24.7777 19.3126C24.7027 19.4907 24.6276 19.6251 24.5969 19.6422C24.5491 19.6704 24.5525 19.7251 24.6037 19.7251C24.6259 19.7251 24.6958 19.6891 24.7555 19.6469C24.8903 19.5532 25.7842 18.9985 25.8013 18.9985C25.8371 18.9985 26.5536 18.5407 26.7225 18.411C27.6591 17.6876 28.1896 16.8579 28.3415 15.8751C28.3841 15.611 28.3909 15.2391 28.3551 15.2391C28.3159 15.2391 28.2374 15.3516 28.2357 15.4094C28.2357 15.4391 28.2118 15.5063 28.1828 15.5579C28.1538 15.6094 28.1094 15.7001 28.0839 15.7579C28.0583 15.8172 28.0259 15.8657 28.0105 15.8657C27.9951 15.8657 27.9832 15.8782 27.9832 15.8954C27.9832 15.9813 27.6181 16.4001 27.1865 16.8063C26.5946 17.3641 26.3711 17.6047 26.0674 18.011C25.6802 18.5313 25.5932 18.636 25.5608 18.636C25.542 18.636 25.5335 18.6251 25.5403 18.611C25.5471 18.5985 25.6017 18.4907 25.6631 18.3719C25.8593 17.9969 25.8934 17.911 25.8934 17.8001C25.8934 17.7407 25.9122 17.6766 25.9344 17.6563C25.9599 17.6329 25.9668 17.4641 25.9531 17.1313C25.9361 16.661 25.9122 16.4735 25.8235 16.1126C25.7245 15.7157 25.7126 15.6313 25.7058 15.2797C25.6989 15.0094 25.6836 14.9094 25.6512 14.9094C25.6256 14.9094 25.6068 14.9501 25.6068 15.0063ZM20.5828 14.9751C20.5708 14.9938 20.4361 15.0079 20.2842 15.0079C20.0403 15.0079 19.9994 15.0172 19.9141 15.0922C19.8305 15.1657 19.8134 15.1704 19.7725 15.1251C19.7008 15.0454 19.6496 15.0641 19.5746 15.1969C19.537 15.2657 19.4825 15.3454 19.4552 15.3766C19.4159 15.4219 19.4142 15.436 19.4535 15.4579C19.5746 15.5282 19.6479 15.8626 19.5558 15.9157C19.5353 15.9266 19.52 15.9844 19.52 16.0438C19.52 16.1594 19.3426 16.5157 19.2624 16.5626C19.1959 16.6016 18.9894 16.5985 18.9621 16.5579C18.9502 16.5407 18.8956 16.5251 18.841 16.5251C18.7864 16.5251 18.7267 16.511 18.708 16.4938C18.6892 16.4766 18.5766 16.4485 18.4572 16.4313C18.3395 16.4141 18.1979 16.3891 18.1433 16.3766C18.0682 16.3594 18.0375 16.3672 18.0205 16.4079C17.9915 16.4782 18.0136 16.4954 18.1774 16.5282C18.4913 16.5907 18.5339 16.6047 18.6397 16.6782C18.7404 16.7469 18.7796 16.7532 19.0218 16.7407C19.3409 16.7235 19.4125 16.7016 19.4125 16.6266C19.4125 16.5626 19.6121 16.261 19.6548 16.261C19.6701 16.2626 19.711 16.3251 19.7469 16.4016C19.8032 16.5235 19.8168 16.5344 19.8544 16.4876C20.0881 16.1954 20.1546 16.111 20.1853 16.0657C20.2058 16.036 20.2552 15.9688 20.2962 15.9141C20.4037 15.7735 20.6357 15.3422 20.6357 15.2829C20.6357 15.2547 20.663 15.1907 20.6971 15.1391C20.7466 15.061 20.7483 15.036 20.7107 14.9938C20.6561 14.9344 20.6135 14.9282 20.5828 14.9751ZM6.71341 15.0891C6.70146 15.1172 6.70658 15.1594 6.72364 15.1813C6.74241 15.2047 6.75264 15.2516 6.74582 15.2891C6.739 15.3251 6.72364 15.4735 6.71341 15.6188C6.70146 15.7641 6.67758 15.8969 6.66052 15.9141C6.64176 15.9313 6.62811 15.9938 6.62811 16.0532C6.62811 16.111 6.60423 16.2235 6.57693 16.3016C6.49504 16.5344 6.47116 16.7469 6.47116 17.2516C6.47287 17.8813 6.53599 18.1407 6.78335 18.5469C6.8823 18.7094 6.90106 18.7688 6.85159 18.7688C6.83624 18.7688 6.68611 18.5797 6.51722 18.3485C6.16068 17.8547 5.91843 17.5907 5.26505 16.9876C4.64409 16.4141 4.28584 15.9547 4.18007 15.6016C4.16642 15.5563 4.14083 15.5266 4.12207 15.536C4.07771 15.5579 4.09818 16.3657 4.14254 16.4079C4.16301 16.4251 4.17836 16.4813 4.17836 16.5329C4.17836 16.6251 4.18519 16.6422 4.29778 16.8501C4.3319 16.9094 4.35919 16.9844 4.3609 17.0141C4.36261 17.0454 4.39502 17.1141 4.43255 17.1688C4.47008 17.2235 4.51273 17.2891 4.52638 17.3172C4.55538 17.3735 4.72768 17.6219 4.75497 17.6469C4.76521 17.6563 4.82151 17.7219 4.87951 17.7954C5.11322 18.0844 5.72225 18.5797 6.21527 18.8844C6.33298 18.9563 6.43704 19.0235 6.44728 19.0329C6.45751 19.0407 6.49846 19.0672 6.53769 19.0891C6.62129 19.136 7.66192 19.7454 7.75062 19.8001C7.8308 19.8485 7.88028 19.8032 7.82398 19.7313C7.72162 19.5969 7.49132 19.1047 7.49132 19.0219C7.49132 18.9797 7.47767 18.9329 7.45891 18.9157C7.44014 18.8985 7.41796 18.8016 7.40602 18.7016C7.39579 18.6032 7.3702 18.4094 7.34802 18.2735C7.32755 18.1376 7.29343 17.9251 7.27466 17.8032C7.2559 17.6797 7.23884 17.4469 7.23884 17.286C7.23884 17.1219 7.22349 16.9813 7.20301 16.9704C7.18254 16.9594 7.17401 16.9391 7.18254 16.9266C7.18937 16.9141 7.17231 16.7407 7.14331 16.5422C7.05119 15.9141 6.98124 15.5797 6.92153 15.4797C6.89936 15.4407 6.87888 15.3704 6.87888 15.3235C6.87888 15.2766 6.86353 15.2391 6.84306 15.2391C6.82429 15.2391 6.80723 15.2032 6.80723 15.1579C6.80723 15.0626 6.74411 15.0157 6.71341 15.0891ZM14.5608 15.4329C14.3578 15.6266 14.2042 15.7985 14.2179 15.8172C14.2588 15.8704 14.6973 16.1438 14.803 16.1829C14.8917 16.2141 15.0299 16.2657 15.1442 16.311C15.3472 16.3891 15.5417 16.4329 15.6492 16.4204C15.7464 16.411 15.7549 16.3985 15.7601 16.2704C15.7652 16.1063 15.8232 16.0313 15.9409 16.0313C16.0364 16.0313 16.0484 15.9797 15.9835 15.8485C15.9511 15.7813 15.9511 15.7469 15.9835 15.6985C16.091 15.5407 15.9818 15.4032 15.7464 15.4032C15.6577 15.4032 15.5315 15.3704 15.4291 15.3219C15.3353 15.2766 15.2398 15.2391 15.2176 15.2391C15.1937 15.2391 15.1374 15.2016 15.0896 15.1563C15.0436 15.111 14.989 15.0766 14.9668 15.0782C14.9463 15.0813 14.7621 15.2407 14.5608 15.4329ZM19.0884 15.586C19.0884 15.6157 19.0543 15.6344 18.9997 15.6344C18.9519 15.6344 18.8871 15.6594 18.8547 15.6876C18.7813 15.7547 18.8069 15.7829 18.899 15.7376C18.9383 15.7188 18.9809 15.7126 18.9928 15.7235C19.0236 15.7516 19.16 15.6344 19.16 15.5797C19.16 15.5563 19.143 15.536 19.1242 15.536C19.1037 15.536 19.0884 15.5579 19.0884 15.586ZM17.5598 15.6516C17.4677 15.7297 17.4609 15.8251 17.5513 15.7782C17.6759 15.7126 17.7919 15.6266 17.7919 15.6001C17.7919 15.5391 17.6571 15.5704 17.5598 15.6516ZM17.7629 16.0954C17.6059 16.1985 17.5394 16.2188 17.5394 16.1626C17.5394 16.1438 17.5155 16.1297 17.4848 16.1297C17.4541 16.1297 17.4319 16.1594 17.4319 16.1969C17.4319 16.2891 17.3398 16.3126 17.2306 16.2454C17.1453 16.1954 17.1317 16.1954 17.0736 16.2438C17.0156 16.2907 17.0037 16.2907 16.9645 16.2454C16.9389 16.2188 16.8792 16.1954 16.8331 16.1954C16.7853 16.1954 16.7461 16.1782 16.7461 16.1579C16.7461 16.1329 16.6966 16.1266 16.5977 16.1391C16.4783 16.1532 16.4203 16.186 16.3213 16.2938C16.2514 16.3688 16.1234 16.4594 16.0364 16.4954C15.9051 16.5501 15.8846 16.5704 15.9204 16.6094C15.975 16.6704 16.1132 16.6704 16.2173 16.6126C16.3316 16.5469 16.6966 16.561 16.7546 16.6313C16.8126 16.7016 16.9713 16.7563 17.118 16.7563C17.2016 16.7563 17.2442 16.736 17.2698 16.6844C17.2903 16.6422 17.3807 16.5876 17.495 16.5485C17.8209 16.436 18.0819 16.1516 17.9607 16.0407C17.9198 16.0032 17.8891 16.011 17.7629 16.0954ZM13.4007 16.5157L12.9896 16.8985L13.0937 16.9782C13.4673 17.261 13.7078 17.4157 13.9023 17.5016C14.2059 17.6329 14.4294 17.7266 14.496 17.7469C14.5352 17.7594 14.629 17.7938 14.7041 17.8235C14.7791 17.8532 14.8798 17.8782 14.9276 17.8782C14.9753 17.8782 15.0248 17.8922 15.0367 17.911C15.0487 17.9282 15.1101 17.9438 15.1715 17.9438H15.2841L15.1749 17.836C14.9412 17.6063 14.844 17.4141 14.9259 17.3391C14.9514 17.3172 14.9941 17.2391 15.0214 17.1672C15.0487 17.0954 15.1118 17.0047 15.1613 16.9657C15.2636 16.886 15.2415 16.8422 15.0965 16.8344C14.8815 16.8235 14.2213 16.486 13.9381 16.2407L13.8119 16.1329L13.4007 16.5157ZM19.6548 17.2657C19.5541 17.3938 19.5729 17.5094 19.7059 17.5735C19.8765 17.6594 20.0608 17.8126 20.0608 17.8704C20.0608 17.9001 19.9942 17.9954 19.9124 18.0829C19.7588 18.2501 19.7486 18.3172 19.8544 18.4516C19.9038 18.5126 19.9175 18.5063 20.1546 18.3329C20.4702 18.1001 20.5811 17.9907 20.5316 17.961C20.5094 17.9501 20.4753 17.9485 20.4548 17.961C20.4344 17.9719 20.3849 17.911 20.344 17.8219C20.2791 17.686 19.7998 17.1829 19.7366 17.186C19.7264 17.186 19.6889 17.2235 19.6548 17.2672M24.7419 17.2297C24.7419 17.2547 24.7146 17.2969 24.6822 17.3204C24.5918 17.3891 23.877 18.3813 23.877 18.4376C23.877 18.4532 23.8548 18.5079 23.8275 18.5594C23.7985 18.611 23.761 18.6907 23.7422 18.736C23.7183 18.7907 23.6944 18.8454 23.6689 18.9001C23.6484 18.9454 23.604 19.0641 23.5699 19.1641C23.5358 19.2641 23.4966 19.3751 23.4812 19.411C23.3925 19.6391 23.3652 19.7157 23.3498 19.7735C23.3396 19.811 23.3174 19.8704 23.3021 19.9063C23.2867 19.9422 23.2458 20.0391 23.2117 20.1204C23.1758 20.2016 23.1195 20.3282 23.0837 20.4016C23.0479 20.4735 23.0104 20.5547 22.9984 20.5829C22.9029 20.7985 22.4781 21.3485 22.3433 21.4282C22.2956 21.4563 22.2563 21.4938 22.2563 21.5094C22.2563 21.5501 22.3911 21.5469 22.4184 21.5063C22.4303 21.4876 22.49 21.4735 22.5498 21.4735C22.6095 21.4735 22.6862 21.4594 22.7221 21.4422C22.7818 21.4126 22.9848 21.3735 23.4266 21.3063C23.5256 21.2922 23.7286 21.2563 23.877 21.2266C24.0254 21.1969 24.2079 21.1641 24.283 21.1547C24.3564 21.1438 24.4263 21.1235 24.4382 21.1063C24.4485 21.0907 24.4911 21.0766 24.5321 21.0766C24.5713 21.0766 24.6481 21.0563 24.701 21.0313C24.7521 21.0063 24.8937 20.9438 25.0114 20.8922C25.7006 20.5954 26.4496 20.0219 26.8863 19.4579C27.0535 19.2422 27.3162 18.8016 27.4066 18.5876C27.5107 18.3422 27.5533 18.2047 27.5328 18.1751C27.497 18.1219 27.4424 18.136 27.4424 18.1969C27.4424 18.2672 27.0978 18.6797 26.8965 18.8516C26.6287 19.0782 26.3847 19.2422 26.1544 19.3516C26.0913 19.3829 26.0384 19.4188 26.0384 19.4344C26.0384 19.4485 26.0094 19.461 25.9736 19.461C25.9378 19.461 25.8917 19.4751 25.8729 19.4938C25.8525 19.5126 25.5539 19.6579 25.2076 19.8172C24.5287 20.1313 23.9776 20.4454 23.6569 20.7016C23.3447 20.9501 23.2953 20.9844 23.2748 20.9657C23.2645 20.9563 23.3464 20.8626 23.4556 20.7563C23.5648 20.6516 23.6927 20.5219 23.7388 20.4672C23.7832 20.4126 23.8326 20.361 23.8446 20.3516C23.9316 20.2922 24.3103 19.5969 24.3103 19.4954C24.3103 19.4563 24.3291 19.3907 24.3529 19.3516C24.3956 19.2797 24.4297 19.1157 24.486 18.7016C24.5542 18.2047 24.6071 17.9251 24.6378 17.8954C24.6549 17.8782 24.6703 17.8204 24.6703 17.7657C24.6703 17.6563 24.7231 17.4797 24.7999 17.3391C24.8494 17.2454 24.8408 17.1844 24.776 17.1844C24.7573 17.1844 24.7419 17.2047 24.7419 17.2297ZM7.56297 17.3641C7.56297 17.3907 7.57832 17.4204 7.59538 17.4297C7.63974 17.4547 7.7438 17.7563 7.7438 17.861C7.7438 17.9094 7.76086 17.9766 7.78133 18.011C7.81545 18.0688 7.83763 18.1954 7.92293 18.7688C7.9724 19.1001 8.0304 19.3641 8.06964 19.4297C8.0884 19.4626 8.10376 19.5266 8.10376 19.5719C8.10376 19.6172 8.12082 19.6641 8.13958 19.6751C8.16005 19.686 8.17541 19.7297 8.17541 19.7719C8.17541 19.8141 8.201 19.8672 8.23 19.8891C8.259 19.9126 8.28459 19.9516 8.28459 19.9766C8.28459 20.0188 8.35112 20.1501 8.39206 20.186C8.4023 20.1954 8.45518 20.2657 8.50807 20.3407C8.56266 20.4172 8.72813 20.5954 8.87655 20.7376C9.02668 20.8782 9.1478 21.0047 9.1478 21.0188C9.1478 21.0313 9.10856 21.0266 9.05738 21.0047C9.00791 20.9844 8.96867 20.9547 8.96867 20.9391C8.96867 20.9251 8.94991 20.9126 8.92773 20.9126C8.90555 20.9126 8.79637 20.8407 8.68549 20.7547C8.43642 20.561 8.22488 20.4172 8.19076 20.4172C8.17711 20.4172 8.11399 20.3829 8.05258 20.3407C7.99116 20.3001 7.8854 20.2391 7.81545 20.2079C7.74721 20.1766 7.64144 20.1219 7.58174 20.0891C7.52203 20.0547 7.44526 20.0251 7.41114 20.0235C7.37532 20.0235 7.34802 20.0063 7.34802 19.9891C7.34802 19.9704 7.32755 19.9563 7.30196 19.9563C7.22178 19.9563 6.12656 19.4344 6.01226 19.3422C5.98155 19.3172 5.9372 19.2954 5.91502 19.2954C5.83655 19.2954 5.09275 18.5891 5.02281 18.4469C4.98357 18.3704 4.94092 18.3063 4.92728 18.3063C4.86757 18.3063 4.86586 18.3766 4.92045 18.4938C4.95457 18.5626 4.9921 18.6501 5.00575 18.686C5.0194 18.7219 5.07569 18.8329 5.12858 18.9329C5.18146 19.0329 5.22411 19.1266 5.22411 19.1422C5.22241 19.1563 5.26335 19.2172 5.31282 19.2766C5.36229 19.336 5.40324 19.4001 5.40324 19.4204C5.40324 19.4391 5.41688 19.461 5.43224 19.4657C5.44759 19.4719 5.52777 19.5594 5.60795 19.6594C5.99691 20.1438 6.76117 20.7219 7.36679 20.9907C7.4845 21.0438 7.60903 21.0985 7.64486 21.1141C7.67898 21.1297 7.7438 21.1438 7.78986 21.1438C7.83592 21.1438 7.88881 21.1579 7.90928 21.1751C7.96216 21.2235 8.34088 21.2954 8.94991 21.3719C9.10856 21.3922 9.27063 21.4219 9.30986 21.4391C9.3491 21.4563 9.45487 21.4766 9.54358 21.4844C9.779 21.5063 10.0571 21.5672 10.0997 21.6047C10.1185 21.6235 10.1475 21.6376 10.1645 21.6376C10.226 21.6376 10.185 21.5751 10.0195 21.4204C9.72441 21.1422 9.4634 20.7626 9.28598 20.3516C9.26551 20.3063 9.22627 20.2266 9.19898 20.1751C9.17168 20.1251 9.1478 20.0547 9.1478 20.0204C9.1478 19.9876 9.13415 19.9516 9.11709 19.9422C9.09833 19.9313 9.07615 19.8829 9.06591 19.8329C9.05056 19.7501 9.00791 19.6297 8.92944 19.4438C8.91408 19.4079 8.87485 19.3047 8.84073 19.2141C8.75202 18.9735 8.74008 18.9438 8.5746 18.636C8.39036 18.2922 8.39547 18.3001 8.0867 17.9001C7.94681 17.7204 7.79327 17.5157 7.7438 17.4454C7.65339 17.3157 7.56297 17.2751 7.56297 17.3641ZM13.0988 17.6344C13.0868 17.6454 13.1005 17.686 13.1295 17.7251C13.1585 17.7626 13.1824 17.8047 13.1824 17.8188C13.1824 17.8766 12.9538 17.9438 12.7542 17.9438C12.6348 17.9438 12.529 17.9563 12.5188 17.9719C12.4966 18.0047 12.1707 18.1079 12.094 18.1079C12.0667 18.1079 11.9865 18.0719 11.9131 18.0266C11.7391 17.9172 11.7067 17.9735 11.8739 18.0954C12.2595 18.3782 12.4471 18.5032 12.4846 18.5047C12.5085 18.5047 12.5324 18.5157 12.5392 18.5297C12.5614 18.5797 13.0203 18.8235 13.4161 18.9969C13.6345 19.0922 13.8392 19.1844 13.875 19.2001C13.9091 19.2172 13.962 19.2297 13.9927 19.2297C14.0217 19.2297 14.0746 19.2422 14.1087 19.2579C14.2725 19.3329 14.5659 19.4094 14.8917 19.461C14.9907 19.4766 15.1613 19.5047 15.2705 19.5219C15.3796 19.5391 15.569 19.561 15.6935 19.5704L15.9187 19.586V18.5141L15.6389 18.4922C15.1442 18.4532 14.6751 18.3672 14.6051 18.3047C14.5864 18.2876 14.5335 18.2735 14.4891 18.2735C14.4431 18.2735 14.3765 18.261 14.3424 18.2454C14.3083 18.2297 14.1821 18.1751 14.0644 18.1251C13.9449 18.0766 13.8238 18.0219 13.7931 18.0063C13.759 17.9876 13.7232 17.9688 13.6856 17.9532C13.631 17.9313 13.3342 17.7547 13.1977 17.6626C13.1551 17.636 13.1124 17.6235 13.0988 17.6344ZM20.7551 18.4313C20.3405 18.7766 20.1887 18.8782 19.8885 19.0188C19.7639 19.0766 19.52 19.3141 19.52 19.3766C19.52 19.4235 18.9809 19.9563 18.9348 19.9563C18.9144 19.9563 18.8222 20.0079 18.7284 20.0704C18.4794 20.2391 18.3616 20.2297 18.0273 20.0172L17.7611 19.8469L17.5684 19.8876C17.3807 19.9266 16.9269 19.9813 16.6028 20.0047C16.5141 20.011 16.4322 20.0172 16.422 20.0188C16.4134 20.0204 16.4049 20.2813 16.4049 20.5985V21.1751L16.7649 21.1579C17.1555 21.1376 17.5394 21.0844 18.0614 20.9782C18.1399 20.9626 18.2763 20.9344 18.3616 20.9172C18.4469 20.9016 18.5356 20.8704 18.5578 20.8501C18.58 20.8297 18.6431 20.8126 18.696 20.8126C18.7506 20.8126 18.8052 20.7985 18.8171 20.7797C18.8291 20.7626 18.8683 20.7469 18.9041 20.7469C18.9638 20.7469 19.1174 20.6922 19.276 20.6126C19.3102 20.5969 19.3596 20.5829 19.3869 20.5829C19.4637 20.5829 20.3457 20.1594 20.4583 20.0672C20.4907 20.0422 20.5299 20.0219 20.5453 20.0219C20.5623 20.0219 20.6289 19.9844 20.6937 19.9391C20.7585 19.8938 20.8267 19.8563 20.8438 19.8563C20.8609 19.8563 20.9137 19.8204 20.9598 19.7735C21.0076 19.7282 21.0588 19.6922 21.0758 19.6922C21.1219 19.6922 21.8281 19.161 21.8486 19.1126C21.8588 19.0891 21.7411 18.961 21.5859 18.8282C21.4324 18.6954 21.2311 18.5157 21.1406 18.4297C21.0502 18.3438 20.9683 18.2735 20.9581 18.2735C20.9496 18.2751 20.8574 18.3454 20.7551 18.4313ZM11.0039 18.7032C10.7548 18.9282 10.5535 19.1282 10.5535 19.1501C10.5535 19.1719 10.5962 19.2157 10.6507 19.2485C10.7036 19.2797 10.8623 19.3907 11.0005 19.4922C11.1404 19.5954 11.4014 19.7672 11.5805 19.8751C12.0036 20.1297 12.0206 20.1407 12.1912 20.2188C12.2697 20.2563 12.3601 20.3001 12.3891 20.3157C12.4625 20.3547 12.9981 20.5829 13.109 20.6235C13.1585 20.6407 13.2455 20.6751 13.3018 20.7016C13.3581 20.7266 13.4263 20.7469 13.4553 20.7469C13.4843 20.7469 13.5355 20.761 13.5696 20.7766C13.6037 20.7938 13.7283 20.8329 13.8477 20.8641C13.9671 20.8954 14.1019 20.9344 14.1462 20.9501C14.1923 20.9657 14.2708 20.9782 14.3202 20.9782C14.3697 20.9782 14.438 20.9922 14.4721 21.0079C14.5045 21.0235 14.6188 21.0454 14.7228 21.0563C14.8286 21.0672 14.9327 21.086 14.9549 21.0985C14.977 21.111 15.1749 21.1329 15.395 21.1469C15.6134 21.1594 15.8198 21.1766 15.8539 21.1813C15.8863 21.1876 15.9153 21.1813 15.917 21.1672C15.917 21.1547 15.9187 20.8922 15.9187 20.5876V20.0313L15.6935 20.0079C15.006 19.9376 14.5454 19.8641 14.4925 19.8157C14.4789 19.8016 14.4055 19.7907 14.3305 19.7907C14.2554 19.7907 14.1838 19.7766 14.1718 19.7579C14.1599 19.7391 14.1138 19.7251 14.0695 19.7251C14.0234 19.7251 13.9569 19.7032 13.9176 19.6766C13.8801 19.6501 13.8187 19.6282 13.7846 19.6266C13.7488 19.6266 13.6925 19.6126 13.6583 19.5969C13.6242 19.5829 13.5389 19.5469 13.469 19.5188C13.1704 19.4001 12.7525 19.2063 12.5699 19.1016C12.3482 18.9751 11.8824 18.6657 11.7818 18.5782C11.746 18.5469 11.6573 18.4704 11.5856 18.4079L11.4542 18.2954L11.0039 18.7032ZM16.4032 19.1251C16.41 19.386 16.4271 19.6063 16.4373 19.6172C16.4476 19.6266 16.5022 19.6188 16.5567 19.5985C16.6642 19.5594 16.9099 19.5329 17.1879 19.5297C17.3159 19.5282 17.3585 19.5141 17.3585 19.4766C17.3585 19.4485 17.3312 19.4172 17.2954 19.4079C17.1385 19.361 17.0549 19.3047 16.9764 19.1891C16.8775 19.0469 16.8689 18.9297 16.9457 18.8219C17.0242 18.7126 16.9628 18.6797 16.6489 18.6641L16.3879 18.6501L16.4032 19.1251ZM23.0342 19.5438C22.9814 19.5891 22.9285 19.6251 22.9165 19.6251C22.8636 19.6251 22.0994 20.2626 21.4648 20.8329C21.0093 21.2438 20.6698 21.5188 20.5009 21.6172C20.3576 21.7016 20.2245 21.7704 20.2075 21.7704C20.1887 21.7704 20.1273 21.7907 20.0727 21.8157C19.8851 21.9016 19.5763 22.0016 19.4125 22.0297C19.3357 22.0422 19.2863 22.0704 19.2863 22.1001C19.2863 22.136 19.3613 22.161 19.5558 22.1922C19.9925 22.261 20.1375 22.2876 20.3661 22.3454C20.6033 22.4063 20.8199 22.4516 21.069 22.4922C21.1577 22.5079 21.3027 22.536 21.3931 22.5547C21.9049 22.6672 22.5634 22.6907 23.0138 22.611C23.3788 22.5469 23.6603 22.4688 23.8531 22.3782C23.9094 22.3516 23.9691 22.3313 23.9879 22.3313C24.0049 22.3313 24.109 22.2782 24.2165 22.2157C24.3256 22.1516 24.4314 22.1001 24.4519 22.1001C24.4724 22.1001 24.4894 22.0876 24.4894 22.0735C24.4894 22.0594 24.5423 22.0219 24.6071 21.9907C24.7828 21.9047 25.5335 21.2297 25.5335 21.1579C25.5335 21.1469 25.5761 21.0891 25.6256 21.0282C25.7365 20.8954 25.6938 20.8501 25.5693 20.9688C25.4243 21.1079 25.136 21.2876 24.904 21.386C24.7845 21.436 24.66 21.4907 24.6259 21.5079C24.5901 21.5251 24.5235 21.5391 24.4741 21.5391C24.4263 21.5391 24.3751 21.5532 24.3632 21.5719C24.3512 21.5907 24.2949 21.6047 24.2369 21.6047C24.1806 21.6047 24.0885 21.6204 24.0322 21.6407C23.9043 21.686 23.4812 21.7329 22.9046 21.7672C22.6572 21.7829 22.3979 21.8032 22.3297 21.8126C22.2597 21.8219 22.0653 21.8469 21.8964 21.8672C21.5142 21.9141 21.2856 21.9485 21.0298 22.0032C20.8267 22.0454 20.6851 22.0297 20.7261 21.9672C20.738 21.9501 20.7841 21.9344 20.8284 21.9344C21.0093 21.9344 21.5108 21.7313 21.7855 21.5454C21.9663 21.4235 22.0038 21.386 22.2069 21.1266C22.3775 20.9063 22.4457 20.7891 22.7988 20.1047C22.8824 19.9407 23.0052 19.7376 23.0718 19.6516C23.2048 19.4797 23.1827 19.4172 23.0342 19.5438ZM9.25698 19.5782C9.25698 19.5876 9.31328 19.6719 9.38151 19.7672C9.45146 19.861 9.50776 19.9563 9.50776 19.9797C9.50776 20.0032 9.52481 20.0219 9.54358 20.0219C9.56405 20.0219 9.58111 20.0438 9.58111 20.0719C9.58111 20.1001 9.62035 20.1813 9.66982 20.2532C9.71929 20.3251 9.76024 20.3985 9.76024 20.4172C9.76024 20.436 9.79777 20.5079 9.84212 20.5751C9.88648 20.6422 9.94789 20.7422 9.97689 20.7969C10.2038 21.2188 10.6183 21.6297 10.9817 21.7907L11.2461 21.9079C11.2802 21.9219 11.3348 21.9344 11.3672 21.9344C11.4577 21.9344 11.7767 22.0454 11.7767 22.0782C11.7767 22.1157 11.5361 22.0891 11.2188 22.0172C10.9544 21.9579 10.6507 21.9282 9.72441 21.8688C9.41734 21.8485 9.11709 21.8251 9.05738 21.8157C8.99938 21.8063 8.82879 21.7844 8.68037 21.7688C8.24364 21.7219 8.12764 21.7016 8.00822 21.6516C7.94681 21.6266 7.87687 21.6047 7.85469 21.6047C7.83251 21.6047 7.78645 21.5922 7.75233 21.5751C7.71821 21.5594 7.56638 21.4922 7.41796 21.4266C7.26784 21.3594 7.05801 21.2329 6.95053 21.1422C6.84476 21.0532 6.74923 20.9876 6.7407 20.9954C6.70658 21.0266 7.02389 21.4047 7.3122 21.6735C7.67727 22.0126 8.12423 22.2891 8.58995 22.4626C8.64966 22.4844 8.72643 22.5157 8.76055 22.5313C8.98232 22.636 9.79947 22.7376 10.1918 22.711C10.7275 22.6766 11.4099 22.5891 11.485 22.5469C11.5174 22.5282 11.63 22.5047 12.0121 22.4313C12.0906 22.4157 12.2032 22.3891 12.2629 22.3704C12.5085 22.2938 12.6331 22.2641 12.7235 22.2641C12.7747 22.2641 12.8275 22.2501 12.8395 22.2313C12.8514 22.2141 12.9487 22.1985 13.0544 22.1985C13.1602 22.1985 13.2728 22.1891 13.3052 22.1782C13.3888 22.1485 13.3359 22.1001 13.2199 22.1001C13.1278 22.1001 12.6586 21.9751 12.4795 21.9047C11.8244 21.6438 11.7289 21.5766 10.661 20.636C10.3744 20.3829 9.97689 20.0579 9.779 19.9157C9.58111 19.7719 9.39004 19.6329 9.35422 19.6079C9.28769 19.5579 9.25698 19.5485 9.25698 19.5782ZM14.5318 22.136C14.3936 22.1532 14.2077 22.1844 14.1172 22.2032C13.8238 22.2688 13.6686 22.3016 13.5594 22.3204C13.4997 22.3297 13.4349 22.3516 13.4144 22.3657C13.3939 22.3797 13.2967 22.4157 13.1994 22.4454C13.1005 22.4751 12.9794 22.5141 12.9299 22.5329C12.7576 22.6001 12.5853 22.6688 12.4147 22.7391C12.3004 22.786 12.1827 22.8251 12.1537 22.8251C12.1247 22.8251 12.1008 22.8407 12.1008 22.8579C12.1008 22.8766 12.0803 22.8907 12.0547 22.8907C12.0274 22.8907 11.9234 22.9282 11.8193 22.9735C11.717 23.0188 11.6163 23.0563 11.5975 23.0563C11.5771 23.0563 11.5327 23.0688 11.4969 23.086C11.1932 23.2282 10.0025 23.2876 9.70906 23.1751C9.634 23.1454 9.53334 23.1219 9.48728 23.1219C9.44293 23.1219 9.39516 23.1079 9.38151 23.0891C9.36957 23.0704 9.32692 23.0563 9.28598 23.0563C9.24504 23.0563 9.10856 23.0047 8.98232 22.9422C8.85608 22.8797 8.75202 22.8391 8.75202 22.8516C8.75372 22.8813 9.00962 23.1032 9.21092 23.2501C9.38151 23.3751 9.52311 23.4532 9.76024 23.5532C9.84895 23.5907 9.94618 23.636 9.97689 23.6532C10.0059 23.6704 10.0554 23.6922 10.0844 23.7032C10.1151 23.7126 10.1714 23.7344 10.2106 23.7485C10.4733 23.8438 11.1625 23.9563 11.3672 23.9376C11.6828 23.9094 12.082 23.8454 12.1452 23.8126C12.181 23.7954 12.2492 23.7813 12.2987 23.7813C12.3499 23.7813 12.4181 23.7672 12.4522 23.7501C12.4881 23.7329 12.5802 23.6954 12.6586 23.6657C12.9538 23.5547 13.6583 23.1782 13.8494 23.0297C13.8699 23.0141 13.9347 22.9735 13.9927 22.9391C14.0524 22.9032 14.1326 22.8485 14.1718 22.8157C14.2111 22.7829 14.2844 22.7376 14.3339 22.7141C14.4567 22.6579 14.5932 22.586 14.658 22.5422C14.7467 22.4844 15.1988 22.3844 15.325 22.3954C15.5178 22.411 15.6662 22.4422 15.6662 22.4672C15.6662 22.4844 15.6116 22.5204 15.5434 22.5454C15.4752 22.5719 15.4086 22.6079 15.3967 22.6266C15.3848 22.6454 15.3421 22.661 15.3046 22.661C15.2653 22.661 15.2346 22.6751 15.2346 22.6938C15.2346 22.711 15.2159 22.7266 15.1937 22.7266C15.1425 22.7266 14.4618 23.1204 14.1718 23.3172C13.747 23.6079 13.0374 24.1876 13.0374 24.2454C13.0374 24.2751 13.4912 24.6063 13.5287 24.6047C13.5457 24.6032 13.6839 24.4641 13.8358 24.2954C14.0865 24.0172 14.6307 23.5532 15.0009 23.3032C15.0794 23.2485 15.1749 23.1782 15.2142 23.1469C15.2517 23.1157 15.296 23.0891 15.3114 23.0891C15.325 23.0891 15.3592 23.0704 15.3848 23.0485C15.4564 22.986 15.8112 22.7829 15.9545 22.7235C16.0296 22.6907 16.103 22.6594 16.178 22.6266C16.2667 22.5891 16.294 22.5954 16.4953 22.7047C16.6165 22.7719 16.7239 22.8251 16.7342 22.8251C16.7529 22.8251 17.3483 23.2172 17.6383 23.4204C17.7424 23.4938 18.0836 23.7829 18.3958 24.0626C18.7062 24.3438 18.9775 24.5719 18.998 24.5735C19.0491 24.5735 19.4483 24.2422 19.4483 24.2001C19.4483 24.1797 19.3716 24.0985 19.276 24.0188C18.9553 23.7469 17.9812 23.0563 17.9181 23.0563C17.9044 23.0563 17.8413 23.0235 17.7782 22.9813C17.6281 22.8829 17.4711 22.7985 17.35 22.7516C17.2954 22.7297 17.2511 22.7001 17.2511 22.686C17.2511 22.6719 17.2289 22.661 17.2016 22.661C17.1317 22.661 16.8195 22.4969 16.8195 22.4594C16.8195 22.4188 17.594 22.4219 17.6844 22.4626C17.7287 22.4829 17.7731 22.5032 17.8174 22.5219C17.9863 22.5954 18.1655 22.7001 18.5544 22.9485C18.7864 23.0985 18.9911 23.2204 19.0099 23.2204C19.027 23.2204 19.0594 23.2391 19.0816 23.2626C19.1174 23.3016 19.5985 23.5329 19.7622 23.5891C19.8083 23.6047 19.8799 23.6313 19.9243 23.6485C20.3371 23.8079 21.2976 23.8969 21.7172 23.8157C21.9561 23.7688 22.2904 23.6813 22.3655 23.6469C22.3945 23.6344 22.4764 23.5985 22.5446 23.5704C22.7306 23.4922 22.937 23.3829 23.1315 23.2594C23.343 23.1251 23.7149 22.7969 23.6842 22.7704C23.6723 22.7594 23.6433 22.7657 23.6177 22.7844C23.5136 22.861 23.2287 22.9907 23.1622 22.9907C23.1212 22.9907 23.0803 23.0032 23.0701 23.0204C23.0496 23.0485 23.0001 23.0594 22.5446 23.1266C22.1608 23.1844 21.3129 23.1579 21.2328 23.086C21.214 23.0704 21.1543 23.0563 21.0997 23.0563C21.0468 23.0563 20.9564 23.036 20.9001 23.0094C20.7994 22.9641 20.6493 22.9047 20.5094 22.8579C20.2672 22.7751 20.1068 22.7157 20.0522 22.6907C20.0164 22.6735 19.9721 22.661 19.9516 22.661C19.9311 22.661 19.8509 22.6235 19.7725 22.5782C19.694 22.5329 19.607 22.4954 19.5814 22.4954C19.5541 22.4954 19.45 22.4579 19.346 22.4126C19.2436 22.3672 19.1413 22.3313 19.1174 22.3313C19.0935 22.3313 19.0253 22.3172 18.9638 22.3001C18.3889 22.1454 18.1774 22.1172 17.5564 22.1188C16.9218 22.1204 16.6881 22.1532 16.3554 22.2922C16.2599 22.3313 16.2207 22.3329 16.1678 22.3032C16.1303 22.2813 16.0706 22.2641 16.0347 22.2641C15.9989 22.2641 15.9392 22.2438 15.9 22.2204C15.7788 22.1422 14.9105 22.0907 14.5318 22.136ZM0.046549 30.5047C0.0107241 30.5251 0.0021939 31.9844 0.010724 37.686L0.0192537 44.8422L7.87857 44.8501L15.7379 44.8594L15.7208 30.4938L7.90587 30.486C3.60687 30.4829 0.0704321 30.4907 0.046549 30.5047ZM16.6557 30.5188C16.6455 30.5422 16.642 33.7735 16.6472 37.7016L16.6574 44.8422L24.4689 44.8501C28.7662 44.8547 32.2959 44.8469 32.3112 44.8329C32.3351 44.811 32.3453 39.2829 32.3402 30.5516V30.4782H24.5065C18.2729 30.4782 16.6693 30.486 16.6557 30.5188ZM6.44728 32.8251C6.25962 32.8407 5.98326 32.8688 5.83484 32.8891C5.68642 32.9094 5.46806 32.9329 5.34865 32.9422C5.22923 32.9501 5.11322 32.9735 5.08763 32.9922C5.05181 33.0188 5.04328 34.0079 5.04328 37.7391V42.4532L6.35686 42.4344L6.3671 40.5251L6.37563 38.6157L6.6554 38.6454C7.27978 38.711 8.26923 38.6641 8.78784 38.5438C8.9175 38.5141 9.0625 38.4813 9.11197 38.4719C9.16145 38.4626 9.28769 38.4188 9.39175 38.3751C9.49752 38.3313 9.60158 38.2938 9.62717 38.2922C9.65105 38.2907 9.71929 38.261 9.779 38.2266C9.83871 38.1922 9.91036 38.1532 9.94107 38.1422C10.0588 38.0938 10.3658 37.8782 10.5654 37.7047C10.8213 37.4797 11.1369 37.0532 11.2205 36.8188C11.2546 36.7235 11.2956 36.636 11.3127 36.6266C11.3314 36.6172 11.3451 36.5532 11.3451 36.486C11.3451 36.4172 11.3638 36.3454 11.386 36.3251C11.4423 36.2719 11.444 34.9751 11.386 34.9219C11.3638 34.9016 11.3451 34.8485 11.3451 34.8047C11.3451 34.7329 11.2854 34.5782 11.1984 34.4282C11.1796 34.3969 11.1642 34.3547 11.1642 34.3344C11.1642 34.3157 11.125 34.2516 11.0755 34.1907C11.0261 34.1313 10.9851 34.0672 10.9851 34.0501C10.9851 33.9954 10.4375 33.5001 10.2601 33.3938C10.0093 33.2422 9.96154 33.2157 9.90524 33.1954C9.74147 33.1376 9.65959 33.1063 9.56917 33.0641C9.51287 33.0391 9.42758 33.0172 9.38151 33.0172C9.33545 33.0172 9.28769 33.0047 9.27745 32.9876C9.26551 32.9719 9.19557 32.9501 9.12221 32.9407C9.04715 32.9313 8.88167 32.9063 8.75202 32.886C8.62407 32.8672 8.41936 32.836 8.29824 32.8188C8.03723 32.7813 6.93347 32.7844 6.44728 32.8251ZM20.6169 32.9594C20.6067 32.9829 20.6033 35.1235 20.6084 37.7172L20.6186 42.4344L21.8674 42.4532L21.8452 39.0954C21.8333 37.2501 21.8145 35.4454 21.8043 35.0876C21.7889 34.6329 21.794 34.436 21.8213 34.436C21.8435 34.436 21.8605 34.4532 21.8605 34.4735C21.8605 34.5188 22.3109 35.3501 22.49 35.6391C22.5583 35.7485 22.647 35.8969 22.6896 35.9704C22.7306 36.0422 22.8125 36.1751 22.8705 36.2657C22.9285 36.3579 22.9865 36.4532 23.0018 36.4813C23.0223 36.5235 23.4027 37.0907 23.5443 37.2907C23.5682 37.3266 23.6143 37.3985 23.6484 37.4532C23.6808 37.5063 23.8992 37.8297 24.1346 38.1719C24.37 38.5126 24.5611 38.8063 24.5611 38.8219C24.5611 38.8376 24.5747 38.8547 24.5901 38.861C24.614 38.8704 25.4772 40.1079 25.5863 40.2907C25.6085 40.3266 25.7006 40.4626 25.7928 40.5907C25.8832 40.7188 25.9855 40.8672 26.0162 40.9204C26.1015 41.061 26.151 41.1297 26.2807 41.3016C26.3455 41.3844 26.3984 41.4657 26.3984 41.4797C26.3984 41.4938 26.4393 41.5532 26.4888 41.6126C26.5383 41.6719 26.5775 41.7297 26.5775 41.7407C26.5775 41.7501 26.6713 41.8891 26.7856 42.0469C26.8982 42.2063 27.004 42.361 27.0176 42.3938C27.0415 42.4454 27.1115 42.4516 27.729 42.4516H28.4148V32.9172L27.7938 32.9266L27.1729 32.9344L27.1626 34.6172C27.149 36.9829 27.236 40.4313 27.3162 40.711C27.3435 40.8001 27.3162 40.8235 27.2428 40.7766C27.2224 40.7626 27.1831 40.6891 27.1558 40.611C27.1285 40.5344 27.0859 40.4547 27.0586 40.4344C27.033 40.4141 27.0108 40.3797 27.0108 40.3579C27.0108 40.3188 26.7669 39.8735 26.5485 39.5157C26.4871 39.4157 26.4052 39.2751 26.3643 39.2016C26.3233 39.1297 26.2431 38.9954 26.1834 38.9047C26.1237 38.8141 26.064 38.7172 26.0504 38.6907C26.035 38.6641 25.9139 38.4813 25.7791 38.286C25.6443 38.0891 25.5335 37.9204 25.5335 37.9094C25.5335 37.8985 25.4942 37.8407 25.4448 37.7813C25.3953 37.7219 25.3543 37.6626 25.3543 37.6485C25.3543 37.636 25.3134 37.5766 25.2639 37.5172C25.2144 37.4579 25.1735 37.3985 25.1735 37.386C25.1735 37.3735 25.1172 37.2907 25.0473 37.2016C24.979 37.1141 24.921 37.0313 24.921 37.0204C24.921 37.0079 24.8818 36.9501 24.8323 36.8907C24.7828 36.8313 24.7419 36.7735 24.7419 36.7626C24.7419 36.7329 24.5474 36.4657 24.5167 36.4532C24.5014 36.4469 24.4894 36.4266 24.4894 36.4063C24.4894 36.3876 24.4485 36.3235 24.399 36.2641C24.3495 36.2047 24.3103 36.1454 24.3103 36.1344C24.3103 36.1235 24.2694 36.0657 24.2199 36.0047C24.1704 35.9454 24.1295 35.8797 24.1295 35.8594C24.1295 35.8376 24.1141 35.8219 24.0936 35.8219C24.0732 35.8219 24.0578 35.8047 24.0578 35.7829C24.0578 35.7626 24.0169 35.6969 23.9674 35.6376C23.9179 35.5766 23.877 35.5172 23.877 35.5047C23.877 35.4922 23.836 35.4329 23.7866 35.3735C23.7371 35.3141 23.6979 35.2563 23.6979 35.2454C23.6979 35.2157 23.5034 34.9485 23.4727 34.936C23.4573 34.9297 23.4454 34.9094 23.4454 34.8891C23.4454 34.8704 23.4044 34.8063 23.355 34.7469C23.3055 34.686 23.2645 34.6282 23.2645 34.6172C23.2645 34.6063 23.2253 34.5469 23.1758 34.4876C23.1264 34.4282 23.0854 34.3688 23.0854 34.3547C23.0854 34.3407 23.0291 34.2563 22.9592 34.1672C22.8892 34.0797 22.8329 33.9985 22.8329 33.9876C22.8329 33.9766 22.7971 33.9219 22.7528 33.8641C22.6589 33.7454 22.6095 33.6719 22.5225 33.5204C22.4883 33.461 22.4457 33.4126 22.4303 33.4126C22.4133 33.4126 22.4013 33.3969 22.4013 33.3782C22.4013 33.3594 22.3604 33.2938 22.3109 33.2344C22.2614 33.1751 22.2205 33.1126 22.2188 33.0969C22.2188 33.0797 22.1881 33.0329 22.1506 32.9922C22.084 32.9204 22.0653 32.9188 21.359 32.9188C20.8114 32.9188 20.6306 32.9282 20.6169 32.9594ZM6.73558 33.8751C6.68611 33.8891 6.58375 33.9032 6.5104 33.9047L6.37392 33.9079L6.38416 35.7751L6.39269 37.6407L6.53769 37.6876C6.70488 37.7407 8.04234 37.7547 8.22659 37.7047L8.55413 37.6157C8.67354 37.5844 8.78614 37.5454 8.8049 37.5297C8.82367 37.5157 8.85949 37.5032 8.88679 37.5032C8.98062 37.5032 9.40199 37.2313 9.57429 37.0579C9.77388 36.8579 10.0127 36.4563 10.0127 36.3204C10.0127 36.2704 10.0315 36.2126 10.0537 36.1922C10.081 36.1672 10.098 36.0172 10.0997 35.7813C10.1031 35.3063 10.0332 35.0516 9.79435 34.6672C9.64594 34.4297 9.02668 34.0063 8.82708 34.0063C8.79467 34.0063 8.73666 33.986 8.69743 33.961C8.65819 33.936 8.55242 33.9047 8.46371 33.8922C8.22829 33.8563 6.84135 33.8422 6.73558 33.8751ZM0.046549 45.6391C0.0107241 45.6532 0.000488281 47.1204 0.000488281 52.8266V59.9985H15.7379L15.7294 52.8157L15.7208 45.6344L7.90587 45.6282C3.60687 45.6251 0.0704321 45.6297 0.046549 45.6391ZM16.6625 45.6391C16.6489 45.6516 16.6386 48.8876 16.6386 52.8297V59.9985H32.3402L32.3487 52.8501C32.3539 48.8172 32.3453 45.6813 32.3266 45.6594C32.3027 45.6266 30.694 45.6172 24.4911 45.6172C20.199 45.6172 16.6762 45.6282 16.6625 45.6391ZM22.3655 47.9469C21.5722 47.9985 20.9666 48.0485 20.7449 48.0829L20.5828 48.1079L20.5726 52.811L20.564 57.5157L20.9052 57.5376C21.0929 57.5485 21.2839 57.5719 21.33 57.5876C21.4426 57.6266 23.923 57.6282 24.0493 57.5891C24.1022 57.5735 24.2847 57.5438 24.4536 57.5266C24.9773 57.4704 25.3919 57.3938 25.542 57.3235C25.5761 57.3079 25.6443 57.2938 25.6938 57.2938C25.7416 57.2938 25.7911 57.2797 25.803 57.2641C25.8132 57.2469 25.8747 57.2219 25.9378 57.2094C26.0026 57.1969 26.0794 57.1751 26.1084 57.161C26.1391 57.1469 26.3011 57.0751 26.47 57.0001C26.7942 56.8579 27.0518 56.7297 27.0825 56.6985C27.0927 56.6876 27.1899 56.6188 27.2991 56.5454C27.5925 56.3469 28.1316 55.8094 28.2852 55.5626C28.3193 55.5079 28.3926 55.3891 28.4506 55.2985C28.6178 55.0329 28.7355 54.7969 28.8123 54.5735C28.8362 54.5001 28.8686 54.411 28.8839 54.3751C29.0853 53.8657 29.2422 52.5735 29.1586 52.0985C29.145 52.0266 29.1194 51.8485 29.1006 51.7032C29.0341 51.2047 29.0221 51.1422 28.971 51.0391C28.942 50.9813 28.9198 50.911 28.9198 50.8829C28.9198 50.8547 28.901 50.7907 28.8788 50.7407L28.8089 50.5813C28.5513 49.9938 28.2698 49.611 27.7614 49.1594C27.4544 48.8876 27.0125 48.586 26.9187 48.586C26.8897 48.586 26.8658 48.5751 26.8658 48.561C26.8658 48.5469 26.8215 48.5172 26.7669 48.4969C26.7123 48.4751 26.5639 48.4157 26.4342 48.3641C26.3063 48.3126 26.1357 48.2532 26.0555 48.2329C25.977 48.2126 25.8252 48.1719 25.7194 48.1438C25.6119 48.1141 25.4908 48.0907 25.4465 48.0907C25.4038 48.0907 25.3526 48.0782 25.3339 48.061C25.3151 48.0454 25.211 48.0235 25.1019 48.0157C24.9927 48.0063 24.6276 47.9766 24.2915 47.9469C23.5801 47.8876 23.2765 47.8876 22.3655 47.9469ZM4.05895 48.0469C4.0453 48.0594 4.03506 49.4219 4.03506 51.0735C4.03506 53.6032 4.0453 54.1438 4.09307 54.4907C4.12377 54.7172 4.15789 54.9688 4.16642 55.0516C4.17666 55.1329 4.20054 55.2141 4.2176 55.2313C4.23637 55.2485 4.25001 55.3001 4.25001 55.3469C4.25172 55.3922 4.2756 55.4735 4.3046 55.5251C4.3336 55.5766 4.35919 55.6407 4.35919 55.6657C4.35919 55.6907 4.37284 55.7376 4.3899 55.7688C4.40696 55.8001 4.46667 55.9157 4.52297 56.0235C4.69356 56.3532 4.90851 56.6391 5.15587 56.8657C5.422 57.1079 5.53289 57.1954 5.57895 57.1954C5.59601 57.1954 5.62842 57.2141 5.6506 57.2391C5.68642 57.2782 6.00032 57.4282 6.17774 57.4907C6.21697 57.5047 6.29715 57.536 6.35686 57.5579C6.89765 57.7672 8.15152 57.7985 9.02156 57.6251C9.1188 57.6063 9.21604 57.5751 9.2348 57.5579C9.25527 57.5391 9.29622 57.5251 9.32863 57.5251C9.36104 57.5251 9.47022 57.4876 9.57429 57.4422C9.67664 57.3969 9.76876 57.3594 9.78071 57.3594C9.79265 57.3594 9.91718 57.2922 10.0571 57.2094C10.3778 57.0188 10.6934 56.7438 10.8879 56.486C11.0926 56.2157 11.1096 56.1876 11.2376 55.9422C11.299 55.8235 11.3638 55.7016 11.3826 55.6704C11.4014 55.6391 11.4167 55.5844 11.4167 55.5485C11.4167 55.5126 11.4321 55.4751 11.4491 55.4657C11.4679 55.4547 11.4935 55.3829 11.5088 55.3063C11.5225 55.2297 11.5464 55.1516 11.5617 55.1329C11.5771 55.1157 11.5975 55.0344 11.6078 54.9516C11.618 54.8704 11.6453 54.6782 11.6658 54.5235C11.6897 54.3438 11.705 53.1297 11.705 51.1422L11.7067 48.0422L10.3727 48.0235L10.3693 51.1501C10.3658 52.8688 10.359 54.3282 10.3505 54.3907C10.3437 54.4547 10.3198 54.5501 10.301 54.6032C10.2806 54.6547 10.2652 54.7469 10.2652 54.8063C10.2652 54.8657 10.2481 54.9251 10.2294 54.936C10.2089 54.9469 10.1918 55.0001 10.1918 55.0532C10.1918 55.1063 10.1782 55.1766 10.1611 55.2079C10.1458 55.2391 10.1065 55.3172 10.0775 55.3813C9.96154 55.6266 9.9206 55.6969 9.84212 55.7969C9.79777 55.8532 9.76024 55.9126 9.76024 55.9297C9.76024 55.9844 9.35081 56.3282 9.1478 56.4438C9.03862 56.5063 8.8049 56.5985 8.62578 56.6501C8.3443 56.7313 8.24365 56.7438 7.85128 56.7438C7.41967 56.7454 7.17913 56.7063 6.94371 56.5969C6.90788 56.5813 6.86353 56.5688 6.84135 56.5688C6.72023 56.5688 6.23574 56.2047 6.03444 55.9626C5.91673 55.8188 5.65572 55.3485 5.65572 55.2782C5.65572 55.2454 5.64036 55.211 5.6233 55.2016C5.60454 55.1922 5.58236 55.136 5.57213 55.0766C5.56189 55.0172 5.52095 54.8282 5.4783 54.6547C5.40494 54.3501 5.40324 54.2641 5.40324 51.1829V48.0251H4.74303C4.37967 48.0251 4.07089 48.036 4.05895 48.0469ZM23.2748 48.8876C23.2594 48.9016 23.0359 48.9188 22.7784 48.9282C22.5208 48.936 22.2342 48.9532 22.1403 48.9657L21.968 48.9891V52.7797C21.968 56.3594 21.9714 56.5719 22.0311 56.5938C22.1352 56.6329 23.9776 56.6204 24.2915 56.5782C24.6191 56.5344 24.9381 56.4641 24.979 56.4282C24.9944 56.4141 25.0439 56.4032 25.0899 56.4032C25.136 56.4032 25.2025 56.3907 25.2366 56.3751C25.2725 56.3579 25.4738 56.2672 25.687 56.1719C25.9361 56.0594 26.1698 55.9251 26.337 55.7938C26.5997 55.5891 27.0091 55.1844 27.0108 55.1297C27.0125 55.1141 27.0449 55.0641 27.0842 55.0188C27.1797 54.9063 27.4424 54.4001 27.4424 54.3235C27.4424 54.2907 27.4595 54.2547 27.4782 54.2422C27.4987 54.2313 27.5141 54.1813 27.5141 54.1329C27.5141 54.0829 27.5311 54.0266 27.5516 54.0079C27.6403 53.9266 27.729 53.2126 27.729 52.5766C27.729 51.9829 27.6505 51.3579 27.5584 51.2016C27.5345 51.1626 27.5141 51.1001 27.5141 51.0626C27.5141 51.0251 27.4987 50.9938 27.4782 50.9938C27.4595 50.9938 27.4424 50.9657 27.4424 50.9297C27.4424 50.861 27.2189 50.4516 27.1353 50.3657C27.1063 50.336 27.0825 50.2969 27.0825 50.2766C27.0825 50.2563 26.9409 50.1063 26.7669 49.9438C26.4632 49.6579 26.076 49.4047 25.7314 49.2672C25.6529 49.236 25.5591 49.1954 25.5249 49.1782C25.4908 49.161 25.4311 49.1469 25.3919 49.1469C25.3543 49.1469 25.3117 49.1313 25.2997 49.1141C25.2878 49.0954 25.2366 49.0813 25.1872 49.0813C25.1377 49.0813 25.0643 49.0657 25.0251 49.0454C24.9125 48.9907 24.6174 48.9485 24.1295 48.9172C23.9162 48.9047 23.703 48.8907 23.4897 48.8766C23.3857 48.8688 23.2884 48.8735 23.2748 48.8876Z" fill="white"/>
</g>
</svg>
