<svg width="120" height="120" viewBox="0 0 120 120" fill="none" xmlns="http://www.w3.org/2000/svg">
<path d="M108.75 60C108.75 33.0773 86.9227 11.25 60 11.25C33.0773 11.25 11.25 33.0773 11.25 60C11.25 86.9227 33.0773 108.75 60 108.75C86.9227 108.75 108.75 86.9227 108.75 60Z" stroke="#1FB4FF" stroke-width="2" stroke-miterlimit="10"/>
<mask id="path-2-inside-1_39956_493" fill="white">
<path d="M104.431 40.3453C100.667 40.3687 101.038 47.3133 96.3477 44.0367C94.6063 42.8226 93.5352 41.0578 91.3485 40.5211C89.4384 40.0523 87.4813 40.5398 85.5946 40.8656C83.4501 41.2359 80.9071 41.4023 79.2805 43.0265C77.7079 44.5898 76.8759 46.6875 75.2024 48.2601C71.9657 51.307 70.5993 54.6328 72.6946 58.9406C74.7102 63.082 78.9266 65.3297 83.4759 65.0344C87.9454 64.7367 92.5884 62.1445 92.4594 68.639C92.4126 70.9359 92.893 72.5297 93.5985 74.6648C94.2524 76.6336 94.2079 78.5414 94.3579 80.5734C94.6344 84.3703 95.3329 88.6265 97.2173 91.9805L100.733 87.0211C101.166 86.407 102.074 85.5469 102.289 84.8226C102.671 83.5406 101.919 81.3375 101.832 79.9008C101.745 78.464 101.788 77.0086 101.567 75.5719C101.258 73.5586 100.067 71.6719 99.9032 69.682C99.6009 65.9765 100.278 63.0187 97.4235 59.9203C94.6673 56.932 90.6266 56.2148 86.7665 56.8219C84.8212 57.1265 76.9907 58.3781 80.1337 53.932C80.7548 53.0578 81.8399 52.3406 82.5384 51.5086C83.1454 50.7844 83.6727 49.4531 84.3852 48.8883C85.0977 48.3234 88.3696 47.6742 89.3071 47.9625C90.2446 48.2508 91.2219 49.6031 92.0352 50.2031C93.5379 51.3349 95.2914 52.0874 97.1469 52.3969C100.349 52.8656 107.042 51.0047 106.991 46.8984C106.981 44.9297 105.153 42.1875 104.431 40.3453ZM67.372 74.1328C66.1227 68.8734 58.9766 67.1156 55.1235 64.2633C52.9087 62.6226 50.9376 60.089 48.029 59.8828C46.6884 59.7867 45.5657 60.0773 44.2368 59.7328C43.018 59.4187 42.0618 58.7625 40.7634 58.9336C38.3376 59.2523 36.8071 61.8445 34.2009 61.493C31.7282 61.1601 29.1805 58.268 28.618 55.9125C27.8962 52.8844 30.2915 51.9023 32.8579 51.6328C33.929 51.5203 35.1313 51.3984 36.1602 51.7898C37.5149 52.2937 38.1548 53.6203 39.3712 54.2906C41.6516 55.5398 42.1134 53.5429 41.7641 51.518C41.2415 48.4851 40.6321 47.2476 43.3368 45.1617C45.2118 43.7226 46.8149 42.682 46.5149 40.0969C46.3368 38.5781 45.5048 37.8914 46.2805 36.3797C46.8688 35.2289 48.4837 34.1906 49.536 33.5039C52.2524 31.732 61.1727 31.8633 57.5282 26.9039C56.4571 25.4484 54.4813 22.8469 52.6063 22.4906C50.2626 22.0476 49.2219 24.6633 47.5884 25.8164C45.9009 27.0094 42.6149 28.364 40.9251 26.5195C38.6516 24.0375 42.4321 23.2219 43.2688 21.4898C44.1055 19.7578 41.3305 16.4836 39.8446 15.6539L32.8579 23.489C32.6572 24.8012 32.727 26.1406 33.0632 27.4247C33.3994 28.7089 33.9947 29.9107 34.8126 30.9562C36.2024 32.7445 38.4149 33.3187 38.5157 35.7609C38.6141 38.1047 38.2485 39.3047 36.7157 40.9523C36.0524 41.6555 35.5837 42.6539 34.9087 43.3125C34.0813 44.1164 34.3884 43.8703 33.097 44.0906C30.6688 44.5008 28.6016 45.1336 26.2555 45.7805C22.3462 46.8609 21.9852 40.4742 20.204 37.9687L14.3446 42.7008C14.2813 43.4765 15.3055 44.9039 15.5844 45.7476C17.1852 50.5687 20.4149 54.2976 22.5009 58.9101C24.6969 63.7945 30.5938 62.4398 33.1977 66.7195C35.5087 70.5164 33.0407 75.3234 34.7704 79.2984C36.0266 82.1836 38.9891 82.814 41.0329 84.9234C43.1212 87.0539 43.0766 89.9695 43.3954 92.7422C43.7549 96.0034 44.3383 99.236 45.1415 102.417C45.4251 103.516 45.6852 104.97 46.4376 105.877C46.9532 106.5 48.7227 107.037 48.0079 107.243C49.0063 107.407 50.7852 108.34 51.6173 107.655C52.7141 106.755 52.4212 103.985 52.611 102.734C53.1805 99.007 55.0462 95.3625 57.5634 92.5734C60.0501 89.8219 63.4579 87.9586 65.5579 84.839C67.604 81.7969 68.2204 77.6929 67.372 74.1328ZM59.5462 80.3015C58.1399 82.8117 55.0087 84.4922 52.9954 86.4867C52.4493 87.0281 51.2868 88.9031 50.6024 88.4976C50.1126 88.207 49.9462 85.7742 49.7657 85.2164C48.8347 82.4075 47.0573 79.9555 44.6774 78.1969C43.9438 77.6414 42.1251 76.9195 41.7055 76.1578C41.2368 75.3305 41.6587 73.3781 41.6751 72.4781C41.7009 71.1656 41.1032 68.9836 41.4266 67.7906C41.8016 66.4148 41.0798 67.2445 42.3102 66.9726C42.9594 66.8273 45.6407 67.2984 46.4493 67.4672C47.7337 67.7344 48.4415 68.5336 49.454 69.3422C52.1165 71.4773 55.0485 73.1297 58.0321 74.7656C60.343 76.0453 61.0227 77.6648 59.5462 80.3015ZM43.2337 15.7242C44.3446 16.8094 45.3899 18.0937 47.0469 18.2015C48.6149 18.307 50.0938 17.4586 51.4626 18.525C52.9813 19.6969 54.0759 21.1805 56.0915 21.5461C58.0415 21.9 60.1063 20.7609 60.5891 18.7664C61.0579 16.8656 60.0477 14.7984 59.9868 12.8906C59.9868 12.6258 60.1298 11.4492 59.9469 11.25C59.811 11.1 58.6766 11.2687 58.5032 11.2734C57.2329 11.3109 55.9657 11.3984 54.7016 11.5359C50.0934 12.0347 45.5804 13.191 41.3001 14.9695C41.8696 15.3633 42.5844 15.5203 43.2337 15.7242ZM83.5321 28.8914C85.5219 28.8914 87.5423 28.0008 86.9001 25.6992C86.361 23.7703 85.4423 21.6773 83.2063 22.718C81.7837 23.3789 79.768 25.0617 79.6016 26.7305C79.4118 28.6242 82.2055 28.8914 83.5321 28.8914ZM81.943 38.9625C83.9751 40.1789 86.9891 39.607 88.5219 37.8703C89.7196 36.5109 90.4251 34.1508 92.579 34.1531C93.5272 34.1511 94.4382 34.5224 95.1149 35.1867C96.0055 36.1078 95.8298 36.9726 96.0196 38.1258C96.4438 40.7156 99.2212 38.2734 99.9454 37.2703C100.414 36.6164 101.049 35.6461 100.836 34.7953C100.639 34.0008 99.711 33.1547 99.2985 32.4258C98.0938 30.3164 97.1024 27.8625 95.2977 26.1586C93.561 24.518 91.4258 24.7078 89.7782 26.4117C88.4282 27.818 86.8602 28.9312 85.9368 30.6422C85.2852 31.8445 84.5516 32.4187 83.2321 32.7304C82.5055 32.9015 81.6759 32.9648 81.0665 33.4523C79.3696 34.7883 80.3352 37.9969 81.943 38.9625Z"/>
</mask>
<path d="M104.431 40.3453C100.667 40.3687 101.038 47.3133 96.3477 44.0367C94.6063 42.8226 93.5352 41.0578 91.3485 40.5211C89.4384 40.0523 87.4813 40.5398 85.5946 40.8656C83.4501 41.2359 80.9071 41.4023 79.2805 43.0265C77.7079 44.5898 76.8759 46.6875 75.2024 48.2601C71.9657 51.307 70.5993 54.6328 72.6946 58.9406C74.7102 63.082 78.9266 65.3297 83.4759 65.0344C87.9454 64.7367 92.5884 62.1445 92.4594 68.639C92.4126 70.9359 92.893 72.5297 93.5985 74.6648C94.2524 76.6336 94.2079 78.5414 94.3579 80.5734C94.6344 84.3703 95.3329 88.6265 97.2173 91.9805L100.733 87.0211C101.166 86.407 102.074 85.5469 102.289 84.8226C102.671 83.5406 101.919 81.3375 101.832 79.9008C101.745 78.464 101.788 77.0086 101.567 75.5719C101.258 73.5586 100.067 71.6719 99.9032 69.682C99.6009 65.9765 100.278 63.0187 97.4235 59.9203C94.6673 56.932 90.6266 56.2148 86.7665 56.8219C84.8212 57.1265 76.9907 58.3781 80.1337 53.932C80.7548 53.0578 81.8399 52.3406 82.5384 51.5086C83.1454 50.7844 83.6727 49.4531 84.3852 48.8883C85.0977 48.3234 88.3696 47.6742 89.3071 47.9625C90.2446 48.2508 91.2219 49.6031 92.0352 50.2031C93.5379 51.3349 95.2914 52.0874 97.1469 52.3969C100.349 52.8656 107.042 51.0047 106.991 46.8984C106.981 44.9297 105.153 42.1875 104.431 40.3453ZM67.372 74.1328C66.1227 68.8734 58.9766 67.1156 55.1235 64.2633C52.9087 62.6226 50.9376 60.089 48.029 59.8828C46.6884 59.7867 45.5657 60.0773 44.2368 59.7328C43.018 59.4187 42.0618 58.7625 40.7634 58.9336C38.3376 59.2523 36.8071 61.8445 34.2009 61.493C31.7282 61.1601 29.1805 58.268 28.618 55.9125C27.8962 52.8844 30.2915 51.9023 32.8579 51.6328C33.929 51.5203 35.1313 51.3984 36.1602 51.7898C37.5149 52.2937 38.1548 53.6203 39.3712 54.2906C41.6516 55.5398 42.1134 53.5429 41.7641 51.518C41.2415 48.4851 40.6321 47.2476 43.3368 45.1617C45.2118 43.7226 46.8149 42.682 46.5149 40.0969C46.3368 38.5781 45.5048 37.8914 46.2805 36.3797C46.8688 35.2289 48.4837 34.1906 49.536 33.5039C52.2524 31.732 61.1727 31.8633 57.5282 26.9039C56.4571 25.4484 54.4813 22.8469 52.6063 22.4906C50.2626 22.0476 49.2219 24.6633 47.5884 25.8164C45.9009 27.0094 42.6149 28.364 40.9251 26.5195C38.6516 24.0375 42.4321 23.2219 43.2688 21.4898C44.1055 19.7578 41.3305 16.4836 39.8446 15.6539L32.8579 23.489C32.6572 24.8012 32.727 26.1406 33.0632 27.4247C33.3994 28.7089 33.9947 29.9107 34.8126 30.9562C36.2024 32.7445 38.4149 33.3187 38.5157 35.7609C38.6141 38.1047 38.2485 39.3047 36.7157 40.9523C36.0524 41.6555 35.5837 42.6539 34.9087 43.3125C34.0813 44.1164 34.3884 43.8703 33.097 44.0906C30.6688 44.5008 28.6016 45.1336 26.2555 45.7805C22.3462 46.8609 21.9852 40.4742 20.204 37.9687L14.3446 42.7008C14.2813 43.4765 15.3055 44.9039 15.5844 45.7476C17.1852 50.5687 20.4149 54.2976 22.5009 58.9101C24.6969 63.7945 30.5938 62.4398 33.1977 66.7195C35.5087 70.5164 33.0407 75.3234 34.7704 79.2984C36.0266 82.1836 38.9891 82.814 41.0329 84.9234C43.1212 87.0539 43.0766 89.9695 43.3954 92.7422C43.7549 96.0034 44.3383 99.236 45.1415 102.417C45.4251 103.516 45.6852 104.97 46.4376 105.877C46.9532 106.5 48.7227 107.037 48.0079 107.243C49.0063 107.407 50.7852 108.34 51.6173 107.655C52.7141 106.755 52.4212 103.985 52.611 102.734C53.1805 99.007 55.0462 95.3625 57.5634 92.5734C60.0501 89.8219 63.4579 87.9586 65.5579 84.839C67.604 81.7969 68.2204 77.6929 67.372 74.1328ZM59.5462 80.3015C58.1399 82.8117 55.0087 84.4922 52.9954 86.4867C52.4493 87.0281 51.2868 88.9031 50.6024 88.4976C50.1126 88.207 49.9462 85.7742 49.7657 85.2164C48.8347 82.4075 47.0573 79.9555 44.6774 78.1969C43.9438 77.6414 42.1251 76.9195 41.7055 76.1578C41.2368 75.3305 41.6587 73.3781 41.6751 72.4781C41.7009 71.1656 41.1032 68.9836 41.4266 67.7906C41.8016 66.4148 41.0798 67.2445 42.3102 66.9726C42.9594 66.8273 45.6407 67.2984 46.4493 67.4672C47.7337 67.7344 48.4415 68.5336 49.454 69.3422C52.1165 71.4773 55.0485 73.1297 58.0321 74.7656C60.343 76.0453 61.0227 77.6648 59.5462 80.3015ZM43.2337 15.7242C44.3446 16.8094 45.3899 18.0937 47.0469 18.2015C48.6149 18.307 50.0938 17.4586 51.4626 18.525C52.9813 19.6969 54.0759 21.1805 56.0915 21.5461C58.0415 21.9 60.1063 20.7609 60.5891 18.7664C61.0579 16.8656 60.0477 14.7984 59.9868 12.8906C59.9868 12.6258 60.1298 11.4492 59.9469 11.25C59.811 11.1 58.6766 11.2687 58.5032 11.2734C57.2329 11.3109 55.9657 11.3984 54.7016 11.5359C50.0934 12.0347 45.5804 13.191 41.3001 14.9695C41.8696 15.3633 42.5844 15.5203 43.2337 15.7242ZM83.5321 28.8914C85.5219 28.8914 87.5423 28.0008 86.9001 25.6992C86.361 23.7703 85.4423 21.6773 83.2063 22.718C81.7837 23.3789 79.768 25.0617 79.6016 26.7305C79.4118 28.6242 82.2055 28.8914 83.5321 28.8914ZM81.943 38.9625C83.9751 40.1789 86.9891 39.607 88.5219 37.8703C89.7196 36.5109 90.4251 34.1508 92.579 34.1531C93.5272 34.1511 94.4382 34.5224 95.1149 35.1867C96.0055 36.1078 95.8298 36.9726 96.0196 38.1258C96.4438 40.7156 99.2212 38.2734 99.9454 37.2703C100.414 36.6164 101.049 35.6461 100.836 34.7953C100.639 34.0008 99.711 33.1547 99.2985 32.4258C98.0938 30.3164 97.1024 27.8625 95.2977 26.1586C93.561 24.518 91.4258 24.7078 89.7782 26.4117C88.4282 27.818 86.8602 28.9312 85.9368 30.6422C85.2852 31.8445 84.5516 32.4187 83.2321 32.7304C82.5055 32.9015 81.6759 32.9648 81.0665 33.4523C79.3696 34.7883 80.3352 37.9969 81.943 38.9625Z" stroke="#1FB4FF" stroke-width="4" mask="url(#path-2-inside-1_39956_493)"/>
</svg>
