<svg width="120" height="120" viewBox="0 0 120 120" fill="none" xmlns="http://www.w3.org/2000/svg">
<path d="M94.2193 39.375C93.5326 48.907 86.4615 56.25 78.7506 56.25C71.0396 56.25 63.9568 48.9094 63.2818 39.375C62.5787 29.4586 69.4623 22.5 78.7506 22.5C88.0389 22.5 94.9224 29.6391 94.2193 39.375Z" stroke="#1FB4FF" stroke-width="2" stroke-linecap="round" stroke-linejoin="round"/>
<path d="M78.7491 71.25C63.4749 71.25 48.7866 78.8367 45.1069 93.6117C44.6194 95.5664 45.8452 97.5 47.8538 97.5H109.647C111.655 97.5 112.874 95.5664 112.394 93.6117C108.714 78.6 94.0256 71.25 78.7491 71.25Z" stroke="#1FB4FF" stroke-width="2" stroke-miterlimit="10"/>
<path d="M46.8748 43.5797C46.3264 51.1922 40.6123 57.1875 34.4529 57.1875C28.2935 57.1875 22.5701 51.1945 22.031 43.5797C21.4709 35.6602 27.0326 30 34.4529 30C41.8732 30 47.435 35.8055 46.8748 43.5797Z" stroke="#1FB4FF" stroke-width="2" stroke-linecap="round" stroke-linejoin="round"/>
<path d="M48.2816 71.7188C44.0511 69.7805 39.3917 69.0352 34.4535 69.0352C22.266 69.0352 10.5238 75.0938 7.58237 86.8945C7.19565 88.4555 8.17534 90 9.77847 90H36.0941" stroke="#1FB4FF" stroke-width="2" stroke-miterlimit="10" stroke-linecap="round"/>
</svg>
