<svg width="64" height="64" viewBox="0 0 64 64" fill="none" xmlns="http://www.w3.org/2000/svg">
<path d="M42.75 55.5H48.5C50.3565 55.5 52.137 54.7625 53.4497 53.4497C54.7625 52.137 55.5 50.3565 55.5 48.5V42.75M55.5 21.25V15.5C55.5 13.6435 54.7625 11.863 53.4497 10.5503C52.137 9.2375 50.3565 8.5 48.5 8.5H42.75M21.25 55.5H15.5C13.6435 55.5 11.863 54.7625 10.5503 53.4497C9.2375 52.137 8.5 50.3565 8.5 48.5V42.75M8.5 21.25V15.5C8.5 13.6435 9.2375 11.863 10.5503 10.5503C11.863 9.2375 13.6435 8.5 15.5 8.5H21.25" stroke="#1681E5" stroke-width="3" stroke-linecap="round" stroke-linejoin="round"/>
</svg>
