<svg width="64" height="64" viewBox="0 0 64 64" fill="none" xmlns="http://www.w3.org/2000/svg">
<path d="M56 32C56 18.75 45.25 8 32 8C18.75 8 8 18.75 8 32C8 45.25 18.75 56 32 56C45.25 56 56 45.25 56 32Z" stroke="#1681E5" stroke-width="3" stroke-miterlimit="10"/>
<path d="M43.9776 33.9837V31.9837C43.9694 29.5544 43.2252 27.1847 41.8432 25.1869C40.4612 23.189 38.5062 21.6569 36.2359 20.7924C33.9657 19.9279 31.4868 19.7717 29.126 20.3443C26.7651 20.9169 24.6332 22.1914 23.0113 23.9999M19.9863 30.0212V32.0212C19.9948 34.4532 20.7404 36.8255 22.1247 38.8251C23.5089 40.8247 25.4669 42.3577 27.7402 43.2218C30.0135 44.0859 32.4954 44.2406 34.8584 43.6654C37.2214 43.0902 39.3545 41.8122 40.9763 39.9999" stroke="#1681E5" stroke-width="3" stroke-linecap="round" stroke-linejoin="round"/>
<path d="M16.9839 32L19.9326 29.05L23.0164 32M47.0164 32L44.0676 34.9501L40.9839 32" stroke="#1681E5" stroke-width="3" stroke-linecap="round" stroke-linejoin="round"/>
</svg>
