<svg width="107" height="71" viewBox="0 0 107 71" fill="none" xmlns="http://www.w3.org/2000/svg">
<path d="M4.77308 69.8184L34.4663 11.0456V10.5684H0.000355244V0.000175476H47.5572V10.807L17.8981 69.8184H4.77308ZM81.8952 70.7729C77.3498 70.7729 73.2816 69.9206 69.6907 68.2161C66.0998 66.4888 63.2475 64.1252 61.1339 61.1252C59.043 58.1252 57.9293 54.6934 57.793 50.8297H70.0657C70.293 53.6934 71.5316 56.0343 73.7816 57.8524C76.0316 59.6479 78.7362 60.5456 81.8952 60.5456C84.3725 60.5456 86.5771 59.9774 88.5089 58.8411C90.4407 57.7047 91.9634 56.1252 93.0771 54.1024C94.1907 52.0797 94.7362 49.7729 94.7134 47.182C94.7362 44.5456 94.1793 42.2047 93.043 40.1593C91.9066 38.1138 90.3498 36.5115 88.3725 35.3524C86.3952 34.1706 84.1225 33.5797 81.5543 33.5797C79.4634 33.557 77.4066 33.9434 75.3839 34.7388C73.3612 35.5343 71.7589 36.5797 70.5771 37.8752L59.1566 36.0002L62.8043 0.000175476H103.304V10.5684H73.2702L71.2589 29.0797H71.668C72.9634 27.557 74.793 26.2956 77.1566 25.2956C79.5202 24.2729 82.1112 23.7615 84.9293 23.7615C89.1566 23.7615 92.9293 24.7615 96.2475 26.7615C99.5657 28.7388 102.179 31.4661 104.088 34.9434C105.998 38.4206 106.952 42.3979 106.952 46.8752C106.952 51.4888 105.884 55.6024 103.748 59.2161C101.634 62.807 98.6907 65.6365 94.918 67.7047C91.168 69.7502 86.8271 70.7729 81.8952 70.7729Z" fill="#1681E5"/>
</svg>
