<svg width="195" height="74" viewBox="0 0 195 74" fill="none" xmlns="http://www.w3.org/2000/svg">
<path d="M26.0115 72.7158C20.9433 72.7158 16.4433 71.8635 12.5115 70.159C8.60241 68.4544 5.53422 66.1249 3.30695 63.1703C1.10241 60.193 0.011497 56.818 0.0342243 53.0453C0.011497 50.1135 0.647861 47.4203 1.94332 44.9658C3.23877 42.5112 4.98877 40.4658 7.19332 38.8294C9.42059 37.1703 11.8979 36.1135 14.6251 35.659V35.1817C11.0342 34.3862 8.12513 32.5567 5.89786 29.693C3.69332 26.8067 2.60241 23.4771 2.62513 19.7044C2.60241 16.1135 3.60241 12.909 5.62513 10.0908C7.64786 7.27259 10.4206 5.05668 13.9433 3.44305C17.466 1.80668 21.4888 0.988501 26.0115 0.988501C30.4888 0.988501 34.4774 1.80668 37.9774 3.44305C41.5001 5.05668 44.2729 7.27259 46.2956 10.0908C48.341 12.909 49.3638 16.1135 49.3638 19.7044C49.3638 23.4771 48.2388 26.8067 45.9888 29.693C43.7615 32.5567 40.8865 34.3862 37.3638 35.1817V35.659C40.091 36.1135 42.5456 37.1703 44.7274 38.8294C46.932 40.4658 48.682 42.5112 49.9774 44.9658C51.2956 47.4203 51.9547 50.1135 51.9547 53.0453C51.9547 56.818 50.841 60.193 48.6138 63.1703C46.3865 66.1249 43.3183 68.4544 39.4092 70.159C35.5229 71.8635 31.057 72.7158 26.0115 72.7158ZM26.0115 62.9658C28.6251 62.9658 30.8979 62.5226 32.8297 61.6362C34.7615 60.7271 36.2615 59.4544 37.3297 57.818C38.3979 56.1817 38.9433 54.2953 38.966 52.159C38.9433 49.9317 38.3638 47.9658 37.2274 46.2612C36.1138 44.534 34.5797 43.1817 32.6251 42.2044C30.6933 41.2271 28.4888 40.7385 26.0115 40.7385C23.5115 40.7385 21.2842 41.2271 19.3297 42.2044C17.3751 43.1817 15.8297 44.534 14.6933 46.2612C13.5797 47.9658 13.0342 49.9317 13.057 52.159C13.0342 54.2953 13.557 56.1817 14.6251 57.818C15.6933 59.4317 17.1933 60.693 19.1251 61.6021C21.0797 62.5112 23.3751 62.9658 26.0115 62.9658ZM26.0115 31.159C28.1479 31.159 30.0342 30.7271 31.6706 29.8635C33.3297 28.9999 34.6365 27.7953 35.591 26.2499C36.5456 24.7044 37.0342 22.9203 37.057 20.8976C37.0342 18.8976 36.557 17.1476 35.6251 15.6476C34.6933 14.1249 33.3979 12.9544 31.7388 12.1362C30.0797 11.2953 28.1706 10.8749 26.0115 10.8749C23.807 10.8749 21.8638 11.2953 20.182 12.1362C18.5229 12.9544 17.2274 14.1249 16.2956 15.6476C15.3865 17.1476 14.9433 18.8976 14.966 20.8976C14.9433 22.9203 15.3979 24.7044 16.3297 26.2499C17.2842 27.7726 18.591 28.9771 20.2501 29.8635C21.932 30.7271 23.8524 31.159 26.0115 31.159ZM88.9689 73.0908C83.3552 73.0908 78.5371 71.6703 74.5143 68.8294C70.5143 65.9658 67.4348 61.8408 65.2757 56.4544C63.1393 51.0453 62.0712 44.534 62.0712 36.9203C62.0939 29.3067 63.1734 22.8294 65.3098 17.4885C67.4689 12.1249 70.5484 8.03396 74.5484 5.21578C78.5712 2.39759 83.378 0.988501 88.9689 0.988501C94.5598 0.988501 99.3666 2.39759 103.389 5.21578C107.412 8.03396 110.492 12.1249 112.628 17.4885C114.787 22.8521 115.867 29.3294 115.867 36.9203C115.867 44.5567 114.787 51.0794 112.628 56.4885C110.492 61.8749 107.412 65.9885 103.389 68.8294C99.3893 71.6703 94.5825 73.0908 88.9689 73.0908ZM88.9689 62.4203C93.3325 62.4203 96.7757 60.2726 99.2984 55.9771C101.844 51.659 103.117 45.3067 103.117 36.9203C103.117 31.3749 102.537 26.7158 101.378 22.943C100.219 19.1703 98.5825 16.3294 96.4689 14.4203C94.3552 12.4885 91.8552 11.5226 88.9689 11.5226C84.628 11.5226 81.1962 13.6817 78.6734 17.9999C76.1507 22.2953 74.878 28.6021 74.8552 36.9203C74.8325 42.4885 75.3893 47.1703 76.5257 50.9658C77.6848 54.7612 79.3212 57.6249 81.4348 59.5567C83.5484 61.4658 86.0598 62.4203 88.9689 62.4203ZM164.523 58.6703V54.9885C164.523 52.284 165.091 49.7953 166.227 47.5226C167.386 45.2499 169.068 43.4203 171.273 42.034C173.477 40.6476 176.148 39.9544 179.284 39.9544C182.511 39.9544 185.216 40.6476 187.398 42.034C189.58 43.3976 191.227 45.2158 192.341 47.4885C193.477 49.7612 194.046 52.2612 194.046 54.9885V58.6703C194.046 61.3749 193.477 63.8635 192.341 66.1362C191.205 68.409 189.534 70.2385 187.33 71.6249C185.148 73.0112 182.466 73.7044 179.284 73.7044C176.102 73.7044 173.409 73.0112 171.205 71.6249C169 70.2385 167.33 68.409 166.193 66.1362C165.08 63.8635 164.523 61.3749 164.523 58.6703ZM173.421 54.9885V58.6703C173.421 60.4658 173.852 62.1135 174.716 63.6135C175.58 65.1135 177.102 65.8635 179.284 65.8635C181.489 65.8635 183 65.1249 183.818 63.6476C184.659 62.1476 185.08 60.4885 185.08 58.6703V54.9885C185.08 53.1703 184.682 51.5112 183.886 50.0112C183.091 48.4885 181.557 47.7271 179.284 47.7271C177.148 47.7271 175.636 48.4885 174.75 50.0112C173.864 51.5112 173.421 53.1703 173.421 54.9885ZM129.034 18.7158V15.034C129.034 12.3067 129.614 9.80668 130.773 7.53395C131.932 5.26123 133.614 3.44304 135.818 2.07941C138.023 0.693045 140.693 -0.000137329 143.83 -0.000137329C147.034 -0.000137329 149.727 0.693045 151.909 2.07941C154.114 3.44304 155.773 5.26123 156.886 7.53395C158 9.80668 158.557 12.3067 158.557 15.034V18.7158C158.557 21.443 157.989 23.943 156.852 26.2158C155.739 28.4658 154.08 30.2726 151.875 31.6362C149.671 32.9999 146.989 33.6817 143.83 33.6817C140.625 33.6817 137.921 32.9999 135.716 31.6362C133.534 30.2726 131.875 28.4544 130.739 26.1817C129.602 23.909 129.034 21.4203 129.034 18.7158ZM138 15.034V18.7158C138 20.534 138.421 22.193 139.261 23.693C140.125 25.1703 141.648 25.909 143.83 25.909C146.011 25.909 147.511 25.1703 148.33 23.693C149.171 22.193 149.591 20.534 149.591 18.7158V15.034C149.591 13.2158 149.193 11.5567 148.398 10.0567C147.602 8.53396 146.08 7.77259 143.83 7.77259C141.671 7.77259 140.159 8.53396 139.296 10.0567C138.432 11.5794 138 13.2385 138 15.034ZM132.921 71.7612L180.921 1.94305H189.443L141.443 71.7612H132.921Z" fill="#1681E5"/>
</svg>
