<svg width="100" height="100" viewBox="0 0 100 100" fill="none" xmlns="http://www.w3.org/2000/svg">
<path d="M80.9355 19.0644C76.8802 14.969 72.0557 11.7152 66.7392 9.49001C61.4226 7.26479 55.7188 6.11197 49.9553 6.09779C44.1919 6.0836 38.4825 7.20833 33.155 9.40735C27.8276 11.6064 22.9871 14.8364 18.9117 18.9117C14.8364 22.9871 11.6064 27.8276 9.40735 33.155C7.20833 38.4825 6.0836 44.1919 6.09779 49.9553C6.11197 55.7188 7.26479 61.4226 9.49001 66.7392C11.7152 72.0557 14.969 76.8802 19.0644 80.9355C23.1197 85.0309 27.9441 88.2846 33.2607 90.5099C38.5773 92.7351 44.2811 93.8879 50.0445 93.9021C55.808 93.9163 61.5174 92.7915 66.8449 90.5925C72.1723 88.3935 77.0128 85.1635 81.0881 81.0881C85.1635 77.0128 88.3935 72.1723 90.5925 66.8449C92.7915 61.5174 93.9163 55.808 93.9021 50.0445C93.8879 44.2811 92.7351 38.5773 90.5099 33.2607C88.2846 27.9441 85.0309 23.1197 80.9355 19.0644ZM37.5253 50.8163C37.3596 48.28 37.971 45.7533 39.278 43.5734C40.5851 41.3934 42.5256 39.6637 44.841 38.6149C47.1563 37.5661 49.7363 37.248 52.237 37.7032C54.7377 38.1583 57.0402 39.365 58.8376 41.1623C60.6349 42.9596 61.8415 45.2622 62.2967 47.7629C62.7518 50.2636 62.4338 52.8436 61.385 55.1589C60.3362 57.4742 58.6065 59.4148 56.4265 60.7219C54.2465 62.0289 51.7199 62.6403 49.1835 62.4745C46.1576 62.2739 43.3074 60.9812 41.1631 58.8368C39.0187 56.6924 37.726 53.8423 37.5253 50.8163ZM84.4003 37.8007L65.5781 38.9413C65.4493 38.9481 65.3207 38.9234 65.2037 38.8693C65.0866 38.8152 64.9845 38.7333 64.9062 38.6308C63.8923 37.3023 62.7053 36.1154 61.3769 35.1015C61.2744 35.0232 61.1925 34.9211 61.1384 34.804C61.0843 34.6869 61.0596 34.5584 61.0663 34.4296L62.207 15.6074C62.2139 15.4847 62.2498 15.3654 62.3115 15.2591C62.3732 15.1529 62.4592 15.0627 62.5623 14.9959C62.6654 14.9292 62.7829 14.8876 62.9051 14.8748C63.0273 14.8619 63.1508 14.878 63.2656 14.9218C68.2347 16.8147 72.7472 19.7374 76.5065 23.4981C80.2658 27.2588 83.187 31.7723 85.0781 36.7421C85.1219 36.8569 85.138 36.9804 85.1251 37.1026C85.1122 37.2248 85.0707 37.3423 85.0039 37.4454C84.9371 37.5485 84.847 37.6345 84.7407 37.6962C84.6345 37.7579 84.5152 37.7937 84.3925 37.8007H84.4003ZM37.8007 15.6074L38.9413 34.4296C38.9481 34.5584 38.9234 34.6869 38.8693 34.804C38.8152 34.9211 38.7333 35.0232 38.6308 35.1015C37.3023 36.1154 36.1154 37.3023 35.1015 38.6308C35.0232 38.7333 34.9211 38.8152 34.804 38.8693C34.6869 38.9234 34.5584 38.9481 34.4296 38.9413L15.6074 37.8007C15.4847 37.7937 15.3654 37.7579 15.2591 37.6962C15.1529 37.6345 15.0627 37.5485 14.9959 37.4454C14.9292 37.3423 14.8876 37.2248 14.8748 37.1026C14.8619 36.9804 14.878 36.8569 14.9218 36.7421C16.8137 31.7715 19.7361 27.2576 23.4968 23.4968C27.2576 19.7361 31.7715 16.8137 36.7421 14.9218C36.8569 14.878 36.9804 14.8619 37.1026 14.8748C37.2248 14.8876 37.3423 14.9292 37.4454 14.9959C37.5485 15.0627 37.6345 15.1529 37.6962 15.2591C37.7579 15.3654 37.7937 15.4847 37.8007 15.6074ZM15.6074 62.1992L34.4296 61.0585C34.5584 61.0517 34.6869 61.0765 34.804 61.1306C34.9211 61.1847 35.0232 61.2666 35.1015 61.3691C36.1154 62.6975 37.3023 63.8845 38.6308 64.8984C38.7333 64.9767 38.8152 65.0788 38.8693 65.1959C38.9234 65.3129 38.9481 65.4414 38.9413 65.5702L37.8007 84.3925C37.7937 84.5152 37.7579 84.6345 37.6962 84.7407C37.6345 84.847 37.5485 84.9371 37.4454 85.0039C37.3423 85.0707 37.2248 85.1122 37.1026 85.1251C36.9804 85.138 36.8569 85.1219 36.7421 85.0781C31.7715 83.1861 27.2576 80.2638 23.4968 76.503C19.7361 72.7423 16.8137 68.2283 14.9218 63.2577C14.878 63.143 14.8619 63.0194 14.8748 62.8972C14.8876 62.7751 14.9292 62.6576 14.9959 62.5545C15.0627 62.4513 15.1529 62.3654 15.2591 62.3037C15.3654 62.2419 15.4847 62.2061 15.6074 62.1992ZM62.1992 84.3925L61.0585 65.5702C61.0517 65.4414 61.0765 65.3129 61.1306 65.1959C61.1847 65.0788 61.2666 64.9767 61.3691 64.8984C62.6975 63.8845 63.8845 62.6975 64.8984 61.3691C64.9767 61.2666 65.0788 61.1847 65.1959 61.1306C65.3129 61.0765 65.4414 61.0517 65.5702 61.0585L84.3925 62.1992C84.5152 62.2061 84.6345 62.2419 84.7407 62.3037C84.847 62.3654 84.9371 62.4513 85.0039 62.5545C85.0707 62.6576 85.1122 62.7751 85.1251 62.8972C85.138 63.0194 85.1219 63.143 85.0781 63.2577C83.1861 68.2283 80.2638 72.7423 76.503 76.503C72.7423 80.2638 68.2283 83.1861 63.2577 85.0781C63.143 85.1219 63.0194 85.138 62.8972 85.1251C62.7751 85.1122 62.6576 85.0707 62.5545 85.0039C62.4513 84.9371 62.3654 84.847 62.3037 84.7407C62.2419 84.6345 62.2061 84.5152 62.1992 84.3925Z" fill="#1681E5"/>
</svg>
