<svg width="100" height="100" viewBox="0 0 100 100" fill="none" xmlns="http://www.w3.org/2000/svg">
<path d="M31.5135 47.2655C31.7948 46.9666 32.1323 46.7261 32.5066 46.5577C32.8809 46.3893 33.2847 46.2963 33.6949 46.2839C34.1052 46.2716 34.5139 46.3402 34.8976 46.4858C35.2813 46.6315 35.6326 46.8513 35.9314 47.1327C50.3123 60.6796 64.742 68.9218 81.7225 73.1229C84.0135 66.8729 84.2166 59.994 82.2381 53.2831C79.6131 44.3788 73.4998 36.621 64.5642 30.8495C56.5877 25.6971 48.615 24.3553 40.9021 23.0585C31.1717 21.4217 21.9803 19.8749 13.2088 10.5878C12.2322 9.56042 10.9021 9.14831 9.63065 9.48229C8.17752 9.87292 7.20291 11.0214 6.73612 12.9198C5.64237 17.3632 6.34549 29.8163 9.42166 42.9628C14.3611 64.0839 22.2439 74.7714 27.9881 80.0194C35.4099 86.7948 45.1014 90.5468 54.7322 90.5468C56.5476 90.5497 58.3606 90.4165 60.156 90.1483C68.3025 88.9139 75.0838 84.8221 78.906 78.869C61.4275 74.3221 46.4959 65.6757 31.6404 51.6893C31.3411 51.4075 31.1003 51.0694 30.9319 50.6943C30.7635 50.3193 30.6707 49.9147 30.6589 49.5038C30.6471 49.0928 30.7165 48.6836 30.8632 48.2995C31.0098 47.9154 31.2308 47.564 31.5135 47.2655ZM91.2947 75.037C88.0076 74.5311 84.824 73.8964 81.7244 73.1288C81.0871 74.8685 80.2942 76.5472 79.3553 78.1444C79.2127 78.3885 79.0623 78.6307 78.908 78.869C82.678 79.8449 86.4955 80.6272 90.3455 81.2128C90.7552 81.2848 91.1751 81.2743 91.5806 81.1819C91.9862 81.0895 92.3692 80.917 92.7073 80.6747C93.0453 80.4323 93.3316 80.1249 93.5493 79.7705C93.767 79.4161 93.9117 79.0217 93.975 78.6106C94.0383 78.1995 94.019 77.7799 93.918 77.3764C93.817 76.9729 93.6365 76.5936 93.3871 76.2608C93.1376 75.9279 92.8242 75.6483 92.4653 75.4381C92.1063 75.228 91.709 75.0916 91.2967 75.037H91.2947Z" fill="#1681E5"/>
</svg>
