<svg width="100" height="100" viewBox="0 0 100 100" fill="none" xmlns="http://www.w3.org/2000/svg">
<path d="M50 75C53.4518 75 56.25 72.2018 56.25 68.75C56.25 65.2982 53.4518 62.5 50 62.5C46.5482 62.5 43.75 65.2982 43.75 68.75C43.75 72.2018 46.5482 75 50 75Z" fill="#1681E5"/>
<path d="M19.4885 6.25C17.7472 6.24966 16.0403 6.73425 14.559 7.64945C13.0777 8.56466 11.8806 9.87431 11.1017 11.4316L5.04704 23.541C4.45539 24.7318 4.12237 26.0343 4.06985 27.3629C4.01734 28.6915 4.24653 30.0162 4.74235 31.25H59.0783C59.2106 31.2501 59.3407 31.2167 59.4565 31.1528C59.5723 31.0889 59.67 30.9967 59.7404 30.8848L74.4865 7.44727C74.5607 7.32928 74.602 7.19358 74.6061 7.05425C74.6103 6.91492 74.577 6.77702 74.5098 6.65487C74.4427 6.53272 74.3441 6.43076 74.2242 6.35957C74.1044 6.28838 73.9677 6.25055 73.8283 6.25H19.4885Z" fill="#1681E5"/>
<path d="M94.9552 23.5469L88.9006 11.4375C88.2768 10.1796 87.3767 9.07901 86.2677 8.21792C85.1587 7.35684 83.8695 6.75754 82.4963 6.46484L66.8947 31.25L58.2033 45.1328C52.8902 43.2873 47.1101 43.2873 41.797 45.1328L37.2424 37.8672C37.1722 37.7549 37.0746 37.6623 36.9587 37.598C36.8429 37.5338 36.7127 37.5001 36.5802 37.5H9.98845C9.84831 37.5002 9.71083 37.5382 9.59039 37.6098C9.46995 37.6814 9.37099 37.7841 9.30389 37.9071C9.23679 38.0302 9.20401 38.169 9.20899 38.309C9.21397 38.4491 9.25652 38.5852 9.3322 38.7031L25.4845 63.8457C24.7568 67.4734 24.8435 71.2175 25.7381 74.8077C26.6328 78.3979 28.3132 81.7448 30.6582 84.6068C33.0031 87.4688 35.9541 89.7747 39.2983 91.358C42.6424 92.9413 46.2963 93.7626 49.9963 93.7626C53.6963 93.7626 57.3501 92.9413 60.6943 91.358C64.0384 89.7747 66.9894 87.4688 69.3343 84.6068C71.6793 81.7448 73.3597 78.3979 74.2544 74.8077C75.1491 71.2175 75.2357 67.4734 74.508 63.8457L94.4572 32.8125C95.333 31.4425 95.8392 29.869 95.9265 28.2453C96.0138 26.6216 95.6792 25.0029 94.9552 23.5469ZM50.8146 81.2246C48.2782 81.3904 45.7516 80.779 43.5716 79.4719C41.3917 78.1649 39.6619 76.2243 38.6131 73.909C37.5644 71.5937 37.2463 69.0136 37.7015 66.5129C38.1566 64.0122 39.3633 61.7097 41.1606 59.9124C42.9579 58.1151 45.2604 56.9084 47.7611 56.4533C50.2618 55.9981 52.8419 56.3161 55.1572 57.3649C57.4725 58.4137 59.4131 60.1434 60.7201 62.3234C62.0272 64.5034 62.6386 67.03 62.4728 69.5664C62.2718 72.5919 60.9792 75.4416 58.8354 77.5858C56.6915 79.73 53.842 81.0231 50.8166 81.2246H50.8146Z" fill="#1681E5"/>
</svg>
