<svg width="100" height="100" viewBox="0 0 100 100" fill="none" xmlns="http://www.w3.org/2000/svg">
<path d="M52.539 65.549C51.7148 65.6102 50.8827 65.6408 50.0429 65.6408C49.0214 65.6408 48.0116 65.5939 47.0136 65.506C42.0762 65.0683 37.2918 63.5687 32.9879 61.1098C28.6841 58.651 24.9625 55.291 22.078 51.2599C22.0021 51.1516 21.8998 51.0642 21.7809 51.0062C21.6619 50.9482 21.5302 50.9213 21.398 50.9282C21.2658 50.935 21.1376 50.9753 21.0252 51.0453C20.9129 51.1153 20.8202 51.2126 20.7558 51.3283L6.69328 76.6017C6.15813 77.5783 6.07414 78.7502 6.6386 79.7033C6.93243 80.1759 7.34176 80.5659 7.828 80.8365C8.31425 81.1071 8.86141 81.2495 9.41789 81.2502H24.6523C25.1829 81.2305 25.7092 81.3529 26.1769 81.6045C26.6445 81.8562 27.0365 82.2281 27.3124 82.6818L34.8632 95.3127C35.1395 95.7813 35.5316 96.1712 36.0019 96.4448C36.4721 96.7184 37.0048 96.8666 37.5488 96.8752C38.7089 96.8107 39.9101 96.0568 40.3925 95.0002L53.3046 66.6505C53.3604 66.5274 53.3832 66.3919 53.3709 66.2573C53.3586 66.1226 53.3116 65.9935 53.2344 65.8825C53.1572 65.7715 53.0526 65.6824 52.9307 65.6239C52.8088 65.5655 52.6739 65.5397 52.539 65.549ZM93.289 76.5392L79.3183 51.3107C79.2537 51.1962 79.1614 51.0998 79.0497 51.0305C78.938 50.9612 78.8106 50.9212 78.6794 50.9142C78.5481 50.9072 78.4172 50.9334 78.2988 50.9904C78.1804 51.0474 78.0783 51.1334 78.0019 51.2404C74.1598 56.6235 68.8504 60.7877 62.707 63.2365C61.9526 63.5338 61.3424 64.1111 61.0038 64.8478L53.8046 80.6877C53.7119 80.8899 53.6639 81.1097 53.6639 81.3322C53.6639 81.5546 53.7119 81.7745 53.8046 81.9767L59.7167 94.9826C60.1952 96.0392 61.3945 96.8107 62.5527 96.8752C63.0971 96.8617 63.6289 96.7089 64.0974 96.4312C64.5659 96.1536 64.9553 95.7604 65.2284 95.2892L72.7538 82.6759C73.3183 81.7287 74.3417 81.2443 75.4452 81.2502H90.83C92.1327 81.2502 93.1191 80.5705 93.5644 79.297C93.7209 78.8448 93.7773 78.364 93.7298 77.8879C93.6822 77.4117 93.5318 76.9516 93.289 76.5392Z" fill="#1681E5"/>
<path d="M50.0508 40.625C55.2295 40.625 59.4277 36.4277 59.4277 31.25C59.4277 26.0723 55.2295 21.875 50.0508 21.875C44.872 21.875 40.6738 26.0723 40.6738 31.25C40.6738 36.4277 44.872 40.625 50.0508 40.625Z" fill="#1681E5"/>
<path d="M50.0508 3.125C34.5391 3.125 21.9258 15.7402 21.9258 31.25C21.9258 46.7598 34.5449 59.375 50.0508 59.375C65.5566 59.375 78.1758 46.7578 78.1758 31.25C78.1758 15.7422 65.5605 3.125 50.0508 3.125ZM50.0508 46.875C46.9604 46.875 43.9395 45.9586 41.37 44.2417C38.8005 42.5248 36.7978 40.0845 35.6152 37.2294C34.4325 34.3743 34.1231 31.2327 34.726 28.2017C35.3289 25.1708 36.817 22.3867 39.0022 20.2015C41.1874 18.0163 43.9715 16.5281 47.0025 15.9252C50.0334 15.3223 53.1751 15.6318 56.0302 16.8144C58.8853 17.997 61.3256 19.9997 63.0425 22.5692C64.7594 25.1387 65.6758 28.1597 65.6758 31.25C65.6706 35.3924 64.0228 39.3637 61.0936 42.2928C58.1645 45.222 54.1932 46.8698 50.0508 46.875Z" fill="#1681E5"/>
</svg>
